<?xml version="1.0" encoding="utf-8"?>
<!-- Generator: Adobe Illustrator 26.5.2, SVG Export Plug-In . SVG Version: 6.00 Build 0)  -->
<svg version="1.1" id="Layer_1" xmlns:lucid="lucid"
	 xmlns="http://www.w3.org/2000/svg" xmlns:xlink="http://www.w3.org/1999/xlink" x="0px" y="0px" width="1760px" height="700px"
	 viewBox="0 0 1760 700" style="enable-background:new 0 0 1760 700;" xml:space="preserve">
<style type="text/css">
	.st0{fill:#FFFFFF;}
	.st1{fill:none;stroke:#3A414A;}
	.st2{fill:none;}
	.st3{fill:#FFFFFF;stroke:#3A414A;}
	.st4{fill:#3A414A;stroke:#3A414A;stroke-width:5.000000e-02;}
	.st5{fill:#3A414A;stroke:#3A414A;}
	.st6{fill:#FFFFFF;fill-opacity:0;stroke:#000000;stroke-opacity:0;}
	.st7{fill:none;stroke:#3A414A;stroke-width:3;}
	.st8{fill:#3A414A;stroke:#3A414A;stroke-width:3;}
	.st9{enable-background:new    ;}
	.st10{fill:#3A414A;}
</style>
<path class="st0" d="M-1686.9-100h3677.7v1322.8h-3677.7V-100z"/>
<path class="st0" d="M340,326c0-3.3,2.7-6,6-6h1388c3.3,0,6,2.7,6,6v348c0,3.3-2.7,6-6,6H346c-3.3,0-6-2.7-6-6V326z"/>
<path class="st1" d="M365.2,320.1h20.1 M395.4,320.1h20.1 M425.6,320.1h20.1 M455.8,320.1h20.1 M486,320.1h20.1 M516.2,320.1h20.1
	 M546.4,320.1h20.1 M576.5,320.1h20.1 M606.7,320.1h20.1 M636.9,320.1h20.1 M667.1,320.1h20.1 M697.3,320.1l20.1,0 M727.5,320.1
	h20.1 M757.7,320.1h20.1 M787.9,320.1H808 M818.1,320.1h20.1 M848.3,320.1h20.1 M878.5,320.1h20.1 M908.7,320.1h20.1 M938.9,320.1
	H959 M969.1,320.1h20.1 M999.3,320.1h20.1 M1029.5,320.1h20.1 M1059.7,320.1l20.1,0 M1089.8,320h20.1 M1120.1,320h20.1 M1150.2,320
	h20.1 M1180.4,320h20.1 M1210.6,320h20.1 M1240.8,320h20.1 M1271,320h20.1 M1301.2,320h20.1 M1331.4,320h20.1 M1361.6,320h20.1
	 M1391.8,320h20.1 M1422,320h20.1 M1452.2,320l20.1,0 M1482.4,320h20.1 M1512.6,320h20.1 M1542.8,320h20.1 M1573,320h20.1
	 M1603.2,320h20.1 M1633.3,320h20.1 M1663.5,320h20.1 M1693.7,320h20.1 M1723.9,320h10.1l0.9,0.1l0.9,0.2l0.9,0.4l0.8,0.5l0.7,0.6
	l0.6,0.7l0.5,0.8l0.4,0.9l0.2,0.9v9.7 M1739.9,344.5v19.4 M1739.9,373.5v19.4 M1739.9,402.6l0,19.4 M1740,431.7v19.4 M1740,460.8
	v19.4 M1740,489.9l0,19.4 M1740,518.9v19.4 M1740,548v19.4 M1740,577.1v19.4 M1740,606.2v19.4 M1740,635.3v19.4 M1740,664.3v9.7
	l-0.1,0.9l-0.2,0.9l-0.3,0.9l-0.5,0.8l-0.6,0.7l-0.7,0.6l-0.8,0.5l-0.9,0.4l-0.9,0.2h-10.1 M1714.8,680h-20.1 M1684.6,680h-20.1
	 M1654.5,680h-20.1 M1624.3,680h-20.1 M1594.1,680h-20.1 M1563.9,680h-20.1 M1533.7,680h-20.1 M1503.5,680h-20.1 M1473.3,680h-20.1
	 M1443.1,680H1423 M1412.9,680h-20.1 M1382.7,680l-20.1,0 M1352.5,680h-20.1 M1322.3,680h-20.1 M1292.1,680H1272 M1261.9,680h-20.1
	 M1231.7,680h-20.1 M1201.5,680h-20.1 M1171.3,680h-20.1 M1141.2,680H1121 M1110.9,680h-20.1 M1080.7,680h-20.1 M1050.5,680h-20.1
	 M1020.3,680l-20.1,0 M990.2,680H970 M960,680h-20.1 M929.8,680h-20.1 M899.6,680h-20.1 M869.4,680h-20.1 M839.2,680H819 M809,680
	h-20.1 M778.8,680h-20.1 M748.6,680h-20.1 M718.4,680h-20.1 M688.2,680h-20.1 M658,680h-20.1 M627.8,680l-20.1,0 M597.7,680h-20.2
	 M567.4,680h-20.1 M537.2,680h-20.1 M507,680h-20.1 M476.8,680h-20.1 M446.7,680h-20.1 M416.5,680h-20.1 M386.3,680h-20.1
	 M356.1,680H346l-0.9-0.1l-0.9-0.2l-0.9-0.3l-0.8-0.5l-0.7-0.6l-0.6-0.7l-0.5-0.8l-0.4-0.9l-0.2-0.9v-9.7 M340.1,655.6v-19.4
	 M340.1,626.5v-19.4 M340.1,597.4l0-19.4 M340,568.3v-19.4 M340,539.2v-19.4 M340,510.2l0-19.4 M340,481.1v-19.4 M340,452v-19.4
	 M340,422.9v-19.4 M340,393.8v-19.4 M340,364.8v-19.4 M340,335.7V326l0.1-0.9l0.2-0.9l0.4-0.9l0.5-0.8l0.6-0.7l0.7-0.6l0.8-0.5
	l0.9-0.4l0.9-0.2h10.1"/>
<path class="st0" d="M340,26c0-3.3,2.7-6,6-6h1388c3.3,0,6,2.7,6,6v188c0,3.3-2.7,6-6,6H346c-3.3,0-6-2.7-6-6V26z"/>
<path class="st1" d="M365.2,20.1h20.1 M395.4,20.1h20.1 M425.6,20.1h20.1 M455.8,20.1h20.1 M486,20.1h20.1 M516.2,20.1h20.1
	 M546.4,20.1h20.1 M576.5,20.1h20.1 M606.7,20.1h20.1 M636.9,20.1h20.1 M667.1,20.1h20.1 M697.3,20.1l20.1,0 M727.5,20.1h20.1
	 M757.7,20.1h20.1 M787.9,20.1H808 M818.1,20.1h20.1 M848.3,20.1h20.1 M878.5,20.1h20.1 M908.7,20.1h20.1 M938.9,20.1H959
	 M969.1,20.1h20.1 M999.3,20.1h20.1 M1029.5,20.1h20.1 M1059.7,20.1l20.1,0 M1089.8,20h20.1 M1120.1,20h20.1 M1150.2,20h20.1
	 M1180.4,20h20.1 M1210.6,20h20.1 M1240.8,20h20.1 M1271,20h20.1 M1301.2,20h20.1 M1331.4,20h20.1 M1361.6,20h20.1 M1391.8,20h20.1
	 M1422,20h20.1 M1452.2,20l20.1,0 M1482.4,20h20.1 M1512.6,20h20.1 M1542.8,20h20.1 M1573,20h20.1 M1603.2,20h20.1 M1633.3,20h20.1
	 M1663.5,20h20.1 M1693.7,20h20.1 M1723.9,20h10.1l0.9,0.1l0.9,0.2l0.9,0.3l0.8,0.5l0.7,0.6l0.6,0.7l0.5,0.8l0.4,0.9l0.2,0.9v10.5
	 M1739.9,46.1v21 M1740,77.6v21 M1740,109l0,21 M1740,140.5v21 M1740,172l0,21 M1740,203.5V214l-0.1,0.9l-0.2,0.9l-0.3,0.9l-0.5,0.8
	l-0.6,0.7l-0.7,0.6l-0.8,0.5l-0.9,0.4l-0.9,0.2h-10.1 M1714.8,219.9h-20.1 M1684.6,219.9h-20.1 M1654.5,219.9h-20.1 M1624.3,219.9
	h-20.1 M1594.1,219.9h-20.1 M1563.9,219.9h-20.1 M1533.7,219.9h-20.1 M1503.5,219.9h-20.1 M1473.3,219.9h-20.1 M1443.1,219.9H1423
	 M1412.9,219.9h-20.1 M1382.7,219.9l-20.1,0 M1352.5,220h-20.1 M1322.3,220h-20.1 M1292.1,220H1272 M1261.9,220h-20.1 M1231.7,220
	h-20.1 M1201.5,220h-20.1 M1171.3,220h-20.1 M1141.2,220H1121 M1110.9,220h-20.1 M1080.7,220h-20.1 M1050.5,220h-20.1 M1020.3,220
	l-20.1,0 M990.2,220H970 M960,220h-20.1 M929.8,220h-20.1 M899.6,220h-20.1 M869.4,220h-20.1 M839.2,220H819 M809,220h-20.1
	 M778.8,220h-20.1 M748.6,220h-20.1 M718.4,220h-20.1 M688.2,220h-20.1 M658,220h-20.1 M627.8,220l-20.1,0 M597.7,220h-20.2
	 M567.4,220h-20.1 M537.2,220h-20.1 M507,220h-20.1 M476.8,220h-20.1 M446.7,220h-20.1 M416.5,220h-20.1 M386.3,220h-20.1
	 M356.1,220H346l-0.9-0.1l-0.9-0.2l-0.9-0.4l-0.8-0.5l-0.7-0.6l-0.6-0.7l-0.5-0.8l-0.4-0.9l-0.2-0.9v-10.5 M340.1,194v-21
	 M340,162.5v-21 M340,131l0-21 M340,99.5v-21 M340,68l0-21 M340,36.5V26l0.1-0.9l0.2-0.9l0.4-0.9l0.5-0.8l0.6-0.7l0.7-0.6l0.8-0.5
	l0.9-0.4l0.9-0.2h10.1"/>
<path class="st2" d="M20,260h240v60H20V260z"/>
<path class="st3" d="M420,86c0-3.3,2.7-6,6-6h188c3.3,0,6,2.7,6,6v108c0,3.3-2.7,6-6,6H426c-3.3,0-6-2.7-6-6V86z"/>
<path class="st3" d="M930,86c0-3.3,2.7-6,6-6h188c3.3,0,6,2.7,6,6v108c0,3.3-2.7,6-6,6H936c-3.3,0-6-2.7-6-6V86z"/>
<path class="st3" d="M1440,86c0-3.3,2.7-6,6-6h188c3.3,0,6,2.7,6,6v108c0,3.3-2.7,6-6,6h-188c-3.3,0-6-2.7-6-6V86z"/>
<path class="st3" d="M420,346c0-3.3,2.7-6,6-6h188c3.3,0,6,2.7,6,6v108c0,3.3-2.7,6-6,6H426c-3.3,0-6-2.7-6-6V346z"/>
<path class="st3" d="M740,346c0-3.3,2.7-6,6-6h188c3.3,0,6,2.7,6,6v108c0,3.3-2.7,6-6,6H746c-3.3,0-6-2.7-6-6V346z"/>
<path class="st3" d="M1080,346c0-3.3,2.7-6,6-6h188c3.3,0,6,2.7,6,6v108c0,3.3-2.7,6-6,6h-188c-3.3,0-6-2.7-6-6V346z"/>
<path class="st3" d="M1160,526c0-3.3,2.7-6,6-6h188c3.3,0,6,2.7,6,6v108c0,3.3-2.7,6-6,6h-188c-3.3,0-6-2.7-6-6V526z"/>
<path class="st3" d="M1500,526c0-3.3,2.7-6,6-6h188c3.3,0,6,2.7,6,6v108c0,3.3-2.7,6-6,6h-188c-3.3,0-6-2.7-6-6V526z"/>
<path class="st1" d="M621,140h292.2"/>
<path class="st4" d="M621,140.5h-0.5v-1h0.5V140.5z"/>
<path class="st5" d="M927.9,140l-14.3,4.6v-9.3L927.9,140z"/>
<path class="st1" d="M1131,140h292.2"/>
<path class="st4" d="M1131,140.5h-0.5v-1h0.5V140.5z"/>
<path class="st5" d="M1437.9,140l-14.3,4.6v-9.3L1437.9,140z"/>
<path class="st1" d="M621,400h102.2"/>
<path class="st4" d="M621,400.5h-0.5v-1h0.5V400.5z"/>
<path class="st5" d="M737.9,400l-14.3,4.6v-9.3L737.9,400z"/>
<path class="st1" d="M941,400h122.2"/>
<path class="st4" d="M941,400.5h-0.5v-1h0.5V400.5z"/>
<path class="st5" d="M1077.9,400l-14.3,4.6v-9.3L1077.9,400z"/>
<path class="st1" d="M1361,580h122.2"/>
<path class="st4" d="M1361,580.5h-0.5v-1h0.5V580.5z"/>
<path class="st5" d="M1497.9,580l-14.3,4.6v-9.3L1497.9,580z"/>
<path class="st6" d="M100,64.3c0-3.3,2.7-6,6-6h228c3.3,0,6,2.7,6,6v51.3c0,3.3-2.7,6-6,6H106c-3.3,0-6-2.7-6-6V64.3z"/>
<path class="st6" d="M100,431c0-3.3,2.7-6,6-6h228c3.3,0,6,2.7,6,6v78c0,3.3-2.7,6-6,6H106c-3.3,0-6-2.7-6-6V431z"/>
<path class="st7" d="M220,123.1v15.6 M220,154.4v31.3 M220,201.3v31.2 M220,248.2v31.2 M220,295v31.2 M220,341.9v31.3 M220,388.8
	v15.6"/>
<path class="st4" d="M221.5,123.2h-3v-1.5h3V123.2z"/>
<path class="st8" d="M220,420.2l-4.6-14.3h9.3L220,420.2z"/>
<path class="st1" d="M1180,461v42.2"/>
<path class="st4" d="M1180.5,461h-1v-0.5h1V461z"/>
<path class="st5" d="M1180,518l-4.6-14.3h9.3L1180,518z"/>
<g transform="translate(-0.5 -0.5)">
	<g class="st9">
		<path class="st10" d="M143.1,81.7h-3.5l5.6-15.8h3.8l5.6,15.8h-3.6l-1-3.3h-5.8L143.1,81.7z M145.1,75.7h4l-2-6.2h0L145.1,75.7z"
			/>
		<path class="st10" d="M173.3,81.7h-3.1v-7.1c0-1.7-0.8-2.3-1.7-2.3c-1.5,0-2.1,1-2.1,2.4v7h-3.1v-7c0-1,0-2.4-1.8-2.4
			c-1.5,0-1.9,1-1.9,2.3v7.1h-3.1V70h2.9v1.7h0c0.4-0.8,1.3-2,3.3-2c1.7,0,2.5,0.6,3.3,1.9c0.4-0.6,1.3-1.9,3.1-1.9
			c2.3,0,4.1,1.3,4.1,3.9V81.7z"/>
		<path class="st10" d="M192.8,81.7h-3.1v-7.1c0-1.7-0.8-2.3-1.7-2.3c-1.5,0-2.1,1-2.1,2.4v7h-3.1v-7c0-1,0-2.4-1.8-2.4
			c-1.5,0-1.9,1-1.9,2.3v7.1h-3.1V70h2.9v1.7h0c0.4-0.8,1.3-2,3.3-2c1.7,0,2.5,0.6,3.3,1.9c0.4-0.6,1.3-1.9,3.1-1.9
			c2.3,0,4.1,1.3,4.1,3.9V81.7z"/>
		<path class="st10" d="M198.8,68.6h-3.1v-2.9h3.1V68.6z M198.8,70v11.7h-3.1V70H198.8z"/>
		<path class="st10" d="M212.3,81.7h-3.1v-7.1c0-0.9,0-2.3-2-2.3c-1.4,0-2.4,0.9-2.4,2.7v6.7h-3.1V70h2.9v1.7h0c0.4-0.7,1.3-2,3.5-2
			c2.3,0,4.1,1.3,4.1,3.9V81.7z"/>
		<path class="st10" d="M218.4,68.6h-3.1v-2.9h3.1V68.6z M218.4,70v11.7h-3.1V70H218.4z"/>
		<path class="st10" d="M227.9,73.6c-0.1-0.7-0.4-1.5-2.1-1.5s-1.9,0.6-1.9,1.1c0,1.8,7.3,0.5,7.3,4.8c0,3.4-3.3,4-5.1,4
			c-2.7,0-5.5-0.9-5.6-4h3.2c0,1,0.6,1.7,2.6,1.7c1.6,0,2-0.8,2-1.2c0-2-7.3-0.5-7.3-4.9c0-1.7,1.1-3.9,4.7-3.9c2.3,0,5,0.6,5.3,3.9
			H227.9z"/>
		<path class="st10" d="M237,70h1.9v2.2H237v6.4c0,0.7,0,0.9,1.3,0.9c0.2,0,0.4,0,0.6,0v2.3c-0.5,0-1,0-1.5,0h-0.4
			c-2.7,0-3.1-1-3.1-2.5v-7.1h-1.6V70h1.6v-3.2h3.1V70z"/>
		<path class="st10" d="M240.9,70h2.9v2h0c0.6-1.2,1.3-2.3,3.2-2.3c0.2,0,0.4,0,0.6,0v3.1c-0.3,0-0.6,0-0.9,0
			c-2.4,0-2.8,1.5-2.8,2.8v6.1h-3.1V70z"/>
		<path class="st10" d="M258.9,79.4c0,1.4,0.3,1.7,0.7,1.8v0.5h-3.3c-0.2-0.5-0.2-0.7-0.3-1.4c-0.7,0.7-1.7,1.7-3.8,1.7
			c-1.8,0-3.6-1-3.6-3.4c0-2.3,1.5-3.5,3.4-3.7l2.8-0.4c0.5-0.1,1.1-0.3,1.1-0.9c0-1.3-1.2-1.4-2-1.4c-1.5,0-1.8,0.9-1.9,1.6h-3
			c0.4-3.6,2.8-4.1,5.2-4.1c1.6,0,4.7,0.5,4.7,3.4V79.4z M255.9,76c-0.3,0.2-0.8,0.4-2.1,0.6c-1.1,0.2-2.1,0.5-2.1,1.8
			c0,1.1,0.8,1.4,1.4,1.4c1.4,0,2.8-0.9,2.8-2.3V76z"/>
		<path class="st10" d="M265.1,70h1.9v2.2h-1.9v6.4c0,0.7,0,0.9,1.3,0.9c0.2,0,0.4,0,0.6,0v2.3c-0.5,0-1,0-1.5,0h-0.4
			c-2.7,0-3.1-1-3.1-2.5v-7.1h-1.6V70h1.6v-3.2h3.1V70z"/>
		<path class="st10" d="M274.3,82c-3.1,0-6-1.9-6-6.2s2.8-6.2,6-6.2s6,1.9,6,6.2S277.4,82,274.3,82z M274.3,72.3
			c-2.4,0-2.8,2.1-2.8,3.6s0.4,3.6,2.8,3.6s2.8-2.1,2.8-3.6S276.7,72.3,274.3,72.3z"/>
		<path class="st10" d="M282.4,70h2.9v2h0c0.6-1.2,1.3-2.3,3.2-2.3c0.2,0,0.4,0,0.6,0v3.1c-0.3,0-0.6,0-0.9,0
			c-2.4,0-2.8,1.5-2.8,2.8v6.1h-3.1V70z"/>
		<path class="st10" d="M301,78.3c-0.8,2.8-3.1,3.7-5.1,3.7c-3.3,0-5.8-1.6-5.8-6.4c0-1.4,0.5-5.9,5.6-5.9c2.3,0,5.5,1.1,5.5,6.4
			v0.5h-8c0.1,0.9,0.3,2.9,2.8,2.9c0.9,0,1.7-0.4,2-1.3H301z M298,74.7c-0.2-1.9-1.4-2.5-2.4-2.5c-1.5,0-2.2,0.9-2.4,2.5H298z"/>
		<path class="st10" d="M139.1,108.1h-3v-1.5h0c-0.7,1.3-2.1,1.8-3.4,1.8c-3.5,0-4.9-3.1-4.9-6.3c0-4,2.3-6,4.9-6
			c2,0,2.9,1.1,3.4,1.8h0v-5.6h3.1V108.1z M133.4,105.9c2,0,2.7-1.6,2.7-3.4c0-1.9-0.5-3.8-2.6-3.8c-2,0-2.6,1.7-2.6,3.6
			C130.9,103.7,131.5,105.9,133.4,105.9z"/>
		<path class="st10" d="M145,95h-3.1v-2.9h3.1V95z M145,96.4v11.7h-3.1V96.4H145z"/>
		<path class="st10" d="M156.6,108.1h-3.5l5.6-15.8h3.8l5.6,15.8h-3.6l-1-3.3h-5.8L156.6,108.1z M158.6,102.1h4l-2-6.2h0
			L158.6,102.1z"/>
		<path class="st10" d="M180.7,108.1h-3v-1.5h0c-0.7,1.3-2.1,1.8-3.4,1.8c-3.5,0-4.9-3.1-4.9-6.3c0-4,2.3-6,4.9-6
			c2,0,2.9,1.1,3.4,1.8h0v-5.6h3.1V108.1z M175,105.9c2,0,2.7-1.6,2.7-3.4c0-1.9-0.5-3.8-2.6-3.8c-2,0-2.6,1.7-2.6,3.6
			C172.5,103.7,173,105.9,175,105.9z"/>
		<path class="st10" d="M200.2,108.1h-3.1V101c0-1.7-0.8-2.3-1.7-2.3c-1.5,0-2.1,1-2.1,2.4v7h-3.1v-7c0-1,0-2.4-1.8-2.4
			c-1.5,0-1.9,1-1.9,2.3v7.1h-3.1V96.4h2.9v1.7h0c0.4-0.8,1.3-2,3.3-2c1.7,0,2.5,0.6,3.3,1.9c0.4-0.6,1.3-1.9,3.1-1.9
			c2.3,0,4.1,1.3,4.1,3.9V108.1z"/>
		<path class="st10" d="M206.1,95h-3.1v-2.9h3.1V95z M206.1,96.4v11.7h-3.1V96.4H206.1z"/>
		<path class="st10" d="M219.7,108.1h-3.1V101c0-0.9,0-2.3-2-2.3c-1.4,0-2.4,0.9-2.4,2.7v6.7h-3.1V96.4h2.9v1.7h0
			c0.4-0.7,1.3-2,3.5-2c2.3,0,4.1,1.3,4.1,3.9V108.1z"/>
		<path class="st10" d="M239,97.5c-0.3-0.9-0.8-2.7-3.5-2.7c-1.6,0-3.9,1.1-3.9,5.5c0,2.8,1.1,5.4,3.9,5.4c1.8,0,3.1-1,3.5-3h3.3
			c-0.7,3.4-2.9,5.8-6.9,5.8c-4.2,0-7.2-2.8-7.2-8.3c0-5.5,3.2-8.3,7.3-8.3c4.7,0,6.6,3.3,6.8,5.6H239z"/>
		<path class="st10" d="M249.8,108.4c-3.1,0-6-1.9-6-6.2s2.8-6.2,6-6.2s6,1.9,6,6.2S253,108.4,249.8,108.4z M249.8,98.7
			c-2.4,0-2.8,2.1-2.8,3.6s0.4,3.6,2.8,3.6s2.8-2.1,2.8-3.6S252.2,98.7,249.8,98.7z"/>
		<path class="st10" d="M268.6,108.1h-3.1V101c0-0.9,0-2.3-2-2.3c-1.4,0-2.4,0.9-2.4,2.7v6.7H258V96.4h2.9v1.7h0
			c0.4-0.7,1.3-2,3.5-2c2.3,0,4.1,1.3,4.1,3.9V108.1z"/>
		<path class="st10" d="M278,100c-0.1-0.7-0.4-1.5-2.1-1.5s-1.9,0.6-1.9,1.1c0,1.8,7.3,0.5,7.3,4.8c0,3.4-3.3,4-5.1,4
			c-2.7,0-5.5-0.9-5.6-4h3.2c0,1,0.6,1.7,2.6,1.7c1.6,0,2-0.8,2-1.2c0-2-7.3-0.5-7.3-4.9c0-1.7,1.1-3.9,4.7-3.9c2.3,0,5,0.6,5.3,3.9
			H278z"/>
		<path class="st10" d="M289,108.4c-3.1,0-6-1.9-6-6.2s2.8-6.2,6-6.2s6,1.9,6,6.2S292.1,108.4,289,108.4z M289,98.7
			c-2.4,0-2.8,2.1-2.8,3.6s0.4,3.6,2.8,3.6s2.8-2.1,2.8-3.6S291.3,98.7,289,98.7z"/>
		<path class="st10" d="M300.3,108.1h-3.1V92.3h3.1V108.1z"/>
		<path class="st10" d="M313.3,104.7c-0.8,2.8-3.1,3.7-5.1,3.7c-3.3,0-5.8-1.6-5.8-6.4c0-1.4,0.5-5.9,5.6-5.9c2.3,0,5.5,1.1,5.5,6.4
			v0.5h-8c0.1,0.9,0.3,2.9,2.8,2.9c0.9,0,1.7-0.4,2-1.3H313.3z M310.2,101.1c-0.2-1.9-1.4-2.5-2.4-2.5c-1.5,0-2.2,0.9-2.4,2.5H310.2
			z"/>
	</g>
</g>
<g transform="translate(-0.5 -0.5)">
	<g class="st9">
		<path class="st10" d="M468.4,130l-1.7,4.6h-2.2l5.9-15.8h2.4l5.7,15.8h-2.3l-1.6-4.6H468.4z M474,128.1l-2.3-7h0l-2.5,7H474z"/>
		<path class="st10" d="M489.9,133.6c0,1.7,0,5.8-5.3,5.8c-1.4,0-4-0.4-4.4-3.4h1.9c0.4,1.8,2.1,1.8,2.6,1.8c3.3,0,3.3-2.7,3.3-4
			v-0.5h0v0.1c-0.5,0.8-1.5,1.5-3.1,1.5c-3.9,0-5.1-3.7-5.1-6.4c0-3.2,1.7-5.7,4.8-5.7c2.1,0,3,1.3,3.4,2h0v-1.6h1.8V133.6z
			 M484.9,133.2c1.2,0,3.1-0.8,3.1-3.9c0-1.9-0.3-4.9-3.1-4.9c-3,0-3.1,2.8-3.1,4.3C481.8,131.3,482.8,133.2,484.9,133.2z"/>
		<path class="st10" d="M502.1,133.6c0,1.7,0,5.8-5.3,5.8c-1.4,0-4-0.4-4.4-3.4h1.9c0.4,1.8,2.1,1.8,2.6,1.8c3.3,0,3.3-2.7,3.3-4
			v-0.5h0v0.1c-0.5,0.8-1.5,1.5-3.1,1.5c-3.9,0-5.1-3.7-5.1-6.4c0-3.2,1.7-5.7,4.8-5.7c2.1,0,3,1.3,3.4,2h0v-1.6h1.8V133.6z
			 M497.1,133.2c1.2,0,3.1-0.8,3.1-3.9c0-1.9-0.3-4.9-3.1-4.9c-3,0-3.1,2.8-3.1,4.3C494,131.3,495,133.2,497.1,133.2z"/>
		<path class="st10" d="M504.9,121v-2.2h1.9v2.2H504.9z M506.8,134.6h-1.9v-11.5h1.9V134.6z"/>
		<path class="st10" d="M517.2,134.6v-1.7l0,0c-0.8,1.3-1.8,2-3.7,2c-1.7,0-3.7-0.8-3.7-3.6v-8.3h1.9v7.6c0,1.9,1,2.5,2.2,2.5
			c2.4,0,3.2-2.2,3.2-3.8v-6.3h1.9v11.5H517.2z"/>
		<path class="st10" d="M531.3,134.6h-1.9v-7.1c0-2-0.6-3-2.5-3c-1.1,0-3,0.7-3,3.8v6.3h-1.9v-11.5h1.8v1.6h0c0.4-0.6,1.5-2,3.5-2
			c1.8,0,4,0.7,4,4V134.6z"/>
		<path class="st10" d="M543.7,133.6c0,1.7,0,5.8-5.3,5.8c-1.4,0-4-0.4-4.4-3.4h1.9c0.4,1.8,2.1,1.8,2.6,1.8c3.3,0,3.3-2.7,3.3-4
			v-0.5h0v0.1c-0.5,0.8-1.5,1.5-3.1,1.5c-3.9,0-5.1-3.7-5.1-6.4c0-3.2,1.7-5.7,4.8-5.7c2.1,0,3,1.3,3.4,2h0v-1.6h1.8V133.6z
			 M538.7,133.2c1.2,0,3.1-0.8,3.1-3.9c0-1.9-0.3-4.9-3.1-4.9c-3,0-3.1,2.8-3.1,4.3C535.6,131.3,536.6,133.2,538.7,133.2z"/>
		<path class="st10" d="M556.2,131c-0.1,0.5-0.6,2.2-2,3.1c-0.5,0.4-1.3,0.8-3.1,0.8c-3.2,0-5.1-2.4-5.1-5.8c0-3.6,1.7-6.4,5.5-6.4
			c3.3,0,5,2.6,5,6.7h-8.4c0,2.4,1.1,3.8,3.3,3.8c1.8,0,2.9-1.4,3-2.3H556.2z M554.3,127.9c-0.1-1.8-0.9-3.4-3.2-3.4
			c-1.8,0-3.2,1.7-3.2,3.4H554.3z"/>
		<path class="st10" d="M560.8,134.6h-1.9v-11.5h1.8v1.9h0c0.8-1.3,1.8-2.2,3.2-2.2c0.2,0,0.4,0,0.5,0.1v2h-0.7
			c-1.8,0-2.9,1.4-2.9,3.1V134.6z"/>
		<path class="st10" d="M575.7,131c-0.1,0.5-0.6,2.2-2,3.1c-0.5,0.4-1.3,0.8-3.1,0.8c-3.2,0-5.1-2.4-5.1-5.8c0-3.6,1.7-6.4,5.5-6.4
			c3.3,0,5,2.6,5,6.7h-8.4c0,2.4,1.1,3.8,3.3,3.8c1.8,0,2.9-1.4,3-2.3H575.7z M573.9,127.9c-0.1-1.8-0.9-3.4-3.2-3.4
			c-1.8,0-3.2,1.7-3.2,3.4H573.9z"/>
		<path class="st10" d="M459.3,160c0,1.7,0,5.8-5.3,5.8c-1.4,0-4-0.4-4.4-3.4h1.9c0.4,1.8,2.1,1.8,2.6,1.8c3.3,0,3.3-2.7,3.3-4v-0.5
			h0v0.1c-0.5,0.8-1.5,1.5-3.1,1.5c-3.9,0-5.1-3.7-5.1-6.4c0-3.2,1.7-5.7,4.8-5.7c2.1,0,3,1.3,3.4,2h0v-1.6h1.8V160z M454.3,159.6
			c1.2,0,3.1-0.8,3.1-3.9c0-1.9-0.3-4.9-3.1-4.9c-3,0-3.1,2.8-3.1,4.3C451.2,157.7,452.2,159.6,454.3,159.6z"/>
		<path class="st10" d="M463.9,161H462v-11.5h1.8v1.9h0c0.8-1.3,1.8-2.2,3.2-2.2c0.2,0,0.4,0,0.5,0.1v2h-0.7c-1.8,0-2.9,1.4-2.9,3.1
			V161z"/>
		<path class="st10" d="M476.9,161v-1.7l0,0c-0.8,1.3-1.8,2-3.7,2c-1.7,0-3.7-0.8-3.7-3.6v-8.3h1.9v7.6c0,1.9,1,2.5,2.2,2.5
			c2.4,0,3.2-2.2,3.2-3.8v-6.3h1.9V161H476.9z"/>
		<path class="st10" d="M481.5,149.5h1.8v1.6h0c0.5-0.7,1.3-2,3.4-2c3.1,0,4.8,2.5,4.8,5.7c0,2.8-1.1,6.4-5.1,6.4
			c-1.5,0-2.6-0.7-3.1-1.5h0v5.8h-1.9V149.5z M486.5,159.6c2.1,0,3.1-1.9,3.1-4.4c0-1.5-0.2-4.3-3.1-4.3c-2.8,0-3.1,3-3.1,4.9
			C483.3,158.8,485.2,159.6,486.5,159.6z"/>
		<path class="st10" d="M493.7,149.5h1.8v1.6h0c0.5-0.7,1.3-2,3.4-2c3.1,0,4.8,2.5,4.8,5.7c0,2.8-1.1,6.4-5.1,6.4
			c-1.5,0-2.6-0.7-3.1-1.5h0v5.8h-1.9V149.5z M498.7,159.6c2.1,0,3.1-1.9,3.1-4.4c0-1.5-0.2-4.3-3.1-4.3c-2.8,0-3.1,3-3.1,4.9
			C495.6,158.8,497.5,159.6,498.7,159.6z"/>
		<path class="st10" d="M506.1,147.4v-2.2h1.9v2.2H506.1z M508.1,161h-1.9v-11.5h1.9V161z"/>
		<path class="st10" d="M526.6,161h-1.8v-1.6h0c-0.8,1.6-2.2,1.9-3.3,1.9c-3.9,0-5.1-3.7-5.1-6.4c0-3.2,1.7-5.7,4.8-5.7
			c2.1,0,3,1.3,3.4,2l0-0.2v-5.8h1.9V161z M521.5,159.6c1.2,0,3.1-0.8,3.1-3.9c0-1.9-0.3-4.9-3.1-4.9c-3,0-3.1,2.8-3.1,4.3
			C518.4,157.7,519.4,159.6,521.5,159.6z"/>
		<path class="st10" d="M529.4,147.4v-2.2h1.9v2.2H529.4z M531.3,161h-1.9v-11.5h1.9V161z"/>
		<path class="st10" d="M547.8,161v-1.7l0,0c-0.8,1.3-1.8,2-3.7,2c-1.7,0-3.7-0.8-3.7-3.6v-8.3h1.9v7.6c0,1.9,1,2.5,2.2,2.5
			c2.4,0,3.2-2.2,3.2-3.8v-6.3h1.9V161H547.8z"/>
		<path class="st10" d="M554.9,151.1v7.5c0,0.9,0.8,0.9,1.2,0.9h0.7v1.5c-0.7,0.1-1.3,0.2-1.5,0.2c-1.9,0-2.3-1.1-2.3-2.5v-7.6h-1.6
			v-1.6h1.6v-3.2h1.9v3.2h1.8v1.6H554.9z"/>
		<path class="st10" d="M568.4,157.4c-0.1,0.5-0.6,2.2-2,3.1c-0.5,0.4-1.3,0.8-3.1,0.8c-3.2,0-5.1-2.4-5.1-5.8
			c0-3.6,1.7-6.4,5.5-6.4c3.3,0,5,2.6,5,6.7h-8.4c0,2.4,1.1,3.8,3.3,3.8c1.8,0,2.9-1.4,3-2.3H568.4z M566.6,154.3
			c-0.1-1.8-0.9-3.4-3.2-3.4c-1.8,0-3.2,1.7-3.2,3.4H566.6z"/>
		<path class="st10" d="M580.3,161h-1.9v-7.1c0-2-0.6-3-2.5-3c-1.1,0-3,0.7-3,3.8v6.3h-1.9v-11.5h1.8v1.6h0c0.4-0.6,1.5-2,3.5-2
			c1.8,0,4,0.7,4,4V161z"/>
		<path class="st10" d="M585.5,151.1v7.5c0,0.9,0.8,0.9,1.2,0.9h0.7v1.5c-0.7,0.1-1.3,0.2-1.5,0.2c-1.9,0-2.3-1.1-2.3-2.5v-7.6H582
			v-1.6h1.6v-3.2h1.9v3.2h1.8v1.6H585.5z"/>
		<path class="st10" d="M589.3,147.4v-2.2h1.9v2.2H589.3z M591.2,161h-1.9v-11.5h1.9V161z"/>
	</g>
</g>
<g transform="translate(-0.5 -0.5)">
	<g class="st9">
		<path class="st10" d="M1487.9,127.4l-1.7,4.6h-2.2l5.9-15.8h2.4l5.7,15.8h-2.3l-1.6-4.6H1487.9z M1493.4,125.5l-2.3-7h0l-2.5,7
			H1493.4z"/>
		<path class="st10" d="M1509.4,131.1c0,1.7,0,5.8-5.3,5.8c-1.4,0-4-0.4-4.4-3.4h1.9c0.4,1.8,2.1,1.8,2.6,1.8c3.3,0,3.3-2.7,3.3-4
			v-0.5h0v0.1c-0.5,0.8-1.5,1.5-3.1,1.5c-3.9,0-5.1-3.7-5.1-6.4c0-3.2,1.7-5.7,4.8-5.7c2.1,0,3,1.3,3.4,2h0v-1.6h1.8V131.1z
			 M1504.4,130.7c1.2,0,3.1-0.8,3.1-3.9c0-1.9-0.3-4.9-3.1-4.9c-3,0-3.1,2.8-3.1,4.3C1501.3,128.8,1502.3,130.7,1504.4,130.7z"/>
		<path class="st10" d="M1521.6,131.1c0,1.7,0,5.8-5.3,5.8c-1.4,0-4-0.4-4.4-3.4h1.9c0.4,1.8,2.1,1.8,2.6,1.8c3.3,0,3.3-2.7,3.3-4
			v-0.5h0v0.1c-0.5,0.8-1.5,1.5-3.1,1.5c-3.9,0-5.1-3.7-5.1-6.4c0-3.2,1.7-5.7,4.8-5.7c2.1,0,3,1.3,3.4,2h0v-1.6h1.8V131.1z
			 M1516.6,130.7c1.2,0,3.1-0.8,3.1-3.9c0-1.9-0.3-4.9-3.1-4.9c-3,0-3.1,2.8-3.1,4.3C1513.5,128.8,1514.5,130.7,1516.6,130.7z"/>
		<path class="st10" d="M1524.3,118.4v-2.2h1.9v2.2H1524.3z M1526.3,132h-1.9v-11.5h1.9V132z"/>
		<path class="st10" d="M1536.7,132v-1.7l0,0c-0.8,1.3-1.8,2-3.7,2c-1.7,0-3.7-0.8-3.7-3.6v-8.3h1.9v7.6c0,1.9,1,2.5,2.2,2.5
			c2.4,0,3.2-2.2,3.2-3.8v-6.3h1.9V132H1536.7z"/>
		<path class="st10" d="M1550.8,132h-1.9v-7.1c0-2-0.6-3-2.5-3c-1.1,0-3,0.7-3,3.8v6.3h-1.9v-11.5h1.8v1.6h0c0.4-0.6,1.5-2,3.5-2
			c1.8,0,4,0.7,4,4V132z"/>
		<path class="st10" d="M1563.2,131.1c0,1.7,0,5.8-5.3,5.8c-1.4,0-4-0.4-4.4-3.4h1.9c0.4,1.8,2.1,1.8,2.6,1.8c3.3,0,3.3-2.7,3.3-4
			v-0.5h0v0.1c-0.5,0.8-1.5,1.5-3.1,1.5c-3.9,0-5.1-3.7-5.1-6.4c0-3.2,1.7-5.7,4.8-5.7c2.1,0,3,1.3,3.4,2h0v-1.6h1.8V131.1z
			 M1558.2,130.7c1.2,0,3.1-0.8,3.1-3.9c0-1.9-0.3-4.9-3.1-4.9c-3,0-3.1,2.8-3.1,4.3C1555.1,128.8,1556.1,130.7,1558.2,130.7z"/>
		<path class="st10" d="M1575.6,128.4c-0.1,0.5-0.6,2.2-2,3.1c-0.5,0.4-1.3,0.8-3.1,0.8c-3.2,0-5.1-2.4-5.1-5.8
			c0-3.6,1.7-6.4,5.5-6.4c3.3,0,5,2.6,5,6.7h-8.4c0,2.4,1.1,3.8,3.3,3.8c1.8,0,2.9-1.4,3-2.3H1575.6z M1573.8,125.4
			c-0.1-1.8-0.9-3.4-3.2-3.4c-1.8,0-3.2,1.7-3.2,3.4H1573.8z"/>
		<path class="st10" d="M1580.3,132h-1.9v-11.5h1.8v1.9h0c0.8-1.3,1.8-2.2,3.2-2.2c0.2,0,0.4,0,0.5,0.1v2h-0.7
			c-1.8,0-2.9,1.4-2.9,3.1V132z"/>
		<path class="st10" d="M1595.2,128.4c-0.1,0.5-0.6,2.2-2,3.1c-0.5,0.4-1.3,0.8-3.1,0.8c-3.2,0-5.1-2.4-5.1-5.8
			c0-3.6,1.7-6.4,5.5-6.4c3.3,0,5,2.6,5,6.7h-8.4c0,2.4,1.1,3.8,3.3,3.8c1.8,0,2.9-1.4,3-2.3H1595.2z M1593.3,125.4
			c-0.1-1.8-0.9-3.4-3.2-3.4c-1.8,0-3.2,1.7-3.2,3.4H1593.3z"/>
		<path class="st10" d="M1476.7,158.4v-1.7l0,0c-0.8,1.3-1.8,2-3.7,2c-1.7,0-3.7-0.8-3.7-3.6v-8.3h1.9v7.6c0,1.9,1,2.5,2.2,2.5
			c2.4,0,3.2-2.2,3.2-3.8v-6.3h1.9v11.5H1476.7z"/>
		<path class="st10" d="M1483.8,148.5v7.5c0,0.9,0.8,0.9,1.2,0.9h0.7v1.5c-0.7,0.1-1.3,0.2-1.5,0.2c-1.9,0-2.3-1.1-2.3-2.5v-7.6
			h-1.6v-1.6h1.6v-3.2h1.9v3.2h1.8v1.6H1483.8z"/>
		<path class="st10" d="M1497.3,154.8c-0.1,0.5-0.6,2.2-2,3.1c-0.5,0.4-1.3,0.8-3.1,0.8c-3.2,0-5.1-2.4-5.1-5.8
			c0-3.6,1.7-6.4,5.5-6.4c3.3,0,5,2.6,5,6.7h-8.4c0,2.4,1.1,3.8,3.3,3.8c1.8,0,2.9-1.4,3-2.3H1497.3z M1495.5,151.8
			c-0.1-1.8-0.9-3.4-3.2-3.4c-1.8,0-3.2,1.7-3.2,3.4H1495.5z"/>
		<path class="st10" d="M1509.1,158.4h-1.9v-7.1c0-2-0.6-3-2.5-3c-1.1,0-3,0.7-3,3.8v6.3h-1.9v-11.5h1.8v1.6h0c0.4-0.6,1.5-2,3.5-2
			c1.8,0,4,0.7,4,4V158.4z"/>
		<path class="st10" d="M1514.4,148.5v7.5c0,0.9,0.8,0.9,1.2,0.9h0.7v1.5c-0.7,0.1-1.3,0.2-1.5,0.2c-1.9,0-2.3-1.1-2.3-2.5v-7.6
			h-1.6v-1.6h1.6v-3.2h1.9v3.2h1.8v1.6H1514.4z"/>
		<path class="st10" d="M1518.2,144.8v-2.2h1.9v2.2H1518.2z M1520.1,158.4h-1.9v-11.5h1.9V158.4z"/>
		<path class="st10" d="M1529.1,150.4c0.1-2.8,1.9-3.8,4.8-3.8c0.9,0,4.3,0.3,4.3,3.2v6.6c0,0.5,0.2,0.7,0.6,0.7
			c0.2,0,0.4,0,0.6-0.1v1.4c-0.3,0.1-0.6,0.2-1.1,0.2c-1.7,0-2-0.9-2-1.8c-0.7,0.8-1.9,1.9-4.2,1.9c-2.1,0-3.6-1.3-3.6-3.3
			c0-1,0.3-3.2,3.5-3.6l3.2-0.4c0.5,0,1-0.2,1-1.4c0-1.2-0.9-1.9-2.7-1.9c-2.2,0-2.5,1.3-2.6,2.2H1529.1z M1536.1,152.5
			c-0.3,0.2-0.8,0.4-3.2,0.7c-0.9,0.1-2.5,0.4-2.5,1.9c0,1.3,0.6,2,2.1,2c1.8,0,3.6-1.2,3.6-2.7V152.5z"/>
		<path class="st10" d="M1541.4,144.8v-2.2h1.9v2.2H1541.4z M1543.3,158.4h-1.9v-11.5h1.9V158.4z"/>
		<path class="st10" d="M1561.9,157.5c0,1.7,0,5.8-5.3,5.8c-1.4,0-4-0.4-4.4-3.4h1.9c0.4,1.8,2.1,1.8,2.6,1.8c3.3,0,3.3-2.7,3.3-4
			v-0.5h0v0.1c-0.5,0.8-1.5,1.5-3.1,1.5c-3.9,0-5.1-3.7-5.1-6.4c0-3.2,1.7-5.7,4.8-5.7c2.1,0,3,1.3,3.4,2h0v-1.6h1.8V157.5z
			 M1556.9,157.1c1.2,0,3.1-0.8,3.1-3.9c0-1.9-0.3-4.9-3.1-4.9c-3,0-3.1,2.8-3.1,4.3C1553.8,155.2,1554.8,157.1,1556.9,157.1z"/>
		<path class="st10" d="M1566.6,158.4h-1.9v-11.5h1.8v1.9h0c0.8-1.3,1.8-2.2,3.2-2.2c0.2,0,0.4,0,0.5,0.1v2h-0.7
			c-1.8,0-2.9,1.4-2.9,3.1V158.4z"/>
		<path class="st10" d="M1579.5,158.4v-1.7l0,0c-0.8,1.3-1.8,2-3.7,2c-1.7,0-3.7-0.8-3.7-3.6v-8.3h1.9v7.6c0,1.9,1,2.5,2.2,2.5
			c2.4,0,3.2-2.2,3.2-3.8v-6.3h1.9v11.5H1579.5z"/>
		<path class="st10" d="M1584.1,146.9h1.8v1.6h0c0.5-0.7,1.3-2,3.4-2c3.1,0,4.8,2.5,4.8,5.7c0,2.8-1.1,6.4-5.1,6.4
			c-1.5,0-2.6-0.7-3.1-1.5h0v5.8h-1.9V146.9z M1589.1,157.1c2.1,0,3.1-1.9,3.1-4.4c0-1.5-0.2-4.3-3.1-4.3c-2.8,0-3.1,3-3.1,4.9
			C1585.9,156.3,1587.9,157.1,1589.1,157.1z"/>
		<path class="st10" d="M1596.3,146.9h1.8v1.6h0c0.5-0.7,1.3-2,3.4-2c3.1,0,4.8,2.5,4.8,5.7c0,2.8-1.1,6.4-5.1,6.4
			c-1.5,0-2.6-0.7-3.1-1.5h0v5.8h-1.9V146.9z M1601.3,157.1c2.1,0,3.1-1.9,3.1-4.4c0-1.5-0.2-4.3-3.1-4.3c-2.8,0-3.1,3-3.1,4.9
			C1598.2,156.3,1600.1,157.1,1601.3,157.1z"/>
		<path class="st10" d="M1608.8,144.8v-2.2h1.9v2.2H1608.8z M1610.7,158.4h-1.9v-11.5h1.9V158.4z"/>
	</g>
</g>
<g transform="translate(-0.5 -0.5)">
	<g class="st9">
		<path class="st10" d="M1136.2,390.7h-2.1v-15.8h2.1V390.7z"/>
		<path class="st10" d="M1139.6,379.2h1.8v1.6h0c0.4-0.6,1.4-2,3.5-2s2.7,1.3,3.1,1.9c1-1.1,1.7-1.9,3.5-1.9c1.2,0,3.6,0.6,3.6,3.9
			v8h-1.9v-7.4c0-1.6-0.5-2.7-2.1-2.7c-1.6,0-2.7,1.5-2.7,3.1v7h-1.9v-8c0-1-0.4-2.1-1.8-2.1c-1.1,0-3,0.7-3,3.8v6.3h-1.9V379.2z"/>
		<path class="st10" d="M1157.8,379.2h1.8v1.6h0c0.5-0.7,1.3-2,3.4-2c3.1,0,4.8,2.5,4.8,5.7c0,2.8-1.1,6.4-5.1,6.4
			c-1.5,0-2.6-0.7-3.1-1.5h0v5.8h-1.9V379.2z M1162.7,389.3c2.1,0,3.1-1.9,3.1-4.4c0-1.5-0.2-4.3-3.1-4.3c-2.8,0-3.1,3-3.1,4.9
			C1159.6,388.5,1161.5,389.3,1162.7,389.3z"/>
		<path class="st10" d="M1174.8,378.8c3.7,0,5.3,3.1,5.3,6.1s-1.7,6.1-5.3,6.1c-3.7,0-5.3-3.1-5.3-6.1S1171.2,378.8,1174.8,378.8z
			 M1174.8,389.3c2.8,0,3.3-2.9,3.3-4.4s-0.6-4.4-3.3-4.4s-3.3,2.9-3.3,4.4S1172.1,389.3,1174.8,389.3z"/>
		<path class="st10" d="M1188.9,382.5c0-0.7-0.3-1.9-2.7-1.9c-0.6,0-2.3,0.2-2.3,1.6c0,0.9,0.6,1.2,2.1,1.5l1.9,0.5
			c2.4,0.6,3.2,1.5,3.2,3c0,2.4-2,3.8-4.6,3.8c-4.6,0-4.9-2.6-5-4h1.9c0.1,0.9,0.3,2.4,3.1,2.4c1.4,0,2.6-0.6,2.6-1.8
			c0-0.9-0.6-1.2-2.3-1.7l-2.2-0.6c-1.6-0.4-2.7-1.2-2.7-2.8c0-2.5,2.1-3.7,4.4-3.7c4.1,0,4.4,3,4.4,3.6H1188.9z"/>
		<path class="st10" d="M1195.7,380.8v7.5c0,0.9,0.8,0.9,1.2,0.9h0.7v1.5c-0.7,0.1-1.3,0.2-1.5,0.2c-1.9,0-2.3-1.1-2.3-2.5v-7.6
			h-1.6v-1.6h1.6V376h1.9v3.2h1.8v1.6H1195.7z"/>
		<path class="st10" d="M1199.4,382.7c0.1-2.8,1.9-3.8,4.8-3.8c0.9,0,4.3,0.3,4.3,3.2v6.6c0,0.5,0.2,0.7,0.6,0.7
			c0.2,0,0.4,0,0.6-0.1v1.4c-0.3,0.1-0.6,0.2-1.1,0.2c-1.7,0-2-0.9-2-1.8c-0.7,0.8-1.9,1.9-4.2,1.9c-2.1,0-3.6-1.3-3.6-3.3
			c0-1,0.3-3.2,3.5-3.6l3.2-0.4c0.5,0,1-0.2,1-1.4c0-1.2-0.9-1.9-2.7-1.9c-2.2,0-2.5,1.3-2.6,2.2H1199.4z M1206.5,384.8
			c-0.3,0.2-0.8,0.4-3.2,0.7c-0.9,0.1-2.5,0.4-2.5,1.9c0,1.3,0.6,2,2.1,2c1.8,0,3.6-1.2,3.6-2.7V384.8z"/>
		<path class="st10" d="M1213.9,390.7h-1.9v-11.5h1.8v1.9h0c0.8-1.3,1.8-2.2,3.2-2.2c0.2,0,0.4,0,0.5,0.1v2h-0.7
			c-1.8,0-2.9,1.4-2.9,3.1V390.7z"/>
		<path class="st10" d="M1228.8,387.1c-0.1,0.5-0.6,2.2-2,3.1c-0.5,0.4-1.3,0.8-3.1,0.8c-3.2,0-5.1-2.4-5.1-5.8
			c0-3.6,1.7-6.4,5.5-6.4c3.3,0,5,2.6,5,6.7h-8.4c0,2.4,1.1,3.8,3.3,3.8c1.8,0,2.9-1.4,3-2.3H1228.8z M1227,384
			c-0.1-1.8-0.9-3.4-3.2-3.4c-1.8,0-3.2,1.7-3.2,3.4H1227z"/>
		<path class="st10" d="M1105.3,417.1h-1.9v-15.8h1.9V417.1z"/>
		<path class="st10" d="M1118,413.5c-0.1,0.5-0.6,2.2-2,3.1c-0.5,0.4-1.3,0.8-3.1,0.8c-3.2,0-5.1-2.4-5.1-5.8c0-3.6,1.7-6.4,5.5-6.4
			c3.3,0,5,2.6,5,6.7h-8.4c0,2.4,1.1,3.8,3.3,3.8c1.8,0,2.9-1.4,3-2.3H1118z M1116.2,410.4c-0.1-1.8-0.9-3.4-3.2-3.4
			c-1.8,0-3.2,1.7-3.2,3.4H1116.2z"/>
		<path class="st10" d="M1126.5,409.1c0.1-2.8,1.9-3.8,4.8-3.8c0.9,0,4.3,0.3,4.3,3.2v6.6c0,0.5,0.2,0.7,0.6,0.7
			c0.2,0,0.4,0,0.6-0.1v1.4c-0.3,0.1-0.6,0.2-1.1,0.2c-1.7,0-2-0.9-2-1.8c-0.7,0.8-1.9,1.9-4.2,1.9c-2.1,0-3.6-1.3-3.6-3.3
			c0-1,0.3-3.2,3.5-3.6l3.2-0.4c0.5,0,1-0.2,1-1.4c0-1.2-0.9-1.9-2.7-1.9c-2.2,0-2.5,1.3-2.6,2.2H1126.5z M1133.6,411.2
			c-0.3,0.2-0.8,0.4-3.2,0.7c-0.9,0.1-2.5,0.4-2.5,1.9c0,1.3,0.6,2,2.1,2c1.8,0,3.6-1.2,3.6-2.7V411.2z"/>
		<path class="st10" d="M1146.3,417.1v-1.7l0,0c-0.8,1.3-1.8,2-3.7,2c-1.7,0-3.7-0.8-3.7-3.6v-8.3h1.9v7.6c0,1.9,1,2.5,2.2,2.5
			c2.4,0,3.2-2.2,3.2-3.8v-6.3h1.9v11.5H1146.3z"/>
		<path class="st10" d="M1153.4,407.2v7.5c0,0.9,0.8,0.9,1.2,0.9h0.7v1.5c-0.7,0.1-1.3,0.2-1.5,0.2c-1.9,0-2.3-1.1-2.3-2.5v-7.6
			h-1.6v-1.6h1.6v-3.2h1.9v3.2h1.8v1.6H1153.4z"/>
		<path class="st10" d="M1161.8,405.3c3.7,0,5.3,3.1,5.3,6.1s-1.7,6.1-5.3,6.1c-3.7,0-5.3-3.1-5.3-6.1S1158.2,405.3,1161.8,405.3z
			 M1161.8,415.7c2.8,0,3.3-2.9,3.3-4.4s-0.6-4.4-3.3-4.4s-3.3,2.9-3.3,4.4S1159.1,415.7,1161.8,415.7z"/>
		<path class="st10" d="M1171.6,417.1h-1.9v-11.5h1.8v1.9h0c0.8-1.3,1.8-2.2,3.2-2.2c0.2,0,0.4,0,0.5,0.1v2h-0.7
			c-1.8,0-2.9,1.4-2.9,3.1V417.1z"/>
		<path class="st10" d="M1177.1,403.5v-2.2h1.9v2.2H1177.1z M1179,417.1h-1.9v-11.5h1.9V417.1z"/>
		<path class="st10" d="M1183.8,415.5h7.1v1.6h-9.6v-1.5l6.9-8.4h-6.4v-1.6h8.9v1.6L1183.8,415.5z"/>
		<path class="st10" d="M1194.8,415.5h7.1v1.6h-9.6v-1.5l6.9-8.4h-6.4v-1.6h8.9v1.6L1194.8,415.5z"/>
		<path class="st10" d="M1203.9,409.1c0.1-2.8,1.9-3.8,4.8-3.8c0.9,0,4.3,0.3,4.3,3.2v6.6c0,0.5,0.2,0.7,0.6,0.7
			c0.2,0,0.4,0,0.6-0.1v1.4c-0.3,0.1-0.6,0.2-1.1,0.2c-1.7,0-2-0.9-2-1.8c-0.7,0.8-1.9,1.9-4.2,1.9c-2.1,0-3.6-1.3-3.6-3.3
			c0-1,0.3-3.2,3.5-3.6l3.2-0.4c0.5,0,1-0.2,1-1.4c0-1.2-0.9-1.9-2.7-1.9c-2.2,0-2.5,1.3-2.6,2.2H1203.9z M1210.9,411.2
			c-0.3,0.2-0.8,0.4-3.2,0.7c-0.9,0.1-2.5,0.4-2.5,1.9c0,1.3,0.6,2,2.1,2c1.8,0,3.6-1.2,3.6-2.7V411.2z"/>
		<path class="st10" d="M1218,415.5h7.1v1.6h-9.6v-1.5l6.9-8.4h-6.4v-1.6h8.9v1.6L1218,415.5z"/>
		<path class="st10" d="M1227.2,403.5v-2.2h1.9v2.2H1227.2z M1229.1,417.1h-1.9v-11.5h1.9V417.1z"/>
		<path class="st10" d="M1236.7,405.3c3.7,0,5.3,3.1,5.3,6.1s-1.7,6.1-5.3,6.1s-5.3-3.1-5.3-6.1S1233.1,405.3,1236.7,405.3z
			 M1236.7,415.7c2.8,0,3.3-2.9,3.3-4.4s-0.6-4.4-3.3-4.4s-3.3,2.9-3.3,4.4S1234,415.7,1236.7,415.7z"/>
		<path class="st10" d="M1253.7,417.1h-1.9V410c0-2-0.6-3-2.5-3c-1.1,0-3,0.7-3,3.8v6.3h-1.9v-11.5h1.8v1.6h0c0.4-0.6,1.5-2,3.5-2
			c1.8,0,4,0.7,4,4V417.1z"/>
		<path class="st10" d="M1256.6,403.5v-2.2h1.9v2.2H1256.6z M1258.5,417.1h-1.9v-11.5h1.9V417.1z"/>
	</g>
</g>
<g transform="translate(-0.5 -0.5)">
	<g class="st9">
		<path class="st10" d="M1215.4,557.7h-2.1v-15.8h2.1V557.7z"/>
		<path class="st10" d="M1218.8,546.2h1.8v1.6h0c0.4-0.6,1.4-2,3.5-2s2.7,1.3,3.1,1.9c1-1.1,1.7-1.9,3.5-1.9c1.2,0,3.6,0.6,3.6,3.9
			v8h-1.9v-7.4c0-1.6-0.5-2.7-2.1-2.7c-1.6,0-2.7,1.5-2.7,3.1v7h-1.9v-8c0-1-0.4-2.1-1.8-2.1c-1.1,0-3,0.7-3,3.8v6.3h-1.9V546.2z"/>
		<path class="st10" d="M1236.9,546.2h1.8v1.6h0c0.5-0.7,1.3-2,3.4-2c3.1,0,4.8,2.5,4.8,5.7c0,2.8-1.1,6.4-5.1,6.4
			c-1.5,0-2.6-0.7-3.1-1.5h0v5.8h-1.9V546.2z M1241.9,556.3c2.1,0,3.1-1.9,3.1-4.4c0-1.5-0.2-4.3-3.1-4.3c-2.8,0-3.1,3-3.1,4.9
			C1238.8,555.5,1240.7,556.3,1241.9,556.3z"/>
		<path class="st10" d="M1254,545.8c3.7,0,5.3,3.1,5.3,6.1s-1.7,6.1-5.3,6.1s-5.3-3.1-5.3-6.1S1250.3,545.8,1254,545.8z M1254,556.3
			c2.8,0,3.3-2.9,3.3-4.4s-0.6-4.4-3.3-4.4s-3.3,2.9-3.3,4.4S1251.2,556.3,1254,556.3z"/>
		<path class="st10" d="M1268.1,549.5c0-0.7-0.3-1.9-2.7-1.9c-0.6,0-2.3,0.2-2.3,1.6c0,0.9,0.6,1.2,2.1,1.5l1.9,0.5
			c2.4,0.6,3.2,1.5,3.2,3c0,2.4-2,3.8-4.6,3.8c-4.6,0-4.9-2.6-5-4h1.9c0.1,0.9,0.3,2.4,3.1,2.4c1.4,0,2.6-0.6,2.6-1.8
			c0-0.9-0.6-1.2-2.3-1.7l-2.2-0.6c-1.6-0.4-2.7-1.2-2.7-2.8c0-2.5,2.1-3.7,4.4-3.7c4.1,0,4.4,3,4.4,3.6H1268.1z"/>
		<path class="st10" d="M1274.9,547.8v7.5c0,0.9,0.8,0.9,1.2,0.9h0.7v1.5c-0.7,0.1-1.3,0.2-1.5,0.2c-1.9,0-2.3-1.1-2.3-2.5v-7.6
			h-1.6v-1.6h1.6V543h1.9v3.2h1.8v1.6H1274.9z"/>
		<path class="st10" d="M1278.6,549.7c0.1-2.8,1.9-3.8,4.8-3.8c0.9,0,4.3,0.3,4.3,3.2v6.6c0,0.5,0.2,0.7,0.6,0.7
			c0.2,0,0.4,0,0.6-0.1v1.4c-0.3,0.1-0.6,0.2-1.1,0.2c-1.7,0-2-0.9-2-1.8c-0.7,0.8-1.9,1.9-4.2,1.9c-2.1,0-3.6-1.3-3.6-3.3
			c0-1,0.3-3.2,3.5-3.6l3.2-0.4c0.5,0,1-0.2,1-1.4c0-1.2-0.9-1.9-2.7-1.9c-2.2,0-2.5,1.3-2.6,2.2H1278.6z M1285.7,551.8
			c-0.3,0.2-0.8,0.4-3.2,0.7c-0.9,0.1-2.5,0.4-2.5,1.9c0,1.3,0.6,2,2.1,2c1.8,0,3.6-1.2,3.6-2.7V551.8z"/>
		<path class="st10" d="M1293.1,557.7h-1.9v-11.5h1.8v1.9h0c0.8-1.3,1.8-2.2,3.2-2.2c0.2,0,0.4,0,0.5,0.1v2h-0.7
			c-1.8,0-2.9,1.4-2.9,3.1V557.7z"/>
		<path class="st10" d="M1308,554.1c-0.1,0.5-0.6,2.2-2,3.1c-0.5,0.4-1.3,0.8-3.1,0.8c-3.2,0-5.1-2.4-5.1-5.8c0-3.6,1.7-6.4,5.5-6.4
			c3.3,0,5,2.6,5,6.7h-8.4c0,2.4,1.1,3.8,3.3,3.8c1.8,0,2.9-1.4,3-2.3H1308z M1306.2,551c-0.1-1.8-0.9-3.4-3.2-3.4
			c-1.8,0-3.2,1.7-3.2,3.4H1306.2z"/>
		<path class="st10" d="M1223.7,570.5v-2.2h1.9v2.2H1223.7z M1225.6,584.1h-1.9v-11.5h1.9V584.1z"/>
		<path class="st10" d="M1234.7,572.6h1.8v1.6h0c0.4-0.6,1.4-2,3.5-2s2.7,1.3,3.1,1.9c1-1.1,1.7-1.9,3.5-1.9c1.2,0,3.6,0.6,3.6,3.9
			v8h-1.9v-7.4c0-1.6-0.5-2.7-2.1-2.7c-1.6,0-2.7,1.5-2.7,3.1v7h-1.9v-8c0-1-0.4-2.1-1.8-2.1c-1.1,0-3,0.7-3,3.8v6.3h-1.9V572.6z"/>
		<path class="st10" d="M1257.7,572.3c3.7,0,5.3,3.1,5.3,6.1s-1.7,6.1-5.3,6.1s-5.3-3.1-5.3-6.1S1254,572.3,1257.7,572.3z
			 M1257.7,582.7c2.8,0,3.3-2.9,3.3-4.4s-0.6-4.4-3.3-4.4s-3.3,2.9-3.3,4.4S1254.9,582.7,1257.7,582.7z"/>
		<path class="st10" d="M1274.8,584.1h-1.8v-1.6h0c-0.8,1.6-2.2,1.9-3.3,1.9c-3.9,0-5.1-3.7-5.1-6.4c0-3.2,1.7-5.7,4.8-5.7
			c2.1,0,3,1.3,3.4,2l0-0.2v-5.8h1.9V584.1z M1269.7,582.7c1.2,0,3.1-0.8,3.1-3.9c0-1.9-0.3-4.9-3.1-4.9c-3,0-3.1,2.8-3.1,4.3
			C1266.6,580.8,1267.6,582.7,1269.7,582.7z"/>
		<path class="st10" d="M1285,584.1v-1.7l0,0c-0.8,1.3-1.8,2-3.7,2c-1.7,0-3.7-0.8-3.7-3.6v-8.3h1.9v7.6c0,1.9,1,2.5,2.2,2.5
			c2.4,0,3.2-2.2,3.2-3.8v-6.3h1.9v11.5H1285z"/>
		<path class="st10" d="M1291.7,584.1h-1.9v-15.8h1.9V584.1z"/>
		<path class="st10" d="M1294.6,570.5v-2.2h1.9v2.2H1294.6z M1296.6,584.1h-1.9v-11.5h1.9V584.1z"/>
		<path class="st10" d="M1217.3,610.5h-1.8v-1.6h0c-0.8,1.6-2.2,1.9-3.3,1.9c-3.9,0-5.1-3.7-5.1-6.4c0-3.2,1.7-5.7,4.8-5.7
			c2.1,0,3,1.3,3.4,2l0-0.2v-5.8h1.9V610.5z M1212.2,609.1c1.2,0,3.1-0.8,3.1-3.9c0-1.9-0.3-4.9-3.1-4.9c-3,0-3.1,2.8-3.1,4.3
			C1209.1,607.2,1210.1,609.1,1212.2,609.1z"/>
		<path class="st10" d="M1220,596.9v-2.2h1.9v2.2H1220z M1222,610.5h-1.9V599h1.9V610.5z"/>
		<path class="st10" d="M1231,599h1.8v1.6h0c0.4-0.6,1.4-2,3.5-2s2.7,1.3,3.1,1.9c1-1.1,1.7-1.9,3.5-1.9c1.2,0,3.6,0.6,3.6,3.9v8
			h-1.9v-7.4c0-1.6-0.5-2.7-2.1-2.7c-1.6,0-2.7,1.5-2.7,3.1v7h-1.9v-8c0-1-0.4-2.1-1.8-2.1c-1.1,0-3,0.7-3,3.8v6.3h-1.9V599z"/>
		<path class="st10" d="M1259.1,606.9c-0.1,0.5-0.6,2.2-2,3.1c-0.5,0.4-1.3,0.8-3.1,0.8c-3.2,0-5.1-2.4-5.1-5.8
			c0-3.6,1.7-6.4,5.5-6.4c3.3,0,5,2.6,5,6.7h-8.4c0,2.4,1.1,3.8,3.3,3.8c1.8,0,2.9-1.4,3-2.3H1259.1z M1257.2,603.8
			c-0.1-1.8-0.9-3.4-3.2-3.4c-1.8,0-3.2,1.7-3.2,3.4H1257.2z"/>
		<path class="st10" d="M1263.9,600.6v7.5c0,0.9,0.8,0.9,1.2,0.9h0.7v1.5c-0.7,0.1-1.3,0.2-1.5,0.2c-1.9,0-2.3-1.1-2.3-2.5v-7.6
			h-1.6V599h1.6v-3.2h1.9v3.2h1.8v1.6H1263.9z"/>
		<path class="st10" d="M1267.6,602.5c0.1-2.8,1.9-3.8,4.8-3.8c0.9,0,4.3,0.3,4.3,3.2v6.6c0,0.5,0.2,0.7,0.6,0.7
			c0.2,0,0.4,0,0.6-0.1v1.4c-0.3,0.1-0.6,0.2-1.1,0.2c-1.7,0-2-0.9-2-1.8c-0.7,0.8-1.9,1.9-4.2,1.9c-2.1,0-3.6-1.3-3.6-3.3
			c0-1,0.3-3.2,3.5-3.6l3.2-0.4c0.5,0,1-0.2,1-1.4c0-1.2-0.9-1.9-2.7-1.9c-2.2,0-2.5,1.3-2.6,2.2H1267.6z M1274.7,604.6
			c-0.3,0.2-0.8,0.4-3.2,0.7c-0.9,0.1-2.5,0.4-2.5,1.9c0,1.3,0.6,2,2.1,2c1.8,0,3.6-1.2,3.6-2.7V604.6z"/>
		<path class="st10" d="M1289.4,610.5h-1.8v-1.6h0c-0.8,1.6-2.2,1.9-3.3,1.9c-3.9,0-5.1-3.7-5.1-6.4c0-3.2,1.7-5.7,4.8-5.7
			c2.1,0,3,1.3,3.4,2l0-0.2v-5.8h1.9V610.5z M1284.3,609.1c1.2,0,3.1-0.8,3.1-3.9c0-1.9-0.3-4.9-3.1-4.9c-3,0-3.1,2.8-3.1,4.3
			C1281.2,607.2,1282.2,609.1,1284.3,609.1z"/>
		<path class="st10" d="M1292.1,602.5c0.1-2.8,1.9-3.8,4.8-3.8c0.9,0,4.3,0.3,4.3,3.2v6.6c0,0.5,0.2,0.7,0.6,0.7
			c0.2,0,0.4,0,0.6-0.1v1.4c-0.3,0.1-0.6,0.2-1.1,0.2c-1.7,0-2-0.9-2-1.8c-0.7,0.8-1.9,1.9-4.2,1.9c-2.1,0-3.6-1.3-3.6-3.3
			c0-1,0.3-3.2,3.5-3.6l3.2-0.4c0.5,0,1-0.2,1-1.4c0-1.2-0.9-1.9-2.7-1.9c-2.2,0-2.5,1.3-2.6,2.2H1292.1z M1299.1,604.6
			c-0.3,0.2-0.8,0.4-3.2,0.7c-0.9,0.1-2.5,0.4-2.5,1.9c0,1.3,0.6,2,2.1,2c1.8,0,3.6-1.2,3.6-2.7V604.6z"/>
		<path class="st10" d="M1306.7,600.6v7.5c0,0.9,0.8,0.9,1.2,0.9h0.7v1.5c-0.7,0.1-1.3,0.2-1.5,0.2c-1.9,0-2.3-1.1-2.3-2.5v-7.6
			h-1.6V599h1.6v-3.2h1.9v3.2h1.8v1.6H1306.7z"/>
		<path class="st10" d="M1310.5,596.9v-2.2h1.9v2.2H1310.5z M1312.5,610.5h-1.9V599h1.9V610.5z"/>
	</g>
</g>
<g transform="translate(-0.5 -0.5)">
	<g class="st9">
		<path class="st10" d="M1579.2,550.6c-0.6-2.8-2.9-3.3-4.4-3.3c-2.9,0-5.2,2.1-5.2,6.3c0,3.7,1.3,6.6,5.2,6.6
			c1.4,0,3.8-0.7,4.5-4.3h2.1c-0.9,6-5.7,6.2-6.9,6.2c-3.6,0-7.1-2.3-7.1-8.4c0-4.9,2.8-8.2,7.4-8.2c4.1,0,6.2,2.5,6.5,5.2H1579.2z"
			/>
		<path class="st10" d="M1585.9,561.7h-1.9v-11.5h1.8v1.9h0c0.8-1.3,1.8-2.2,3.2-2.2c0.2,0,0.4,0,0.5,0.1v2h-0.7
			c-1.8,0-2.9,1.4-2.9,3.1V561.7z"/>
		<path class="st10" d="M1600.8,558.1c-0.1,0.5-0.6,2.2-2,3.1c-0.5,0.4-1.3,0.8-3.1,0.8c-3.2,0-5.1-2.4-5.1-5.8
			c0-3.6,1.7-6.4,5.5-6.4c3.3,0,5,2.6,5,6.7h-8.4c0,2.4,1.1,3.8,3.3,3.8c1.8,0,2.9-1.4,3-2.3H1600.8z M1599,555
			c-0.1-1.8-0.9-3.4-3.2-3.4c-1.8,0-3.2,1.7-3.2,3.4H1599z"/>
		<path class="st10" d="M1603.2,553.7c0.1-2.8,1.9-3.8,4.8-3.8c0.9,0,4.3,0.3,4.3,3.2v6.6c0,0.5,0.2,0.7,0.6,0.7
			c0.2,0,0.4,0,0.6-0.1v1.4c-0.3,0.1-0.6,0.2-1.1,0.2c-1.7,0-2-0.9-2-1.8c-0.7,0.8-1.9,1.9-4.2,1.9c-2.1,0-3.6-1.3-3.6-3.3
			c0-1,0.3-3.2,3.5-3.6l3.2-0.4c0.5,0,1-0.2,1-1.4c0-1.2-0.9-1.9-2.7-1.9c-2.2,0-2.5,1.3-2.6,2.2H1603.2z M1610.3,555.8
			c-0.3,0.2-0.8,0.4-3.2,0.7c-0.9,0.1-2.5,0.4-2.5,1.9c0,1.3,0.6,2,2.1,2c1.8,0,3.6-1.2,3.6-2.7V555.8z"/>
		<path class="st10" d="M1617.7,561.7h-1.9v-11.5h1.8v1.9h0c0.8-1.3,1.8-2.2,3.2-2.2c0.2,0,0.4,0,0.5,0.1v2h-0.7
			c-1.8,0-2.9,1.4-2.9,3.1V561.7z"/>
		<path class="st10" d="M1632.6,558.1c-0.1,0.5-0.6,2.2-2,3.1c-0.5,0.4-1.3,0.8-3.1,0.8c-3.2,0-5.1-2.4-5.1-5.8
			c0-3.6,1.7-6.4,5.5-6.4c3.3,0,5,2.6,5,6.7h-8.4c0,2.4,1.1,3.8,3.3,3.8c1.8,0,2.9-1.4,3-2.3H1632.6z M1630.8,555
			c-0.1-1.8-0.9-3.4-3.2-3.4c-1.8,0-3.2,1.7-3.2,3.4H1630.8z"/>
		<path class="st10" d="M1553.4,588.1h-1.9v-15.8h1.9V588.1z"/>
		<path class="st10" d="M1566.1,584.5c-0.1,0.5-0.6,2.2-2,3.1c-0.5,0.4-1.3,0.8-3.1,0.8c-3.2,0-5.1-2.4-5.1-5.8
			c0-3.6,1.7-6.4,5.5-6.4c3.3,0,5,2.6,5,6.7h-8.4c0,2.4,1.1,3.8,3.3,3.8c1.8,0,2.9-1.4,3-2.3H1566.1z M1564.2,581.4
			c-0.1-1.8-0.9-3.4-3.2-3.4c-1.8,0-3.2,1.7-3.2,3.4H1564.2z"/>
		<path class="st10" d="M1576.9,588.1h-1.9v-11.5h1.8v1.9h0c0.8-1.3,1.8-2.2,3.2-2.2c0.2,0,0.4,0,0.5,0.1v2h-0.7
			c-1.8,0-2.9,1.4-2.9,3.1V588.1z"/>
		<path class="st10" d="M1581.7,580.1c0.1-2.8,1.9-3.8,4.8-3.8c0.9,0,4.3,0.3,4.3,3.2v6.6c0,0.5,0.2,0.7,0.6,0.7
			c0.2,0,0.4,0,0.6-0.1v1.4c-0.3,0.1-0.6,0.2-1.1,0.2c-1.7,0-2-0.9-2-1.8c-0.7,0.8-1.9,1.9-4.2,1.9c-2.1,0-3.6-1.3-3.6-3.3
			c0-1,0.3-3.2,3.5-3.6l3.2-0.4c0.5,0,1-0.2,1-1.4c0-1.2-0.9-1.9-2.7-1.9c-2.2,0-2.5,1.3-2.6,2.2H1581.7z M1588.8,582.2
			c-0.3,0.2-0.8,0.4-3.2,0.7c-0.9,0.1-2.5,0.4-2.5,1.9c0,1.3,0.6,2,2.1,2c1.8,0,3.6-1.2,3.6-2.7V582.2z"/>
		<path class="st10" d="M1601.2,580.5c-0.2-1.5-1.1-2.5-2.7-2.5c-2.4,0-3.2,2.3-3.2,4.3c0,2,0.5,4.4,3.1,4.4c1.3,0,2.4-1,2.8-2.7
			h1.9c-0.2,1.8-1.3,4.4-4.7,4.4c-3.2,0-5.1-2.4-5.1-5.8c0-3.6,1.7-6.4,5.5-6.4c3,0,4.2,2.2,4.3,4.2H1601.2z"/>
		<path class="st10" d="M1612.2,580.5c-0.2-1.5-1.1-2.5-2.7-2.5c-2.4,0-3.2,2.3-3.2,4.3c0,2,0.5,4.4,3.1,4.4c1.3,0,2.4-1,2.8-2.7
			h1.9c-0.2,1.8-1.3,4.4-4.7,4.4c-3.2,0-5.1-2.4-5.1-5.8c0-3.6,1.7-6.4,5.5-6.4c3,0,4.2,2.2,4.3,4.2H1612.2z"/>
		<path class="st10" d="M1620.7,576.3c3.7,0,5.3,3.1,5.3,6.1s-1.7,6.1-5.3,6.1c-3.7,0-5.3-3.1-5.3-6.1S1617,576.3,1620.7,576.3z
			 M1620.7,586.7c2.8,0,3.3-2.9,3.3-4.4s-0.6-4.4-3.3-4.4c-2.8,0-3.3,2.9-3.3,4.4S1617.9,586.7,1620.7,586.7z"/>
		<path class="st10" d="M1630.2,588.1h-1.9v-15.8h1.9V588.1z"/>
		<path class="st10" d="M1635.5,578.2v7.5c0,0.9,0.8,0.9,1.2,0.9h0.7v1.5c-0.7,0.1-1.3,0.2-1.5,0.2c-1.9,0-2.3-1.1-2.3-2.5v-7.6
			h-1.6v-1.6h1.6v-3.2h1.9v3.2h1.8v1.6H1635.5z"/>
		<path class="st10" d="M1649,584.5c-0.1,0.5-0.6,2.2-2,3.1c-0.5,0.4-1.3,0.8-3.1,0.8c-3.2,0-5.1-2.4-5.1-5.8c0-3.6,1.7-6.4,5.5-6.4
			c3.3,0,5,2.6,5,6.7h-8.4c0,2.4,1.1,3.8,3.3,3.8c1.8,0,2.9-1.4,3-2.3H1649z M1647.2,581.4c-0.1-1.8-0.9-3.4-3.2-3.4
			c-1.8,0-3.2,1.7-3.2,3.4H1647.2z"/>
		<path class="st10" d="M1554.5,603h1.8v1.6h0c0.5-0.7,1.3-2,3.4-2c3.1,0,4.8,2.5,4.8,5.7c0,2.8-1.1,6.4-5.1,6.4
			c-1.5,0-2.6-0.7-3.1-1.5h0v5.8h-1.9V603z M1559.5,613.1c2.1,0,3.1-1.9,3.1-4.4c0-1.5-0.2-4.3-3.1-4.3c-2.8,0-3.1,3-3.1,4.9
			C1556.4,612.3,1558.3,613.1,1559.5,613.1z"/>
		<path class="st10" d="M1574.4,614.5v-1.7l0,0c-0.8,1.3-1.8,2-3.7,2c-1.7,0-3.7-0.8-3.7-3.6V603h1.9v7.6c0,1.9,1,2.5,2.2,2.5
			c2.4,0,3.2-2.2,3.2-3.8V603h1.9v11.5H1574.4z"/>
		<path class="st10" d="M1579,614.5v-15.8h1.9v5.7h0c0.8-1.2,2-1.8,3.3-1.8c3.1,0,4.8,2.5,4.8,5.7c0,2.8-1.1,6.4-5.1,6.4
			c-2,0-2.8-1.1-3.2-1.8h0v1.4H1579z M1584,604.4c-2.8,0-3.1,3-3.1,4.9c0,3.1,1.9,3.9,3.1,3.9c2.1,0,3.1-1.9,3.1-4.4
			C1587.1,607.2,1587,604.4,1584,604.4z"/>
		<path class="st10" d="M1591,614.5v-15.8h1.9v5.7h0c0.8-1.2,2-1.8,3.3-1.8c3.1,0,4.8,2.5,4.8,5.7c0,2.8-1.1,6.4-5.1,6.4
			c-2,0-2.8-1.1-3.2-1.8h0v1.4H1591z M1596,604.4c-2.8,0-3.1,3-3.1,4.9c0,3.1,1.9,3.9,3.1,3.9c2.1,0,3.1-1.9,3.1-4.4
			C1599.1,607.2,1599,604.4,1596,604.4z"/>
		<path class="st10" d="M1604.9,614.5h-1.9v-15.8h1.9V614.5z"/>
		<path class="st10" d="M1607.9,600.9v-2.2h1.9v2.2H1607.9z M1609.8,614.5h-1.9V603h1.9V614.5z"/>
		<path class="st10" d="M1619.9,606.9c-0.2-1.5-1.1-2.5-2.7-2.5c-2.4,0-3.2,2.3-3.2,4.3c0,2,0.5,4.4,3.1,4.4c1.3,0,2.4-1,2.8-2.7
			h1.9c-0.2,1.8-1.3,4.4-4.7,4.4c-3.2,0-5.1-2.4-5.1-5.8c0-3.6,1.7-6.4,5.5-6.4c3,0,4.2,2.2,4.3,4.2H1619.9z"/>
		<path class="st10" d="M1633.1,614.5h-1.9V607c0-1.6-0.4-2.6-2.3-2.6c-1.6,0-3.2,0.9-3.2,3.8v6.3h-1.9v-15.8h1.9v5.8h0
			c0.6-0.7,1.5-1.9,3.4-1.9c1.8,0,4,0.7,4,4V614.5z"/>
		<path class="st10" d="M1645.7,610.9c-0.1,0.5-0.6,2.2-2,3.1c-0.5,0.4-1.3,0.8-3.1,0.8c-3.2,0-5.1-2.4-5.1-5.8
			c0-3.6,1.7-6.4,5.5-6.4c3.3,0,5,2.6,5,6.7h-8.4c0,2.4,1.1,3.8,3.3,3.8c1.8,0,2.9-1.4,3-2.3H1645.7z M1643.9,607.8
			c-0.1-1.8-0.9-3.4-3.2-3.4c-1.8,0-3.2,1.7-3.2,3.4H1643.9z"/>
	</g>
</g>
<g transform="translate(-0.5 -0.5)">
	<g class="st9">
		<path class="st10" d="M811.5,385.4c-0.6-2.8-2.9-3.3-4.4-3.3c-2.9,0-5.2,2.1-5.2,6.3c0,3.7,1.3,6.6,5.2,6.6c1.4,0,3.8-0.7,4.5-4.3
			h2.1c-0.9,6-5.7,6.2-6.9,6.2c-3.6,0-7.1-2.3-7.1-8.4c0-4.9,2.8-8.2,7.4-8.2c4.1,0,6.2,2.5,6.5,5.2H811.5z"/>
		<path class="st10" d="M816,388.4c0.1-2.8,1.9-3.8,4.8-3.8c0.9,0,4.3,0.3,4.3,3.2v6.6c0,0.5,0.2,0.7,0.6,0.7c0.2,0,0.4,0,0.6-0.1
			v1.4c-0.3,0.1-0.6,0.2-1.1,0.2c-1.7,0-2-0.9-2-1.8c-0.7,0.8-1.9,1.9-4.2,1.9c-2.1,0-3.6-1.3-3.6-3.3c0-1,0.3-3.2,3.5-3.6l3.2-0.4
			c0.5,0,1-0.2,1-1.4c0-1.2-0.9-1.9-2.7-1.9c-2.2,0-2.5,1.3-2.6,2.2H816z M823.1,390.5c-0.3,0.2-0.8,0.4-3.2,0.7
			c-0.9,0.1-2.5,0.4-2.5,1.9c0,1.3,0.6,2,2.1,2c1.8,0,3.6-1.2,3.6-2.7V390.5z"/>
		<path class="st10" d="M830.5,396.4h-1.9v-11.5h1.8v1.9h0c0.8-1.3,1.8-2.2,3.2-2.2c0.2,0,0.4,0,0.5,0.1v2h-0.7
			c-1.8,0-2.9,1.4-2.9,3.1V396.4z"/>
		<path class="st10" d="M836,382.8v-2.2h1.9v2.2H836z M838,396.4H836v-11.5h1.9V396.4z"/>
		<path class="st10" d="M848.1,388.8c-0.2-1.5-1.1-2.5-2.7-2.5c-2.4,0-3.2,2.3-3.2,4.3c0,2,0.5,4.4,3.1,4.4c1.3,0,2.4-1,2.8-2.7h1.9
			c-0.2,1.8-1.3,4.4-4.7,4.4c-3.2,0-5.1-2.4-5.1-5.8c0-3.6,1.7-6.4,5.5-6.4c3,0,4.2,2.2,4.3,4.2H848.1z"/>
		<path class="st10" d="M851.8,388.4c0.1-2.8,1.9-3.8,4.8-3.8c0.9,0,4.3,0.3,4.3,3.2v6.6c0,0.5,0.2,0.7,0.6,0.7c0.2,0,0.4,0,0.6-0.1
			v1.4c-0.3,0.1-0.6,0.2-1.1,0.2c-1.7,0-2-0.9-2-1.8c-0.7,0.8-1.9,1.9-4.2,1.9c-2.1,0-3.6-1.3-3.6-3.3c0-1,0.3-3.2,3.5-3.6l3.2-0.4
			c0.5,0,1-0.2,1-1.4c0-1.2-0.9-1.9-2.7-1.9c-2.2,0-2.5,1.3-2.6,2.2H851.8z M858.9,390.5c-0.3,0.2-0.8,0.4-3.2,0.7
			c-0.9,0.1-2.5,0.4-2.5,1.9c0,1.3,0.6,2,2.1,2c1.8,0,3.6-1.2,3.6-2.7V390.5z"/>
		<path class="st10" d="M866.3,396.4h-1.9v-11.5h1.8v1.9h0c0.8-1.3,1.8-2.2,3.2-2.2c0.2,0,0.4,0,0.5,0.1v2h-0.7
			c-1.8,0-2.9,1.4-2.9,3.1V396.4z"/>
		<path class="st10" d="M881.2,392.8c-0.1,0.5-0.6,2.2-2,3.1c-0.5,0.4-1.3,0.8-3.1,0.8c-3.2,0-5.1-2.4-5.1-5.8
			c0-3.6,1.7-6.4,5.5-6.4c3.3,0,5,2.6,5,6.7h-8.4c0,2.4,1.1,3.8,3.3,3.8c1.8,0,2.9-1.4,3-2.3H881.2z M879.3,389.7
			c-0.1-1.8-0.9-3.4-3.2-3.4c-1.8,0-3.2,1.7-3.2,3.4H879.3z"/>
		<path class="st10" d="M799.1,422.8h-1.9V407h1.9V422.8z"/>
		<path class="st10" d="M811.8,419.2c-0.1,0.5-0.6,2.2-2,3.1c-0.5,0.4-1.3,0.8-3.1,0.8c-3.2,0-5.1-2.4-5.1-5.8
			c0-3.6,1.7-6.4,5.5-6.4c3.3,0,5,2.6,5,6.7h-8.4c0,2.4,1.1,3.8,3.3,3.8c1.8,0,2.9-1.4,3-2.3H811.8z M810,416.1
			c-0.1-1.8-0.9-3.4-3.2-3.4c-1.8,0-3.2,1.7-3.2,3.4H810z"/>
		<path class="st10" d="M822.6,422.8h-1.9v-11.5h1.8v1.9h0c0.8-1.3,1.8-2.2,3.2-2.2c0.2,0,0.4,0,0.5,0.1v2h-0.7
			c-1.8,0-2.9,1.4-2.9,3.1V422.8z"/>
		<path class="st10" d="M828.1,409.2V407h1.9v2.2H828.1z M830,422.8h-1.9v-11.5h1.9V422.8z"/>
		<path class="st10" d="M839.5,414.6c0-0.7-0.3-1.9-2.7-1.9c-0.6,0-2.3,0.2-2.3,1.6c0,0.9,0.6,1.2,2.1,1.5l1.9,0.5
			c2.4,0.6,3.2,1.5,3.2,3c0,2.4-2,3.8-4.6,3.8c-4.6,0-4.9-2.6-5-4h1.9c0.1,0.9,0.3,2.4,3.1,2.4c1.4,0,2.6-0.6,2.6-1.8
			c0-0.9-0.6-1.2-2.3-1.7l-2.2-0.6c-1.6-0.4-2.7-1.2-2.7-2.8c0-2.5,2.1-3.7,4.4-3.7c4.1,0,4.4,3,4.4,3.6H839.5z"/>
		<path class="st10" d="M848.6,411c3.7,0,5.3,3.1,5.3,6.1s-1.7,6.1-5.3,6.1c-3.7,0-5.3-3.1-5.3-6.1S844.9,411,848.6,411z
			 M848.6,421.4c2.8,0,3.3-2.9,3.3-4.4s-0.6-4.4-3.3-4.4c-2.8,0-3.3,2.9-3.3,4.4S845.8,421.4,848.6,421.4z"/>
		<path class="st10" d="M858.4,422.8h-1.9v-11.5h1.8v1.9h0c0.8-1.3,1.8-2.2,3.2-2.2c0.2,0,0.4,0,0.5,0.1v2h-0.7
			c-1.8,0-2.9,1.4-2.9,3.1V422.8z"/>
		<path class="st10" d="M870,414.6c0-0.7-0.3-1.9-2.7-1.9c-0.6,0-2.3,0.2-2.3,1.6c0,0.9,0.6,1.2,2.1,1.5l1.9,0.5
			c2.4,0.6,3.2,1.5,3.2,3c0,2.4-2,3.8-4.6,3.8c-4.6,0-4.9-2.6-5-4h1.9c0.1,0.9,0.3,2.4,3.1,2.4c1.4,0,2.6-0.6,2.6-1.8
			c0-0.9-0.6-1.2-2.3-1.7l-2.2-0.6c-1.6-0.4-2.7-1.2-2.7-2.8c0-2.5,2.1-3.7,4.4-3.7c4.1,0,4.4,3,4.4,3.6H870z"/>
		<path class="st10" d="M884.2,419.2c-0.1,0.5-0.6,2.2-2,3.1c-0.5,0.4-1.3,0.8-3.1,0.8c-3.2,0-5.1-2.4-5.1-5.8
			c0-3.6,1.7-6.4,5.5-6.4c3.3,0,5,2.6,5,6.7H876c0,2.4,1.1,3.8,3.3,3.8c1.8,0,2.9-1.4,3-2.3H884.2z M882.4,416.1
			c-0.1-1.8-0.9-3.4-3.2-3.4c-1.8,0-3.2,1.7-3.2,3.4H882.4z"/>
	</g>
</g>
<g transform="translate(-0.5 -0.5)">
	<g class="st9">
		<path class="st10" d="M499.2,370.1c-0.6-2.8-2.9-3.3-4.4-3.3c-2.9,0-5.2,2.1-5.2,6.3c0,3.7,1.3,6.6,5.2,6.6c1.4,0,3.8-0.7,4.5-4.3
			h2.1c-0.9,6-5.7,6.2-6.9,6.2c-3.6,0-7.1-2.3-7.1-8.4c0-4.9,2.8-8.2,7.4-8.2c4.1,0,6.2,2.5,6.5,5.2H499.2z"/>
		<path class="st10" d="M505.9,381.2H504v-11.5h1.8v1.9h0c0.8-1.3,1.8-2.2,3.2-2.2c0.2,0,0.4,0,0.5,0.1v2h-0.7
			c-1.8,0-2.9,1.4-2.9,3.1V381.2z"/>
		<path class="st10" d="M520.8,377.6c-0.1,0.5-0.6,2.2-2,3.1c-0.5,0.4-1.3,0.8-3.1,0.8c-3.2,0-5.1-2.4-5.1-5.8
			c0-3.6,1.7-6.4,5.5-6.4c3.3,0,5,2.6,5,6.7h-8.4c0,2.4,1.1,3.8,3.3,3.8c1.8,0,2.9-1.4,3-2.3H520.8z M519,374.5
			c-0.1-1.8-0.9-3.4-3.2-3.4c-1.8,0-3.2,1.7-3.2,3.4H519z"/>
		<path class="st10" d="M523.2,373.2c0.1-2.8,1.9-3.8,4.8-3.8c0.9,0,4.3,0.3,4.3,3.2v6.6c0,0.5,0.2,0.7,0.6,0.7c0.2,0,0.4,0,0.6-0.1
			v1.4c-0.3,0.1-0.6,0.2-1.1,0.2c-1.7,0-2-0.9-2-1.8c-0.7,0.8-1.9,1.9-4.2,1.9c-2.1,0-3.6-1.3-3.6-3.3c0-1,0.3-3.2,3.5-3.6l3.2-0.4
			c0.5,0,1-0.2,1-1.4c0-1.2-0.9-1.9-2.7-1.9c-2.2,0-2.5,1.3-2.6,2.2H523.2z M530.3,375.3c-0.3,0.2-0.8,0.4-3.2,0.7
			c-0.9,0.1-2.5,0.4-2.5,1.9c0,1.3,0.6,2,2.1,2c1.8,0,3.6-1.2,3.6-2.7V375.3z"/>
		<path class="st10" d="M537.7,381.2h-1.9v-11.5h1.8v1.9h0c0.8-1.3,1.8-2.2,3.2-2.2c0.2,0,0.4,0,0.5,0.1v2h-0.7
			c-1.8,0-2.9,1.4-2.9,3.1V381.2z"/>
		<path class="st10" d="M552.6,377.6c-0.1,0.5-0.6,2.2-2,3.1c-0.5,0.4-1.3,0.8-3.1,0.8c-3.2,0-5.1-2.4-5.1-5.8
			c0-3.6,1.7-6.4,5.5-6.4c3.3,0,5,2.6,5,6.7h-8.4c0,2.4,1.1,3.8,3.3,3.8c1.8,0,2.9-1.4,3-2.3H552.6z M550.8,374.5
			c-0.1-1.8-0.9-3.4-3.2-3.4c-1.8,0-3.2,1.7-3.2,3.4H550.8z"/>
		<path class="st10" d="M471.4,407.6h-1.9v-15.8h1.9V407.6z"/>
		<path class="st10" d="M474.3,399.6c0.1-2.8,1.9-3.8,4.8-3.8c0.9,0,4.3,0.3,4.3,3.2v6.6c0,0.5,0.2,0.7,0.6,0.7c0.2,0,0.4,0,0.6-0.1
			v1.4c-0.3,0.1-0.6,0.2-1.1,0.2c-1.7,0-2-0.9-2-1.8c-0.7,0.8-1.9,1.9-4.2,1.9c-2.1,0-3.6-1.3-3.6-3.3c0-1,0.3-3.2,3.5-3.6l3.2-0.4
			c0.5,0,1-0.2,1-1.4c0-1.2-0.9-1.9-2.7-1.9c-2.2,0-2.5,1.3-2.6,2.2H474.3z M481.3,401.7c-0.3,0.2-0.8,0.4-3.2,0.7
			c-0.9,0.1-2.5,0.4-2.5,1.9c0,1.3,0.6,2,2.1,2c1.8,0,3.6-1.2,3.6-2.7V401.7z"/>
		<path class="st10" d="M499.2,399.4c0-0.7-0.3-1.9-2.7-1.9c-0.6,0-2.3,0.2-2.3,1.6c0,0.9,0.6,1.2,2.1,1.5l1.9,0.5
			c2.4,0.6,3.2,1.5,3.2,3c0,2.4-2,3.8-4.6,3.8c-4.6,0-4.9-2.6-5-4h1.9c0.1,0.9,0.3,2.4,3.1,2.4c1.4,0,2.6-0.6,2.6-1.8
			c0-0.9-0.6-1.2-2.3-1.7l-2.2-0.6c-1.6-0.4-2.7-1.2-2.7-2.8c0-2.5,2.1-3.7,4.4-3.7c4.1,0,4.4,3,4.4,3.6H499.2z"/>
		<path class="st10" d="M506,397.7v7.5c0,0.9,0.8,0.9,1.2,0.9h0.7v1.5c-0.7,0.1-1.3,0.2-1.5,0.2c-1.9,0-2.3-1.1-2.3-2.5v-7.6h-1.6
			v-1.6h1.6v-3.2h1.9v3.2h1.8v1.6H506z"/>
		<path class="st10" d="M512,407.6H510v-11.5h1.8v1.9h0c0.8-1.3,1.8-2.2,3.2-2.2c0.2,0,0.4,0,0.5,0.1v2h-0.7c-1.8,0-2.9,1.4-2.9,3.1
			V407.6z"/>
		<path class="st10" d="M524.9,407.6v-1.7l0,0c-0.8,1.3-1.8,2-3.7,2c-1.7,0-3.7-0.8-3.7-3.6v-8.3h1.9v7.6c0,1.9,1,2.5,2.2,2.5
			c2.4,0,3.2-2.2,3.2-3.8v-6.3h1.9v11.5H524.9z"/>
		<path class="st10" d="M532,397.7v7.5c0,0.9,0.8,0.9,1.2,0.9h0.7v1.5c-0.7,0.1-1.3,0.2-1.5,0.2c-1.9,0-2.3-1.1-2.3-2.5v-7.6h-1.6
			v-1.6h1.6v-3.2h1.9v3.2h1.8v1.6H532z"/>
		<path class="st10" d="M538.2,397.7v7.5c0,0.9,0.8,0.9,1.2,0.9h0.7v1.5c-0.7,0.1-1.3,0.2-1.5,0.2c-1.9,0-2.3-1.1-2.3-2.5v-7.6h-1.6
			v-1.6h1.6v-3.2h1.9v3.2h1.8v1.6H538.2z"/>
		<path class="st10" d="M549.4,407.6v-1.7l0,0c-0.8,1.3-1.8,2-3.7,2c-1.7,0-3.7-0.8-3.7-3.6v-8.3h1.9v7.6c0,1.9,1,2.5,2.2,2.5
			c2.4,0,3.2-2.2,3.2-3.8v-6.3h1.9v11.5H549.4z"/>
		<path class="st10" d="M556.3,407.6h-1.9v-11.5h1.8v1.9h0c0.8-1.3,1.8-2.2,3.2-2.2c0.2,0,0.4,0,0.5,0.1v2h-0.7
			c-1.8,0-2.9,1.4-2.9,3.1V407.6z"/>
		<path class="st10" d="M561.2,399.6c0.1-2.8,1.9-3.8,4.8-3.8c0.9,0,4.3,0.3,4.3,3.2v6.6c0,0.5,0.2,0.7,0.6,0.7c0.2,0,0.4,0,0.6-0.1
			v1.4c-0.3,0.1-0.6,0.2-1.1,0.2c-1.7,0-2-0.9-2-1.8c-0.7,0.8-1.9,1.9-4.2,1.9c-2.1,0-3.6-1.3-3.6-3.3c0-1,0.3-3.2,3.5-3.6l3.2-0.4
			c0.5,0,1-0.2,1-1.4c0-1.2-0.9-1.9-2.7-1.9c-2.2,0-2.5,1.3-2.6,2.2H561.2z M568.3,401.7c-0.3,0.2-0.8,0.4-3.2,0.7
			c-0.9,0.1-2.5,0.4-2.5,1.9c0,1.3,0.6,2,2.1,2c1.8,0,3.6-1.2,3.6-2.7V401.7z"/>
		<path class="st10" d="M483.5,434h-1.8v-1.6h0c-0.8,1.6-2.2,1.9-3.3,1.9c-3.9,0-5.1-3.7-5.1-6.4c0-3.2,1.7-5.7,4.8-5.7
			c2.1,0,3,1.3,3.4,2l0-0.2v-5.8h1.9V434z M478.4,432.6c1.2,0,3.1-0.8,3.1-3.9c0-1.9-0.3-4.9-3.1-4.9c-3,0-3.1,2.8-3.1,4.3
			C475.3,430.7,476.3,432.6,478.4,432.6z"/>
		<path class="st10" d="M486.2,420.4v-2.2h1.9v2.2H486.2z M488.2,434h-1.9v-11.5h1.9V434z"/>
		<path class="st10" d="M504.4,426.4c-0.2-1.5-1.1-2.5-2.7-2.5c-2.4,0-3.2,2.3-3.2,4.3c0,2,0.5,4.4,3.1,4.4c1.3,0,2.4-1,2.8-2.7h1.9
			c-0.2,1.8-1.3,4.4-4.7,4.4c-3.2,0-5.1-2.4-5.1-5.8c0-3.6,1.7-6.4,5.5-6.4c3,0,4.2,2.2,4.3,4.2H504.4z"/>
		<path class="st10" d="M508.1,426c0.1-2.8,1.9-3.8,4.8-3.8c0.9,0,4.3,0.3,4.3,3.2v6.6c0,0.5,0.2,0.7,0.6,0.7c0.2,0,0.4,0,0.6-0.1
			v1.4c-0.3,0.1-0.6,0.2-1.1,0.2c-1.7,0-2-0.9-2-1.8c-0.7,0.8-1.9,1.9-4.2,1.9c-2.1,0-3.6-1.3-3.6-3.3c0-1,0.3-3.2,3.5-3.6l3.2-0.4
			c0.5,0,1-0.2,1-1.4c0-1.2-0.9-1.9-2.7-1.9c-2.2,0-2.5,1.3-2.6,2.2H508.1z M515.2,428.1c-0.3,0.2-0.8,0.4-3.2,0.7
			c-0.9,0.1-2.5,0.4-2.5,1.9c0,1.3,0.6,2,2.1,2c1.8,0,3.6-1.2,3.6-2.7V428.1z"/>
		<path class="st10" d="M522.6,434h-1.9v-11.5h1.8v1.9h0c0.8-1.3,1.8-2.2,3.2-2.2c0.2,0,0.4,0,0.5,0.1v2h-0.7
			c-1.8,0-2.9,1.4-2.9,3.1V434z"/>
		<path class="st10" d="M531,424.1v7.5c0,0.9,0.8,0.9,1.2,0.9h0.7v1.5c-0.7,0.1-1.3,0.2-1.5,0.2c-1.9,0-2.3-1.1-2.3-2.5v-7.6h-1.6
			v-1.6h1.6v-3.2h1.9v3.2h1.8v1.6H531z"/>
		<path class="st10" d="M544.5,430.4c-0.1,0.5-0.6,2.2-2,3.1c-0.5,0.4-1.3,0.8-3.1,0.8c-3.2,0-5.1-2.4-5.1-5.8
			c0-3.6,1.7-6.4,5.5-6.4c3.3,0,5,2.6,5,6.7h-8.4c0,2.4,1.1,3.8,3.3,3.8c1.8,0,2.9-1.4,3-2.3H544.5z M542.7,427.3
			c-0.1-1.8-0.9-3.4-3.2-3.4c-1.8,0-3.2,1.7-3.2,3.4H542.7z"/>
		<path class="st10" d="M548.9,434H547v-15.8h1.9V434z"/>
		<path class="st10" d="M553.8,434h-1.9v-15.8h1.9V434z"/>
		<path class="st10" d="M566.5,430.4c-0.1,0.5-0.6,2.2-2,3.1c-0.5,0.4-1.3,0.8-3.1,0.8c-3.2,0-5.1-2.4-5.1-5.8
			c0-3.6,1.7-6.4,5.5-6.4c3.3,0,5,2.6,5,6.7h-8.4c0,2.4,1.1,3.8,3.3,3.8c1.8,0,2.9-1.4,3-2.3H566.5z M564.7,427.3
			c-0.1-1.8-0.9-3.4-3.2-3.4c-1.8,0-3.2,1.7-3.2,3.4H564.7z"/>
	</g>
</g>
<g transform="translate(-0.5 -0.5)">
	<g class="st9">
		<path class="st10" d="M952.7,108.9l-1.5,4.2h-2l5.4-14.4h2.2L962,113h-2.1l-1.4-4.2H952.7z M957.8,107.1l-2.1-6.3h0l-2.3,6.3
			H957.8z"/>
		<path class="st10" d="M972.3,112.2c0,1.5,0,5.3-4.9,5.3c-1.2,0-3.7-0.3-4-3.1h1.8c0.3,1.7,1.9,1.7,2.4,1.7c3,0,3-2.4,3-3.7v-0.4h0
			v0.1c-0.5,0.7-1.4,1.4-2.8,1.4c-3.6,0-4.6-3.3-4.6-5.8c0-2.9,1.6-5.2,4.4-5.2c1.9,0,2.7,1.2,3.1,1.8h0v-1.5h1.7V112.2z
			 M967.7,111.8c1.1,0,2.9-0.7,2.9-3.5c0-1.7-0.3-4.4-2.8-4.4c-2.7,0-2.9,2.6-2.9,3.9C964.9,110.1,965.8,111.8,967.7,111.8z"/>
		<path class="st10" d="M983.4,112.2c0,1.5,0,5.3-4.9,5.3c-1.2,0-3.7-0.3-4-3.1h1.8c0.3,1.7,1.9,1.7,2.4,1.7c3,0,3-2.4,3-3.7v-0.4h0
			v0.1c-0.5,0.7-1.4,1.4-2.8,1.4c-3.6,0-4.6-3.3-4.6-5.8c0-2.9,1.6-5.2,4.4-5.2c1.9,0,2.7,1.2,3.1,1.8h0v-1.5h1.7V112.2z
			 M978.9,111.8c1.1,0,2.9-0.7,2.9-3.5c0-1.7-0.3-4.4-2.8-4.4c-2.7,0-2.9,2.6-2.9,3.9C976,110.1,976.9,111.8,978.9,111.8z"/>
		<path class="st10" d="M985.9,100.7v-2h1.8v2H985.9z M987.6,113h-1.8v-10.5h1.8V113z"/>
		<path class="st10" d="M997.1,113v-1.5l0,0c-0.7,1.2-1.6,1.9-3.3,1.9c-1.5,0-3.4-0.7-3.4-3.2v-7.5h1.8v6.9c0,1.7,0.9,2.3,2,2.3
			c2.2,0,2.9-2,2.9-3.5v-5.8h1.8V113H997.1z"/>
		<path class="st10" d="M1009.9,113h-1.8v-6.4c0-1.8-0.5-2.7-2.2-2.7c-1,0-2.8,0.6-2.8,3.5v5.7h-1.8v-10.5h1.7v1.5h0
			c0.4-0.6,1.4-1.8,3.2-1.8c1.6,0,3.7,0.7,3.7,3.6V113z"/>
		<path class="st10" d="M1021.2,112.2c0,1.5,0,5.3-4.9,5.3c-1.2,0-3.7-0.3-4-3.1h1.8c0.3,1.7,1.9,1.7,2.4,1.7c3,0,3-2.4,3-3.7v-0.4
			h0v0.1c-0.5,0.7-1.4,1.4-2.8,1.4c-3.6,0-4.6-3.3-4.6-5.8c0-2.9,1.6-5.2,4.4-5.2c1.9,0,2.7,1.2,3.1,1.8h0v-1.5h1.7V112.2z
			 M1016.7,111.8c1.1,0,2.9-0.7,2.9-3.5c0-1.7-0.3-4.4-2.8-4.4c-2.7,0-2.9,2.6-2.9,3.9C1013.8,110.1,1014.7,111.8,1016.7,111.8z"/>
		<path class="st10" d="M1032.5,109.8c-0.1,0.5-0.5,2-1.9,2.9c-0.5,0.3-1.2,0.7-2.8,0.7c-2.9,0-4.7-2.2-4.7-5.2c0-3.2,1.6-5.8,5-5.8
			c3,0,4.5,2.4,4.5,6.1h-7.6c0,2.2,1,3.4,3,3.4c1.7,0,2.6-1.3,2.7-2.1H1032.5z M1030.8,107c-0.1-1.6-0.8-3.1-2.9-3.1
			c-1.6,0-2.9,1.5-2.9,3.1H1030.8z"/>
		<path class="st10" d="M1036.8,113h-1.8v-10.5h1.7v1.7h0c0.7-1.2,1.6-2,2.9-2c0.2,0,0.3,0,0.5,0.1v1.8h-0.7c-1.6,0-2.7,1.3-2.7,2.8
			V113z"/>
		<path class="st10" d="M1050.3,109.8c-0.1,0.5-0.5,2-1.9,2.9c-0.5,0.3-1.2,0.7-2.8,0.7c-2.9,0-4.7-2.2-4.7-5.2c0-3.2,1.6-5.8,5-5.8
			c3,0,4.5,2.4,4.5,6.1h-7.6c0,2.2,1,3.4,3,3.4c1.7,0,2.6-1.3,2.7-2.1H1050.3z M1048.6,107c-0.1-1.6-0.8-3.1-2.9-3.1
			c-1.6,0-2.9,1.5-2.9,3.1H1048.6z"/>
		<path class="st10" d="M1066.8,112.2c0,1.5,0,5.3-4.9,5.3c-1.2,0-3.7-0.3-4-3.1h1.8c0.3,1.7,1.9,1.7,2.4,1.7c3,0,3-2.4,3-3.7v-0.4
			h0v0.1c-0.5,0.7-1.4,1.4-2.8,1.4c-3.6,0-4.6-3.3-4.6-5.8c0-2.9,1.6-5.2,4.4-5.2c1.9,0,2.7,1.2,3.1,1.8h0v-1.5h1.7V112.2z
			 M1062.2,111.8c1.1,0,2.9-0.7,2.9-3.5c0-1.7-0.3-4.4-2.8-4.4c-2.7,0-2.9,2.6-2.9,3.9C1059.4,110.1,1060.3,111.8,1062.2,111.8z"/>
		<path class="st10" d="M1071,113h-1.8v-10.5h1.7v1.7h0c0.7-1.2,1.6-2,2.9-2c0.2,0,0.3,0,0.5,0.1v1.8h-0.7c-1.6,0-2.7,1.3-2.7,2.8
			V113z"/>
		<path class="st10" d="M1082.8,113v-1.5l0,0c-0.7,1.2-1.6,1.9-3.3,1.9c-1.5,0-3.4-0.7-3.4-3.2v-7.5h1.8v6.9c0,1.7,0.9,2.3,2,2.3
			c2.2,0,2.9-2,2.9-3.5v-5.8h1.8V113H1082.8z"/>
		<path class="st10" d="M1087,102.6h1.7v1.5h0c0.4-0.6,1.2-1.8,3.1-1.8c2.8,0,4.4,2.3,4.4,5.2c0,2.5-1,5.8-4.6,5.8
			c-1.4,0-2.3-0.7-2.8-1.4h0v5.2h-1.8V102.6z M1091.5,111.8c1.9,0,2.8-1.7,2.8-4c0-1.3-0.1-3.9-2.9-3.9c-2.5,0-2.8,2.7-2.8,4.4
			C1088.6,111.1,1090.4,111.8,1091.5,111.8z"/>
		<path class="st10" d="M1098.1,102.6h1.7v1.5h0c0.4-0.6,1.2-1.8,3.1-1.8c2.8,0,4.4,2.3,4.4,5.2c0,2.5-1,5.8-4.6,5.8
			c-1.4,0-2.3-0.7-2.8-1.4h0v5.2h-1.8V102.6z M1102.6,111.8c1.9,0,2.8-1.7,2.8-4c0-1.3-0.1-3.9-2.9-3.9c-2.5,0-2.8,2.7-2.8,4.4
			C1099.8,111.1,1101.5,111.8,1102.6,111.8z"/>
		<path class="st10" d="M1109.4,100.7v-2h1.8v2H1109.4z M1111.1,113h-1.8v-10.5h1.8V113z"/>
		<path class="st10" d="M968.5,137h-1.7v-1.4h0c-0.8,1.4-2,1.7-3,1.7c-3.6,0-4.6-3.3-4.6-5.8c0-2.9,1.6-5.2,4.4-5.2
			c1.9,0,2.7,1.2,3.1,1.8l0-0.1v-5.2h1.8V137z M963.8,135.8c1.1,0,2.9-0.7,2.9-3.5c0-1.7-0.3-4.4-2.8-4.4c-2.7,0-2.9,2.6-2.9,3.9
			C961,134.1,961.9,135.8,963.8,135.8z"/>
		<path class="st10" d="M970.9,124.7v-2h1.8v2H970.9z M972.7,137h-1.8v-10.5h1.8V137z"/>
		<path class="st10" d="M987.7,137v-1.5l0,0c-0.7,1.2-1.6,1.9-3.3,1.9c-1.5,0-3.4-0.7-3.4-3.2v-7.5h1.8v6.9c0,1.7,0.9,2.3,2,2.3
			c2.2,0,2.9-2,2.9-3.5v-5.8h1.8V137H987.7z"/>
		<path class="st10" d="M994.2,128v6.8c0,0.8,0.7,0.8,1.1,0.8h0.6v1.4c-0.6,0.1-1.1,0.1-1.3,0.1c-1.7,0-2.1-1-2.1-2.2V128H991v-1.5
			h1.4v-2.9h1.8v2.9h1.7v1.5H994.2z"/>
		<path class="st10" d="M1006.5,133.8c-0.1,0.5-0.5,2-1.9,2.9c-0.5,0.3-1.2,0.7-2.8,0.7c-2.9,0-4.7-2.2-4.7-5.2c0-3.2,1.6-5.8,5-5.8
			c3,0,4.5,2.4,4.5,6.1H999c0,2.2,1,3.4,3,3.4c1.7,0,2.6-1.3,2.7-2.1H1006.5z M1004.8,131c-0.1-1.6-0.8-3.1-2.9-3.1
			c-1.6,0-2.9,1.5-2.9,3.1H1004.8z"/>
		<path class="st10" d="M1017.2,137h-1.8v-6.4c0-1.8-0.5-2.7-2.2-2.7c-1,0-2.8,0.6-2.8,3.5v5.7h-1.8v-10.5h1.7v1.5h0
			c0.4-0.6,1.4-1.8,3.2-1.8c1.6,0,3.7,0.7,3.7,3.6V137z"/>
		<path class="st10" d="M1022,128v6.8c0,0.8,0.7,0.8,1.1,0.8h0.6v1.4c-0.6,0.1-1.1,0.1-1.3,0.1c-1.7,0-2.1-1-2.1-2.2V128h-1.4v-1.5
			h1.4v-2.9h1.8v2.9h1.7v1.5H1022z"/>
		<path class="st10" d="M1025.4,124.7v-2h1.8v2H1025.4z M1027.2,137h-1.8v-10.5h1.8V137z"/>
		<path class="st10" d="M1035.3,129.8c0.1-2.5,1.7-3.5,4.3-3.5c0.8,0,3.9,0.2,3.9,2.9v6c0,0.4,0.2,0.6,0.6,0.6c0.2,0,0.4,0,0.6-0.1
			v1.3c-0.3,0.1-0.6,0.2-1,0.2c-1.6,0-1.8-0.8-1.9-1.6c-0.7,0.7-1.7,1.7-3.8,1.7c-1.9,0-3.3-1.2-3.3-3c0-0.9,0.3-2.9,3.2-3.3
			l2.9-0.4c0.4,0,0.9-0.2,0.9-1.2c0-1.1-0.8-1.7-2.5-1.7c-2,0-2.3,1.2-2.4,2H1035.3z M1041.8,131.7c-0.3,0.2-0.7,0.4-2.9,0.7
			c-0.9,0.1-2.2,0.4-2.2,1.7c0,1.1,0.6,1.8,1.9,1.8c1.6,0,3.2-1.1,3.2-2.5V131.7z"/>
		<path class="st10" d="M1046.5,124.7v-2h1.8v2H1046.5z M1048.3,137h-1.8v-10.5h1.8V137z"/>
		<path class="st10" d="M1056.4,126.6h1.7v1.5h0c0.4-0.6,1.2-1.8,3.1-1.8c2.8,0,4.4,2.3,4.4,5.2c0,2.5-1,5.8-4.6,5.8
			c-1.4,0-2.3-0.7-2.8-1.4h0v5.2h-1.8V126.6z M1060.9,135.8c1.9,0,2.8-1.7,2.8-4c0-1.3-0.1-3.9-2.9-3.9c-2.5,0-2.8,2.7-2.8,4.4
			C1058,135.1,1059.8,135.8,1060.9,135.8z"/>
		<path class="st10" d="M1069.6,137h-1.8v-10.5h1.7v1.7h0c0.7-1.2,1.6-2,2.9-2c0.2,0,0.3,0,0.5,0.1v1.8h-0.7c-1.6,0-2.7,1.3-2.7,2.8
			V137z"/>
		<path class="st10" d="M1078.5,126.3c3.3,0,4.9,2.8,4.9,5.5s-1.5,5.5-4.9,5.5c-3.3,0-4.9-2.8-4.9-5.5S1075.2,126.3,1078.5,126.3z
			 M1078.5,135.8c2.5,0,3-2.6,3-4s-0.5-4-3-4s-3,2.6-3,4S1076,135.8,1078.5,135.8z"/>
		<path class="st10" d="M1087.6,128v9h-1.8v-9h-1.4v-1.5h1.4v-1.8c0-1.6,1-2.3,2.7-2.3c0.3,0,0.5,0,0.8,0v1.6c-0.2,0-0.5,0-0.7,0
			c-0.8,0-1,0.4-1,1.2v1.3h1.8v1.5H1087.6z"/>
		<path class="st10" d="M1091,124.7v-2h1.8v2H1091z M1092.8,137h-1.8v-10.5h1.8V137z"/>
		<path class="st10" d="M1097.2,137h-1.8v-14.4h1.8V137z"/>
		<path class="st10" d="M1099.9,124.7v-2h1.8v2H1099.9z M1101.6,137h-1.8v-10.5h1.8V137z"/>
		<path class="st10" d="M951.8,150.6h1.7v1.5h0c0.4-0.6,1.2-1.8,3.1-1.8c2.8,0,4.4,2.3,4.4,5.2c0,2.5-1,5.8-4.6,5.8
			c-1.4,0-2.3-0.7-2.8-1.4h0v5.2h-1.8V150.6z M956.4,159.8c1.9,0,2.8-1.7,2.8-4c0-1.3-0.1-3.9-2.9-3.9c-2.5,0-2.8,2.7-2.8,4.4
			C953.5,159.1,955.3,159.8,956.4,159.8z"/>
		<path class="st10" d="M965.1,161h-1.8v-10.5h1.7v1.7h0c0.7-1.2,1.6-2,2.9-2c0.2,0,0.3,0,0.5,0.1v1.8h-0.7c-1.6,0-2.7,1.3-2.7,2.8
			V161z"/>
		<path class="st10" d="M974,150.3c3.3,0,4.9,2.8,4.9,5.5s-1.5,5.5-4.9,5.5c-3.3,0-4.9-2.8-4.9-5.5S970.7,150.3,974,150.3z
			 M974,159.8c2.5,0,3-2.6,3-4s-0.5-4-3-4s-3,2.6-3,4S971.5,159.8,974,159.8z"/>
		<path class="st10" d="M989.6,161h-1.7v-1.4h0c-0.8,1.4-2,1.7-3,1.7c-3.6,0-4.6-3.3-4.6-5.8c0-2.9,1.6-5.2,4.4-5.2
			c1.9,0,2.7,1.2,3.1,1.8l0-0.1v-5.2h1.8V161z M984.9,159.8c1.1,0,2.9-0.7,2.9-3.5c0-1.7-0.3-4.4-2.8-4.4c-2.7,0-2.9,2.6-2.9,3.9
			C982.1,158.1,983,159.8,984.9,159.8z"/>
		<path class="st10" d="M996.3,150.3c3.3,0,4.9,2.8,4.9,5.5s-1.5,5.5-4.9,5.5c-3.3,0-4.9-2.8-4.9-5.5S992.9,150.3,996.3,150.3z
			 M996.3,159.8c2.5,0,3-2.6,3-4s-0.5-4-3-4s-3,2.6-3,4S993.7,159.8,996.3,159.8z"/>
		<path class="st10" d="M1005.3,152v6.8c0,0.8,0.7,0.8,1.1,0.8h0.6v1.4c-0.6,0.1-1.1,0.1-1.3,0.1c-1.7,0-2.1-1-2.1-2.2V152h-1.4
			v-1.5h1.4v-2.9h1.8v2.9h1.7v1.5H1005.3z"/>
		<path class="st10" d="M1010.8,152v6.8c0,0.8,0.7,0.8,1.1,0.8h0.6v1.4c-0.6,0.1-1.1,0.1-1.3,0.1c-1.7,0-2.1-1-2.1-2.2V152h-1.4
			v-1.5h1.4v-2.9h1.8v2.9h1.7v1.5H1010.8z"/>
		<path class="st10" d="M1018.5,150.3c3.3,0,4.9,2.8,4.9,5.5s-1.5,5.5-4.9,5.5c-3.3,0-4.9-2.8-4.9-5.5S1015.2,150.3,1018.5,150.3z
			 M1018.5,159.8c2.5,0,3-2.6,3-4s-0.5-4-3-4s-3,2.6-3,4S1016,159.8,1018.5,159.8z"/>
		<path class="st10" d="M1039.6,161h-1.7v-1.4h0c-0.8,1.4-2,1.7-3,1.7c-3.6,0-4.6-3.3-4.6-5.8c0-2.9,1.6-5.2,4.4-5.2
			c1.9,0,2.7,1.2,3.1,1.8l0-0.1v-5.2h1.8V161z M1035,159.8c1.1,0,2.9-0.7,2.9-3.5c0-1.7-0.3-4.4-2.8-4.4c-2.7,0-2.9,2.6-2.9,3.9
			C1032.1,158.1,1033,159.8,1035,159.8z"/>
		<path class="st10" d="M1042.1,148.7v-2h1.8v2H1042.1z M1043.8,161h-1.8v-10.5h1.8V161z"/>
		<path class="st10" d="M1054.5,156.9l-1.5,4.2h-2l5.4-14.4h2.2l5.2,14.4h-2.1l-1.4-4.2H1054.5z M1059.6,155.1l-2.1-6.3h0l-2.3,6.3
			H1059.6z"/>
		<path class="st10" d="M1071.3,153.6c0-0.7-0.3-1.8-2.5-1.8c-0.5,0-2.1,0.2-2.1,1.5c0,0.9,0.5,1.1,1.9,1.4l1.8,0.4
			c2.2,0.5,2.9,1.3,2.9,2.8c0,2.2-1.8,3.5-4.1,3.5c-4.1,0-4.4-2.4-4.5-3.7h1.7c0.1,0.8,0.3,2.1,2.8,2.1c1.3,0,2.4-0.5,2.4-1.7
			c0-0.8-0.6-1.1-2.1-1.5l-2-0.5c-1.5-0.4-2.4-1.1-2.4-2.5c0-2.3,1.9-3.3,4-3.3c3.7,0,4,2.8,4,3.3H1071.3z"/>
		<path class="st10" d="M1081.3,153.6c0-0.7-0.3-1.8-2.5-1.8c-0.5,0-2.1,0.2-2.1,1.5c0,0.9,0.5,1.1,1.9,1.4l1.8,0.4
			c2.2,0.5,2.9,1.3,2.9,2.8c0,2.2-1.8,3.5-4.1,3.5c-4.1,0-4.4-2.4-4.5-3.7h1.7c0.1,0.8,0.3,2.1,2.8,2.1c1.3,0,2.4-0.5,2.4-1.7
			c0-0.8-0.6-1.1-2.1-1.5l-2-0.5c-1.5-0.4-2.4-1.1-2.4-2.5c0-2.3,1.9-3.3,4-3.3c3.7,0,4,2.8,4,3.3H1081.3z"/>
		<path class="st10" d="M1094.3,157.8c-0.1,0.5-0.5,2-1.9,2.9c-0.5,0.3-1.2,0.7-2.8,0.7c-2.9,0-4.7-2.2-4.7-5.2c0-3.2,1.6-5.8,5-5.8
			c3,0,4.5,2.4,4.5,6.1h-7.6c0,2.2,1,3.4,3,3.4c1.7,0,2.6-1.3,2.7-2.1H1094.3z M1092.6,155c-0.1-1.6-0.8-3.1-2.9-3.1
			c-1.6,0-2.9,1.5-2.9,3.1H1092.6z"/>
		<path class="st10" d="M1098.7,152v6.8c0,0.8,0.7,0.8,1.1,0.8h0.6v1.4c-0.6,0.1-1.1,0.1-1.3,0.1c-1.7,0-2.1-1-2.1-2.2V152h-1.4
			v-1.5h1.4v-2.9h1.8v2.9h1.7v1.5H1098.7z"/>
		<path class="st10" d="M1108,153.6c0-0.7-0.3-1.8-2.5-1.8c-0.5,0-2.1,0.2-2.1,1.5c0,0.9,0.5,1.1,1.9,1.4l1.8,0.4
			c2.2,0.5,2.9,1.3,2.9,2.8c0,2.2-1.8,3.5-4.1,3.5c-4.1,0-4.4-2.4-4.5-3.7h1.7c0.1,0.8,0.3,2.1,2.8,2.1c1.3,0,2.4-0.5,2.4-1.7
			c0-0.8-0.6-1.1-2.1-1.5l-2-0.5c-1.5-0.4-2.4-1.1-2.4-2.5c0-2.3,1.9-3.3,4-3.3c3.7,0,4,2.8,4,3.3H1108z"/>
		<path class="st10" d="M997.5,185h-10.6v-14.4h10.5v1.7h-8.5v4.4h7.9v1.7h-7.9v4.8h8.7V185z"/>
		<path class="st10" d="M1005.7,177.6c0-0.7-0.3-1.8-2.5-1.8c-0.5,0-2.1,0.2-2.1,1.5c0,0.9,0.5,1.1,1.9,1.4l1.8,0.4
			c2.2,0.5,2.9,1.3,2.9,2.8c0,2.2-1.8,3.5-4.1,3.5c-4.1,0-4.4-2.4-4.5-3.7h1.7c0.1,0.8,0.3,2.1,2.8,2.1c1.3,0,2.4-0.5,2.4-1.7
			c0-0.8-0.6-1.1-2.1-1.5l-2-0.5c-1.5-0.4-2.4-1.1-2.4-2.5c0-2.3,1.9-3.3,4-3.3c3.7,0,4,2.8,4,3.3H1005.7z"/>
		<path class="st10" d="M1015.7,177.6c0-0.7-0.3-1.8-2.5-1.8c-0.5,0-2.1,0.2-2.1,1.5c0,0.9,0.5,1.1,1.9,1.4l1.8,0.4
			c2.2,0.5,2.9,1.3,2.9,2.8c0,2.2-1.8,3.5-4.1,3.5c-4.1,0-4.4-2.4-4.5-3.7h1.7c0.1,0.8,0.3,2.1,2.8,2.1c1.3,0,2.4-0.5,2.4-1.7
			c0-0.8-0.6-1.1-2.1-1.5l-2-0.5c-1.5-0.4-2.4-1.1-2.4-2.5c0-2.3,1.9-3.3,4-3.3c3.7,0,4,2.8,4,3.3H1015.7z"/>
		<path class="st10" d="M1028.7,181.8c-0.1,0.5-0.5,2-1.9,2.9c-0.5,0.3-1.2,0.7-2.8,0.7c-2.9,0-4.7-2.2-4.7-5.2c0-3.2,1.6-5.8,5-5.8
			c3,0,4.5,2.4,4.5,6.1h-7.6c0,2.2,1,3.4,3,3.4c1.7,0,2.6-1.3,2.7-2.1H1028.7z M1027,179c-0.1-1.6-0.8-3.1-2.9-3.1
			c-1.6,0-2.9,1.5-2.9,3.1H1027z"/>
		<path class="st10" d="M1039.4,185h-1.8v-6.4c0-1.8-0.5-2.7-2.2-2.7c-1,0-2.8,0.6-2.8,3.5v5.7h-1.8v-10.5h1.7v1.5h0
			c0.4-0.6,1.4-1.8,3.2-1.8c1.6,0,3.7,0.7,3.7,3.6V185z"/>
		<path class="st10" d="M1044.2,176v6.8c0,0.8,0.7,0.8,1.1,0.8h0.6v1.4c-0.6,0.1-1.1,0.1-1.3,0.1c-1.7,0-2.1-1-2.1-2.2V176h-1.4
			v-1.5h1.4v-2.9h1.8v2.9h1.7v1.5H1044.2z"/>
		<path class="st10" d="M1047.6,172.7v-2h1.8v2H1047.6z M1049.4,185h-1.8v-10.5h1.8V185z"/>
		<path class="st10" d="M1052,177.8c0.1-2.5,1.7-3.5,4.3-3.5c0.8,0,3.9,0.2,3.9,2.9v6c0,0.4,0.2,0.6,0.6,0.6c0.2,0,0.4,0,0.6-0.1
			v1.3c-0.3,0.1-0.6,0.2-1,0.2c-1.6,0-1.8-0.8-1.9-1.6c-0.7,0.7-1.7,1.7-3.8,1.7c-1.9,0-3.3-1.2-3.3-3c0-0.9,0.3-2.9,3.2-3.3
			l2.9-0.4c0.4,0,0.9-0.2,0.9-1.2c0-1.1-0.8-1.7-2.5-1.7c-2,0-2.3,1.2-2.4,2H1052z M1058.4,179.7c-0.3,0.2-0.7,0.4-2.9,0.7
			c-0.9,0.1-2.2,0.4-2.2,1.7c0,1.1,0.6,1.8,1.9,1.8c1.6,0,3.2-1.1,3.2-2.5V179.7z"/>
		<path class="st10" d="M1065,185h-1.8v-14.4h1.8V185z"/>
		<path class="st10" d="M1073.5,177.6c0-0.7-0.3-1.8-2.5-1.8c-0.5,0-2.1,0.2-2.1,1.5c0,0.9,0.5,1.1,1.9,1.4l1.8,0.4
			c2.2,0.5,2.9,1.3,2.9,2.8c0,2.2-1.8,3.5-4.1,3.5c-4.1,0-4.4-2.4-4.5-3.7h1.7c0.1,0.8,0.3,2.1,2.8,2.1c1.3,0,2.4-0.5,2.4-1.7
			c0-0.8-0.6-1.1-2.1-1.5l-2-0.5c-1.5-0.4-2.4-1.1-2.4-2.5c0-2.3,1.9-3.3,4-3.3c3.7,0,4,2.8,4,3.3H1073.5z"/>
	</g>
</g>
<g transform="translate(-0.5 -0.5)">
	<g class="st9">
		<path class="st10" d="M142.2,448h-3.5l5.6-15.8h3.8l5.6,15.8h-3.6l-1-3.3h-5.8L142.2,448z M144.2,442h4l-2-6.2h0L144.2,442z"/>
		<path class="st10" d="M172.4,448h-3.1v-7.1c0-1.7-0.8-2.3-1.7-2.3c-1.5,0-2.1,1-2.1,2.4v7h-3.1v-7c0-1,0-2.4-1.8-2.4
			c-1.5,0-1.9,1-1.9,2.3v7.1h-3.1v-11.7h2.9v1.7h0c0.4-0.8,1.3-2,3.3-2c1.7,0,2.5,0.6,3.3,1.9c0.4-0.6,1.3-1.9,3.1-1.9
			c2.3,0,4.1,1.3,4.1,3.9V448z"/>
		<path class="st10" d="M191.9,448h-3.1v-7.1c0-1.7-0.8-2.3-1.7-2.3c-1.5,0-2.1,1-2.1,2.4v7H182v-7c0-1,0-2.4-1.8-2.4
			c-1.5,0-1.9,1-1.9,2.3v7.1h-3.1v-11.7h2.9v1.7h0c0.4-0.8,1.3-2,3.3-2c1.7,0,2.5,0.6,3.3,1.9c0.4-0.6,1.3-1.9,3.1-1.9
			c2.3,0,4.1,1.3,4.1,3.9V448z"/>
		<path class="st10" d="M197.9,434.9h-3.1v-2.9h3.1V434.9z M197.9,436.3V448h-3.1v-11.7H197.9z"/>
		<path class="st10" d="M211.4,448h-3.1v-7.1c0-0.9,0-2.3-2-2.3c-1.4,0-2.4,0.9-2.4,2.7v6.7h-3.1v-11.7h2.9v1.7h0
			c0.4-0.7,1.3-2,3.5-2c2.3,0,4.1,1.3,4.1,3.9V448z"/>
		<path class="st10" d="M217.5,434.9h-3.1v-2.9h3.1V434.9z M217.5,436.3V448h-3.1v-11.7H217.5z"/>
		<path class="st10" d="M227,439.9c-0.1-0.7-0.4-1.5-2.1-1.5s-1.9,0.6-1.9,1.1c0,1.8,7.3,0.5,7.3,4.8c0,3.4-3.3,4-5.1,4
			c-2.7,0-5.5-0.9-5.6-4h3.2c0,1,0.6,1.7,2.6,1.7c1.6,0,2-0.8,2-1.2c0-2-7.3-0.5-7.3-4.9c0-1.7,1.1-3.9,4.7-3.9c2.3,0,5,0.6,5.3,3.9
			H227z"/>
		<path class="st10" d="M236.1,436.3h1.9v2.2h-1.9v6.4c0,0.7,0,0.9,1.3,0.9c0.2,0,0.4,0,0.6,0v2.3c-0.5,0-1,0-1.5,0h-0.4
			c-2.7,0-3.1-1-3.1-2.5v-7.1h-1.6v-2.2h1.6v-3.2h3.1V436.3z"/>
		<path class="st10" d="M240,436.3h2.9v2h0c0.6-1.2,1.3-2.3,3.2-2.3c0.2,0,0.4,0,0.6,0v3.1c-0.3,0-0.6,0-0.9,0
			c-2.4,0-2.8,1.5-2.8,2.8v6.1H240V436.3z"/>
		<path class="st10" d="M258,445.7c0,1.4,0.3,1.7,0.7,1.8v0.5h-3.3c-0.2-0.5-0.2-0.7-0.3-1.4c-0.7,0.7-1.7,1.7-3.8,1.7
			c-1.8,0-3.6-1-3.6-3.4c0-2.3,1.5-3.5,3.4-3.7l2.8-0.4c0.5-0.1,1.1-0.3,1.1-0.9c0-1.3-1.2-1.4-2-1.4c-1.5,0-1.8,0.9-1.9,1.6h-3
			c0.4-3.6,2.8-4.1,5.2-4.1c1.6,0,4.7,0.5,4.7,3.4V445.7z M255,442.3c-0.3,0.2-0.8,0.4-2.1,0.6c-1.1,0.2-2.1,0.5-2.1,1.8
			c0,1.1,0.8,1.4,1.4,1.4c1.4,0,2.8-0.9,2.8-2.3V442.3z"/>
		<path class="st10" d="M264.2,436.3h1.9v2.2h-1.9v6.4c0,0.7,0,0.9,1.3,0.9c0.2,0,0.4,0,0.6,0v2.3c-0.5,0-1,0-1.5,0h-0.4
			c-2.7,0-3.1-1-3.1-2.5v-7.1h-1.6v-2.2h1.6v-3.2h3.1V436.3z"/>
		<path class="st10" d="M273.4,448.3c-3.1,0-6-1.9-6-6.2s2.8-6.2,6-6.2s6,1.9,6,6.2S276.5,448.3,273.4,448.3z M273.4,438.6
			c-2.4,0-2.8,2.1-2.8,3.6s0.4,3.6,2.8,3.6s2.8-2.1,2.8-3.6S275.8,438.6,273.4,438.6z"/>
		<path class="st10" d="M281.5,436.3h2.9v2h0c0.6-1.2,1.3-2.3,3.2-2.3c0.2,0,0.4,0,0.6,0v3.1c-0.3,0-0.6,0-0.9,0
			c-2.4,0-2.8,1.5-2.8,2.8v6.1h-3.1V436.3z"/>
		<path class="st10" d="M300.1,444.6c-0.8,2.8-3.1,3.7-5.1,3.7c-3.3,0-5.8-1.6-5.8-6.4c0-1.4,0.5-5.9,5.6-5.9c2.3,0,5.5,1.1,5.5,6.4
			v0.5h-8c0.1,0.9,0.3,2.9,2.8,2.9c0.9,0,1.7-0.4,2-1.3H300.1z M297.1,441c-0.2-1.9-1.4-2.5-2.4-2.5c-1.5,0-2.2,0.9-2.4,2.5H297.1z"
			/>
		<path class="st10" d="M143.7,474.4h-3v-1.5h0c-0.7,1.3-2.1,1.8-3.4,1.8c-3.5,0-4.9-3.1-4.9-6.3c0-4,2.3-6,4.9-6
			c2,0,2.9,1.1,3.4,1.8h0v-5.6h3.1V474.4z M138,472.2c2,0,2.7-1.6,2.7-3.4c0-1.9-0.5-3.8-2.6-3.8c-2,0-2.6,1.7-2.6,3.6
			C135.5,470,136,472.2,138,472.2z"/>
		<path class="st10" d="M156.5,471c-0.8,2.8-3.1,3.7-5.1,3.7c-3.3,0-5.8-1.6-5.8-6.4c0-1.4,0.5-5.9,5.6-5.9c2.3,0,5.5,1.1,5.5,6.4
			v0.5h-8c0.1,0.9,0.3,2.9,2.8,2.9c0.9,0,1.7-0.4,2-1.3H156.5z M153.5,467.4c-0.2-1.9-1.4-2.5-2.4-2.5c-1.5,0-2.2,0.9-2.4,2.5H153.5
			z"/>
		<path class="st10" d="M161.8,474.4h-3.1v-15.8h3.1V474.4z"/>
		<path class="st10" d="M168,474.4h-3.1v-15.8h3.1V474.4z"/>
		<path class="st10" d="M171,458.6h3.1v2.2c0,2.8-1.8,3.5-3,3.8v-1.1c1.5-0.5,1.6-1.3,1.6-2.1H171V458.6z"/>
		<path class="st10" d="M186.5,472.1c0,1.4,0.3,1.7,0.7,1.8v0.5h-3.3c-0.2-0.5-0.2-0.7-0.3-1.4c-0.7,0.7-1.7,1.7-3.8,1.7
			c-1.8,0-3.6-1-3.6-3.4c0-2.3,1.5-3.5,3.4-3.7l2.8-0.4c0.5-0.1,1.1-0.3,1.1-0.9c0-1.3-1.2-1.4-2-1.4c-1.5,0-1.8,0.9-1.9,1.6h-3
			c0.4-3.6,2.8-4.1,5.2-4.1c1.6,0,4.7,0.5,4.7,3.4V472.1z M183.5,468.7c-0.3,0.2-0.8,0.4-2.1,0.6c-1.1,0.2-2.1,0.5-2.1,1.8
			c0,1.1,0.8,1.4,1.4,1.4c1.4,0,2.8-0.9,2.8-2.3V468.7z"/>
		<path class="st10" d="M192.1,464.4L192.1,464.4c0.6-0.9,1.5-2,3.5-2c2.6,0,4.9,2,4.9,6c0,3.2-1.5,6.3-4.9,6.3
			c-2.2,0-2.9-1.2-3.3-1.8h0v6.1h-3.1v-16.3h2.9V464.4z M194.8,472.2c2,0,2.5-2.2,2.5-3.5c0-1.8-0.7-3.6-2.6-3.6
			c-2.1,0-2.6,1.9-2.6,3.8C192.1,470.6,192.9,472.2,194.8,472.2z"/>
		<path class="st10" d="M205.6,464.4L205.6,464.4c0.6-0.9,1.5-2,3.5-2c2.6,0,4.9,2,4.9,6c0,3.2-1.5,6.3-4.9,6.3
			c-2.2,0-2.9-1.2-3.3-1.8h0v6.1h-3.1v-16.3h2.9V464.4z M208.3,472.2c2,0,2.5-2.2,2.5-3.5c0-1.8-0.7-3.6-2.6-3.6
			c-2.1,0-2.6,1.9-2.6,3.8C205.6,470.6,206.3,472.2,208.3,472.2z"/>
		<path class="st10" d="M219.3,474.4h-3.1v-15.8h3.1V474.4z"/>
		<path class="st10" d="M225.4,461.3h-3.1v-2.9h3.1V461.3z M225.4,462.7v11.7h-3.1v-11.7H225.4z"/>
		<path class="st10" d="M238.5,470.1c-0.1,1.2-1.1,4.6-5.3,4.6c-4.4,0-5.4-3.4-5.4-5.8c0-3.8,1.7-6.5,5.6-6.5c1.8,0,4.9,0.8,5.2,4.5
			h-3.1c-0.1-0.8-0.6-2-2-1.9c-1.9,0-2.4,1.9-2.4,3.4c0,1.3,0,3.8,2.4,3.8c1.6,0,2.1-1.5,2.1-2H238.5z"/>
		<path class="st10" d="M250.1,472.1c0,1.4,0.3,1.7,0.7,1.8v0.5h-3.3c-0.2-0.5-0.2-0.7-0.3-1.4c-0.7,0.7-1.7,1.7-3.8,1.7
			c-1.8,0-3.6-1-3.6-3.4c0-2.3,1.5-3.5,3.4-3.7l2.8-0.4c0.5-0.1,1.1-0.3,1.1-0.9c0-1.3-1.2-1.4-2-1.4c-1.5,0-1.8,0.9-1.9,1.6h-3
			c0.4-3.6,2.8-4.1,5.2-4.1c1.6,0,4.7,0.5,4.7,3.4V472.1z M247.1,468.7c-0.3,0.2-0.8,0.4-2.1,0.6c-1.1,0.2-2.1,0.5-2.1,1.8
			c0,1.1,0.8,1.4,1.4,1.4c1.4,0,2.8-0.9,2.8-2.3V468.7z"/>
		<path class="st10" d="M255.8,471.9h6.1v2.5h-10.1V472l6-6.8h-5.6v-2.5h9.5v2.5L255.8,471.9z"/>
		<path class="st10" d="M267,461.3h-3.1v-2.9h3.1V461.3z M267,462.7v11.7h-3.1v-11.7H267z"/>
		<path class="st10" d="M275.3,474.7c-3.1,0-6-1.9-6-6.2s2.8-6.2,6-6.2s6,1.9,6,6.2S278.4,474.7,275.3,474.7z M275.3,465
			c-2.4,0-2.8,2.1-2.8,3.6s0.4,3.6,2.8,3.6s2.8-2.1,2.8-3.6S277.6,465,275.3,465z"/>
		<path class="st10" d="M294,474.4h-3.1v-7.1c0-0.9,0-2.3-2-2.3c-1.4,0-2.4,0.9-2.4,2.7v6.7h-3.1v-11.7h2.9v1.7h0
			c0.4-0.7,1.3-2,3.5-2c2.3,0,4.1,1.3,4.1,3.9V474.4z"/>
		<path class="st10" d="M306.9,471c-0.8,2.8-3.1,3.7-5.1,3.7c-3.3,0-5.8-1.6-5.8-6.4c0-1.4,0.5-5.9,5.6-5.9c2.3,0,5.5,1.1,5.5,6.4
			v0.5h-8c0.1,0.9,0.3,2.9,2.8,2.9c0.9,0,1.7-0.4,2-1.3H306.9z M303.9,467.4c-0.2-1.9-1.4-2.5-2.4-2.5c-1.5,0-2.2,0.9-2.4,2.5H303.9
			z"/>
		<path class="st10" d="M130,500.8h-3.5l5.6-15.8h3.8l5.6,15.8h-3.6l-1-3.3h-5.8L130,500.8z M132,494.8h4l-2-6.2h0L132,494.8z"/>
		<path class="st10" d="M150,492.7c-0.1-0.7-0.4-1.5-2.1-1.5s-1.9,0.6-1.9,1.1c0,1.8,7.3,0.5,7.3,4.8c0,3.4-3.3,4-5.1,4
			c-2.7,0-5.5-0.9-5.6-4h3.2c0,1,0.6,1.7,2.6,1.7c1.6,0,2-0.8,2-1.2c0-2-7.3-0.5-7.3-4.9c0-1.7,1.1-3.9,4.7-3.9c2.3,0,5,0.6,5.3,3.9
			H150z"/>
		<path class="st10" d="M162.2,492.7c-0.1-0.7-0.4-1.5-2.1-1.5s-1.9,0.6-1.9,1.1c0,1.8,7.3,0.5,7.3,4.8c0,3.4-3.3,4-5.1,4
			c-2.7,0-5.5-0.9-5.6-4h3.2c0,1,0.6,1.7,2.6,1.7c1.6,0,2-0.8,2-1.2c0-2-7.3-0.5-7.3-4.9c0-1.7,1.1-3.9,4.7-3.9c2.3,0,5,0.6,5.3,3.9
			H162.2z"/>
		<path class="st10" d="M177.9,497.4c-0.8,2.8-3.1,3.7-5.1,3.7c-3.3,0-5.8-1.6-5.8-6.4c0-1.4,0.5-5.9,5.6-5.9c2.3,0,5.5,1.1,5.5,6.4
			v0.5h-8c0.1,0.9,0.3,2.9,2.8,2.9c0.9,0,1.7-0.4,2-1.3H177.9z M174.9,493.8c-0.2-1.9-1.4-2.5-2.4-2.5c-1.5,0-2.2,0.9-2.4,2.5H174.9
			z"/>
		<path class="st10" d="M183.5,489.1h1.9v2.2h-1.9v6.4c0,0.7,0,0.9,1.3,0.9c0.2,0,0.4,0,0.6,0v2.3c-0.5,0-1,0-1.5,0h-0.4
			c-2.7,0-3.1-1-3.1-2.5v-7.1h-1.6v-2.2h1.6v-3.2h3.1V489.1z"/>
		<path class="st10" d="M194,492.7c-0.1-0.7-0.4-1.5-2.1-1.5s-1.9,0.6-1.9,1.1c0,1.8,7.3,0.5,7.3,4.8c0,3.4-3.3,4-5.1,4
			c-2.7,0-5.5-0.9-5.6-4h3.2c0,1,0.6,1.7,2.6,1.7c1.6,0,2-0.8,2-1.2c0-2-7.3-0.5-7.3-4.9c0-1.7,1.1-3.9,4.7-3.9c2.3,0,5,0.6,5.3,3.9
			H194z"/>
		<path class="st10" d="M217.6,487.8h-8.4v3.3h7.7v2.8h-7.7v4.1h8.8v2.8h-12V485h11.6V487.8z"/>
		<path class="st10" d="M227,492.7c-0.1-0.7-0.4-1.5-2.1-1.5s-1.9,0.6-1.9,1.1c0,1.8,7.3,0.5,7.3,4.8c0,3.4-3.3,4-5.1,4
			c-2.7,0-5.5-0.9-5.6-4h3.2c0,1,0.6,1.7,2.6,1.7c1.6,0,2-0.8,2-1.2c0-2-7.3-0.5-7.3-4.9c0-1.7,1.1-3.9,4.7-3.9c2.3,0,5,0.6,5.3,3.9
			H227z"/>
		<path class="st10" d="M239.3,492.7c-0.1-0.7-0.4-1.5-2.1-1.5s-1.9,0.6-1.9,1.1c0,1.8,7.3,0.5,7.3,4.8c0,3.4-3.3,4-5.1,4
			c-2.7,0-5.5-0.9-5.6-4h3.2c0,1,0.6,1.7,2.6,1.7c1.6,0,2-0.8,2-1.2c0-2-7.3-0.5-7.3-4.9c0-1.7,1.1-3.9,4.7-3.9c2.3,0,5,0.6,5.3,3.9
			H239.3z"/>
		<path class="st10" d="M254.9,497.4c-0.8,2.8-3.1,3.7-5.1,3.7c-3.3,0-5.8-1.6-5.8-6.4c0-1.4,0.5-5.9,5.6-5.9c2.3,0,5.5,1.1,5.5,6.4
			v0.5h-8c0.1,0.9,0.3,2.9,2.8,2.9c0.9,0,1.7-0.4,2-1.3H254.9z M251.9,493.8c-0.2-1.9-1.4-2.5-2.4-2.5c-1.5,0-2.2,0.9-2.4,2.5H251.9
			z"/>
		<path class="st10" d="M267.7,500.8h-3.1v-7.1c0-0.9,0-2.3-2-2.3c-1.4,0-2.4,0.9-2.4,2.7v6.7h-3.1v-11.7h2.9v1.7h0
			c0.4-0.7,1.3-2,3.5-2c2.3,0,4.1,1.3,4.1,3.9V500.8z"/>
		<path class="st10" d="M274,489.1h1.9v2.2H274v6.4c0,0.7,0,0.9,1.3,0.9c0.2,0,0.4,0,0.6,0v2.3c-0.5,0-1,0-1.5,0h-0.4
			c-2.7,0-3.1-1-3.1-2.5v-7.1h-1.6v-2.2h1.6v-3.2h3.1V489.1z"/>
		<path class="st10" d="M281.1,487.7H278v-2.9h3.1V487.7z M281.1,489.1v11.7H278v-11.7H281.1z"/>
		<path class="st10" d="M293.5,498.5c0,1.4,0.3,1.7,0.7,1.8v0.5h-3.3c-0.2-0.5-0.2-0.7-0.3-1.4c-0.7,0.7-1.7,1.7-3.8,1.7
			c-1.8,0-3.6-1-3.6-3.4c0-2.3,1.5-3.5,3.4-3.7l2.8-0.4c0.5-0.1,1.1-0.3,1.1-0.9c0-1.3-1.2-1.4-2-1.4c-1.5,0-1.8,0.9-1.9,1.6h-3
			c0.4-3.6,2.8-4.1,5.2-4.1c1.6,0,4.7,0.5,4.7,3.4V498.5z M290.5,495.1c-0.3,0.2-0.8,0.4-2.1,0.6c-1.1,0.2-2.1,0.5-2.1,1.8
			c0,1.1,0.8,1.4,1.4,1.4c1.4,0,2.8-0.9,2.8-2.3V495.1z"/>
		<path class="st10" d="M299.4,500.8h-3.1V485h3.1V500.8z"/>
		<path class="st10" d="M309,492.7c-0.1-0.7-0.4-1.5-2.1-1.5s-1.9,0.6-1.9,1.1c0,1.8,7.3,0.5,7.3,4.8c0,3.4-3.3,4-5.1,4
			c-2.7,0-5.5-0.9-5.6-4h3.2c0,1,0.6,1.7,2.6,1.7c1.6,0,2-0.8,2-1.2c0-2-7.3-0.5-7.3-4.9c0-1.7,1.1-3.9,4.7-3.9c2.3,0,5,0.6,5.3,3.9
			H309z"/>
	</g>
</g>
<g transform="translate(-0.5 -0.5)">
	<g class="st9">
		<path class="st10" d="M127.8,284.8c-0.3-0.9-0.8-2.7-3.5-2.7c-1.6,0-3.9,1.1-3.9,5.5c0,2.8,1.1,5.4,3.9,5.4c1.8,0,3.1-1,3.5-3h3.3
			c-0.7,3.4-2.9,5.8-6.9,5.8c-4.2,0-7.2-2.8-7.2-8.3c0-5.5,3.2-8.3,7.3-8.3c4.7,0,6.6,3.3,6.8,5.6H127.8z"/>
		<path class="st10" d="M133.3,283.7h2.9v2h0c0.6-1.2,1.3-2.3,3.2-2.3c0.2,0,0.4,0,0.6,0v3.1c-0.3,0-0.6,0-0.9,0
			c-2.4,0-2.8,1.5-2.8,2.8v6.1h-3.1V283.7z"/>
		<path class="st10" d="M152,292c-0.8,2.8-3.1,3.7-5.1,3.7c-3.3,0-5.8-1.6-5.8-6.4c0-1.4,0.5-5.9,5.6-5.9c2.3,0,5.5,1.1,5.5,6.4v0.5
			h-8c0.1,0.9,0.3,2.9,2.8,2.9c0.9,0,1.7-0.4,2-1.3H152z M148.9,288.4c-0.2-1.9-1.4-2.5-2.4-2.5c-1.5,0-2.2,0.9-2.4,2.5H148.9z"/>
		<path class="st10" d="M163.6,293.1c0,1.4,0.3,1.7,0.7,1.8v0.5H161c-0.2-0.5-0.2-0.7-0.3-1.4c-0.7,0.7-1.7,1.7-3.8,1.7
			c-1.8,0-3.6-1-3.6-3.4c0-2.3,1.5-3.5,3.4-3.7l2.8-0.4c0.5-0.1,1.1-0.3,1.1-0.9c0-1.3-1.2-1.4-2-1.4c-1.5,0-1.8,0.9-1.9,1.6h-3
			c0.4-3.6,2.8-4.1,5.2-4.1c1.6,0,4.7,0.5,4.7,3.4V293.1z M160.6,289.7c-0.3,0.2-0.8,0.4-2.1,0.6c-1.1,0.2-2.1,0.5-2.1,1.8
			c0,1.1,0.8,1.4,1.4,1.4c1.4,0,2.8-0.9,2.8-2.3V289.7z"/>
	</g>
</g>
</svg>
