<?xml version="1.0" encoding="utf-8"?>
<!-- Generator: Adobe Illustrator 26.5.2, SVG Export Plug-In . SVG Version: 6.00 Build 0)  -->
<svg version="1.1" id="Layer_1" xmlns="http://www.w3.org/2000/svg" xmlns:xlink="http://www.w3.org/1999/xlink" x="0px" y="0px"
	 width="1233px" height="503px" viewBox="0 0 1233 503" style="enable-background:new 0 0 1233 503;" xml:space="preserve">
<style type="text/css">
	.st0{fill:#FCFCFC;}
	.st1{fill:none;}
	.st2{enable-background:new    ;}
	.st3{fill:#FFDD01;}
	.st4{fill:#FBAD35;}
	.st5{fill:#FBAD35;enable-background:new    ;}
	.st6{fill:#FFDD01;enable-background:new    ;}
	.st7{fill:none;stroke:#FBAD35;stroke-width:4;stroke-miterlimit:10;}
	.st8{fill:#FFFFFF;}
	.st9{fill:#EFF0F5;}
	.st10{fill:#18375E;}
	.st11{fill:#0F0F0F;}
	.st12{fill:#F2DCDB;}
</style>
<rect x="-42" y="-21.1" class="st0" width="1325.3" height="551.7"/>
<rect x="0.5" y="0.5" pointer-events="all" class="st1" width="280" height="30"/>
<g transform="translate(-0.5 -0.5)">
	<g class="st2">
		<path d="M49.6,10.9h3.8c1.6,0,2.4,1,2.4,2.2c0,0.6-0.2,1.4-1.2,1.8c0.6,0.2,1.6,0.6,1.6,2.1c0,1.4-1,2.5-2.9,2.5h-3.7V10.9z
			 M50.7,14.5h2.1c1.1,0,1.8-0.3,1.8-1.4c0-0.8-0.5-1.3-1.8-1.3h-2.1V14.5z M50.7,18.5h2.5c1.2,0,1.8-0.6,1.8-1.6
			c0-1.2-1.1-1.5-2-1.5h-2.3V18.5z"/>
		<path d="M57.4,15.1c0-1.5,1-2.1,2.6-2.1c0.5,0,2.3,0.1,2.3,1.8v3.6c0,0.3,0.1,0.4,0.3,0.4c0.1,0,0.2,0,0.3,0v0.8
			c-0.2,0-0.3,0.1-0.6,0.1c-0.9,0-1.1-0.5-1.1-1c-0.4,0.4-1,1-2.3,1c-1.2,0-2-0.7-2-1.8c0-0.5,0.2-1.8,1.9-2l1.7-0.2
			c0.3,0,0.6-0.1,0.6-0.7c0-0.7-0.5-1-1.5-1c-1.2,0-1.4,0.7-1.4,1.2H57.4z M61.3,16.3c-0.2,0.1-0.4,0.2-1.7,0.4
			c-0.5,0.1-1.3,0.2-1.3,1c0,0.7,0.3,1.1,1.1,1.1c1,0,1.9-0.6,1.9-1.5V16.3z"/>
		<path d="M67.7,15c0-0.4-0.2-1.1-1.5-1.1c-0.3,0-1.2,0.1-1.2,0.9c0,0.5,0.3,0.6,1.1,0.8l1.1,0.3c1.3,0.3,1.8,0.8,1.8,1.7
			c0,1.3-1.1,2.1-2.5,2.1c-2.5,0-2.7-1.4-2.7-2.2h1c0,0.5,0.2,1.3,1.7,1.3c0.8,0,1.4-0.3,1.4-1c0-0.5-0.3-0.7-1.2-0.9l-1.2-0.3
			c-0.9-0.2-1.5-0.7-1.5-1.5c0-1.4,1.1-2,2.4-2c2.2,0,2.4,1.7,2.4,2H67.7z"/>
		<path d="M70.1,15.1c0-1.5,1-2.1,2.6-2.1c0.5,0,2.3,0.1,2.3,1.8v3.6c0,0.3,0.1,0.4,0.3,0.4c0.1,0,0.2,0,0.3,0v0.8
			c-0.2,0-0.3,0.1-0.6,0.1c-0.9,0-1.1-0.5-1.1-1c-0.4,0.4-1,1-2.3,1c-1.2,0-2-0.7-2-1.8c0-0.5,0.2-1.8,1.9-2l1.7-0.2
			c0.3,0,0.6-0.1,0.6-0.7c0-0.7-0.5-1-1.5-1c-1.2,0-1.4,0.7-1.4,1.2H70.1z M74,16.3c-0.2,0.1-0.4,0.2-1.7,0.4
			c-0.5,0.1-1.3,0.2-1.3,1c0,0.7,0.3,1.1,1.1,1.1c1,0,1.9-0.6,1.9-1.5V16.3z"/>
		<path d="M78.1,14.1v4.1c0,0.5,0.4,0.5,0.6,0.5h0.4v0.8c-0.4,0-0.7,0.1-0.8,0.1c-1,0-1.3-0.6-1.3-1.3v-4.1h-0.9v-0.9h0.9v-1.8h1.1
			v1.8h1v0.9H78.1z"/>
		<path d="M80.1,15.1c0-1.5,1-2.1,2.6-2.1c0.5,0,2.3,0.1,2.3,1.8v3.6c0,0.3,0.1,0.4,0.3,0.4c0.1,0,0.2,0,0.3,0v0.8
			c-0.2,0-0.3,0.1-0.6,0.1c-0.9,0-1.1-0.5-1.1-1c-0.4,0.4-1,1-2.3,1c-1.2,0-2-0.7-2-1.8c0-0.5,0.2-1.8,1.9-2l1.7-0.2
			c0.3,0,0.6-0.1,0.6-0.7c0-0.7-0.5-1-1.5-1c-1.2,0-1.4,0.7-1.4,1.2H80.1z M84,16.3c-0.2,0.1-0.4,0.2-1.7,0.4
			c-0.5,0.1-1.3,0.2-1.3,1c0,0.7,0.3,1.1,1.1,1.1c1,0,1.9-0.6,1.9-1.5V16.3z"/>
		<path d="M93.7,15c0-0.4-0.2-1.1-1.5-1.1c-0.3,0-1.2,0.1-1.2,0.9c0,0.5,0.3,0.6,1.1,0.8l1.1,0.3c1.3,0.3,1.8,0.8,1.8,1.7
			c0,1.3-1.1,2.1-2.5,2.1c-2.5,0-2.7-1.4-2.7-2.2h1c0,0.5,0.2,1.3,1.7,1.3c0.8,0,1.4-0.3,1.4-1c0-0.5-0.3-0.7-1.2-0.9l-1.2-0.3
			c-0.9-0.2-1.5-0.7-1.5-1.5c0-1.4,1.1-2,2.4-2c2.2,0,2.4,1.7,2.4,2H93.7z"/>
		<path d="M100.3,19.5v-0.9l0,0c-0.4,0.7-1,1.1-2,1.1c-0.9,0-2-0.4-2-1.9v-4.5h1.1v4.2c0,1,0.5,1.4,1.2,1.4c1.3,0,1.7-1.2,1.7-2.1
			v-3.5h1.1v6.3H100.3z"/>
		<path d="M107.5,14.1v5.4h-1.1v-5.4h-0.9v-0.9h0.9v-1.1c0-0.9,0.6-1.4,1.6-1.4c0.2,0,0.3,0,0.5,0v0.9c-0.1,0-0.3,0-0.4,0
			c-0.5,0-0.6,0.2-0.6,0.7v0.8h1.1v0.9H107.5z"/>
		<path d="M113.6,19.5v-0.9l0,0c-0.4,0.7-1,1.1-2,1.1c-0.9,0-2-0.4-2-1.9v-4.5h1.1v4.2c0,1,0.5,1.4,1.2,1.4c1.3,0,1.7-1.2,1.7-2.1
			v-3.5h1.1v6.3H113.6z"/>
		<path d="M121.3,19.5h-1.1v-3.9c0-1.1-0.3-1.6-1.3-1.6c-0.6,0-1.7,0.4-1.7,2.1v3.4h-1.1v-6.3h1v0.9h0c0.2-0.3,0.8-1.1,1.9-1.1
			c1,0,2.2,0.4,2.2,2.2V19.5z"/>
		<path d="M123.8,18.6h3.9v0.9h-5.3v-0.8l3.8-4.6h-3.5v-0.9h4.9v0.9L123.8,18.6z"/>
		<path d="M128.9,12.1v-1.2h1.1v1.2H128.9z M129.9,19.5h-1.1v-6.3h1.1V19.5z"/>
		<path d="M134.1,13c2,0,2.9,1.7,2.9,3.3s-0.9,3.3-2.9,3.3s-2.9-1.7-2.9-3.3S132.1,13,134.1,13z M134.1,18.8c1.5,0,1.8-1.6,1.8-2.4
			c0-0.8-0.3-2.4-1.8-2.4c-1.5,0-1.8,1.6-1.8,2.4C132.2,17.2,132.6,18.8,134.1,18.8z"/>
		<path d="M143.3,19.5h-1.1v-3.9c0-1.1-0.3-1.6-1.3-1.6c-0.6,0-1.7,0.4-1.7,2.1v3.4h-1.1v-6.3h1v0.9h0c0.2-0.3,0.8-1.1,1.9-1.1
			c1,0,2.2,0.4,2.2,2.2V19.5z"/>
		<path d="M144.9,12.1v-1.2h1.1v1.2H144.9z M145.9,19.5h-1.1v-6.3h1.1V19.5z"/>
		<path d="M156.2,17.5c0,0.3-0.3,1.2-1.1,1.7c-0.3,0.2-0.7,0.4-1.7,0.4c-1.8,0-2.8-1.3-2.8-3.1c0-1.9,0.9-3.5,3-3.5
			c1.8,0,2.7,1.4,2.7,3.7h-4.6c0,1.3,0.6,2.1,1.8,2.1c1,0,1.6-0.8,1.6-1.2H156.2z M155.2,15.9c-0.1-1-0.5-1.9-1.8-1.9
			c-1,0-1.7,0.9-1.7,1.9H155.2z"/>
		<path d="M164.8,15.3c-0.1-0.8-0.6-1.3-1.5-1.3c-1.3,0-1.7,1.2-1.7,2.4c0,1.1,0.3,2.4,1.7,2.4c0.7,0,1.3-0.5,1.5-1.5h1
			c-0.1,1-0.7,2.4-2.6,2.4c-1.8,0-2.8-1.3-2.8-3.1c0-1.9,0.9-3.5,3-3.5c1.6,0,2.3,1.2,2.4,2.3H164.8z"/>
		<path d="M166.8,15.1c0-1.5,1-2.1,2.6-2.1c0.5,0,2.3,0.1,2.3,1.8v3.6c0,0.3,0.1,0.4,0.3,0.4c0.1,0,0.2,0,0.3,0v0.8
			c-0.2,0-0.3,0.1-0.6,0.1c-0.9,0-1.1-0.5-1.1-1c-0.4,0.4-1,1-2.3,1c-1.2,0-2-0.7-2-1.8c0-0.5,0.2-1.8,1.9-2l1.7-0.2
			c0.3,0,0.6-0.1,0.6-0.7c0-0.7-0.5-1-1.5-1c-1.2,0-1.4,0.7-1.4,1.2H166.8z M170.7,16.3c-0.2,0.1-0.4,0.2-1.7,0.4
			c-0.5,0.1-1.3,0.2-1.3,1c0,0.7,0.3,1.1,1.1,1.1c1,0,1.9-0.6,1.9-1.5V16.3z"/>
		<path d="M174.8,14.1v4.1c0,0.5,0.4,0.5,0.6,0.5h0.4v0.8c-0.4,0-0.7,0.1-0.8,0.1c-1,0-1.3-0.6-1.3-1.3v-4.1h-0.9v-0.9h0.9v-1.8h1.1
			v1.8h1v0.9H174.8z"/>
		<path d="M182.2,17.5c0,0.3-0.3,1.2-1.1,1.7c-0.3,0.2-0.7,0.4-1.7,0.4c-1.8,0-2.8-1.3-2.8-3.1c0-1.9,0.9-3.5,3-3.5
			c1.8,0,2.7,1.4,2.7,3.7h-4.6c0,1.3,0.6,2.1,1.8,2.1c1,0,1.6-0.8,1.6-1.2H182.2z M181.2,15.9c-0.1-1-0.5-1.9-1.8-1.9
			c-1,0-1.7,0.9-1.7,1.9H181.2z"/>
		<path d="M188.8,19c0,0.9,0,3.2-2.9,3.2c-0.7,0-2.2-0.2-2.4-1.9h1.1c0.2,1,1.2,1,1.4,1c1.8,0,1.8-1.5,1.8-2.2v-0.3h0v0
			c-0.3,0.4-0.8,0.8-1.7,0.8c-2.1,0-2.8-2-2.8-3.5c0-1.8,0.9-3.1,2.6-3.1c1.1,0,1.6,0.7,1.9,1.1h0v-0.9h1V19z M186,18.8
			c0.7,0,1.7-0.4,1.7-2.1c0-1-0.2-2.7-1.7-2.7c-1.6,0-1.7,1.5-1.7,2.4C184.3,17.7,184.9,18.8,186,18.8z"/>
		<path d="M192.8,13c2,0,2.9,1.7,2.9,3.3s-0.9,3.3-2.9,3.3s-2.9-1.7-2.9-3.3S190.8,13,192.8,13z M192.8,18.8c1.5,0,1.8-1.6,1.8-2.4
			c0-0.8-0.3-2.4-1.8-2.4c-1.5,0-1.8,1.6-1.8,2.4C191,17.2,191.3,18.8,192.8,18.8z"/>
		<path d="M198.1,19.5H197v-6.3h1v1h0c0.4-0.7,1-1.2,1.8-1.2c0.1,0,0.2,0,0.3,0v1.1h-0.4c-1,0-1.6,0.8-1.6,1.7V19.5z"/>
		<path d="M201.1,12.1v-1.2h1.1v1.2H201.1z M202.1,19.5h-1.1v-6.3h1.1V19.5z"/>
		<path d="M209.1,17.5c0,0.3-0.3,1.2-1.1,1.7c-0.3,0.2-0.7,0.4-1.7,0.4c-1.8,0-2.8-1.3-2.8-3.1c0-1.9,0.9-3.5,3-3.5
			c1.8,0,2.7,1.4,2.7,3.7h-4.6c0,1.3,0.6,2.1,1.8,2.1c1,0,1.6-0.8,1.6-1.2H209.1z M208,15.9c-0.1-1-0.5-1.9-1.8-1.9
			c-1,0-1.7,0.9-1.7,1.9H208z"/>
	</g>
</g>
<rect x="854.5" y="0.5" pointer-events="all" class="st1" width="280" height="30"/>
<g transform="translate(-0.5 -0.5)">
	<g class="st2">
		<path d="M868.6,10.9h3.8c1.6,0,2.4,1,2.4,2.2c0,0.6-0.2,1.4-1.2,1.8c0.6,0.2,1.6,0.6,1.6,2.1c0,1.4-1,2.5-2.9,2.5h-3.7V10.9z
			 M869.8,14.5h2.1c1.1,0,1.8-0.3,1.8-1.4c0-0.8-0.5-1.3-1.8-1.3h-2.1V14.5z M869.8,18.5h2.5c1.2,0,1.8-0.6,1.8-1.6
			c0-1.2-1.1-1.5-2-1.5h-2.3V18.5z"/>
		<path d="M876.5,15.1c0-1.5,1-2.1,2.6-2.1c0.5,0,2.3,0.1,2.3,1.8v3.6c0,0.3,0.1,0.4,0.3,0.4c0.1,0,0.2,0,0.3,0v0.8
			c-0.2,0-0.3,0.1-0.6,0.1c-0.9,0-1.1-0.5-1.1-1c-0.4,0.4-1,1-2.3,1c-1.2,0-2-0.7-2-1.8c0-0.5,0.2-1.8,1.9-2l1.7-0.2
			c0.3,0,0.6-0.1,0.6-0.7c0-0.7-0.5-1-1.5-1c-1.2,0-1.4,0.7-1.4,1.2H876.5z M880.3,16.3c-0.2,0.1-0.4,0.2-1.7,0.4
			c-0.5,0.1-1.3,0.2-1.3,1c0,0.7,0.3,1.1,1.1,1.1c1,0,1.9-0.6,1.9-1.5V16.3z"/>
		<path d="M886.7,15c0-0.4-0.2-1.1-1.5-1.1c-0.3,0-1.2,0.1-1.2,0.9c0,0.5,0.3,0.6,1.1,0.8l1.1,0.3c1.3,0.3,1.8,0.8,1.8,1.7
			c0,1.3-1.1,2.1-2.5,2.1c-2.5,0-2.7-1.4-2.7-2.2h1c0,0.5,0.2,1.3,1.7,1.3c0.8,0,1.4-0.3,1.4-1c0-0.5-0.3-0.7-1.2-0.9l-1.2-0.3
			c-0.9-0.2-1.5-0.7-1.5-1.5c0-1.4,1.1-2,2.4-2c2.2,0,2.4,1.7,2.4,2H886.7z"/>
		<path d="M889.1,15.1c0-1.5,1-2.1,2.6-2.1c0.5,0,2.3,0.1,2.3,1.8v3.6c0,0.3,0.1,0.4,0.3,0.4c0.1,0,0.2,0,0.3,0v0.8
			c-0.2,0-0.3,0.1-0.6,0.1c-0.9,0-1.1-0.5-1.1-1c-0.4,0.4-1,1-2.3,1c-1.2,0-2-0.7-2-1.8c0-0.5,0.2-1.8,1.9-2l1.7-0.2
			c0.3,0,0.6-0.1,0.6-0.7c0-0.7-0.5-1-1.5-1c-1.2,0-1.4,0.7-1.4,1.2H889.1z M893,16.3c-0.2,0.1-0.4,0.2-1.7,0.4
			c-0.5,0.1-1.3,0.2-1.3,1c0,0.7,0.3,1.1,1.1,1.1c1,0,1.9-0.6,1.9-1.5V16.3z"/>
		<path d="M897.1,14.1v4.1c0,0.5,0.4,0.5,0.6,0.5h0.4v0.8c-0.4,0-0.7,0.1-0.8,0.1c-1,0-1.3-0.6-1.3-1.3v-4.1h-0.9v-0.9h0.9v-1.8h1.1
			v1.8h1v0.9H897.1z"/>
		<path d="M899.1,15.1c0-1.5,1-2.1,2.6-2.1c0.5,0,2.3,0.1,2.3,1.8v3.6c0,0.3,0.1,0.4,0.3,0.4c0.1,0,0.2,0,0.3,0v0.8
			c-0.2,0-0.3,0.1-0.6,0.1c-0.9,0-1.1-0.5-1.1-1c-0.4,0.4-1,1-2.3,1c-1.2,0-2-0.7-2-1.8c0-0.5,0.2-1.8,1.9-2l1.7-0.2
			c0.3,0,0.6-0.1,0.6-0.7c0-0.7-0.5-1-1.5-1c-1.2,0-1.4,0.7-1.4,1.2H899.1z M903,16.3c-0.2,0.1-0.4,0.2-1.7,0.4
			c-0.5,0.1-1.3,0.2-1.3,1c0,0.7,0.3,1.1,1.1,1.1c1,0,1.9-0.6,1.9-1.5V16.3z"/>
		<path d="M912.8,15c0-0.4-0.2-1.1-1.5-1.1c-0.3,0-1.2,0.1-1.2,0.9c0,0.5,0.3,0.6,1.1,0.8l1.1,0.3c1.3,0.3,1.8,0.8,1.8,1.7
			c0,1.3-1.1,2.1-2.5,2.1c-2.5,0-2.7-1.4-2.7-2.2h1c0,0.5,0.2,1.3,1.7,1.3c0.8,0,1.4-0.3,1.4-1c0-0.5-0.3-0.7-1.2-0.9l-1.2-0.3
			c-0.9-0.2-1.5-0.7-1.5-1.5c0-1.4,1.1-2,2.4-2c2.2,0,2.4,1.7,2.4,2H912.8z"/>
		<path d="M919.3,19.5v-0.9l0,0c-0.4,0.7-1,1.1-2,1.1c-0.9,0-2-0.4-2-1.9v-4.5h1.1v4.2c0,1,0.5,1.4,1.2,1.4c1.3,0,1.7-1.2,1.7-2.1
			v-3.5h1.1v6.3H919.3z"/>
		<path d="M922.9,19.5h-1.1v-8.6h1.1V19.5z"/>
		<path d="M925.6,19.5h-1.1v-8.6h1.1V19.5z"/>
		<path d="M927.2,15.1c0-1.5,1-2.1,2.6-2.1c0.5,0,2.3,0.1,2.3,1.8v3.6c0,0.3,0.1,0.4,0.3,0.4c0.1,0,0.2,0,0.3,0v0.8
			c-0.2,0-0.3,0.1-0.6,0.1c-0.9,0-1.1-0.5-1.1-1c-0.4,0.4-1,1-2.3,1c-1.2,0-2-0.7-2-1.8c0-0.5,0.2-1.8,1.9-2l1.7-0.2
			c0.3,0,0.6-0.1,0.6-0.7c0-0.7-0.5-1-1.5-1c-1.2,0-1.4,0.7-1.4,1.2H927.2z M931,16.3c-0.2,0.1-0.4,0.2-1.7,0.4
			c-0.5,0.1-1.3,0.2-1.3,1c0,0.7,0.3,1.1,1.1,1.1c1,0,1.9-0.6,1.9-1.5V16.3z"/>
		<path d="M937.1,13.2h1v0.9h0c0.3-0.4,0.7-1.1,1.9-1.1c1.7,0,2.6,1.4,2.6,3.1c0,1.5-0.6,3.5-2.8,3.5c-0.8,0-1.4-0.4-1.7-0.8h0V22
			h-1.1V13.2z M939.8,18.8c1.2,0,1.7-1,1.7-2.4c0-0.8-0.1-2.4-1.7-2.4c-1.5,0-1.7,1.6-1.7,2.7C938.1,18.3,939.2,18.8,939.8,18.8z"/>
		<path d="M946.4,13c2,0,2.9,1.7,2.9,3.3s-0.9,3.3-2.9,3.3s-2.9-1.7-2.9-3.3S944.4,13,946.4,13z M946.4,18.8c1.5,0,1.8-1.6,1.8-2.4
			c0-0.8-0.3-2.4-1.8-2.4s-1.8,1.6-1.8,2.4C944.6,17.2,944.9,18.8,946.4,18.8z"/>
		<path d="M954.1,15c0-0.4-0.2-1.1-1.5-1.1c-0.3,0-1.2,0.1-1.2,0.9c0,0.5,0.3,0.6,1.1,0.8l1.1,0.3c1.3,0.3,1.8,0.8,1.8,1.7
			c0,1.3-1.1,2.1-2.5,2.1c-2.5,0-2.7-1.4-2.7-2.2h1c0,0.5,0.2,1.3,1.7,1.3c0.8,0,1.4-0.3,1.4-1c0-0.5-0.3-0.7-1.2-0.9l-1.2-0.3
			c-0.9-0.2-1.5-0.7-1.5-1.5c0-1.4,1.1-2,2.4-2c2.2,0,2.4,1.7,2.4,2H954.1z"/>
		<path d="M956.6,12.1v-1.2h1.1v1.2H956.6z M957.6,19.5h-1.1v-6.3h1.1V19.5z"/>
		<path d="M960.2,18.6h3.9v0.9h-5.3v-0.8l3.8-4.6h-3.5v-0.9h4.9v0.9L960.2,18.6z"/>
		<path d="M965.2,12.1v-1.2h1.1v1.2H965.2z M966.3,19.5h-1.1v-6.3h1.1V19.5z"/>
		<path d="M970.4,13c2,0,2.9,1.7,2.9,3.3s-0.9,3.3-2.9,3.3s-2.9-1.7-2.9-3.3S968.4,13,970.4,13z M970.4,18.8c1.5,0,1.8-1.6,1.8-2.4
			c0-0.8-0.3-2.4-1.8-2.4s-1.8,1.6-1.8,2.4C968.6,17.2,968.9,18.8,970.4,18.8z"/>
		<path d="M979.7,19.5h-1.1v-3.9c0-1.1-0.3-1.6-1.3-1.6c-0.6,0-1.7,0.4-1.7,2.1v3.4h-1.1v-6.3h1v0.9h0c0.2-0.3,0.8-1.1,1.9-1.1
			c1,0,2.2,0.4,2.2,2.2V19.5z"/>
		<path d="M986.5,17.5c0,0.3-0.3,1.2-1.1,1.7c-0.3,0.2-0.7,0.4-1.7,0.4c-1.8,0-2.8-1.3-2.8-3.1c0-1.9,0.9-3.5,3-3.5
			c1.8,0,2.7,1.4,2.7,3.7H982c0,1.3,0.6,2.1,1.8,2.1c1,0,1.6-0.8,1.6-1.2H986.5z M985.5,15.9c-0.1-1-0.5-1.9-1.8-1.9
			c-1,0-1.7,0.9-1.7,1.9H985.5z"/>
		<path d="M994,10.7c-1,1.9-1.6,3.1-1.6,5.9c0,2,0.7,3.4,1.6,5.3h-0.7c-1.2-1.9-2.1-3.4-2.1-5.6c0-2.1,0.7-3.8,2-5.7H994z"/>
		<path d="M997.8,13c2,0,2.9,1.7,2.9,3.3s-0.9,3.3-2.9,3.3s-2.9-1.7-2.9-3.3S995.8,13,997.8,13z M997.8,18.8c1.5,0,1.8-1.6,1.8-2.4
			c0-0.8-0.3-2.4-1.8-2.4s-1.8,1.6-1.8,2.4C996,17.2,996.3,18.8,997.8,18.8z"/>
		<path d="M1008.8,15c0-0.4-0.2-1.1-1.5-1.1c-0.3,0-1.2,0.1-1.2,0.9c0,0.5,0.3,0.6,1.1,0.8l1.1,0.3c1.3,0.3,1.8,0.8,1.8,1.7
			c0,1.3-1.1,2.1-2.5,2.1c-2.5,0-2.7-1.4-2.7-2.2h1c0,0.5,0.2,1.3,1.7,1.3c0.8,0,1.4-0.3,1.4-1c0-0.5-0.3-0.7-1.2-0.9l-1.2-0.3
			c-0.9-0.2-1.5-0.7-1.5-1.5c0-1.4,1.1-2,2.4-2c2.2,0,2.4,1.7,2.4,2H1008.8z"/>
		<path d="M1015.3,19.5v-0.9l0,0c-0.4,0.7-1,1.1-2,1.1c-0.9,0-2-0.4-2-1.9v-4.5h1.1v4.2c0,1,0.5,1.4,1.2,1.4c1.3,0,1.7-1.2,1.7-2.1
			v-3.5h1.1v6.3H1015.3z"/>
		<path d="M1019,19.5h-1.1v-8.6h1.1V19.5z"/>
		<path d="M1027.8,15.3c-0.1-0.8-0.6-1.3-1.5-1.3c-1.3,0-1.7,1.2-1.7,2.4c0,1.1,0.3,2.4,1.7,2.4c0.7,0,1.3-0.5,1.5-1.5h1
			c-0.1,1-0.7,2.4-2.6,2.4c-1.8,0-2.8-1.3-2.8-3.1c0-1.9,0.9-3.5,3-3.5c1.6,0,2.3,1.2,2.4,2.3H1027.8z"/>
		<path d="M1029.9,15.1c0-1.5,1-2.1,2.6-2.1c0.5,0,2.3,0.1,2.3,1.8v3.6c0,0.3,0.1,0.4,0.3,0.4c0.1,0,0.2,0,0.3,0v0.8
			c-0.2,0-0.3,0.1-0.6,0.1c-0.9,0-1.1-0.5-1.1-1c-0.4,0.4-1,1-2.3,1c-1.2,0-2-0.7-2-1.8c0-0.5,0.2-1.8,1.9-2l1.7-0.2
			c0.3,0,0.6-0.1,0.6-0.7c0-0.7-0.5-1-1.5-1c-1.2,0-1.4,0.7-1.4,1.2H1029.9z M1033.7,16.3c-0.2,0.1-0.4,0.2-1.7,0.4
			c-0.5,0.1-1.3,0.2-1.3,1c0,0.7,0.3,1.1,1.1,1.1c1,0,1.9-0.6,1.9-1.5V16.3z"/>
		<path d="M1041.7,19.5h-1.1v-3.9c0-1.1-0.3-1.6-1.3-1.6c-0.6,0-1.7,0.4-1.7,2.1v3.4h-1.1v-6.3h1v0.9h0c0.2-0.3,0.8-1.1,1.9-1.1
			c1,0,2.2,0.4,2.2,2.2V19.5z"/>
		<path d="M1043.2,15.1c0-1.5,1-2.1,2.6-2.1c0.5,0,2.3,0.1,2.3,1.8v3.6c0,0.3,0.1,0.4,0.3,0.4c0.1,0,0.2,0,0.3,0v0.8
			c-0.2,0-0.3,0.1-0.6,0.1c-0.9,0-1.1-0.5-1.1-1c-0.4,0.4-1,1-2.3,1c-1.2,0-2-0.7-2-1.8c0-0.5,0.2-1.8,1.9-2l1.7-0.2
			c0.3,0,0.6-0.1,0.6-0.7c0-0.7-0.5-1-1.5-1c-1.2,0-1.4,0.7-1.4,1.2H1043.2z M1047.1,16.3c-0.2,0.1-0.4,0.2-1.7,0.4
			c-0.5,0.1-1.3,0.2-1.3,1c0,0.7,0.3,1.1,1.1,1.1c1,0,1.9-0.6,1.9-1.5V16.3z"/>
		<path d="M1051,19.5h-1.1v-8.6h1.1V19.5z"/>
		<path d="M1057.9,17.5c0,0.3-0.3,1.2-1.1,1.7c-0.3,0.2-0.7,0.4-1.7,0.4c-1.8,0-2.8-1.3-2.8-3.1c0-1.9,0.9-3.5,3-3.5
			c1.8,0,2.7,1.4,2.7,3.7h-4.6c0,1.3,0.6,2.1,1.8,2.1c1,0,1.6-0.8,1.6-1.2H1057.9z M1056.9,15.9c-0.1-1-0.5-1.9-1.8-1.9
			c-1,0-1.7,0.9-1.7,1.9H1056.9z"/>
		<path d="M1058.9,22c1-1.9,1.6-3.1,1.6-5.9c0-2-0.7-3.4-1.6-5.3h0.7c1.2,1.9,2.1,3.4,2.1,5.6c0,2.1-0.7,3.8-2,5.7H1058.9z"/>
		<path d="M1071.8,19.5h-1v-0.9h0c-0.5,0.9-1.2,1-1.8,1c-2.1,0-2.8-2-2.8-3.5c0-1.8,0.9-3.1,2.6-3.1c1.1,0,1.6,0.7,1.9,1.1l0-0.1
			v-3.1h1.1V19.5z M1069,18.8c0.7,0,1.7-0.4,1.7-2.1c0-1-0.2-2.7-1.7-2.7c-1.6,0-1.7,1.5-1.7,2.4C1067.3,17.7,1067.9,18.8,1069,18.8
			z"/>
		<path d="M1078.6,17.5c0,0.3-0.3,1.2-1.1,1.7c-0.3,0.2-0.7,0.4-1.7,0.4c-1.8,0-2.8-1.3-2.8-3.1c0-1.9,0.9-3.5,3-3.5
			c1.8,0,2.7,1.4,2.7,3.7h-4.6c0,1.3,0.6,2.1,1.8,2.1c1,0,1.6-0.8,1.6-1.2H1078.6z M1077.6,15.9c-0.1-1-0.5-1.9-1.8-1.9
			c-1,0-1.7,0.9-1.7,1.9H1077.6z"/>
		<path d="M1081,19.5h-1.1v-8.6h1.1V19.5z"/>
		<path d="M1083.7,19.5h-1.1v-8.6h1.1V19.5z"/>
		<path d="M1085.1,10.9h1.2v1.2c0,0.9-0.3,1.7-1.2,1.9v-0.6c0.6-0.1,0.6-0.8,0.6-1.2h-0.6V10.9z"/>
		<path d="M1090.5,13c2,0,2.9,1.7,2.9,3.3s-0.9,3.3-2.9,3.3s-2.9-1.7-2.9-3.3S1088.5,13,1090.5,13z M1090.5,18.8
			c1.5,0,1.8-1.6,1.8-2.4c0-0.8-0.3-2.4-1.8-2.4s-1.8,1.6-1.8,2.4C1088.6,17.2,1089,18.8,1090.5,18.8z"/>
		<path d="M1095.9,14.1v5.4h-1.1v-5.4h-0.9v-0.9h0.9v-1.1c0-0.9,0.6-1.4,1.6-1.4c0.2,0,0.3,0,0.5,0v0.9c-0.1,0-0.3,0-0.4,0
			c-0.5,0-0.6,0.2-0.6,0.7v0.8h1.1v0.9H1095.9z"/>
		<path d="M1099.2,14.1v5.4h-1.1v-5.4h-0.9v-0.9h0.9v-1.1c0-0.9,0.6-1.4,1.6-1.4c0.2,0,0.3,0,0.5,0v0.9c-0.1,0-0.3,0-0.4,0
			c-0.5,0-0.6,0.2-0.6,0.7v0.8h1.1v0.9H1099.2z"/>
		<path d="M1106.2,17.5c0,0.3-0.3,1.2-1.1,1.7c-0.3,0.2-0.7,0.4-1.7,0.4c-1.8,0-2.8-1.3-2.8-3.1c0-1.9,0.9-3.5,3-3.5
			c1.8,0,2.7,1.4,2.7,3.7h-4.6c0,1.3,0.6,2.1,1.8,2.1c1,0,1.6-0.8,1.6-1.2H1106.2z M1105.2,15.9c-0.1-1-0.5-1.9-1.8-1.9
			c-1,0-1.7,0.9-1.7,1.9H1105.2z"/>
		<path d="M1108.8,19.5h-1.1v-6.3h1v1h0c0.4-0.7,1-1.2,1.8-1.2c0.1,0,0.2,0,0.3,0v1.1h-0.4c-1,0-1.6,0.8-1.6,1.7V19.5z"/>
		<path d="M1113.3,14.1v4.1c0,0.5,0.4,0.5,0.6,0.5h0.4v0.8c-0.4,0-0.7,0.1-0.8,0.1c-1,0-1.3-0.6-1.3-1.3v-4.1h-0.9v-0.9h0.9v-1.8
			h1.1v1.8h1v0.9H1113.3z"/>
		<path d="M1115.3,15.1c0-1.5,1-2.1,2.6-2.1c0.5,0,2.3,0.1,2.3,1.8v3.6c0,0.3,0.1,0.4,0.3,0.4c0.1,0,0.2,0,0.3,0v0.8
			c-0.2,0-0.3,0.1-0.6,0.1c-0.9,0-1.1-0.5-1.1-1c-0.4,0.4-1,1-2.3,1c-1.2,0-2-0.7-2-1.8c0-0.5,0.2-1.8,1.9-2l1.7-0.2
			c0.3,0,0.6-0.1,0.6-0.7c0-0.7-0.5-1-1.5-1c-1.2,0-1.4,0.7-1.4,1.2H1115.3z M1119.2,16.3c-0.2,0.1-0.4,0.2-1.7,0.4
			c-0.5,0.1-1.3,0.2-1.3,1c0,0.7,0.3,1.1,1.1,1.1c1,0,1.9-0.6,1.9-1.5V16.3z"/>
	</g>
</g>
<rect x="387.5" y="0.5" pointer-events="all" class="st1" width="280" height="30"/>
<g transform="translate(-0.5 -0.5)">
	<g class="st2">
		<path d="M472,10.9h3.8c1.6,0,2.4,1,2.4,2.2c0,0.6-0.2,1.4-1.2,1.8c0.6,0.2,1.6,0.6,1.6,2.1c0,1.4-1,2.5-2.9,2.5H472V10.9z
			 M473.2,14.5h2.1c1.1,0,1.8-0.3,1.8-1.4c0-0.8-0.5-1.3-1.8-1.3h-2.1V14.5z M473.2,18.5h2.5c1.2,0,1.8-0.6,1.8-1.6
			c0-1.2-1.1-1.5-2-1.5h-2.3V18.5z"/>
		<path d="M479.9,15.1c0-1.5,1-2.1,2.6-2.1c0.5,0,2.3,0.1,2.3,1.8v3.6c0,0.3,0.1,0.4,0.3,0.4c0.1,0,0.2,0,0.3,0v0.8
			c-0.2,0-0.3,0.1-0.6,0.1c-0.9,0-1.1-0.5-1.1-1c-0.4,0.4-1,1-2.3,1c-1.2,0-2-0.7-2-1.8c0-0.5,0.2-1.8,1.9-2l1.7-0.2
			c0.3,0,0.6-0.1,0.6-0.7c0-0.7-0.5-1-1.5-1c-1.2,0-1.4,0.7-1.4,1.2H479.9z M483.7,16.3c-0.2,0.1-0.4,0.2-1.7,0.4
			c-0.5,0.1-1.3,0.2-1.3,1c0,0.7,0.3,1.1,1.1,1.1c1,0,1.9-0.6,1.9-1.5V16.3z"/>
		<path d="M490.2,15c0-0.4-0.2-1.1-1.5-1.1c-0.3,0-1.2,0.1-1.2,0.9c0,0.5,0.3,0.6,1.1,0.8l1.1,0.3c1.3,0.3,1.8,0.8,1.8,1.7
			c0,1.3-1.1,2.1-2.5,2.1c-2.5,0-2.7-1.4-2.7-2.2h1c0,0.5,0.2,1.3,1.7,1.3c0.8,0,1.4-0.3,1.4-1c0-0.5-0.3-0.7-1.2-0.9l-1.2-0.3
			c-0.9-0.2-1.5-0.7-1.5-1.5c0-1.4,1.1-2,2.4-2c2.2,0,2.4,1.7,2.4,2H490.2z"/>
		<path d="M492.6,15.1c0-1.5,1-2.1,2.6-2.1c0.5,0,2.3,0.1,2.3,1.8v3.6c0,0.3,0.1,0.4,0.3,0.4c0.1,0,0.2,0,0.3,0v0.8
			c-0.2,0-0.3,0.1-0.6,0.1c-0.9,0-1.1-0.5-1.1-1c-0.4,0.4-1,1-2.3,1c-1.2,0-2-0.7-2-1.8c0-0.5,0.2-1.8,1.9-2l1.7-0.2
			c0.3,0,0.6-0.1,0.6-0.7c0-0.7-0.5-1-1.5-1c-1.2,0-1.4,0.7-1.4,1.2H492.6z M496.4,16.3c-0.2,0.1-0.4,0.2-1.7,0.4
			c-0.5,0.1-1.3,0.2-1.3,1c0,0.7,0.3,1.1,1.1,1.1c1,0,1.9-0.6,1.9-1.5V16.3z"/>
		<path d="M500.6,14.1v4.1c0,0.5,0.4,0.5,0.6,0.5h0.4v0.8c-0.4,0-0.7,0.1-0.8,0.1c-1,0-1.3-0.6-1.3-1.3v-4.1h-0.9v-0.9h0.9v-1.8h1.1
			v1.8h1v0.9H500.6z"/>
		<path d="M502.6,15.1c0-1.5,1-2.1,2.6-2.1c0.5,0,2.3,0.1,2.3,1.8v3.6c0,0.3,0.1,0.4,0.3,0.4c0.1,0,0.2,0,0.3,0v0.8
			c-0.2,0-0.3,0.1-0.6,0.1c-0.9,0-1.1-0.5-1.1-1c-0.4,0.4-1,1-2.3,1c-1.2,0-2-0.7-2-1.8c0-0.5,0.2-1.8,1.9-2l1.7-0.2
			c0.3,0,0.6-0.1,0.6-0.7c0-0.7-0.5-1-1.5-1c-1.2,0-1.4,0.7-1.4,1.2H502.6z M506.4,16.3c-0.2,0.1-0.4,0.2-1.7,0.4
			c-0.5,0.1-1.3,0.2-1.3,1c0,0.7,0.3,1.1,1.1,1.1c1,0,1.9-0.6,1.9-1.5V16.3z"/>
		<path d="M516.2,15c0-0.4-0.2-1.1-1.5-1.1c-0.3,0-1.2,0.1-1.2,0.9c0,0.5,0.3,0.6,1.1,0.8l1.1,0.3c1.3,0.3,1.8,0.8,1.8,1.7
			c0,1.3-1.1,2.1-2.5,2.1c-2.5,0-2.7-1.4-2.7-2.2h1c0,0.5,0.2,1.3,1.7,1.3c0.8,0,1.4-0.3,1.4-1c0-0.5-0.3-0.7-1.2-0.9l-1.2-0.3
			c-0.9-0.2-1.5-0.7-1.5-1.5c0-1.4,1.1-2,2.4-2c2.2,0,2.4,1.7,2.4,2H516.2z"/>
		<path d="M522.7,19.5v-0.9l0,0c-0.4,0.7-1,1.1-2,1.1c-0.9,0-2-0.4-2-1.9v-4.5h1.1v4.2c0,1,0.5,1.4,1.2,1.4c1.3,0,1.7-1.2,1.7-2.1
			v-3.5h1.1v6.3H522.7z"/>
		<path d="M532.5,15.3c-0.1-0.8-0.6-1.3-1.5-1.3c-1.3,0-1.7,1.2-1.7,2.4c0,1.1,0.3,2.4,1.7,2.4c0.7,0,1.3-0.5,1.5-1.5h1
			c-0.1,1-0.7,2.4-2.6,2.4c-1.8,0-2.8-1.3-2.8-3.1c0-1.9,0.9-3.5,3-3.5c1.6,0,2.3,1.2,2.4,2.3H532.5z"/>
		<path d="M534.6,15.1c0-1.5,1-2.1,2.6-2.1c0.5,0,2.3,0.1,2.3,1.8v3.6c0,0.3,0.1,0.4,0.3,0.4c0.1,0,0.2,0,0.3,0v0.8
			c-0.2,0-0.3,0.1-0.6,0.1c-0.9,0-1.1-0.5-1.1-1c-0.4,0.4-1,1-2.3,1c-1.2,0-2-0.7-2-1.8c0-0.5,0.2-1.8,1.9-2l1.7-0.2
			c0.3,0,0.6-0.1,0.6-0.7c0-0.7-0.5-1-1.5-1c-1.2,0-1.4,0.7-1.4,1.2H534.6z M538.4,16.3c-0.2,0.1-0.4,0.2-1.7,0.4
			c-0.5,0.1-1.3,0.2-1.3,1c0,0.7,0.3,1.1,1.1,1.1c1,0,1.9-0.6,1.9-1.5V16.3z"/>
		<path d="M541.3,13.2h1v0.9h0c0.2-0.3,0.8-1.1,1.9-1.1c1.1,0,1.5,0.7,1.7,1c0.5-0.6,0.9-1,1.9-1c0.7,0,1.9,0.3,1.9,2.1v4.3h-1.1
			v-4.1c0-0.9-0.3-1.5-1.2-1.5c-0.9,0-1.5,0.8-1.5,1.7v3.8H545v-4.3c0-0.5-0.2-1.2-1-1.2c-0.6,0-1.7,0.4-1.7,2.1v3.4h-1.1V13.2z"/>
		<path d="M551.2,13.2h1v0.9h0c0.3-0.4,0.7-1.1,1.9-1.1c1.7,0,2.6,1.4,2.6,3.1c0,1.5-0.6,3.5-2.8,3.5c-0.8,0-1.4-0.4-1.7-0.8h0V22
			h-1.1V13.2z M553.9,18.8c1.2,0,1.7-1,1.7-2.4c0-0.8-0.1-2.4-1.7-2.4c-1.5,0-1.7,1.6-1.7,2.7C552.2,18.3,553.2,18.8,553.9,18.8z"/>
		<path d="M557.9,15.1c0-1.5,1-2.1,2.6-2.1c0.5,0,2.3,0.1,2.3,1.8v3.6c0,0.3,0.1,0.4,0.3,0.4c0.1,0,0.2,0,0.3,0v0.8
			c-0.2,0-0.3,0.1-0.6,0.1c-0.9,0-1.1-0.5-1.1-1c-0.4,0.4-1,1-2.3,1c-1.2,0-2-0.7-2-1.8c0-0.5,0.2-1.8,1.9-2l1.7-0.2
			c0.3,0,0.6-0.1,0.6-0.7c0-0.7-0.5-1-1.5-1c-1.2,0-1.4,0.7-1.4,1.2H557.9z M561.8,16.3c-0.2,0.1-0.4,0.2-1.7,0.4
			c-0.5,0.1-1.3,0.2-1.3,1c0,0.7,0.3,1.1,1.1,1.1c1,0,1.9-0.6,1.9-1.5V16.3z"/>
		<path d="M569.8,19c0,0.9,0,3.2-2.9,3.2c-0.7,0-2.2-0.2-2.4-1.9h1.1c0.2,1,1.2,1,1.4,1c1.8,0,1.8-1.5,1.8-2.2v-0.3h0v0
			c-0.3,0.4-0.8,0.8-1.7,0.8c-2.1,0-2.8-2-2.8-3.5c0-1.8,0.9-3.1,2.6-3.1c1.1,0,1.6,0.7,1.9,1.1h0v-0.9h1V19z M567.1,18.8
			c0.7,0,1.7-0.4,1.7-2.1c0-1-0.2-2.7-1.7-2.7c-1.6,0-1.7,1.5-1.7,2.4C565.4,17.7,566,18.8,567.1,18.8z"/>
		<path d="M576.4,19.5h-1.1v-3.9c0-1.1-0.3-1.6-1.3-1.6c-0.6,0-1.7,0.4-1.7,2.1v3.4h-1.1v-6.3h1v0.9h0c0.2-0.3,0.8-1.1,1.9-1.1
			c1,0,2.2,0.4,2.2,2.2V19.5z"/>
		<path d="M583.3,17.5c0,0.3-0.3,1.2-1.1,1.7c-0.3,0.2-0.7,0.4-1.7,0.4c-1.8,0-2.8-1.3-2.8-3.1c0-1.9,0.9-3.5,3-3.5
			c1.8,0,2.7,1.4,2.7,3.7h-4.6c0,1.3,0.6,2.1,1.8,2.1c1,0,1.6-0.8,1.6-1.2H583.3z M582.3,15.9c-0.1-1-0.5-1.9-1.8-1.9
			c-1,0-1.7,0.9-1.7,1.9H582.3z"/>
	</g>
</g>
<g class="st2">
	<rect x="4.7" y="65.2" class="st3" width="172.6" height="63.1"/>
	<path class="st4" d="M174.7,67.7v58.1H7.2V67.7H174.7 M179.7,62.7h-5H7.2h-5v5v58.1v5h5h167.6h5v-5V67.7V62.7L179.7,62.7z"/>
</g>
<rect x="-69.4" y="60" class="st5" width="17.3" height="17.3"/>
<rect x="-67.6" y="86.8" class="st6" width="17.3" height="17.3"/>
<path class="st7" d="M90.9,129.2c0,0-0.7,208.8-0.3,278.9c0,6.4-3.8,16,24.6,12.6"/>
<polyline class="st7" points="167,437.4 167,473 182.3,473 "/>
<polyline class="st7" points="261.1,285.9 261.1,378.6 278.1,378.6 "/>
<line class="st7" x1="273.5" y1="322.6" x2="261.1" y2="322.6"/>
<line class="st7" x1="274.2" y1="350.6" x2="261.1" y2="350.6"/>
<polyline class="st7" points="209.2,241.5 209.2,277.5 223.8,277.5 "/>
<polyline class="st7" points="161,195.7 161,231.7 175.6,231.7 "/>
<g>
	<g>
		<path class="st8" d="M161,211.2c-2.6,0-4.7-2.1-4.7-4.7c0-2.6,2.1-4.7,4.7-4.7s4.7,2.1,4.7,4.7C165.7,209.1,163.6,211.2,161,211.2
			z"/>
		<path class="st4" d="M161,202.2c2.3,0,4.2,1.9,4.2,4.2c0,2.3-1.9,4.2-4.2,4.2s-4.2-1.9-4.2-4.2C156.8,204.1,158.7,202.2,161,202.2
			 M161,201.2c-2.9,0-5.2,2.3-5.2,5.2s2.3,5.2,5.2,5.2s5.2-2.3,5.2-5.2S163.9,201.2,161,201.2L161,201.2z"/>
	</g>
	<g transform="translate(-0.5 -0.5)">
		<g class="st2">
			<path d="M163,207.5H160v-1.1h2.9V207.5z"/>
		</g>
	</g>
</g>
<g>
	<g>
		<path class="st8" d="M209.2,255.7c-2.6,0-4.7-2.1-4.7-4.7c0-2.6,2.1-4.7,4.7-4.7s4.7,2.1,4.7,4.7
			C213.9,253.6,211.8,255.7,209.2,255.7z"/>
		<path class="st4" d="M209.2,246.8c2.3,0,4.2,1.9,4.2,4.2c0,2.3-1.9,4.2-4.2,4.2s-4.2-1.9-4.2-4.2
			C204.9,248.7,206.8,246.8,209.2,246.8 M209.2,245.8c-2.9,0-5.2,2.3-5.2,5.2s2.3,5.2,5.2,5.2s5.2-2.3,5.2-5.2
			S212,245.8,209.2,245.8L209.2,245.8z"/>
	</g>
	<g transform="translate(-0.5 -0.5)">
		<g class="st2">
			<path d="M211.1,252h-2.9V251h2.9V252z"/>
		</g>
	</g>
</g>
<g>
	<g>
		<path class="st8" d="M261.1,300.9c-2.6,0-4.7-2.1-4.7-4.7c0-2.6,2.1-4.7,4.7-4.7s4.7,2.1,4.7,4.7
			C265.8,298.8,263.7,300.9,261.1,300.9z"/>
		<path class="st4" d="M261.1,291.9c2.3,0,4.2,1.9,4.2,4.2c0,2.3-1.9,4.2-4.2,4.2c-2.3,0-4.2-1.9-4.2-4.2
			C256.8,293.8,258.7,291.9,261.1,291.9 M261.1,290.9c-2.9,0-5.2,2.3-5.2,5.2s2.3,5.2,5.2,5.2s5.2-2.3,5.2-5.2
			S264,290.9,261.1,290.9L261.1,290.9z"/>
	</g>
	<g transform="translate(-0.5 -0.5)">
		<g class="st2">
			<path d="M263,297.2h-2.9v-1.1h2.9V297.2z"/>
		</g>
	</g>
</g>
<g>
	<g>
		<path class="st8" d="M167,452c-2.6,0-4.7-2.1-4.7-4.7c0-2.6,2.1-4.7,4.7-4.7s4.7,2.1,4.7,4.7C171.7,449.9,169.6,452,167,452z"/>
		<path class="st4" d="M167,443.1c2.3,0,4.2,1.9,4.2,4.2c0,2.3-1.9,4.2-4.2,4.2s-4.2-1.9-4.2-4.2C162.8,445,164.7,443.1,167,443.1
			 M167,442.1c-2.9,0-5.2,2.3-5.2,5.2s2.3,5.2,5.2,5.2s5.2-2.3,5.2-5.2S169.9,442.1,167,442.1L167,442.1z"/>
	</g>
	<g transform="translate(-0.5 -0.5)">
		<g class="st2">
			<path d="M169,448.4H166v-1.1h2.9V448.4z"/>
		</g>
	</g>
</g>
<g class="st2">
	<rect x="171.9" y="221.3" class="st9" width="74.5" height="22"/>
	<path class="st3" d="M245.2,222.6v19.5h-72v-19.5H245.2 M247.7,220.1h-2.5h-72h-2.5v2.5v19.5v2.5h2.5h72h2.5v-2.5v-19.5V220.1
		L247.7,220.1z"/>
</g>
<g class="st2">
	<rect x="219" y="266.5" class="st9" width="84.2" height="22"/>
	<path class="st3" d="M301.9,267.7v19.5h-81.7v-19.5H301.9 M304.4,265.2h-2.5h-81.7h-2.5v2.5v19.5v2.5h2.5h81.7h2.5v-2.5v-19.5
		V265.2L304.4,265.2z"/>
</g>
<g class="st2">
	<rect x="271.3" y="311.6" class="st9" width="51.3" height="22"/>
	<path class="st3" d="M321.3,312.9v19.5h-48.8v-19.5H321.3 M323.8,310.4h-2.5h-48.8H270v2.5v19.5v2.5h2.5h48.8h2.5v-2.5v-19.5V310.4
		L323.8,310.4z"/>
</g>
<g class="st2">
	<rect x="271.3" y="339.6" class="st9" width="71.1" height="22"/>
	<path class="st3" d="M341.2,340.9v19.5h-68.6v-19.5H341.2 M343.7,338.4h-2.5h-68.6H270v2.5v19.5v2.5h2.5h68.6h2.5v-2.5v-19.5V338.4
		L343.7,338.4z"/>
</g>
<g class="st2">
	<rect x="178.1" y="462.5" class="st9" width="83.2" height="22"/>
	<path class="st3" d="M260,463.7v19.5h-80.7v-19.5H260 M262.5,461.2H260h-80.7h-2.5v2.5v19.5v2.5h2.5H260h2.5v-2.5v-19.5V461.2
		L262.5,461.2z"/>
</g>
<g class="st2">
	<rect x="271.3" y="367.6" class="st9" width="82" height="22"/>
	<path class="st3" d="M352.1,368.9v19.5h-79.5v-19.5H352.1 M354.6,366.4h-2.5h-79.5H270v2.5v19.5v2.5h2.5h79.5h2.5v-2.5v-19.5V366.4
		L354.6,366.4z"/>
</g>
<g>
	<rect x="110.8" y="402.9" class="st8" width="111.2" height="36.9"/>
	<path class="st4" d="M221,403.9v34.9H111.8v-34.9H221 M223,401.9h-2H111.8h-2v2v34.9v2h2H221h2v-2v-34.9V401.9L223,401.9z"/>
</g>
<path class="st7" d="M90.9,170.3c0,0-2.1,9.8,10.4,9.6h16.3"/>
<g>
	<rect x="111.4" y="161.4" class="st8" width="99.2" height="36.9"/>
	<path class="st4" d="M209.6,162.4v34.9h-97.2v-34.9H209.6 M211.6,160.4h-2h-97.2h-2v2v34.9v2h2h97.2h2v-2v-34.9V160.4L211.6,160.4z
		"/>
</g>
<g transform="translate(-0.5 -0.5)">
	<g class="st2">
		<path d="M39.1,104.6h-2.7l4.4-12.2h2.9l4.3,12.2h-2.8l-0.8-2.5H40L39.1,104.6z M40.7,99.9h3.1l-1.5-4.8h0L40.7,99.9z"/>
		<path d="M58.7,94.5h-6.5v2.6h6v2.2h-6v3.2H59v2.2h-9.3V92.3h9V94.5z"/>
		<path d="M72.8,104.6h-2.4V94.4h0l-2.3,10.2h-2.5l-2.2-10.2h0v10.2h-2.4V92.3h3.7l2.2,9.6h0l2.2-9.6h3.7V104.6z"/>
		<path d="M81.7,104.6H79l4.4-12.2h2.9l4.3,12.2h-2.8l-0.8-2.5h-4.5L81.7,104.6z M83.2,99.9h3.1l-1.5-4.8h0L83.2,99.9z"/>
		<path d="M94.1,100.8c0,0.7,0.4,2,2.6,2c1.2,0,2.6-0.3,2.6-1.6c0-1-0.9-1.2-2.2-1.5l-1.3-0.3c-2-0.5-3.9-0.9-3.9-3.6
			c0-1.4,0.7-3.8,4.7-3.8c3.7,0,4.8,2.5,4.8,4h-2.5c-0.1-0.5-0.3-1.8-2.5-1.8c-1,0-2.1,0.4-2.1,1.5c0,1,0.8,1.2,1.3,1.3l3,0.7
			c1.7,0.4,3.2,1.1,3.2,3.3c0,3.7-3.7,4-4.8,4c-4.5,0-5.2-2.6-5.2-4.1H94.1z"/>
		<path d="M105.4,100.8c0,0.7,0.4,2,2.6,2c1.2,0,2.6-0.3,2.6-1.6c0-1-0.9-1.2-2.2-1.5l-1.3-0.3c-2-0.5-3.9-0.9-3.9-3.6
			c0-1.4,0.7-3.8,4.7-3.8c3.7,0,4.8,2.5,4.8,4h-2.5c-0.1-0.5-0.3-1.8-2.5-1.8c-1,0-2.1,0.4-2.1,1.5c0,1,0.8,1.2,1.3,1.3l3,0.7
			c1.7,0.4,3.2,1.1,3.2,3.3c0,3.7-3.7,4-4.8,4c-4.5,0-5.2-2.6-5.2-4.1H105.4z"/>
		<path d="M124,94.5h-6.5v2.6h6v2.2h-6v3.2h6.8v2.2H115V92.3h9V94.5z"/>
		<path d="M131.5,104.6H129V94.5h-3.7v-2.2h9.9v2.2h-3.7V104.6z"/>
		<path d="M138.6,100.8c0,0.7,0.4,2,2.6,2c1.2,0,2.6-0.3,2.6-1.6c0-1-0.9-1.2-2.2-1.5l-1.3-0.3c-2-0.5-3.9-0.9-3.9-3.6
			c0-1.4,0.7-3.8,4.7-3.8c3.7,0,4.8,2.5,4.8,4h-2.5c-0.1-0.5-0.3-1.8-2.5-1.8c-1,0-2.1,0.4-2.1,1.5c0,1,0.8,1.2,1.3,1.3l3,0.7
			c1.7,0.4,3.2,1.1,3.2,3.3c0,3.7-3.7,4-4.8,4c-4.5,0-5.2-2.6-5.2-4.1H138.6z"/>
	</g>
</g>
<g transform="translate(-0.5 -0.5)" class="st2">
	<g class="st2">
		<path class="st10" d="M124.9,185.1h-0.9l3.2-9.8h0.9L124.9,185.1z"/>
		<path class="st10" d="M133.9,184.9h-1.3v-9.3h6.5v1.1h-5.2v2.9h4.6v1.1h-4.6V184.9z"/>
		<path class="st10" d="M144.7,184.9v-1l0,0c-0.5,0.8-1.1,1.2-2.2,1.2c-1,0-2.2-0.5-2.2-2.1v-4.9h1.1v4.5c0,1.1,0.6,1.5,1.3,1.5
			c1.4,0,1.9-1.3,1.9-2.3v-3.7h1.1v6.8H144.7z"/>
		<path class="st10" d="M153.1,184.9h-1.1v-4.2c0-1.2-0.3-1.8-1.5-1.8c-0.6,0-1.8,0.4-1.8,2.3v3.7h-1.1v-6.8h1.1v1h0
			c0.2-0.4,0.9-1.2,2.1-1.2c1.1,0,2.4,0.4,2.4,2.4V184.9z"/>
		<path class="st10" d="M155.8,183.9h4.2v0.9h-5.7V184l4.1-5h-3.8v-0.9h5.3v0.9L155.8,183.9z"/>
		<path class="st10" d="M161.3,176.9v-1.3h1.1v1.3H161.3z M162.4,184.9h-1.1v-6.8h1.1V184.9z"/>
		<path class="st10" d="M166.9,177.9c2.2,0,3.2,1.8,3.2,3.6c0,1.8-1,3.6-3.2,3.6c-2.2,0-3.2-1.8-3.2-3.6
			C163.8,179.7,164.7,177.9,166.9,177.9z M166.9,184.1c1.6,0,2-1.7,2-2.6s-0.3-2.6-2-2.6s-2,1.7-2,2.6S165.3,184.1,166.9,184.1z"/>
		<path class="st10" d="M176.9,184.9h-1.1v-4.2c0-1.2-0.3-1.8-1.5-1.8c-0.6,0-1.8,0.4-1.8,2.3v3.7h-1.1v-6.8h1.1v1h0
			c0.2-0.4,0.9-1.2,2.1-1.2c1.1,0,2.4,0.4,2.4,2.4V184.9z"/>
		<path class="st10" d="M184.4,182.8c0,0.3-0.4,1.3-1.2,1.9c-0.3,0.2-0.8,0.5-1.8,0.5c-1.9,0-3-1.4-3-3.4c0-2.1,1-3.8,3.3-3.8
			c2,0,2.9,1.6,2.9,4h-5c0,1.4,0.7,2.2,2,2.2c1.1,0,1.7-0.8,1.8-1.3H184.4z M183.3,181c-0.1-1.1-0.5-2-1.9-2c-1.1,0-1.9,1-1.9,2
			H183.3z"/>
		<path class="st10" d="M188.7,181.9h-3.2v-1.2h3.2V181.9z"/>
		<path class="st10" d="M196.5,175.6h1.2v9.3h-1.4l-4.7-7.5h0v7.5h-1.2v-9.3h1.5l4.7,7.5h0V175.6z"/>
	</g>
</g>
<g transform="translate(-0.5 -0.5)" class="st2">
	<g class="st2">
		<path class="st10" d="M123.3,427.7h-0.9l3.2-9.8h0.9L123.3,427.7z"/>
		<path class="st10" d="M132.3,427.5H131v-9.3h6.5v1.1h-5.2v2.9h4.6v1.1h-4.6V427.5z"/>
		<path class="st10" d="M143.1,427.5v-1l0,0c-0.5,0.8-1.1,1.2-2.2,1.2c-1,0-2.2-0.5-2.2-2.1v-4.9h1.1v4.5c0,1.1,0.6,1.5,1.3,1.5
			c1.4,0,1.9-1.3,1.9-2.3v-3.7h1.1v6.8H143.1z"/>
		<path class="st10" d="M151.4,427.5h-1.1v-4.2c0-1.2-0.3-1.8-1.5-1.8c-0.6,0-1.8,0.4-1.8,2.3v3.7h-1.1v-6.8h1.1v1h0
			c0.2-0.4,0.9-1.2,2.1-1.2c1.1,0,2.4,0.4,2.4,2.4V427.5z"/>
		<path class="st10" d="M154.2,426.5h4.2v0.9h-5.7v-0.9l4.1-5H153v-0.9h5.3v0.9L154.2,426.5z"/>
		<path class="st10" d="M159.7,419.4v-1.3h1.1v1.3H159.7z M160.8,427.5h-1.1v-6.8h1.1V427.5z"/>
		<path class="st10" d="M165.3,420.5c2.2,0,3.2,1.8,3.2,3.6c0,1.8-1,3.6-3.2,3.6c-2.2,0-3.2-1.8-3.2-3.6
			C162.1,422.3,163.1,420.5,165.3,420.5z M165.3,426.7c1.6,0,2-1.7,2-2.6s-0.3-2.6-2-2.6s-2,1.7-2,2.6S163.7,426.7,165.3,426.7z"/>
		<path class="st10" d="M175.3,427.5h-1.1v-4.2c0-1.2-0.3-1.8-1.5-1.8c-0.6,0-1.8,0.4-1.8,2.3v3.7h-1.1v-6.8h1.1v1h0
			c0.2-0.4,0.9-1.2,2.1-1.2c1.1,0,2.4,0.4,2.4,2.4V427.5z"/>
		<path class="st10" d="M182.8,425.3c0,0.3-0.4,1.3-1.2,1.9c-0.3,0.2-0.8,0.5-1.8,0.5c-1.9,0-3-1.4-3-3.4c0-2.1,1-3.8,3.3-3.8
			c2,0,2.9,1.6,2.9,4h-5c0,1.4,0.7,2.2,2,2.2c1.1,0,1.7-0.8,1.8-1.3H182.8z M181.7,423.5c-0.1-1.1-0.5-2-1.9-2c-1.1,0-1.9,1-1.9,2
			H181.7z"/>
		<path class="st10" d="M194.2,418.1h1.2v9.3H194l-4.7-7.5h0v7.5H188v-9.3h1.5l4.7,7.5h0V418.1z"/>
		<path class="st10" d="M199.7,420.9h0.9v2.8h2.8v0.9h-2.8v2.8h-0.9v-2.8h-2.8v-0.9h2.8V420.9z"/>
		<path class="st10" d="M208.6,427.5h-1.2V421h-2.1v-0.9c1.5-0.1,2.1-0.2,2.5-1.7h0.9V427.5z"/>
	</g>
</g>
<g transform="translate(-0.5 -0.5)" class="st2">
	<g class="st2">
		<path class="st11" d="M187.6,477H187l2.3-7.1h0.6L187.6,477z"/>
		<path class="st11" d="M197.8,472.1c-0.3-1.2-1.2-1.4-1.9-1.4c-1.2,0-2.2,0.9-2.2,2.7c0,1.6,0.6,2.8,2.2,2.8c0.6,0,1.6-0.3,1.9-1.8
			h0.9c-0.4,2.5-2.4,2.7-2.9,2.7c-1.5,0-3-1-3-3.6c0-2.1,1.2-3.5,3.1-3.5c1.7,0,2.6,1.1,2.8,2.2H197.8z"/>
		<path class="st11" d="M199.7,473.4c0-1.2,0.8-1.6,2-1.6c0.4,0,1.8,0.1,1.8,1.4v2.8c0,0.2,0.1,0.3,0.3,0.3c0.1,0,0.2,0,0.3,0v0.6
			c-0.1,0-0.3,0.1-0.4,0.1c-0.7,0-0.8-0.4-0.9-0.8c-0.3,0.3-0.8,0.8-1.8,0.8c-0.9,0-1.5-0.6-1.5-1.4c0-0.4,0.1-1.4,1.5-1.5l1.4-0.2
			c0.2,0,0.4-0.1,0.4-0.6c0-0.5-0.4-0.8-1.2-0.8c-0.9,0-1.1,0.6-1.1,0.9H199.7z M202.7,474.3c-0.1,0.1-0.3,0.2-1.4,0.3
			c-0.4,0.1-1,0.2-1,0.8c0,0.5,0.3,0.9,0.9,0.9c0.8,0,1.5-0.5,1.5-1.2V474.3z"/>
		<path class="st11" d="M205.9,472.6v3.2c0,0.4,0.3,0.4,0.5,0.4h0.3v0.6c-0.3,0-0.5,0.1-0.6,0.1c-0.8,0-1-0.5-1-1v-3.2h-0.7v-0.7
			h0.7v-1.4h0.8v1.4h0.8v0.7H205.9z"/>
		<path class="st11" d="M211.7,475.3c0,0.2-0.3,0.9-0.9,1.3c-0.2,0.1-0.5,0.3-1.3,0.3c-1.4,0-2.2-1-2.2-2.5c0-1.5,0.7-2.7,2.4-2.7
			c1.4,0,2.1,1.1,2.1,2.9h-3.6c0,1,0.5,1.6,1.4,1.6c0.8,0,1.2-0.6,1.3-1H211.7z M210.9,474c0-0.8-0.4-1.5-1.4-1.5
			c-0.8,0-1.4,0.7-1.4,1.5H210.9z"/>
		<path class="st11" d="M216.8,476.4c0,0.7,0,2.5-2.3,2.5c-0.6,0-1.7-0.2-1.9-1.5h0.8c0.1,0.8,0.9,0.8,1.1,0.8
			c1.4,0,1.4-1.1,1.4-1.7v-0.2h0v0c-0.2,0.3-0.6,0.7-1.3,0.7c-1.7,0-2.2-1.6-2.2-2.7c0-1.4,0.7-2.4,2-2.4c0.9,0,1.3,0.6,1.5,0.8h0
			v-0.7h0.8V476.4z M214.7,476.3c0.5,0,1.3-0.3,1.3-1.6c0-0.8-0.1-2.1-1.3-2.1c-1.3,0-1.3,1.2-1.3,1.8
			C213.4,475.4,213.8,476.3,214.7,476.3z"/>
		<path class="st11" d="M220,471.8c1.6,0,2.3,1.3,2.3,2.6c0,1.3-0.7,2.6-2.3,2.6s-2.3-1.3-2.3-2.6
			C217.7,473.1,218.4,471.8,220,471.8z M220,476.3c1.2,0,1.4-1.2,1.4-1.9c0-0.7-0.2-1.9-1.4-1.9c-1.2,0-1.4,1.2-1.4,1.9
			C218.5,475,218.8,476.3,220,476.3z"/>
		<path class="st11" d="M224.1,476.8h-0.8v-4.9h0.8v0.8h0c0.3-0.6,0.8-1,1.4-1c0.1,0,0.1,0,0.2,0v0.9h-0.3c-0.8,0-1.3,0.6-1.3,1.3
			V476.8z"/>
		<path class="st11" d="M226.5,471v-0.9h0.8v0.9H226.5z M227.3,476.8h-0.8v-4.9h0.8V476.8z"/>
		<path class="st11" d="M228.5,473.4c0-1.2,0.8-1.6,2-1.6c0.4,0,1.8,0.1,1.8,1.4v2.8c0,0.2,0.1,0.3,0.3,0.3c0.1,0,0.2,0,0.3,0v0.6
			c-0.1,0-0.3,0.1-0.4,0.1c-0.7,0-0.8-0.4-0.9-0.8c-0.3,0.3-0.8,0.8-1.8,0.8c-0.9,0-1.5-0.6-1.5-1.4c0-0.4,0.1-1.4,1.5-1.5l1.4-0.2
			c0.2,0,0.4-0.1,0.4-0.6c0-0.5-0.4-0.8-1.2-0.8c-0.9,0-1.1,0.6-1.1,0.9H228.5z M231.5,474.3c-0.1,0.1-0.3,0.2-1.4,0.3
			c-0.4,0.1-1,0.2-1,0.8c0,0.5,0.3,0.9,0.9,0.9c0.8,0,1.5-0.5,1.5-1.2V474.3z"/>
		<path class="st11" d="M240.9,470.1h0.9v6.7h-1l-3.4-5.4h0v5.4h-0.9v-6.7h1.1l3.4,5.4h0V470.1z"/>
		<path class="st11" d="M244.9,472.1h0.7v2h2v0.7h-2v2h-0.7v-2h-2v-0.7h2V472.1z"/>
		<path class="st11" d="M251.3,476.8h-0.9v-4.7h-1.5v-0.7c1.1-0.1,1.5-0.2,1.8-1.3h0.6V476.8z"/>
	</g>
</g>
<g transform="translate(-0.5 -0.5)" class="st2">
	<g class="st2">
		<path class="st11" d="M182.4,236h-0.6l2.3-7.1h0.6L182.4,236z"/>
		<path class="st11" d="M192.6,231.2c-0.3-1.2-1.2-1.4-1.9-1.4c-1.2,0-2.2,0.9-2.2,2.7c0,1.6,0.6,2.8,2.2,2.8c0.6,0,1.6-0.3,1.9-1.8
			h0.9c-0.4,2.5-2.4,2.7-2.9,2.7c-1.5,0-3-1-3-3.6c0-2.1,1.2-3.5,3.1-3.5c1.7,0,2.6,1.1,2.8,2.2H192.6z"/>
		<path class="st11" d="M194.5,232.5c0-1.2,0.8-1.6,2-1.6c0.4,0,1.8,0.1,1.8,1.4v2.8c0,0.2,0.1,0.3,0.3,0.3c0.1,0,0.2,0,0.3,0v0.6
			c-0.1,0-0.3,0.1-0.4,0.1c-0.7,0-0.8-0.4-0.9-0.8c-0.3,0.3-0.8,0.8-1.8,0.8c-0.9,0-1.5-0.6-1.5-1.4c0-0.4,0.1-1.4,1.5-1.5l1.4-0.2
			c0.2,0,0.4-0.1,0.4-0.6c0-0.5-0.4-0.8-1.2-0.8c-0.9,0-1.1,0.6-1.1,0.9H194.5z M197.6,233.4c-0.1,0.1-0.3,0.2-1.4,0.3
			c-0.4,0.1-1,0.2-1,0.8c0,0.5,0.3,0.9,0.9,0.9c0.8,0,1.5-0.5,1.5-1.2V233.4z"/>
		<path class="st11" d="M200.8,231.7v3.2c0,0.4,0.3,0.4,0.5,0.4h0.3v0.6c-0.3,0-0.5,0.1-0.6,0.1c-0.8,0-1-0.5-1-1v-3.2h-0.7V231h0.7
			v-1.4h0.8v1.4h0.8v0.7H200.8z"/>
		<path class="st11" d="M206.5,234.3c0,0.2-0.3,0.9-0.9,1.3c-0.2,0.1-0.5,0.3-1.3,0.3c-1.4,0-2.2-1-2.2-2.5c0-1.5,0.7-2.7,2.4-2.7
			c1.4,0,2.1,1.1,2.1,2.9H203c0,1,0.5,1.6,1.4,1.6c0.8,0,1.2-0.6,1.3-1H206.5z M205.8,233c0-0.8-0.4-1.5-1.4-1.5
			c-0.8,0-1.4,0.7-1.4,1.5H205.8z"/>
		<path class="st11" d="M211.7,235.5c0,0.7,0,2.5-2.3,2.5c-0.6,0-1.7-0.2-1.9-1.5h0.8c0.1,0.8,0.9,0.8,1.1,0.8
			c1.4,0,1.4-1.1,1.4-1.7v-0.2h0v0c-0.2,0.3-0.6,0.7-1.3,0.7c-1.7,0-2.2-1.6-2.2-2.7c0-1.4,0.7-2.4,2-2.4c0.9,0,1.3,0.6,1.5,0.8h0
			V231h0.8V235.5z M209.5,235.3c0.5,0,1.3-0.3,1.3-1.6c0-0.8-0.1-2.1-1.3-2.1c-1.3,0-1.3,1.2-1.3,1.8
			C208.2,234.5,208.6,235.3,209.5,235.3z"/>
		<path class="st11" d="M214.8,230.8c1.6,0,2.3,1.3,2.3,2.6c0,1.3-0.7,2.6-2.3,2.6s-2.3-1.3-2.3-2.6
			C212.5,232.1,213.2,230.8,214.8,230.8z M214.8,235.3c1.2,0,1.4-1.2,1.4-1.9c0-0.7-0.2-1.9-1.4-1.9s-1.4,1.2-1.4,1.9
			C213.4,234.1,213.6,235.3,214.8,235.3z"/>
		<path class="st11" d="M219,235.9h-0.8V231h0.8v0.8h0c0.3-0.6,0.8-1,1.4-1c0.1,0,0.1,0,0.2,0v0.9h-0.3c-0.8,0-1.3,0.6-1.3,1.3
			V235.9z"/>
		<path class="st11" d="M221.3,230.1v-0.9h0.8v0.9H221.3z M222.1,235.9h-0.8V231h0.8V235.9z"/>
		<path class="st11" d="M223.3,232.5c0-1.2,0.8-1.6,2-1.6c0.4,0,1.8,0.1,1.8,1.4v2.8c0,0.2,0.1,0.3,0.3,0.3c0.1,0,0.2,0,0.3,0v0.6
			c-0.1,0-0.3,0.1-0.4,0.1c-0.7,0-0.8-0.4-0.9-0.8c-0.3,0.3-0.8,0.8-1.8,0.8c-0.9,0-1.5-0.6-1.5-1.4c0-0.4,0.1-1.4,1.5-1.5l1.4-0.2
			c0.2,0,0.4-0.1,0.4-0.6c0-0.5-0.4-0.8-1.2-0.8c-0.9,0-1.1,0.6-1.1,0.9H223.3z M226.3,233.4c-0.1,0.1-0.3,0.2-1.4,0.3
			c-0.4,0.1-1,0.2-1,0.8c0,0.5,0.3,0.9,0.9,0.9c0.8,0,1.5-0.5,1.5-1.2V233.4z"/>
		<path class="st11" d="M235.7,229.1h0.9v6.7h-1l-3.4-5.4h0v5.4h-0.9v-6.7h1.1l3.4,5.4h0V229.1z"/>
	</g>
</g>
<g transform="translate(-0.5 -0.5)" class="st2">
	<g class="st2">
		<path class="st11" d="M231.4,276.1c0-1-0.9-1.4-1.7-1.4c-0.6,0-1.5,0.2-1.5,1.2c0,0.6,0.4,0.8,0.8,0.9l1.9,0.4
			c0.9,0.2,1.5,0.7,1.5,1.8c0,1.6-1.5,2-2.6,2c-1.2,0-1.7-0.4-2-0.6c-0.6-0.5-0.7-1.1-0.7-1.7h0.9c0,1.2,1,1.6,1.9,1.6
			c0.7,0,1.8-0.2,1.8-1.1c0-0.7-0.3-0.9-1.4-1.2l-1.4-0.3c-0.4-0.1-1.4-0.4-1.4-1.6c0-1,0.7-2.1,2.3-2.1c2.4,0,2.6,1.4,2.6,2.1
			H231.4z"/>
		<path class="st11" d="M235.5,275.8c1.6,0,2.3,1.3,2.3,2.6c0,1.3-0.7,2.6-2.3,2.6s-2.3-1.3-2.3-2.6
			C233.2,277.1,233.9,275.8,235.5,275.8z M235.5,280.3c1.2,0,1.4-1.2,1.4-1.9c0-0.7-0.2-1.9-1.4-1.9c-1.2,0-1.4,1.2-1.4,1.9
			C234,279.1,234.3,280.3,235.5,280.3z"/>
		<path class="st11" d="M239.7,276.6v3.2c0,0.4,0.3,0.4,0.5,0.4h0.3v0.6c-0.3,0-0.5,0.1-0.6,0.1c-0.8,0-1-0.5-1-1v-3.2h-0.7V276h0.7
			v-1.4h0.8v1.4h0.8v0.7H239.7z"/>
		<path class="st11" d="M242.3,276.6v3.2c0,0.4,0.3,0.4,0.5,0.4h0.3v0.6c-0.3,0-0.5,0.1-0.6,0.1c-0.8,0-1-0.5-1-1v-3.2h-0.7V276h0.7
			v-1.4h0.8v1.4h0.8v0.7H242.3z"/>
		<path class="st11" d="M245.9,275.8c1.6,0,2.3,1.3,2.3,2.6c0,1.3-0.7,2.6-2.3,2.6s-2.3-1.3-2.3-2.6
			C243.6,277.1,244.3,275.8,245.9,275.8z M245.9,280.3c1.2,0,1.4-1.2,1.4-1.9c0-0.7-0.2-1.9-1.4-1.9c-1.2,0-1.4,1.2-1.4,1.9
			C244.5,279.1,244.7,280.3,245.9,280.3z"/>
		<path class="st11" d="M252.2,277.6c-0.1-0.7-0.5-1-1.2-1c-1,0-1.3,1-1.3,1.8c0,0.8,0.2,1.9,1.3,1.9c0.6,0,1-0.4,1.2-1.2h0.8
			c-0.1,0.8-0.6,1.9-2,1.9c-1.4,0-2.2-1-2.2-2.5c0-1.5,0.7-2.7,2.4-2.7c1.3,0,1.8,0.9,1.8,1.8H252.2z"/>
		<path class="st11" d="M253.8,277.4c0-1.2,0.8-1.6,2-1.6c0.4,0,1.8,0.1,1.8,1.4v2.8c0,0.2,0.1,0.3,0.3,0.3c0.1,0,0.2,0,0.3,0v0.6
			c-0.1,0-0.3,0.1-0.4,0.1c-0.7,0-0.8-0.4-0.9-0.8c-0.3,0.3-0.8,0.8-1.8,0.8c-0.9,0-1.5-0.6-1.5-1.4c0-0.4,0.1-1.4,1.5-1.5l1.4-0.2
			c0.2,0,0.4-0.1,0.4-0.6c0-0.5-0.4-0.8-1.2-0.8c-0.9,0-1.1,0.6-1.1,0.9H253.8z M256.8,278.4c-0.1,0.1-0.3,0.2-1.4,0.3
			c-0.4,0.1-1,0.2-1,0.8c0,0.5,0.3,0.9,0.9,0.9c0.8,0,1.5-0.5,1.5-1.2V278.4z"/>
		<path class="st11" d="M260,276.6v3.2c0,0.4,0.3,0.4,0.5,0.4h0.3v0.6c-0.3,0-0.5,0.1-0.6,0.1c-0.8,0-1-0.5-1-1v-3.2h-0.7V276h0.7
			v-1.4h0.8v1.4h0.8v0.7H260z"/>
		<path class="st11" d="M265.8,279.3c0,0.2-0.3,0.9-0.9,1.3c-0.2,0.1-0.5,0.3-1.3,0.3c-1.4,0-2.2-1-2.2-2.5c0-1.5,0.7-2.7,2.4-2.7
			c1.4,0,2.1,1.1,2.1,2.9h-3.6c0,1,0.5,1.6,1.4,1.6c0.8,0,1.2-0.6,1.3-1H265.8z M265,278c0-0.8-0.4-1.5-1.4-1.5
			c-0.8,0-1.4,0.7-1.4,1.5H265z"/>
		<path class="st11" d="M270.9,280.5c0,0.7,0,2.5-2.3,2.5c-0.6,0-1.7-0.2-1.9-1.5h0.8c0.1,0.8,0.9,0.8,1.1,0.8
			c1.4,0,1.4-1.1,1.4-1.7v-0.2h0v0c-0.2,0.3-0.6,0.7-1.3,0.7c-1.7,0-2.2-1.6-2.2-2.7c0-1.4,0.7-2.4,2-2.4c0.9,0,1.3,0.6,1.5,0.8h0
			V276h0.8V280.5z M268.8,280.3c0.5,0,1.3-0.3,1.3-1.6c0-0.8-0.1-2.1-1.3-2.1c-1.3,0-1.3,1.2-1.3,1.8
			C267.4,279.5,267.9,280.3,268.8,280.3z"/>
		<path class="st11" d="M274,275.8c1.6,0,2.3,1.3,2.3,2.6c0,1.3-0.7,2.6-2.3,2.6s-2.3-1.3-2.3-2.6
			C271.7,277.1,272.5,275.8,274,275.8z M274,280.3c1.2,0,1.4-1.2,1.4-1.9c0-0.7-0.2-1.9-1.4-1.9c-1.2,0-1.4,1.2-1.4,1.9
			C272.6,279.1,272.8,280.3,274,280.3z"/>
		<path class="st11" d="M278.2,280.9h-0.8V276h0.8v0.8h0c0.3-0.6,0.8-1,1.4-1c0.1,0,0.1,0,0.2,0v0.9h-0.3c-0.8,0-1.3,0.6-1.3,1.3
			V280.9z"/>
		<path class="st11" d="M280.5,275.1v-0.9h0.8v0.9H280.5z M281.3,280.9h-0.8V276h0.8V280.9z"/>
		<path class="st11" d="M282.6,277.4c0-1.2,0.8-1.6,2-1.6c0.4,0,1.8,0.1,1.8,1.4v2.8c0,0.2,0.1,0.3,0.3,0.3c0.1,0,0.2,0,0.3,0v0.6
			c-0.1,0-0.3,0.1-0.4,0.1c-0.7,0-0.8-0.4-0.9-0.8c-0.3,0.3-0.8,0.8-1.8,0.8c-0.9,0-1.5-0.6-1.5-1.4c0-0.4,0.1-1.4,1.5-1.5l1.4-0.2
			c0.2,0,0.4-0.1,0.4-0.6c0-0.5-0.4-0.8-1.2-0.8c-0.9,0-1.1,0.6-1.1,0.9H282.6z M285.6,278.4c-0.1,0.1-0.3,0.2-1.4,0.3
			c-0.4,0.1-1,0.2-1,0.8c0,0.5,0.3,0.9,0.9,0.9c0.8,0,1.5-0.5,1.5-1.2V278.4z"/>
		<path class="st11" d="M295,274.1h0.9v6.7h-1l-3.4-5.4h0v5.4h-0.9v-6.7h1.1l3.4,5.4h0V274.1z"/>
	</g>
</g>
<g transform="translate(-0.5 -0.5)" class="st2">
	<g class="st2">
		<path class="st11" d="M280.2,325.4h-0.9v-6.7h0.9V325.4z"/>
		<path class="st11" d="M281.6,320.5h0.8v0.7h0c0.2-0.3,0.6-0.8,1.5-0.8c0.9,0,1.2,0.5,1.3,0.8c0.4-0.5,0.7-0.8,1.5-0.8
			c0.5,0,1.5,0.3,1.5,1.6v3.4h-0.8v-3.2c0-0.7-0.2-1.1-0.9-1.1c-0.7,0-1.2,0.7-1.2,1.3v3h-0.8V322c0-0.4-0.2-0.9-0.8-0.9
			c-0.5,0-1.3,0.3-1.3,1.6v2.7h-0.8V320.5z"/>
		<path class="st11" d="M289.4,320.5h0.8v0.7h0c0.2-0.3,0.6-0.8,1.5-0.8c0.9,0,1.2,0.5,1.3,0.8c0.4-0.5,0.7-0.8,1.5-0.8
			c0.5,0,1.5,0.3,1.5,1.6v3.4h-0.8v-3.2c0-0.7-0.2-1.1-0.9-1.1c-0.7,0-1.2,0.7-1.2,1.3v3h-0.8V322c0-0.4-0.2-0.9-0.8-0.9
			c-0.5,0-1.3,0.3-1.3,1.6v2.7h-0.8V320.5z"/>
		<path class="st11" d="M297.2,321.9c0-1.2,0.8-1.6,2-1.6c0.4,0,1.8,0.1,1.8,1.4v2.8c0,0.2,0.1,0.3,0.3,0.3c0.1,0,0.2,0,0.3,0v0.6
			c-0.1,0-0.3,0.1-0.4,0.1c-0.7,0-0.8-0.4-0.9-0.8c-0.3,0.3-0.8,0.8-1.8,0.8c-0.9,0-1.5-0.6-1.5-1.4c0-0.4,0.1-1.4,1.5-1.5l1.4-0.2
			c0.2,0,0.4-0.1,0.4-0.6c0-0.5-0.4-0.8-1.2-0.8c-0.9,0-1.1,0.6-1.1,0.9H297.2z M300.2,322.9c-0.1,0.1-0.3,0.2-1.4,0.3
			c-0.4,0.1-1,0.2-1,0.8c0,0.5,0.3,0.9,0.9,0.9c0.8,0,1.5-0.5,1.5-1.2V322.9z"/>
		<path class="st11" d="M306.5,325c0,0.7,0,2.5-2.3,2.5c-0.6,0-1.7-0.2-1.9-1.5h0.8c0.1,0.8,0.9,0.8,1.1,0.8c1.4,0,1.4-1.1,1.4-1.7
			v-0.2h0v0c-0.2,0.3-0.6,0.7-1.3,0.7c-1.7,0-2.2-1.6-2.2-2.7c0-1.4,0.7-2.4,2-2.4c0.9,0,1.3,0.6,1.5,0.8h0v-0.7h0.8V325z
			 M304.4,324.8c0.5,0,1.3-0.3,1.3-1.7c0-0.8-0.1-2.1-1.3-2.1c-1.3,0-1.3,1.2-1.3,1.8C303.1,324,303.5,324.8,304.4,324.8z"/>
		<path class="st11" d="M307.7,319.6v-0.9h0.8v0.9H307.7z M308.5,325.4h-0.8v-4.9h0.8V325.4z"/>
		<path class="st11" d="M313.7,325.4h-0.8v-3c0-0.9-0.2-1.3-1-1.3c-0.5,0-1.3,0.3-1.3,1.6v2.7h-0.8v-4.9h0.8v0.7h0
			c0.2-0.3,0.6-0.8,1.5-0.8c0.8,0,1.7,0.3,1.7,1.7V325.4z"/>
		<path class="st11" d="M315,319.6v-0.9h0.8v0.9H315z M315.8,325.4H315v-4.9h0.8V325.4z"/>
	</g>
</g>
<g transform="translate(-0.5 -0.5)" class="st2">
	<g class="st2">
		<path class="st11" d="M283.7,347.8h2.7c1.8,0,2.8,1.3,2.8,3.3c0,1.5-0.7,3.5-2.9,3.5h-2.7V347.8z M284.6,353.7h1.8
			c1.2,0,1.9-0.9,1.9-2.6c0-1.7-0.8-2.5-2-2.5h-1.7V353.7z"/>
		<path class="st11" d="M292.3,349.5c1.6,0,2.3,1.3,2.3,2.6c0,1.3-0.7,2.6-2.3,2.6s-2.3-1.3-2.3-2.6
			C290,350.8,290.7,349.5,292.3,349.5z M292.3,353.9c1.2,0,1.4-1.2,1.4-1.9c0-0.7-0.2-1.9-1.4-1.9c-1.2,0-1.4,1.2-1.4,1.9
			C290.9,352.7,291.1,353.9,292.3,353.9z"/>
		<path class="st11" d="M298.6,351.3c-0.1-0.7-0.5-1-1.2-1c-1,0-1.3,1-1.3,1.8c0,0.8,0.2,1.9,1.3,1.9c0.6,0,1-0.4,1.2-1.2h0.8
			c-0.1,0.8-0.6,1.9-2,1.9c-1.4,0-2.2-1-2.2-2.5c0-1.5,0.7-2.7,2.4-2.7c1.3,0,1.8,0.9,1.8,1.8H298.6z"/>
		<path class="st11" d="M303.4,354.5v-0.7l0,0c-0.3,0.6-0.8,0.9-1.6,0.9c-0.7,0-1.6-0.3-1.6-1.5v-3.5h0.8v3.3c0,0.8,0.4,1.1,0.9,1.1
			c1,0,1.3-0.9,1.3-1.6v-2.7h0.8v4.9H303.4z"/>
		<path class="st11" d="M305.4,349.6h0.8v0.7h0c0.2-0.3,0.6-0.8,1.5-0.8c0.9,0,1.2,0.5,1.3,0.8c0.4-0.5,0.7-0.8,1.5-0.8
			c0.5,0,1.5,0.3,1.5,1.6v3.4h-0.8v-3.2c0-0.7-0.2-1.1-0.9-1.1c-0.7,0-1.2,0.7-1.2,1.3v3h-0.8v-3.4c0-0.4-0.2-0.9-0.8-0.9
			c-0.5,0-1.3,0.3-1.3,1.6v2.7h-0.8V349.6z"/>
		<path class="st11" d="M317.4,353c0,0.2-0.3,0.9-0.9,1.3c-0.2,0.1-0.5,0.3-1.3,0.3c-1.4,0-2.2-1-2.2-2.5c0-1.5,0.7-2.7,2.4-2.7
			c1.4,0,2.1,1.1,2.1,2.9h-3.6c0,1,0.5,1.6,1.4,1.6c0.8,0,1.2-0.6,1.3-1H317.4z M316.6,351.7c0-0.8-0.4-1.5-1.4-1.5
			c-0.8,0-1.4,0.7-1.4,1.5H316.6z"/>
		<path class="st11" d="M322.4,354.5h-0.8v-3c0-0.9-0.2-1.3-1-1.3c-0.5,0-1.3,0.3-1.3,1.6v2.7h-0.8v-4.9h0.8v0.7h0
			c0.2-0.3,0.6-0.8,1.5-0.8c0.8,0,1.7,0.3,1.7,1.7V354.5z"/>
		<path class="st11" d="M324.6,350.3v3.2c0,0.4,0.3,0.4,0.5,0.4h0.3v0.6c-0.3,0-0.5,0.1-0.6,0.1c-0.8,0-1-0.5-1-1v-3.2h-0.7v-0.7
			h0.7v-1.4h0.8v1.4h0.8v0.7H324.6z"/>
		<path class="st11" d="M326.3,348.7v-0.9h0.8v0.9H326.3z M327.1,354.5h-0.8v-4.9h0.8V354.5z"/>
	</g>
</g>
<g transform="translate(-0.5 -0.5)" class="st2">
	<g class="st2">
		<path class="st11" d="M285.4,380.7l-0.7,2h-0.9l2.5-6.7h1l2.4,6.7h-1l-0.7-2H285.4z M287.8,379.9l-1-3h0l-1.1,3H287.8z"/>
		<path class="st11" d="M291.4,382.7h-0.8v-6.7h0.8V382.7z"/>
		<path class="st11" d="M293.6,378.4v3.2c0,0.4,0.3,0.4,0.5,0.4h0.3v0.6c-0.3,0-0.5,0.1-0.6,0.1c-0.8,0-1-0.5-1-1v-3.2h-0.7v-0.7
			h0.7v-1.4h0.8v1.4h0.8v0.7H293.6z"/>
		<path class="st11" d="M296.2,382.7h-0.8v-4.9h0.8v0.8h0c0.3-0.6,0.8-1,1.4-1c0.1,0,0.1,0,0.2,0v0.9h-0.3c-0.8,0-1.3,0.6-1.3,1.3
			V382.7z"/>
		<path class="st11" d="M298.5,376.9v-0.9h0.8v0.9H298.5z M299.3,382.7h-0.8v-4.9h0.8V382.7z"/>
		<path class="st11" d="M303.1,377.8h0.8v0.7h0c0.2-0.3,0.6-0.8,1.5-0.8c1.3,0,2,1.1,2,2.4c0,1.2-0.5,2.7-2.2,2.7
			c-0.7,0-1.1-0.3-1.3-0.7h0v2.5h-0.8V377.8z M305.2,382.1c0.9,0,1.3-0.8,1.3-1.9c0-0.6-0.1-1.8-1.3-1.8c-1.2,0-1.3,1.3-1.3,2.1
			C303.9,381.7,304.7,382.1,305.2,382.1z"/>
		<path class="st11" d="M308.3,379.3c0-1.2,0.8-1.6,2-1.6c0.4,0,1.8,0.1,1.8,1.4v2.8c0,0.2,0.1,0.3,0.3,0.3c0.1,0,0.2,0,0.3,0v0.6
			c-0.1,0-0.3,0.1-0.5,0.1c-0.7,0-0.8-0.4-0.9-0.8c-0.3,0.3-0.8,0.8-1.8,0.8c-0.9,0-1.5-0.6-1.5-1.4c0-0.4,0.1-1.4,1.5-1.5l1.4-0.2
			c0.2,0,0.4-0.1,0.4-0.6c0-0.5-0.4-0.8-1.2-0.8c-0.9,0-1.1,0.6-1.1,0.9H308.3z M311.4,380.2c-0.1,0.1-0.3,0.2-1.4,0.3
			c-0.4,0.1-1,0.2-1,0.8c0,0.5,0.3,0.9,0.9,0.9c0.8,0,1.5-0.5,1.5-1.2V380.2z"/>
		<path class="st11" d="M314.6,378.4v3.2c0,0.4,0.3,0.4,0.5,0.4h0.3v0.6c-0.3,0-0.5,0.1-0.6,0.1c-0.8,0-1-0.5-1-1v-3.2h-0.7v-0.7
			h0.7v-1.4h0.8v1.4h0.8v0.7H314.6z"/>
		<path class="st11" d="M317.2,378.4v3.2c0,0.4,0.3,0.4,0.5,0.4h0.3v0.6c-0.3,0-0.5,0.1-0.6,0.1c-0.8,0-1-0.5-1-1v-3.2h-0.7v-0.7
			h0.7v-1.4h0.8v1.4h0.8v0.7H317.2z"/>
		<path class="st11" d="M323,381.1c0,0.2-0.3,0.9-0.9,1.3c-0.2,0.1-0.5,0.3-1.3,0.3c-1.4,0-2.2-1-2.2-2.5c0-1.5,0.7-2.7,2.4-2.7
			c1.4,0,2.1,1.1,2.1,2.9h-3.6c0,1,0.5,1.6,1.4,1.6c0.8,0,1.2-0.6,1.3-1H323z M322.2,379.8c0-0.8-0.4-1.5-1.4-1.5
			c-0.8,0-1.4,0.7-1.4,1.5H322.2z"/>
		<path class="st11" d="M324.9,382.7h-0.8v-4.9h0.8v0.8h0c0.3-0.6,0.8-1,1.4-1c0.1,0,0.1,0,0.2,0v0.9h-0.3c-0.8,0-1.3,0.6-1.3,1.3
			V382.7z"/>
		<path class="st11" d="M331.4,382.7h-0.8v-3c0-0.9-0.2-1.3-1-1.3c-0.5,0-1.3,0.3-1.3,1.6v2.7h-0.8v-4.9h0.8v0.7h0
			c0.2-0.3,0.6-0.8,1.5-0.8c0.8,0,1.7,0.3,1.7,1.7V382.7z"/>
	</g>
</g>
<path class="st7" d="M544.8,106.1v363.6c0,0,0,12.1,7.6,12.1c7.6,0,17.6,0,17.6,0"/>
<path class="st7" d="M544.8,140.9c0,0-2.4,14.7,9.4,14.4h6.5h9.8"/>
<polyline class="st7" points="612,171.2 612,302.6 626.7,302.6 "/>
<line class="st7" x1="612" y1="199.8" x2="622.1" y2="199.8"/>
<polyline class="st7" points="651.6,209.2 651.6,239.2 666.5,239.2 "/>
<polyline class="st7" points="694.8,247.8 694.8,278.6 709.2,278.6 "/>
<polyline class="st7" points="651.6,312.3 651.6,341.5 662.7,341.5 "/>
<polyline class="st7" points="694.8,351.4 694.8,444.4 707.3,444.4 "/>
<line class="st7" x1="694.8" y1="380.4" x2="707.8" y2="380.4"/>
<polyline class="st7" points="738,390.3 738,420.2 752.8,420.2 "/>
<g class="st2">
	<rect x="462.7" y="55.5" class="st3" width="164.2" height="54.4"/>
	<path class="st4" d="M624.4,58v49.4H465.2V58H624.4 M629.4,53h-5H465.2h-5v5v49.4v5h5h159.2h5v-5V58V53L629.4,53z"/>
</g>
<g class="st2">
	<rect x="620.7" y="190" class="st9" width="61.7" height="19.6"/>
	<path class="st3" d="M681.2,191.2v17.1H622v-17.1H681.2 M683.7,188.7h-2.5H622h-2.5v2.5v17.1v2.5h2.5h59.2h2.5v-2.5v-17.1V188.7
		L683.7,188.7z"/>
</g>
<g class="st2">
	<rect x="661.5" y="229.4" class="st9" width="66.6" height="19.6"/>
	<path class="st3" d="M726.8,230.6v17.1h-64.1v-17.1H726.8 M729.3,228.1h-2.5h-64.1h-2.5v2.5v17.1v2.5h2.5h64.1h2.5v-2.5v-17.1
		V228.1L729.3,228.1z"/>
</g>
<g class="st2">
	<rect x="704.7" y="268.8" class="st9" width="64.6" height="19.6"/>
	<path class="st3" d="M768.1,270v17.1H706V270H768.1 M770.6,267.5h-2.5H706h-2.5v2.5v17.1v2.5h2.5h62.1h2.5v-2.5V270V267.5
		L770.6,267.5z"/>
</g>
<g class="st2">
	<rect x="620.9" y="292.8" class="st9" width="68.9" height="19.6"/>
	<path class="st3" d="M688.6,294v17.1h-66.4V294H688.6 M691.1,291.5h-2.5h-66.4h-2.5v2.5v17.1v2.5h2.5h66.4h2.5v-2.5V294V291.5
		L691.1,291.5z"/>
</g>
<g class="st2">
	<rect x="660.9" y="331.7" class="st9" width="67.2" height="19.6"/>
	<path class="st3" d="M726.8,332.9v17.1h-64.7v-17.1H726.8 M729.3,330.4h-2.5h-64.7h-2.5v2.5v17.1v2.5h2.5h64.7h2.5v-2.5v-17.1
		V330.4L729.3,330.4z"/>
</g>
<g class="st2">
	<rect x="704.4" y="370.6" class="st12" width="67.2" height="19.6"/>
	<path class="st3" d="M770.3,371.9V389h-64.7v-17.1H770.3 M772.8,369.4h-2.5h-64.7h-2.5v2.5V389v2.5h2.5h64.7h2.5V389v-17.1V369.4
		L772.8,369.4z"/>
</g>
<g class="st2">
	<rect x="748.5" y="410.4" class="st12" width="87.4" height="19.6"/>
	<path class="st3" d="M834.6,411.6v17.1h-84.9v-17.1H834.6 M837.1,409.1h-2.5h-84.9h-2.5v2.5v17.1v2.5h2.5h84.9h2.5v-2.5v-17.1
		V409.1L837.1,409.1z"/>
</g>
<g class="st2">
	<rect x="704.4" y="434.6" class="st12" width="50.9" height="19.6"/>
	<path class="st3" d="M754,435.9V453h-48.4v-17.1H754 M756.5,433.4H754h-48.4h-2.5v2.5V453v2.5h2.5H754h2.5V453v-17.1V433.4
		L756.5,433.4z"/>
</g>
<g transform="translate(-0.5 -0.5)">
	<g class="st2">
		<path d="M493,89.8h-2.7l4.4-12.2h2.9l4.3,12.2h-2.8l-0.8-2.5h-4.5L493,89.8z M494.5,85.2h3.1l-1.5-4.8h0L494.5,85.2z"/>
		<path d="M512.5,79.7H506v2.6h6v2.2h-6v3.2h6.8v2.2h-9.3V77.6h9V79.7z"/>
		<path d="M526.6,89.8h-2.4V79.6h0l-2.3,10.2h-2.5l-2.2-10.2h0v10.2h-2.4V77.6h3.7l2.2,9.6h0l2.2-9.6h3.7V89.8z"/>
		<path d="M535.5,89.8h-2.7l4.4-12.2h2.9l4.3,12.2h-2.8l-0.8-2.5h-4.5L535.5,89.8z M537.1,85.2h3.1l-1.5-4.8h0L537.1,85.2z"/>
		<path d="M547.9,86c0,0.7,0.4,2,2.6,2c1.2,0,2.6-0.3,2.6-1.6c0-1-0.9-1.2-2.2-1.5l-1.3-0.3c-2-0.5-3.9-0.9-3.9-3.6
			c0-1.4,0.7-3.8,4.7-3.8c3.7,0,4.8,2.5,4.8,4h-2.5c-0.1-0.5-0.3-1.8-2.5-1.8c-1,0-2.1,0.4-2.1,1.5c0,1,0.8,1.2,1.3,1.3l3,0.7
			c1.7,0.4,3.2,1.1,3.2,3.3c0,3.7-3.7,4-4.8,4c-4.5,0-5.2-2.6-5.2-4.1H547.9z"/>
		<path d="M559.3,86c0,0.7,0.4,2,2.6,2c1.2,0,2.6-0.3,2.6-1.6c0-1-0.9-1.2-2.2-1.5l-1.3-0.3c-2-0.5-3.9-0.9-3.9-3.6
			c0-1.4,0.7-3.8,4.7-3.8c3.7,0,4.8,2.5,4.8,4H564c-0.1-0.5-0.3-1.8-2.5-1.8c-1,0-2.1,0.4-2.1,1.5c0,1,0.8,1.2,1.3,1.3l3,0.7
			c1.7,0.4,3.2,1.1,3.2,3.3c0,3.7-3.7,4-4.8,4c-4.5,0-5.2-2.6-5.2-4.1H559.3z"/>
		<path d="M577.8,79.7h-6.5v2.6h6v2.2h-6v3.2h6.8v2.2h-9.3V77.6h9V79.7z"/>
		<path d="M585.4,89.8h-2.6V79.7h-3.7v-2.2h9.9v2.2h-3.7V89.8z"/>
		<path d="M592.4,86c0,0.7,0.4,2,2.6,2c1.2,0,2.6-0.3,2.6-1.6c0-1-0.9-1.2-2.2-1.5l-1.3-0.3c-2-0.5-3.9-0.9-3.9-3.6
			c0-1.4,0.7-3.8,4.7-3.8c3.7,0,4.8,2.5,4.8,4h-2.5c-0.1-0.5-0.3-1.8-2.5-1.8c-1,0-2.1,0.4-2.1,1.5c0,1,0.8,1.2,1.3,1.3l3,0.7
			c1.7,0.4,3.2,1.1,3.2,3.3c0,3.7-3.7,4-4.8,4c-4.5,0-5.2-2.6-5.2-4.1H592.4z"/>
	</g>
</g>
<g>
	<rect x="565.1" y="465.7" class="st8" width="105.7" height="32.3"/>
	<path class="st4" d="M669.8,466.7v30.3H566.1v-30.3H669.8 M671.8,464.7h-2H566.1h-2v2v30.3v2h2h103.7h2v-2v-30.3V464.7L671.8,464.7
		z"/>
</g>
<g transform="translate(-0.5 -0.5)" class="st2">
	<g class="st2">
		<path class="st10" d="M574.8,487.2h-0.9l3.2-9.8h0.9L574.8,487.2z"/>
		<path class="st10" d="M583.8,486.9h-1.3v-9.3h6.5v1.1h-5.2v2.9h4.6v1.1h-4.6V486.9z"/>
		<path class="st10" d="M594.6,486.9v-1l0,0c-0.5,0.8-1.1,1.2-2.2,1.2c-1,0-2.2-0.5-2.2-2.1v-4.9h1.1v4.5c0,1.1,0.6,1.5,1.3,1.5
			c1.4,0,1.9-1.3,1.9-2.3v-3.7h1.1v6.8H594.6z"/>
		<path class="st10" d="M602.9,486.9h-1.1v-4.2c0-1.2-0.3-1.8-1.5-1.8c-0.6,0-1.8,0.4-1.8,2.3v3.7h-1.1v-6.8h1.1v1h0
			c0.2-0.4,0.9-1.2,2.1-1.2c1.1,0,2.4,0.4,2.4,2.4V486.9z"/>
		<path class="st10" d="M605.7,486h4.2v0.9h-5.7v-0.9l4.1-5h-3.8v-0.9h5.3v0.9L605.7,486z"/>
		<path class="st10" d="M611.2,478.9v-1.3h1.1v1.3H611.2z M612.3,486.9h-1.1v-6.8h1.1V486.9z"/>
		<path class="st10" d="M616.8,480c2.2,0,3.2,1.8,3.2,3.6c0,1.8-1,3.6-3.2,3.6c-2.2,0-3.2-1.8-3.2-3.6
			C613.6,481.8,614.6,480,616.8,480z M616.8,486.1c1.6,0,2-1.7,2-2.6s-0.3-2.6-2-2.6s-2,1.7-2,2.6S615.2,486.1,616.8,486.1z"/>
		<path class="st10" d="M626.8,486.9h-1.1v-4.2c0-1.2-0.3-1.8-1.5-1.8c-0.7,0-1.8,0.4-1.8,2.3v3.7h-1.1v-6.8h1.1v1h0
			c0.2-0.4,0.9-1.2,2.1-1.2c1.1,0,2.4,0.4,2.4,2.4V486.9z"/>
		<path class="st10" d="M634.3,484.8c0,0.3-0.4,1.3-1.2,1.9c-0.3,0.2-0.8,0.5-1.8,0.5c-1.9,0-3-1.4-3-3.4c0-2.1,1-3.8,3.3-3.8
			c2,0,2.9,1.6,2.9,4h-5c0,1.4,0.7,2.2,2,2.2c1.1,0,1.7-0.8,1.8-1.3H634.3z M633.2,483c-0.1-1.1-0.5-2-1.9-2c-1.1,0-1.9,1-1.9,2
			H633.2z"/>
		<path class="st10" d="M645.7,477.6h1.2v9.3h-1.4l-4.7-7.5h0v7.5h-1.2v-9.3h1.5l4.7,7.5h0V477.6z"/>
		<path class="st10" d="M651.2,480.4h0.9v2.8h2.8v0.9h-2.8v2.8h-0.9v-2.8h-2.8v-0.9h2.8V480.4z"/>
		<path class="st10" d="M660.1,486.9h-1.2v-6.5h-2.1v-0.9c1.5-0.1,2.1-0.2,2.5-1.7h0.9V486.9z"/>
	</g>
</g>
<g>
	<rect x="565.1" y="139.2" class="st8" width="93.8" height="32.3"/>
	<path class="st4" d="M657.9,140.2v30.3h-91.8v-30.3H657.9 M659.9,138.2h-2h-91.8h-2v2v30.3v2h2h91.8h2v-2v-30.3V138.2L659.9,138.2z
		"/>
</g>
<g transform="translate(-0.5 -0.5)" class="st2">
	<g class="st2">
		<path class="st10" d="M575.9,160.4h-0.9l3.2-9.8h0.9L575.9,160.4z"/>
		<path class="st10" d="M584.9,160.2h-1.3v-9.3h6.5v1.1h-5.2v2.9h4.6v1.1h-4.6V160.2z"/>
		<path class="st10" d="M595.7,160.2v-1l0,0c-0.5,0.8-1.1,1.2-2.2,1.2c-1,0-2.2-0.5-2.2-2.1v-4.9h1.1v4.5c0,1.1,0.6,1.5,1.3,1.5
			c1.4,0,1.9-1.3,1.9-2.3v-3.7h1.1v6.8H595.7z"/>
		<path class="st10" d="M604.1,160.2h-1.1V156c0-1.2-0.3-1.8-1.5-1.8c-0.6,0-1.8,0.4-1.8,2.3v3.7h-1.1v-6.8h1.1v1h0
			c0.2-0.4,0.9-1.2,2.1-1.2c1.1,0,2.4,0.4,2.4,2.4V160.2z"/>
		<path class="st10" d="M606.8,159.2h4.2v0.9h-5.7v-0.9l4.1-5h-3.8v-0.9h5.3v0.9L606.8,159.2z"/>
		<path class="st10" d="M612.3,152.1v-1.3h1.1v1.3H612.3z M613.4,160.2h-1.1v-6.8h1.1V160.2z"/>
		<path class="st10" d="M617.9,153.2c2.2,0,3.2,1.8,3.2,3.6c0,1.8-1,3.6-3.2,3.6c-2.2,0-3.2-1.8-3.2-3.6
			C614.8,155,615.8,153.2,617.9,153.2z M617.9,159.4c1.6,0,2-1.7,2-2.6s-0.3-2.6-2-2.6c-1.6,0-2,1.7-2,2.6S616.3,159.4,617.9,159.4z
			"/>
		<path class="st10" d="M627.9,160.2h-1.1V156c0-1.2-0.3-1.8-1.5-1.8c-0.6,0-1.8,0.4-1.8,2.3v3.7h-1.1v-6.8h1.1v1h0
			c0.2-0.4,0.9-1.2,2.1-1.2c1.1,0,2.4,0.4,2.4,2.4V160.2z"/>
		<path class="st10" d="M635.4,158c0,0.3-0.4,1.3-1.2,1.9c-0.3,0.2-0.8,0.5-1.8,0.5c-1.9,0-3-1.4-3-3.4c0-2.1,1-3.8,3.3-3.8
			c2,0,2.9,1.6,2.9,4h-5c0,1.4,0.7,2.2,2,2.2c1.1,0,1.7-0.8,1.8-1.3H635.4z M634.3,156.2c-0.1-1.1-0.5-2-1.9-2c-1.1,0-1.9,1-1.9,2
			H634.3z"/>
		<path class="st10" d="M639.7,157.2h-3.2V156h3.2V157.2z"/>
		<path class="st10" d="M647.5,150.8h1.2v9.3h-1.4l-4.7-7.5h0v7.5h-1.2v-9.3h1.5l4.7,7.5h0V150.8z"/>
	</g>
</g>
<g>
	<g>
		<path class="st8" d="M612,182.6c-2.6,0-4.7-2.1-4.7-4.7c0-2.6,2.1-4.7,4.7-4.7s4.7,2.1,4.7,4.7C616.7,180.5,614.6,182.6,612,182.6
			z"/>
		<path class="st4" d="M612,173.6c2.3,0,4.2,1.9,4.2,4.2c0,2.3-1.9,4.2-4.2,4.2s-4.2-1.9-4.2-4.2C607.8,175.5,609.7,173.6,612,173.6
			 M612,172.6c-2.9,0-5.2,2.3-5.2,5.2s2.3,5.2,5.2,5.2c2.9,0,5.2-2.3,5.2-5.2S614.9,172.6,612,172.6L612,172.6z"/>
	</g>
	<g transform="translate(-0.5 -0.5)">
		<g class="st2">
			<path d="M614,178.9H611v-1.1h2.9V178.9z"/>
		</g>
	</g>
</g>
<g>
	<g>
		<path class="st8" d="M651.6,221.5c-2.6,0-4.7-2.1-4.7-4.7c0-2.6,2.1-4.7,4.7-4.7s4.7,2.1,4.7,4.7
			C656.3,219.4,654.2,221.5,651.6,221.5z"/>
		<path class="st4" d="M651.6,212.6c2.3,0,4.2,1.9,4.2,4.2c0,2.3-1.9,4.2-4.2,4.2c-2.3,0-4.2-1.9-4.2-4.2
			C647.3,214.4,649.2,212.6,651.6,212.6 M651.6,211.6c-2.9,0-5.2,2.3-5.2,5.2s2.3,5.2,5.2,5.2c2.9,0,5.2-2.3,5.2-5.2
			S654.5,211.6,651.6,211.6L651.6,211.6z"/>
	</g>
	<g transform="translate(-0.5 -0.5)">
		<g class="st2">
			<path d="M653.5,217.8h-2.9v-1.1h2.9V217.8z"/>
		</g>
	</g>
</g>
<g>
	<g>
		<path class="st8" d="M694.8,260.8c-2.6,0-4.7-2.1-4.7-4.7c0-2.6,2.1-4.7,4.7-4.7s4.7,2.1,4.7,4.7
			C699.5,258.7,697.4,260.8,694.8,260.8z"/>
		<path class="st4" d="M694.8,251.8c2.3,0,4.2,1.9,4.2,4.2c0,2.3-1.9,4.2-4.2,4.2s-4.2-1.9-4.2-4.2
			C690.6,253.7,692.5,251.8,694.8,251.8 M694.8,250.8c-2.9,0-5.2,2.3-5.2,5.2s2.3,5.2,5.2,5.2c2.9,0,5.2-2.3,5.2-5.2
			S697.7,250.8,694.8,250.8L694.8,250.8z"/>
	</g>
	<g transform="translate(-0.5 -0.5)">
		<g class="st2">
			<path d="M696.8,257.1h-2.9V256h2.9V257.1z"/>
		</g>
	</g>
</g>
<g>
	<g>
		<path class="st8" d="M651.3,324.2c-2.6,0-4.7-2.1-4.7-4.7c0-2.6,2.1-4.7,4.7-4.7s4.7,2.1,4.7,4.7C656,322,653.9,324.2,651.3,324.2
			z"/>
		<path class="st4" d="M651.3,315.2c2.3,0,4.2,1.9,4.2,4.2c0,2.3-1.9,4.2-4.2,4.2s-4.2-1.9-4.2-4.2
			C647,317.1,648.9,315.2,651.3,315.2 M651.3,314.2c-2.9,0-5.2,2.3-5.2,5.2s2.3,5.2,5.2,5.2c2.9,0,5.2-2.3,5.2-5.2
			S654.1,314.2,651.3,314.2L651.3,314.2z"/>
	</g>
	<g transform="translate(-0.5 -0.5)">
		<g class="st2">
			<path d="M653.2,320.5h-2.9v-1.1h2.9V320.5z"/>
		</g>
	</g>
</g>
<g>
	<g>
		<path class="st8" d="M694.8,363c-2.6,0-4.7-2.1-4.7-4.7c0-2.6,2.1-4.7,4.7-4.7s4.7,2.1,4.7,4.7C699.5,360.9,697.4,363,694.8,363z"
			/>
		<path class="st4" d="M694.8,354c2.3,0,4.2,1.9,4.2,4.2c0,2.3-1.9,4.2-4.2,4.2s-4.2-1.9-4.2-4.2C690.6,355.9,692.5,354,694.8,354
			 M694.8,353c-2.9,0-5.2,2.3-5.2,5.2s2.3,5.2,5.2,5.2c2.9,0,5.2-2.3,5.2-5.2S697.7,353,694.8,353L694.8,353z"/>
	</g>
	<g transform="translate(-0.5 -0.5)">
		<g class="st2">
			<path d="M696.8,359.3h-2.9v-1.1h2.9V359.3z"/>
		</g>
	</g>
</g>
<g>
	<g>
		<path class="st8" d="M738,402.6c-2.6,0-4.7-2.1-4.7-4.7c0-2.6,2.1-4.7,4.7-4.7s4.7,2.1,4.7,4.7C742.7,400.5,740.6,402.6,738,402.6
			z"/>
		<path class="st4" d="M738,393.7c2.3,0,4.2,1.9,4.2,4.2c0,2.3-1.9,4.2-4.2,4.2s-4.2-1.9-4.2-4.2C733.7,395.6,735.6,393.7,738,393.7
			 M738,392.7c-2.9,0-5.2,2.3-5.2,5.2s2.3,5.2,5.2,5.2c2.9,0,5.2-2.3,5.2-5.2S740.9,392.7,738,392.7L738,392.7z"/>
	</g>
	<g transform="translate(-0.5 -0.5)">
		<g class="st2">
			<path d="M739.9,398.9H737v-1.1h2.9V398.9z"/>
		</g>
	</g>
</g>
<g transform="translate(-0.5 -0.5)" class="st2">
	<g class="st2">
		<path class="st11" d="M625.5,203.5h-0.6l2.3-7.1h0.6L625.5,203.5z"/>
		<path class="st11" d="M632,203.3h-0.9v-6.7h3c1.2,0,2,0.8,2,1.9c0,0.9-0.5,2-2,2H632V203.3z M632,199.7h1.8c0.8,0,1.4-0.3,1.4-1.2
			c0-0.9-0.6-1.1-1.3-1.1H632V199.7z"/>
		<path class="st11" d="M638.1,203.3h-0.8v-4.9h0.8v0.8h0c0.3-0.6,0.8-1,1.4-1c0.1,0,0.2,0,0.2,0v0.9h-0.3c-0.8,0-1.3,0.6-1.3,1.3
			V203.3z"/>
		<path class="st11" d="M642.3,198.2c1.6,0,2.3,1.3,2.3,2.6c0,1.3-0.7,2.6-2.3,2.6s-2.3-1.3-2.3-2.6
			C640,199.6,640.7,198.2,642.3,198.2z M642.3,202.7c1.2,0,1.4-1.2,1.4-1.9c0-0.7-0.2-1.9-1.4-1.9s-1.4,1.2-1.4,1.9
			C640.8,201.5,641.1,202.7,642.3,202.7z"/>
		<path class="st11" d="M649.5,202.9c0,0.7,0,2.5-2.3,2.5c-0.6,0-1.7-0.2-1.9-1.5h0.8c0.1,0.8,0.9,0.8,1.1,0.8
			c1.4,0,1.4-1.1,1.4-1.7v-0.2h0v0c-0.2,0.3-0.6,0.7-1.3,0.7c-1.7,0-2.2-1.6-2.2-2.7c0-1.4,0.7-2.4,2-2.4c0.9,0,1.3,0.6,1.5,0.8h0
			v-0.7h0.8V202.9z M647.4,202.7c0.5,0,1.3-0.3,1.3-1.6c0-0.8-0.1-2.1-1.3-2.1c-1.3,0-1.3,1.2-1.3,1.8
			C646.1,201.9,646.5,202.7,647.4,202.7z"/>
		<path class="st11" d="M651.5,203.3h-0.8v-4.9h0.8v0.8h0c0.3-0.6,0.8-1,1.4-1c0.1,0,0.1,0,0.2,0v0.9h-0.3c-0.8,0-1.3,0.6-1.3,1.3
			V203.3z"/>
		<path class="st11" d="M653.6,199.9c0-1.2,0.8-1.6,2-1.6c0.4,0,1.8,0.1,1.8,1.4v2.8c0,0.2,0.1,0.3,0.3,0.3c0.1,0,0.2,0,0.3,0v0.6
			c-0.1,0-0.3,0.1-0.4,0.1c-0.7,0-0.8-0.4-0.9-0.8c-0.3,0.3-0.8,0.8-1.8,0.8c-0.9,0-1.5-0.6-1.5-1.4c0-0.4,0.1-1.4,1.5-1.5l1.4-0.2
			c0.2,0,0.4-0.1,0.4-0.6c0-0.5-0.4-0.8-1.2-0.8c-0.9,0-1.1,0.6-1.1,0.9H653.6z M656.6,200.8c-0.1,0.1-0.3,0.2-1.4,0.3
			c-0.4,0.1-1,0.2-1,0.8c0,0.5,0.3,0.9,0.9,0.9c0.8,0,1.5-0.5,1.5-1.2V200.8z"/>
		<path class="st11" d="M658.8,198.4h0.8v0.7h0c0.2-0.3,0.6-0.8,1.5-0.8c0.9,0,1.2,0.5,1.3,0.8c0.4-0.5,0.7-0.8,1.5-0.8
			c0.5,0,1.5,0.3,1.5,1.6v3.4h-0.8v-3.2c0-0.7-0.2-1.1-0.9-1.1c-0.7,0-1.2,0.7-1.2,1.3v3h-0.8v-3.4c0-0.4-0.2-0.9-0.8-0.9
			c-0.5,0-1.3,0.3-1.3,1.6v2.7h-0.8V198.4z"/>
		<path class="st11" d="M666.6,198.4h0.8v0.7h0c0.2-0.3,0.6-0.8,1.5-0.8s1.2,0.5,1.3,0.8c0.4-0.5,0.7-0.8,1.5-0.8
			c0.5,0,1.5,0.3,1.5,1.6v3.4h-0.8v-3.2c0-0.7-0.2-1.1-0.9-1.1c-0.7,0-1.2,0.7-1.2,1.3v3h-0.8v-3.4c0-0.4-0.2-0.9-0.8-0.9
			c-0.5,0-1.3,0.3-1.3,1.6v2.7h-0.8V198.4z"/>
		<path class="st11" d="M674.4,199.9c0-1.2,0.8-1.6,2-1.6c0.4,0,1.8,0.1,1.8,1.4v2.8c0,0.2,0.1,0.3,0.3,0.3c0.1,0,0.2,0,0.3,0v0.6
			c-0.1,0-0.3,0.1-0.4,0.1c-0.7,0-0.8-0.4-0.9-0.8c-0.3,0.3-0.8,0.8-1.8,0.8c-0.9,0-1.5-0.6-1.5-1.4c0-0.4,0.1-1.4,1.5-1.5l1.4-0.2
			c0.2,0,0.4-0.1,0.4-0.6c0-0.5-0.4-0.8-1.2-0.8c-0.9,0-1.1,0.6-1.1,0.9H674.4z M677.4,200.8c-0.1,0.1-0.3,0.2-1.4,0.3
			c-0.4,0.1-1,0.2-1,0.8c0,0.5,0.3,0.9,0.9,0.9c0.8,0,1.5-0.5,1.5-1.2V200.8z"/>
	</g>
</g>
<g transform="translate(-0.5 -0.5)" class="st2">
	<g class="st2">
		<path class="st11" d="M629.1,306.4h-0.6l2.3-7.1h0.6L629.1,306.4z"/>
		<path class="st11" d="M635.5,306.2h-0.9v-6.7h3c1.2,0,2,0.8,2,1.9c0,0.9-0.5,2-2,2h-2.1V306.2z M635.5,302.6h1.8
			c0.8,0,1.4-0.3,1.4-1.2c0-0.9-0.6-1.1-1.3-1.1h-1.8V302.6z"/>
		<path class="st11" d="M641.6,306.2h-0.8v-4.9h0.8v0.8h0c0.3-0.6,0.8-1,1.4-1c0.1,0,0.2,0,0.2,0v0.9h-0.3c-0.8,0-1.3,0.6-1.3,1.3
			V306.2z"/>
		<path class="st11" d="M645.8,301.2c1.6,0,2.3,1.3,2.3,2.6c0,1.3-0.7,2.6-2.3,2.6s-2.3-1.3-2.3-2.6
			C643.5,302.5,644.2,301.2,645.8,301.2z M645.8,305.6c1.2,0,1.4-1.2,1.4-1.9c0-0.7-0.2-1.9-1.4-1.9s-1.4,1.2-1.4,1.9
			C644.4,304.4,644.6,305.6,645.8,305.6z"/>
		<path class="st11" d="M653.1,305.8c0,0.7,0,2.5-2.3,2.5c-0.6,0-1.7-0.2-1.9-1.5h0.8c0.1,0.8,0.9,0.8,1.1,0.8
			c1.4,0,1.4-1.1,1.4-1.7v-0.2h0v0c-0.2,0.3-0.6,0.7-1.3,0.7c-1.7,0-2.2-1.6-2.2-2.7c0-1.4,0.7-2.4,2-2.4c0.9,0,1.3,0.6,1.5,0.8h0
			v-0.7h0.8V305.8z M650.9,305.6c0.5,0,1.3-0.3,1.3-1.6c0-0.8-0.1-2.1-1.3-2.1c-1.3,0-1.3,1.2-1.3,1.8
			C649.6,304.8,650,305.6,650.9,305.6z"/>
		<path class="st11" d="M655.1,306.2h-0.8v-4.9h0.8v0.8h0c0.3-0.6,0.8-1,1.4-1c0.1,0,0.1,0,0.2,0v0.9h-0.3c-0.8,0-1.3,0.6-1.3,1.3
			V306.2z"/>
		<path class="st11" d="M657.1,302.8c0-1.2,0.8-1.6,2-1.6c0.4,0,1.8,0.1,1.8,1.4v2.8c0,0.2,0.1,0.3,0.3,0.3c0.1,0,0.2,0,0.3,0v0.6
			c-0.1,0-0.3,0.1-0.4,0.1c-0.7,0-0.8-0.4-0.9-0.8c-0.3,0.3-0.8,0.8-1.8,0.8c-0.9,0-1.5-0.6-1.5-1.4c0-0.4,0.1-1.4,1.5-1.5l1.4-0.2
			c0.2,0,0.4-0.1,0.4-0.6c0-0.5-0.4-0.8-1.2-0.8c-0.9,0-1.1,0.6-1.1,0.9H657.1z M660.1,303.7c-0.1,0.1-0.3,0.2-1.4,0.3
			c-0.4,0.1-1,0.2-1,0.8c0,0.5,0.3,0.9,0.9,0.9c0.8,0,1.5-0.5,1.5-1.2V303.7z"/>
		<path class="st11" d="M662.4,301.3h0.8v0.7h0c0.2-0.3,0.6-0.8,1.5-0.8c0.9,0,1.2,0.5,1.3,0.8c0.4-0.5,0.7-0.8,1.5-0.8
			c0.5,0,1.5,0.3,1.5,1.6v3.4h-0.8V303c0-0.7-0.2-1.1-0.9-1.1c-0.7,0-1.2,0.7-1.2,1.3v3h-0.8v-3.4c0-0.4-0.2-0.9-0.8-0.9
			c-0.5,0-1.3,0.3-1.3,1.6v2.7h-0.8V301.3z"/>
		<path class="st11" d="M670.2,301.3h0.8v0.7h0c0.2-0.3,0.6-0.8,1.5-0.8s1.2,0.5,1.3,0.8c0.4-0.5,0.7-0.8,1.5-0.8
			c0.5,0,1.5,0.3,1.5,1.6v3.4h-0.8V303c0-0.7-0.2-1.1-0.9-1.1c-0.7,0-1.2,0.7-1.2,1.3v3h-0.8v-3.4c0-0.4-0.2-0.9-0.8-0.9
			c-0.5,0-1.3,0.3-1.3,1.6v2.7h-0.8V301.3z"/>
		<path class="st11" d="M678,302.8c0-1.2,0.8-1.6,2-1.6c0.4,0,1.8,0.1,1.8,1.4v2.8c0,0.2,0.1,0.3,0.3,0.3c0.1,0,0.2,0,0.3,0v0.6
			c-0.1,0-0.3,0.1-0.4,0.1c-0.7,0-0.8-0.4-0.9-0.8c-0.3,0.3-0.8,0.8-1.8,0.8c-0.9,0-1.5-0.6-1.5-1.4c0-0.4,0.1-1.4,1.5-1.5l1.4-0.2
			c0.2,0,0.4-0.1,0.4-0.6c0-0.5-0.4-0.8-1.2-0.8c-0.9,0-1.1,0.6-1.1,0.9H678z M681,303.7c-0.1,0.1-0.3,0.2-1.4,0.3
			c-0.4,0.1-1,0.2-1,0.8c0,0.5,0.3,0.9,0.9,0.9c0.8,0,1.5-0.5,1.5-1.2V303.7z"/>
	</g>
</g>
<g transform="translate(-0.5 -0.5)" class="st2">
	<g class="st2">
		<path class="st11" d="M669.9,242.8h-0.6l2.3-7.1h0.6L669.9,242.8z"/>
		<path class="st11" d="M680.1,237.9c-0.3-1.2-1.2-1.4-1.9-1.4c-1.2,0-2.2,0.9-2.2,2.7c0,1.6,0.6,2.8,2.2,2.8c0.6,0,1.6-0.3,1.9-1.8
			h0.9c-0.4,2.5-2.4,2.7-2.9,2.7c-1.5,0-3-1-3-3.6c0-2.1,1.2-3.5,3.1-3.5c1.7,0,2.6,1.1,2.8,2.2H680.1z"/>
		<path class="st11" d="M682,239.2c0-1.2,0.8-1.6,2-1.6c0.4,0,1.8,0.1,1.8,1.4v2.8c0,0.2,0.1,0.3,0.3,0.3c0.1,0,0.2,0,0.3,0v0.6
			c-0.1,0-0.3,0.1-0.4,0.1c-0.7,0-0.8-0.4-0.9-0.8c-0.3,0.3-0.8,0.8-1.8,0.8c-0.9,0-1.5-0.6-1.5-1.4c0-0.4,0.1-1.4,1.5-1.5l1.4-0.2
			c0.2,0,0.4-0.1,0.4-0.6c0-0.5-0.4-0.8-1.2-0.8c-0.9,0-1.1,0.6-1.1,0.9H682z M685,240.1c-0.1,0.1-0.3,0.2-1.4,0.3
			c-0.4,0.1-1,0.2-1,0.8c0,0.5,0.3,0.9,0.9,0.9c0.8,0,1.5-0.5,1.5-1.2V240.1z"/>
		<path class="st11" d="M687.3,237.7h0.8v0.7h0c0.2-0.3,0.6-0.8,1.5-0.8c0.9,0,1.2,0.5,1.3,0.8c0.4-0.5,0.7-0.8,1.5-0.8
			c0.5,0,1.5,0.3,1.5,1.6v3.4H693v-3.2c0-0.7-0.2-1.1-0.9-1.1c-0.7,0-1.2,0.7-1.2,1.3v3h-0.8v-3.4c0-0.4-0.2-0.9-0.8-0.9
			c-0.5,0-1.3,0.3-1.3,1.6v2.7h-0.8V237.7z"/>
		<path class="st11" d="M695,237.7h0.8v0.7h0c0.2-0.3,0.6-0.8,1.5-0.8c1.3,0,2,1.1,2,2.4c0,1.2-0.5,2.7-2.2,2.7
			c-0.7,0-1.1-0.3-1.3-0.7h0v2.5H695V237.7z M697.1,242c0.9,0,1.3-0.8,1.3-1.9c0-0.6-0.1-1.8-1.3-1.8c-1.2,0-1.3,1.3-1.3,2.1
			C695.8,241.7,696.6,242,697.1,242z"/>
		<path class="st11" d="M700.2,239.2c0-1.2,0.8-1.6,2-1.6c0.4,0,1.8,0.1,1.8,1.4v2.8c0,0.2,0.1,0.3,0.3,0.3c0.1,0,0.2,0,0.3,0v0.6
			c-0.1,0-0.3,0.1-0.5,0.1c-0.7,0-0.8-0.4-0.9-0.8c-0.3,0.3-0.8,0.8-1.8,0.8c-0.9,0-1.5-0.6-1.5-1.4c0-0.4,0.1-1.4,1.5-1.5l1.4-0.2
			c0.2,0,0.4-0.1,0.4-0.6c0-0.5-0.4-0.8-1.2-0.8c-0.9,0-1.1,0.6-1.1,0.9H700.2z M703.3,240.1c-0.1,0.1-0.3,0.2-1.4,0.3
			c-0.4,0.1-1,0.2-1,0.8c0,0.5,0.3,0.9,0.9,0.9c0.8,0,1.5-0.5,1.5-1.2V240.1z"/>
		<path class="st11" d="M709.6,242.2c0,0.7,0,2.5-2.3,2.5c-0.6,0-1.7-0.2-1.9-1.5h0.8c0.1,0.8,0.9,0.8,1.1,0.8
			c1.4,0,1.4-1.1,1.4-1.7v-0.2h0v0c-0.2,0.3-0.6,0.7-1.3,0.7c-1.7,0-2.2-1.6-2.2-2.7c0-1.4,0.7-2.4,2-2.4c0.9,0,1.3,0.6,1.5,0.8h0
			v-0.7h0.8V242.2z M707.4,242c0.5,0,1.3-0.3,1.3-1.6c0-0.8-0.1-2.1-1.3-2.1c-1.3,0-1.3,1.2-1.3,1.8
			C706.1,241.2,706.5,242,707.4,242z"/>
		<path class="st11" d="M714.7,242.6h-0.8v-3c0-0.9-0.2-1.3-1-1.3c-0.5,0-1.3,0.3-1.3,1.6v2.7h-0.8v-4.9h0.8v0.7h0
			c0.2-0.3,0.6-0.8,1.5-0.8c0.8,0,1.7,0.3,1.7,1.7V242.6z"/>
		<path class="st11" d="M715.9,239.2c0-1.2,0.8-1.6,2-1.6c0.4,0,1.8,0.1,1.8,1.4v2.8c0,0.2,0.1,0.3,0.3,0.3c0.1,0,0.2,0,0.3,0v0.6
			c-0.1,0-0.3,0.1-0.4,0.1c-0.7,0-0.8-0.4-0.9-0.8c-0.3,0.3-0.8,0.8-1.8,0.8c-0.9,0-1.5-0.6-1.5-1.4c0-0.4,0.1-1.4,1.5-1.5l1.4-0.2
			c0.2,0,0.4-0.1,0.4-0.6c0-0.5-0.4-0.8-1.2-0.8c-0.9,0-1.1,0.6-1.1,0.9H715.9z M718.9,240.1c-0.1,0.1-0.3,0.2-1.4,0.3
			c-0.4,0.1-1,0.2-1,0.8c0,0.5,0.3,0.9,0.9,0.9c0.8,0,1.5-0.5,1.5-1.2V240.1z"/>
	</g>
</g>
<g transform="translate(-0.5 -0.5)" class="st2">
	<g class="st2">
		<path class="st11" d="M669.9,345.2h-0.6l2.3-7.1h0.6L669.9,345.2z"/>
		<path class="st11" d="M680.1,340.3c-0.3-1.2-1.2-1.4-1.9-1.4c-1.2,0-2.2,0.9-2.2,2.7c0,1.6,0.6,2.8,2.2,2.8c0.6,0,1.6-0.3,1.9-1.8
			h0.9c-0.4,2.5-2.4,2.7-2.9,2.7c-1.5,0-3-1-3-3.6c0-2.1,1.2-3.5,3.1-3.5c1.7,0,2.6,1.1,2.8,2.2H680.1z"/>
		<path class="st11" d="M682,341.6c0-1.2,0.8-1.6,2-1.6c0.4,0,1.8,0.1,1.8,1.4v2.8c0,0.2,0.1,0.3,0.3,0.3c0.1,0,0.2,0,0.3,0v0.6
			c-0.1,0-0.3,0.1-0.5,0.1c-0.7,0-0.8-0.4-0.9-0.8c-0.3,0.3-0.8,0.8-1.8,0.8c-0.9,0-1.5-0.6-1.5-1.4c0-0.4,0.1-1.4,1.5-1.5l1.4-0.2
			c0.2,0,0.4-0.1,0.4-0.6c0-0.5-0.4-0.8-1.2-0.8c-0.9,0-1.1,0.6-1.1,0.9H682z M685,342.5c-0.1,0.1-0.3,0.2-1.4,0.3
			c-0.4,0.1-1,0.2-1,0.8c0,0.5,0.3,0.9,0.9,0.9c0.8,0,1.5-0.5,1.5-1.2V342.5z"/>
		<path class="st11" d="M687.3,340.1h0.8v0.7h0c0.2-0.3,0.6-0.8,1.5-0.8s1.2,0.5,1.3,0.8c0.4-0.5,0.7-0.8,1.5-0.8
			c0.5,0,1.5,0.3,1.5,1.6v3.4H693v-3.2c0-0.7-0.2-1.1-0.9-1.1c-0.7,0-1.2,0.7-1.2,1.3v3h-0.8v-3.4c0-0.4-0.2-0.9-0.8-0.9
			c-0.5,0-1.3,0.3-1.3,1.6v2.7h-0.8V340.1z"/>
		<path class="st11" d="M695,340.1h0.8v0.7h0c0.2-0.3,0.6-0.8,1.5-0.8c1.3,0,2,1.1,2,2.4c0,1.2-0.5,2.7-2.2,2.7
			c-0.7,0-1.1-0.3-1.3-0.7h0v2.5H695V340.1z M697.1,344.5c0.9,0,1.3-0.8,1.3-1.9c0-0.6-0.1-1.8-1.3-1.8c-1.2,0-1.3,1.3-1.3,2.1
			C695.8,344.1,696.6,344.5,697.1,344.5z"/>
		<path class="st11" d="M700.3,341.6c0-1.2,0.8-1.6,2-1.6c0.4,0,1.8,0.1,1.8,1.4v2.8c0,0.2,0.1,0.3,0.3,0.3c0.1,0,0.2,0,0.3,0v0.6
			c-0.1,0-0.3,0.1-0.4,0.1c-0.7,0-0.8-0.4-0.9-0.8c-0.3,0.3-0.8,0.8-1.8,0.8c-0.9,0-1.5-0.6-1.5-1.4c0-0.4,0.1-1.4,1.5-1.5l1.4-0.2
			c0.2,0,0.4-0.1,0.4-0.6c0-0.5-0.4-0.8-1.2-0.8c-0.9,0-1.1,0.6-1.1,0.9H700.3z M703.3,342.5c-0.1,0.1-0.3,0.2-1.4,0.3
			c-0.4,0.1-1,0.2-1,0.8c0,0.5,0.3,0.9,0.9,0.9c0.8,0,1.5-0.5,1.5-1.2V342.5z"/>
		<path class="st11" d="M709.6,344.6c0,0.7,0,2.5-2.3,2.5c-0.6,0-1.7-0.2-1.9-1.5h0.8c0.2,0.8,0.9,0.8,1.1,0.8
			c1.4,0,1.4-1.1,1.4-1.7v-0.2h0v0c-0.2,0.3-0.6,0.7-1.3,0.7c-1.7,0-2.2-1.6-2.2-2.7c0-1.4,0.7-2.4,2-2.4c0.9,0,1.3,0.6,1.5,0.8h0
			v-0.7h0.8V344.6z M707.4,344.5c0.5,0,1.3-0.3,1.3-1.6c0-0.8-0.1-2.1-1.3-2.1c-1.3,0-1.3,1.2-1.3,1.8
			C706.1,343.7,706.5,344.5,707.4,344.5z"/>
		<path class="st11" d="M714.7,345h-0.8v-3c0-0.9-0.2-1.3-1-1.3c-0.5,0-1.3,0.3-1.3,1.6v2.7h-0.8v-4.9h0.8v0.7h0
			c0.2-0.3,0.6-0.8,1.5-0.8c0.8,0,1.7,0.3,1.7,1.7V345z"/>
		<path class="st11" d="M715.9,341.6c0-1.2,0.8-1.6,2-1.6c0.4,0,1.8,0.1,1.8,1.4v2.8c0,0.2,0.1,0.3,0.3,0.3c0.1,0,0.2,0,0.3,0v0.6
			c-0.1,0-0.3,0.1-0.4,0.1c-0.7,0-0.8-0.4-0.9-0.8c-0.3,0.3-0.8,0.8-1.8,0.8c-0.9,0-1.5-0.6-1.5-1.4c0-0.4,0.1-1.4,1.5-1.5l1.4-0.2
			c0.2,0,0.4-0.1,0.4-0.6c0-0.5-0.4-0.8-1.2-0.8c-0.9,0-1.1,0.6-1.1,0.9H715.9z M718.9,342.5c-0.1,0.1-0.3,0.2-1.4,0.3
			c-0.4,0.1-1,0.2-1,0.8c0,0.5,0.3,0.9,0.9,0.9c0.8,0,1.5-0.5,1.5-1.2V342.5z"/>
	</g>
</g>
<g transform="translate(-0.5 -0.5)" class="st2">
	<g class="st2">
		<path class="st11" d="M711.8,384.7h-0.6l2.3-7.1h0.6L711.8,384.7z"/>
		<path class="st11" d="M720.2,384.7c-2.5,0-3.3-2.1-3.3-3.5s0.8-3.5,3.3-3.5s3.3,2.1,3.3,3.5S722.7,384.7,720.2,384.7z
			 M720.2,378.5c-1.5,0-2.3,1.2-2.3,2.7c0,1.6,0.9,2.7,2.3,2.7c1.5,0,2.3-1.2,2.3-2.7C722.5,379.6,721.7,378.5,720.2,378.5z"/>
		<path class="st11" d="M725.5,380.4v4.2h-0.8v-4.2H724v-0.7h0.7v-0.8c0-0.7,0.5-1.1,1.3-1.1c0.1,0,0.2,0,0.4,0v0.7
			c-0.1,0-0.2,0-0.3,0c-0.4,0-0.5,0.2-0.5,0.6v0.6h0.8v0.7H725.5z"/>
		<path class="st11" d="M728.1,380.4v4.2h-0.8v-4.2h-0.7v-0.7h0.7v-0.8c0-0.7,0.5-1.1,1.3-1.1c0.1,0,0.2,0,0.4,0v0.7
			c-0.1,0-0.2,0-0.3,0c-0.4,0-0.5,0.2-0.5,0.6v0.6h0.8v0.7H728.1z"/>
		<path class="st11" d="M733.5,383c0,0.2-0.3,0.9-0.9,1.3c-0.2,0.1-0.5,0.3-1.3,0.3c-1.4,0-2.2-1-2.2-2.5c0-1.5,0.7-2.7,2.4-2.7
			c1.4,0,2.1,1.1,2.1,2.9H730c0,1,0.5,1.6,1.4,1.6c0.8,0,1.2-0.6,1.3-1H733.5z M732.8,381.7c0-0.8-0.4-1.5-1.4-1.5
			c-0.8,0-1.4,0.7-1.4,1.5H732.8z"/>
		<path class="st11" d="M735.5,384.6h-0.8v-4.9h0.8v0.8h0c0.3-0.6,0.8-1,1.4-1c0.1,0,0.1,0,0.2,0v0.9h-0.3c-0.8,0-1.3,0.6-1.3,1.3
			V384.6z"/>
		<path class="st11" d="M739.1,380.4v3.2c0,0.4,0.3,0.4,0.5,0.4h0.3v0.6c-0.3,0-0.5,0.1-0.6,0.1c-0.8,0-1-0.5-1-1v-3.2h-0.7v-0.7
			h0.7v-1.4h0.8v1.4h0.8v0.7H739.1z"/>
		<path class="st11" d="M744.9,383c0,0.2-0.3,0.9-0.9,1.3c-0.2,0.1-0.5,0.3-1.3,0.3c-1.4,0-2.2-1-2.2-2.5c0-1.5,0.7-2.7,2.4-2.7
			c1.4,0,2.1,1.1,2.1,2.9h-3.6c0,1,0.5,1.6,1.4,1.6c0.8,0,1.2-0.6,1.3-1H744.9z M744.1,381.7c0-0.8-0.4-1.5-1.4-1.5
			c-0.8,0-1.4,0.7-1.4,1.5H744.1z"/>
		<path class="st11" d="M749.2,385.7h1v0.7h-1.8v-8.6h1.8v0.7h-1V385.7z"/>
		<path class="st11" d="M755.9,379.9c-0.3-1.2-1.2-1.4-1.9-1.4c-1.2,0-2.2,0.9-2.2,2.7c0,1.6,0.6,2.8,2.2,2.8c0.6,0,1.6-0.3,1.9-1.8
			h0.9c-0.4,2.5-2.4,2.7-2.9,2.7c-1.5,0-3-1-3-3.6c0-2.1,1.2-3.5,3.1-3.5c1.7,0,2.6,1.1,2.8,2.2H755.9z"/>
		<path class="st11" d="M759,384.6h-0.9v-6.7h4.7v0.8H759v2.1h3.3v0.8H759V384.6z"/>
		<path class="st11" d="M764.3,378.5h-1v-0.7h1.8v8.6h-1.8v-0.7h1V378.5z"/>
	</g>
</g>
<g transform="translate(-0.5 -0.5)" class="st2">
	<g class="st2">
		<path class="st11" d="M712.3,448.2h-0.6l2.3-7.1h0.6L712.3,448.2z"/>
		<path class="st11" d="M718.8,448h-0.9v-6.7h3.1c1.1,0,2.2,0.4,2.2,1.8c0,1-0.5,1.4-0.9,1.6c0.4,0.2,0.8,0.3,0.8,1.3l0.1,1.2
			c0,0.4,0.1,0.5,0.3,0.7v0.2h-1.1c-0.1-0.4-0.2-1.4-0.2-1.7c0-0.6-0.1-1.2-1.2-1.2h-2.2V448z M718.8,444.4h2.1
			c0.7,0,1.4-0.2,1.4-1.2c0-1-0.8-1.1-1.2-1.1h-2.3V444.4z"/>
		<path class="st11" d="M724.4,442.2v-0.9h0.8v0.9H724.4z M725.3,448h-0.8v-4.9h0.8V448z"/>
		<path class="st11" d="M729.3,444.5c0-0.3-0.1-0.8-1.2-0.8c-0.3,0-1,0.1-1,0.7c0,0.4,0.3,0.5,0.9,0.7l0.8,0.2
			c1,0.3,1.4,0.6,1.4,1.3c0,1-0.8,1.6-1.9,1.6c-1.9,0-2.1-1.1-2.1-1.7h0.8c0,0.4,0.1,1,1.3,1c0.6,0,1.1-0.2,1.1-0.8
			c0-0.4-0.3-0.5-1-0.7l-1-0.2c-0.7-0.2-1.1-0.5-1.1-1.2c0-1.1,0.9-1.6,1.9-1.6c1.8,0,1.9,1.3,1.9,1.5H729.3z"/>
		<path class="st11" d="M733.2,443c1.6,0,2.3,1.3,2.3,2.6c0,1.3-0.7,2.6-2.3,2.6s-2.3-1.3-2.3-2.6C730.9,444.3,731.6,443,733.2,443z
			 M733.2,447.4c1.2,0,1.4-1.2,1.4-1.9c0-0.7-0.2-1.9-1.4-1.9c-1.2,0-1.4,1.2-1.4,1.9C731.8,446.2,732,447.4,733.2,447.4z"/>
		<path class="st11" d="M737.3,448h-0.8v-4.9h0.8v0.8h0c0.3-0.6,0.8-1,1.4-1c0.1,0,0.2,0,0.2,0v0.9h-0.3c-0.8,0-1.3,0.6-1.3,1.3V448
			z"/>
		<path class="st11" d="M742.3,444.5c0-0.3-0.1-0.8-1.2-0.8c-0.3,0-1,0.1-1,0.7c0,0.4,0.3,0.5,0.9,0.7l0.8,0.2
			c1,0.3,1.4,0.6,1.4,1.3c0,1-0.8,1.6-1.9,1.6c-1.9,0-2.1-1.1-2.1-1.7h0.8c0,0.4,0.1,1,1.3,1c0.6,0,1.1-0.2,1.1-0.8
			c0-0.4-0.3-0.5-1-0.7l-1-0.2c-0.7-0.2-1.1-0.5-1.1-1.2c0-1.1,0.9-1.6,1.9-1.6c1.8,0,1.9,1.3,1.9,1.5H742.3z"/>
		<path class="st11" d="M748.4,446.5c0,0.2-0.3,0.9-0.9,1.3c-0.2,0.1-0.5,0.3-1.3,0.3c-1.4,0-2.2-1-2.2-2.5c0-1.5,0.7-2.7,2.4-2.7
			c1.4,0,2.1,1.1,2.1,2.9h-3.6c0,1,0.5,1.6,1.4,1.6c0.8,0,1.2-0.6,1.3-1H748.4z M747.6,445.2c0-0.8-0.4-1.5-1.4-1.5
			c-0.8,0-1.4,0.7-1.4,1.5H747.6z"/>
	</g>
</g>
<g transform="translate(-0.5 -0.5)" class="st2">
	<g class="st2">
		<path class="st11" d="M760.5,424h-0.6l2.3-7.1h0.6L760.5,424z"/>
		<path class="st11" d="M769.8,417h1l-2.5,6.7h-1L765,417h1l1.9,5.7h0L769.8,417z"/>
		<path class="st11" d="M771,420.4c0-1.2,0.8-1.6,2-1.6c0.4,0,1.8,0.1,1.8,1.4v2.8c0,0.2,0.1,0.3,0.3,0.3c0.1,0,0.2,0,0.3,0v0.6
			c-0.1,0-0.3,0.1-0.4,0.1c-0.7,0-0.8-0.4-0.9-0.8c-0.3,0.3-0.8,0.8-1.8,0.8c-0.9,0-1.5-0.6-1.5-1.4c0-0.4,0.1-1.4,1.5-1.5l1.4-0.2
			c0.2,0,0.4-0.1,0.4-0.6c0-0.5-0.4-0.8-1.2-0.8c-0.9,0-1.1,0.6-1.1,0.9H771z M774,421.3c-0.1,0.1-0.3,0.2-1.4,0.3
			c-0.4,0.1-1,0.2-1,0.8c0,0.5,0.3,0.9,0.9,0.9c0.8,0,1.5-0.5,1.5-1.2V421.3z"/>
		<path class="st11" d="M777.1,423.8h-0.8v-4.9h0.8v0.8h0c0.3-0.6,0.8-1,1.4-1c0.1,0,0.2,0,0.2,0v0.9h-0.3c-0.8,0-1.3,0.6-1.3,1.3
			V423.8z"/>
		<path class="st11" d="M779.5,418V417h0.8v0.9H779.5z M780.3,423.8h-0.8v-4.9h0.8V423.8z"/>
		<path class="st11" d="M781.5,420.4c0-1.2,0.8-1.6,2-1.6c0.4,0,1.8,0.1,1.8,1.4v2.8c0,0.2,0.1,0.3,0.3,0.3c0.1,0,0.2,0,0.3,0v0.6
			c-0.1,0-0.3,0.1-0.5,0.1c-0.7,0-0.8-0.4-0.9-0.8c-0.3,0.3-0.8,0.8-1.8,0.8c-0.9,0-1.5-0.6-1.5-1.4c0-0.4,0.1-1.4,1.5-1.5l1.4-0.2
			c0.2,0,0.4-0.1,0.4-0.6c0-0.5-0.4-0.8-1.2-0.8c-0.9,0-1.1,0.6-1.1,0.9H781.5z M784.5,421.3c-0.1,0.1-0.3,0.2-1.4,0.3
			c-0.4,0.1-1,0.2-1,0.8c0,0.5,0.3,0.9,0.9,0.9c0.8,0,1.5-0.5,1.5-1.2V421.3z"/>
		<path class="st11" d="M790.7,423.8h-0.8v-3c0-0.9-0.2-1.3-1-1.3c-0.5,0-1.3,0.3-1.3,1.6v2.7h-0.8v-4.9h0.8v0.7h0
			c0.2-0.3,0.6-0.8,1.5-0.8c0.8,0,1.7,0.3,1.7,1.7V423.8z"/>
		<path class="st11" d="M793,419.6v3.2c0,0.4,0.3,0.4,0.5,0.4h0.3v0.6c-0.3,0-0.5,0.1-0.6,0.1c-0.8,0-1-0.5-1-1v-3.2h-0.7v-0.7h0.7
			v-1.4h0.8v1.4h0.8v0.7H793z"/>
		<path class="st11" d="M794.6,418V417h0.8v0.9H794.6z M795.4,423.8h-0.8v-4.9h0.8V423.8z"/>
		<path class="st11" d="M801.3,418.7c1.6,0,2.3,1.3,2.3,2.6c0,1.3-0.7,2.6-2.3,2.6s-2.3-1.3-2.3-2.6
			C799,420.1,799.7,418.7,801.3,418.7z M801.3,423.2c1.2,0,1.4-1.2,1.4-1.9c0-0.7-0.2-1.9-1.4-1.9s-1.4,1.2-1.4,1.9
			C799.8,422,800.1,423.2,801.3,423.2z"/>
		<path class="st11" d="M805.5,419.6v4.2h-0.8v-4.2H804v-0.7h0.7V418c0-0.7,0.5-1.1,1.3-1.1c0.1,0,0.2,0,0.4,0v0.7
			c-0.1,0-0.2,0-0.3,0c-0.4,0-0.5,0.2-0.5,0.6v0.6h0.8v0.7H805.5z"/>
		<path class="st11" d="M808.1,419.6v4.2h-0.8v-4.2h-0.7v-0.7h0.7V418c0-0.7,0.5-1.1,1.3-1.1c0.1,0,0.2,0,0.4,0v0.7
			c-0.1,0-0.2,0-0.3,0c-0.4,0-0.5,0.2-0.5,0.6v0.6h0.8v0.7H808.1z"/>
		<path class="st11" d="M813.6,422.2c0,0.2-0.3,0.9-0.9,1.3c-0.2,0.1-0.5,0.3-1.3,0.3c-1.4,0-2.2-1-2.2-2.5c0-1.5,0.7-2.7,2.4-2.7
			c1.4,0,2.1,1.1,2.1,2.9H810c0,1,0.5,1.6,1.4,1.6c0.8,0,1.2-0.6,1.3-1H813.6z M812.8,420.9c0-0.8-0.4-1.5-1.4-1.5
			c-0.8,0-1.4,0.7-1.4,1.5H812.8z"/>
		<path class="st11" d="M815.6,423.8h-0.8v-4.9h0.8v0.8h0c0.3-0.6,0.8-1,1.4-1c0.1,0,0.1,0,0.2,0v0.9h-0.3c-0.8,0-1.3,0.6-1.3,1.3
			V423.8z"/>
		<path class="st11" d="M819.1,419.6v3.2c0,0.4,0.3,0.4,0.5,0.4h0.3v0.6c-0.3,0-0.5,0.1-0.6,0.1c-0.8,0-1-0.5-1-1v-3.2h-0.7v-0.7
			h0.7v-1.4h0.8v1.4h0.8v0.7H819.1z"/>
		<path class="st11" d="M824.9,422.2c0,0.2-0.3,0.9-0.9,1.3c-0.2,0.1-0.5,0.3-1.3,0.3c-1.4,0-2.2-1-2.2-2.5c0-1.5,0.7-2.7,2.4-2.7
			c1.4,0,2.1,1.1,2.1,2.9h-3.6c0,1,0.5,1.6,1.4,1.6c0.8,0,1.2-0.6,1.3-1H824.9z M824.1,420.9c0-0.8-0.4-1.5-1.4-1.5
			c-0.8,0-1.4,0.7-1.4,1.5H824.1z"/>
	</g>
</g>
<g transform="translate(-0.5 -0.5)" class="st2">
	<g class="st2">
		<path class="st11" d="M712.7,283H712l2.3-7.1h0.6L712.7,283z"/>
		<path class="st11" d="M723.7,282.8v-4c0-0.2,0-1,0-1.7h0l-1.9,5.6h-0.9l-1.9-5.6h0c0,0.6,0,1.5,0,1.7v4h-0.9V276h1.3l1.9,5.7h0
			l1.9-5.7h1.3v6.7H723.7z"/>
		<path class="st11" d="M725.8,277V276h0.8v0.9H725.8z M726.7,282.8h-0.8v-4.9h0.8V282.8z"/>
		<path class="st11" d="M731.9,282.8h-1l-1.2-1.8l-1.2,1.8h-1l1.7-2.5l-1.6-2.4h1.1l1.1,1.7l1.1-1.7h1l-1.7,2.4L731.9,282.8z"/>
		<path class="st11" d="M736.1,282.8h-0.8v-4.9h0.8v0.8h0c0.3-0.6,0.8-1,1.4-1c0.1,0,0.1,0,0.2,0v0.9h-0.3c-0.8,0-1.3,0.6-1.3,1.3
			V282.8z"/>
		<path class="st11" d="M738.5,277V276h0.8v0.9H738.5z M739.3,282.8h-0.8v-4.9h0.8V282.8z"/>
		<path class="st11" d="M743.3,279.3c0-0.3-0.1-0.8-1.2-0.8c-0.3,0-1,0.1-1,0.7c0,0.4,0.3,0.5,0.9,0.7l0.8,0.2
			c1,0.3,1.4,0.6,1.4,1.3c0,1-0.8,1.6-1.9,1.6c-1.9,0-2.1-1.1-2.1-1.7h0.8c0,0.4,0.1,1,1.3,1c0.6,0,1.1-0.2,1.1-0.8
			c0-0.4-0.3-0.5-1-0.7l-1-0.2c-0.7-0.2-1.1-0.5-1.1-1.2c0-1.1,0.9-1.6,1.9-1.6c1.8,0,1.9,1.3,1.9,1.5H743.3z"/>
		<path class="st11" d="M747.2,277.7c1.6,0,2.3,1.3,2.3,2.6c0,1.3-0.7,2.6-2.3,2.6s-2.3-1.3-2.3-2.6
			C745,279.1,745.7,277.7,747.2,277.7z M747.2,282.2c1.2,0,1.4-1.2,1.4-1.9c0-0.7-0.2-1.9-1.4-1.9c-1.2,0-1.4,1.2-1.4,1.9
			C745.8,281,746,282.2,747.2,282.2z"/>
		<path class="st11" d="M751.4,282.8h-0.8v-4.9h0.8v0.8h0c0.3-0.6,0.8-1,1.4-1c0.1,0,0.1,0,0.2,0v0.9h-0.3c-0.8,0-1.3,0.6-1.3,1.3
			V282.8z"/>
		<path class="st11" d="M756.3,279.3c0-0.3-0.1-0.8-1.2-0.8c-0.3,0-1,0.1-1,0.7c0,0.4,0.3,0.5,0.9,0.7l0.8,0.2
			c1,0.3,1.4,0.6,1.4,1.3c0,1-0.8,1.6-1.9,1.6c-1.9,0-2.1-1.1-2.1-1.7h0.8c0,0.4,0.1,1,1.3,1c0.6,0,1.1-0.2,1.1-0.8
			c0-0.4-0.3-0.5-1-0.7l-1-0.2c-0.7-0.2-1.1-0.5-1.1-1.2c0-1.1,0.9-1.6,1.9-1.6c1.8,0,1.9,1.3,1.9,1.5H756.3z"/>
		<path class="st11" d="M762.4,281.2c0,0.2-0.3,0.9-0.9,1.3c-0.2,0.1-0.5,0.3-1.3,0.3c-1.4,0-2.2-1-2.2-2.5c0-1.5,0.7-2.7,2.4-2.7
			c1.4,0,2.1,1.1,2.1,2.9h-3.6c0,1,0.5,1.6,1.4,1.6c0.8,0,1.2-0.6,1.3-1H762.4z M761.6,279.9c0-0.8-0.4-1.5-1.4-1.5
			c-0.8,0-1.4,0.7-1.4,1.5H761.6z"/>
	</g>
</g>
<path class="st7" d="M961.3,108v294.2c0,0-2.3,14.1,9.1,14.1h15.7"/>
<path class="st7" d="M961.3,148.8c0,0-3,15.8,9,15.8h15.8"/>
<polyline class="st7" points="1025.3,182.6 1025.3,373.8 1037.6,373.8 "/>
<line class="st7" x1="1025.3" y1="214.5" x2="1038.3" y2="214.5"/>
<polyline class="st7" points="1067.4,223.6 1067.4,258.9 1081.5,258.9 "/>
<polyline class="st7" points="1111.1,267.8 1111.1,303.3 1125.2,303.3 "/>
<polyline class="st7" points="1144.9,312.9 1144.9,346.9 1159.9,346.9 "/>
<g>
	<g>
		<path class="st8" d="M1025.3,194.1c-2.6,0-4.7-2.1-4.7-4.7c0-2.6,2.1-4.7,4.7-4.7s4.7,2.1,4.7,4.7
			C1030,192,1027.9,194.1,1025.3,194.1z"/>
		<path class="st4" d="M1025.3,185.1c2.3,0,4.2,1.9,4.2,4.2c0,2.3-1.9,4.2-4.2,4.2c-2.3,0-4.2-1.9-4.2-4.2
			C1021,187,1022.9,185.1,1025.3,185.1 M1025.3,184.1c-2.9,0-5.2,2.3-5.2,5.2s2.3,5.2,5.2,5.2c2.9,0,5.2-2.3,5.2-5.2
			S1028.2,184.1,1025.3,184.1L1025.3,184.1z"/>
	</g>
	<g transform="translate(-0.5 -0.5)">
		<g class="st2">
			<path d="M1027.2,190.4h-2.9v-1.1h2.9V190.4z"/>
		</g>
	</g>
</g>
<g>
	<g>
		<path class="st8" d="M1067.4,237.9c-2.6,0-4.7-2.1-4.7-4.7c0-2.6,2.1-4.7,4.7-4.7s4.7,2.1,4.7,4.7
			C1072.1,235.8,1070,237.9,1067.4,237.9z"/>
		<path class="st4" d="M1067.4,228.9c2.3,0,4.2,1.9,4.2,4.2c0,2.3-1.9,4.2-4.2,4.2c-2.3,0-4.2-1.9-4.2-4.2
			C1063.1,230.8,1065,228.9,1067.4,228.9 M1067.4,227.9c-2.9,0-5.2,2.3-5.2,5.2s2.3,5.2,5.2,5.2c2.9,0,5.2-2.3,5.2-5.2
			S1070.2,227.9,1067.4,227.9L1067.4,227.9z"/>
	</g>
	<g transform="translate(-0.5 -0.5)">
		<g class="st2">
			<path d="M1069.3,234.2h-2.9v-1.1h2.9V234.2z"/>
		</g>
	</g>
</g>
<g>
	<g>
		<path class="st8" d="M1110.6,281.9c-2.6,0-4.7-2.1-4.7-4.7c0-2.6,2.1-4.7,4.7-4.7s4.7,2.1,4.7,4.7
			C1115.4,279.8,1113.3,281.9,1110.6,281.9z"/>
		<path class="st4" d="M1110.6,273c2.3,0,4.2,1.9,4.2,4.2c0,2.3-1.9,4.2-4.2,4.2c-2.3,0-4.2-1.9-4.2-4.2
			C1106.4,274.9,1108.3,273,1110.6,273 M1110.6,272c-2.9,0-5.2,2.3-5.2,5.2s2.3,5.2,5.2,5.2c2.9,0,5.2-2.3,5.2-5.2
			S1113.5,272,1110.6,272L1110.6,272z"/>
	</g>
	<g transform="translate(-0.5 -0.5)">
		<g class="st2">
			<path d="M1112.6,278.2h-2.9v-1.1h2.9V278.2z"/>
		</g>
	</g>
</g>
<g>
	<g>
		<path class="st8" d="M1144.9,326.1c-2.6,0-4.7-2.1-4.7-4.7c0-2.6,2.1-4.7,4.7-4.7s4.7,2.1,4.7,4.7
			C1149.7,324,1147.5,326.1,1144.9,326.1z"/>
		<path class="st4" d="M1144.9,317.1c2.3,0,4.2,1.9,4.2,4.2c0,2.3-1.9,4.2-4.2,4.2c-2.3,0-4.2-1.9-4.2-4.2
			C1140.7,319,1142.6,317.1,1144.9,317.1 M1144.9,316.1c-2.9,0-5.2,2.3-5.2,5.2s2.3,5.2,5.2,5.2s5.2-2.3,5.2-5.2
			S1147.8,316.1,1144.9,316.1L1144.9,316.1z"/>
	</g>
	<g transform="translate(-0.5 -0.5)">
		<g class="st2">
			<path d="M1146.9,322.4h-2.9v-1.1h2.9V322.4z"/>
		</g>
	</g>
</g>
<g class="st2">
	<rect x="873.7" y="53.7" class="st3" width="175.1" height="60"/>
	<path class="st4" d="M1046.3,56.2v55H876.2v-55H1046.3 M1051.3,51.2h-5H876.2h-5v5v55v5h5h170.1h5v-5v-55V51.2L1051.3,51.2z"/>
</g>
<g class="st2">
	<rect x="1034.9" y="203.6" class="st9" width="64.9" height="21.7"/>
	<path class="st3" d="M1098.5,204.9v19.2h-62.4v-19.2H1098.5 M1101,202.4h-2.5h-62.4h-2.5v2.5v19.2v2.5h2.5h62.4h2.5v-2.5v-19.2
		V202.4L1101,202.4z"/>
</g>
<g class="st2">
	<rect x="1078.2" y="248" class="st9" width="64.9" height="21.7"/>
	<path class="st3" d="M1141.8,249.3v19.2h-62.4v-19.2H1141.8 M1144.3,246.8h-2.5h-62.4h-2.5v2.5v19.2v2.5h2.5h62.4h2.5v-2.5v-19.2
		V246.8L1144.3,246.8z"/>
</g>
<g class="st2">
	<rect x="1121.3" y="292.4" class="st9" width="47.3" height="21.7"/>
	<path class="st3" d="M1167.3,293.7v19.2h-44.8v-19.2H1167.3 M1169.8,291.2h-2.5h-44.8h-2.5v2.5v19.2v2.5h2.5h44.8h2.5v-2.5v-19.2
		V291.2L1169.8,291.2z"/>
</g>
<g class="st2">
	<rect x="1155.3" y="336" class="st9" width="60.9" height="21.7"/>
	<path class="st3" d="M1214.9,337.3v19.2h-58.4v-19.2H1214.9 M1217.4,334.8h-2.5h-58.4h-2.5v2.5v19.2v2.5h2.5h58.4h2.5v-2.5v-19.2
		V334.8L1217.4,334.8z"/>
</g>
<g class="st2">
	<rect x="1035.5" y="363" class="st9" width="64.8" height="21.7"/>
	<path class="st3" d="M1099,364.2v19.2h-62.3v-19.2H1099 M1101.5,361.7h-2.5h-62.3h-2.5v2.5v19.2v2.5h2.5h62.3h2.5v-2.5v-19.2V361.7
		L1101.5,361.7z"/>
</g>
<g>
	<rect x="982.1" y="398.2" class="st8" width="115" height="36"/>
	<path class="st4" d="M1096.1,399.2v34h-113v-34H1096.1 M1098.1,397.2h-2h-113h-2v2v34v2h2h113h2v-2v-34V397.2L1098.1,397.2z"/>
</g>
<g transform="translate(-0.5 -0.5)" class="st2">
	<g class="st2">
		<path class="st10" d="M997.4,421.4h-0.9l3.2-9.8h0.9L997.4,421.4z"/>
		<path class="st10" d="M1006.3,421.2h-1.3v-9.3h6.5v1.1h-5.2v2.9h4.6v1.1h-4.6V421.2z"/>
		<path class="st10" d="M1017.2,421.2v-1l0,0c-0.5,0.8-1.1,1.2-2.2,1.2c-1,0-2.2-0.5-2.2-2.1v-4.9h1.1v4.5c0,1.1,0.6,1.5,1.3,1.5
			c1.4,0,1.9-1.3,1.9-2.3v-3.7h1.1v6.8H1017.2z"/>
		<path class="st10" d="M1025.5,421.2h-1.1V417c0-1.2-0.3-1.8-1.5-1.8c-0.7,0-1.8,0.4-1.8,2.3v3.7h-1.1v-6.8h1.1v1h0
			c0.2-0.4,0.9-1.2,2.1-1.2c1.1,0,2.4,0.4,2.4,2.4V421.2z"/>
		<path class="st10" d="M1028.3,420.2h4.2v0.9h-5.7v-0.9l4.1-5h-3.8v-0.9h5.3v0.9L1028.3,420.2z"/>
		<path class="st10" d="M1033.7,413.1v-1.3h1.1v1.3H1033.7z M1034.9,421.2h-1.1v-6.8h1.1V421.2z"/>
		<path class="st10" d="M1039.4,414.2c2.2,0,3.2,1.8,3.2,3.6s-1,3.6-3.2,3.6s-3.2-1.8-3.2-3.6S1037.2,414.2,1039.4,414.2z
			 M1039.4,420.3c1.6,0,2-1.7,2-2.6s-0.3-2.6-2-2.6s-2,1.7-2,2.6S1037.7,420.3,1039.4,420.3z"/>
		<path class="st10" d="M1049.4,421.2h-1.1V417c0-1.2-0.3-1.8-1.5-1.8c-0.7,0-1.8,0.4-1.8,2.3v3.7h-1.1v-6.8h1.1v1h0
			c0.2-0.4,0.9-1.2,2.1-1.2c1.1,0,2.4,0.4,2.4,2.4V421.2z"/>
		<path class="st10" d="M1056.8,419c0,0.3-0.4,1.3-1.2,1.9c-0.3,0.2-0.8,0.5-1.8,0.5c-1.9,0-3-1.4-3-3.4c0-2.1,1-3.8,3.3-3.8
			c2,0,2.9,1.6,2.9,4h-5c0,1.4,0.7,2.2,2,2.2c1.1,0,1.7-0.8,1.8-1.3H1056.8z M1055.7,417.2c-0.1-1.1-0.5-2-1.9-2c-1.1,0-1.9,1-1.9,2
			H1055.7z"/>
		<path class="st10" d="M1068.2,411.8h1.2v9.3h-1.4l-4.7-7.5h0v7.5h-1.2v-9.3h1.5l4.7,7.5h0V411.8z"/>
		<path class="st10" d="M1073.8,414.6h0.9v2.8h2.8v0.9h-2.8v2.8h-0.9v-2.8h-2.8v-0.9h2.8V414.6z"/>
		<path class="st10" d="M1082.7,421.2h-1.2v-6.5h-2.1v-0.9c1.5-0.1,2.1-0.2,2.5-1.7h0.9V421.2z"/>
	</g>
</g>
<g>
	<rect x="981.5" y="146.9" class="st8" width="87.6" height="35.4"/>
	<path class="st4" d="M1068.1,147.9v33.4h-85.6v-33.4H1068.1 M1070.1,145.9h-2h-85.6h-2v2v33.4v2h2h85.6h2v-2v-33.4V145.9
		L1070.1,145.9z"/>
</g>
<g transform="translate(-0.5 -0.5)" class="st2">
	<g class="st2">
		<path class="st10" d="M989.2,170.1h-0.9l3.2-9.8h0.9L989.2,170.1z"/>
		<path class="st10" d="M998.2,169.8h-1.3v-9.3h6.5v1.1h-5.2v2.9h4.6v1.1h-4.6V169.8z"/>
		<path class="st10" d="M1009,169.8v-1l0,0c-0.5,0.8-1.1,1.2-2.2,1.2c-1,0-2.2-0.5-2.2-2.1V163h1.1v4.5c0,1.1,0.6,1.5,1.3,1.5
			c1.4,0,1.9-1.3,1.9-2.3V163h1.1v6.8H1009z"/>
		<path class="st10" d="M1017.4,169.8h-1.1v-4.2c0-1.2-0.3-1.8-1.5-1.8c-0.6,0-1.8,0.4-1.8,2.3v3.7h-1.1V163h1.1v1h0
			c0.2-0.4,0.9-1.2,2.1-1.2c1.1,0,2.4,0.4,2.4,2.4V169.8z"/>
		<path class="st10" d="M1020.1,168.9h4.2v0.9h-5.7v-0.9l4.1-5h-3.8V163h5.3v0.9L1020.1,168.9z"/>
		<path class="st10" d="M1025.6,161.8v-1.3h1.1v1.3H1025.6z M1026.7,169.8h-1.1V163h1.1V169.8z"/>
		<path class="st10" d="M1031.2,162.8c2.2,0,3.2,1.8,3.2,3.6c0,1.8-1,3.6-3.2,3.6c-2.2,0-3.2-1.8-3.2-3.6
			C1028,164.7,1029,162.8,1031.2,162.8z M1031.2,169c1.6,0,2-1.7,2-2.6s-0.3-2.6-2-2.6s-2,1.7-2,2.6S1029.6,169,1031.2,169z"/>
		<path class="st10" d="M1041.2,169.8h-1.1v-4.2c0-1.2-0.3-1.8-1.5-1.8c-0.6,0-1.8,0.4-1.8,2.3v3.7h-1.1V163h1.1v1h0
			c0.2-0.4,0.9-1.2,2.1-1.2c1.1,0,2.4,0.4,2.4,2.4V169.8z"/>
		<path class="st10" d="M1048.7,167.7c0,0.3-0.4,1.3-1.2,1.9c-0.3,0.2-0.8,0.5-1.8,0.5c-1.9,0-3-1.4-3-3.4c0-2.1,1-3.8,3.3-3.8
			c2,0,2.9,1.6,2.9,4h-5c0,1.4,0.7,2.2,2,2.2c1.1,0,1.7-0.8,1.8-1.3H1048.7z M1047.6,165.9c-0.1-1.1-0.5-2-1.9-2c-1.1,0-1.9,1-1.9,2
			H1047.6z"/>
		<path class="st10" d="M1053,166.8h-3.2v-1.2h3.2V166.8z"/>
		<path class="st10" d="M1060.8,160.5h1.2v9.3h-1.4l-4.7-7.5h0v7.5h-1.2v-9.3h1.5l4.7,7.5h0V160.5z"/>
	</g>
</g>
<g transform="translate(-0.5 -0.5)">
	<g class="st2">
		<path d="M909.4,90.1h-2.7l4.4-12.2h2.9l4.3,12.2h-2.8l-0.8-2.5h-4.5L909.4,90.1z M911,85.5h3.1l-1.5-4.8h0L911,85.5z"/>
		<path d="M929,80.1h-6.5v2.6h6v2.2h-6V88h6.8v2.2H920V77.9h9V80.1z"/>
		<path d="M943.1,90.1h-2.4V79.9h0l-2.3,10.2h-2.5l-2.2-10.2h0v10.2h-2.4V77.9h3.7l2.2,9.6h0l2.2-9.6h3.7V90.1z"/>
		<path d="M952,90.1h-2.7l4.4-12.2h2.9l4.3,12.2h-2.8l-0.8-2.5h-4.5L952,90.1z M953.5,85.5h3.1l-1.5-4.8h0L953.5,85.5z"/>
		<path d="M964.4,86.4c0,0.7,0.4,2,2.6,2c1.2,0,2.6-0.3,2.6-1.6c0-1-0.9-1.2-2.2-1.5l-1.3-0.3c-2-0.5-3.9-0.9-3.9-3.6
			c0-1.4,0.7-3.8,4.7-3.8c3.7,0,4.8,2.5,4.8,4h-2.5c-0.1-0.5-0.3-1.8-2.5-1.8c-1,0-2.1,0.4-2.1,1.5c0,1,0.8,1.2,1.3,1.3l3,0.7
			c1.7,0.4,3.2,1.1,3.2,3.3c0,3.7-3.7,4-4.8,4c-4.5,0-5.2-2.6-5.2-4.1H964.4z"/>
		<path d="M975.8,86.4c0,0.7,0.4,2,2.6,2c1.2,0,2.6-0.3,2.6-1.6c0-1-0.9-1.2-2.2-1.5l-1.3-0.3c-2-0.5-3.9-0.9-3.9-3.6
			c0-1.4,0.7-3.8,4.7-3.8c3.7,0,4.8,2.5,4.8,4h-2.5c-0.1-0.5-0.3-1.8-2.5-1.8c-1,0-2.1,0.4-2.1,1.5c0,1,0.8,1.2,1.3,1.3l3,0.7
			c1.7,0.4,3.2,1.1,3.2,3.3c0,3.7-3.7,4-4.8,4c-4.5,0-5.2-2.6-5.2-4.1H975.8z"/>
		<path d="M994.3,80.1h-6.5v2.6h6v2.2h-6V88h6.8v2.2h-9.3V77.9h9V80.1z"/>
		<path d="M1001.8,90.1h-2.6V80.1h-3.7v-2.2h9.9v2.2h-3.7V90.1z"/>
		<path d="M1008.9,86.4c0,0.7,0.4,2,2.6,2c1.2,0,2.6-0.3,2.6-1.6c0-1-0.9-1.2-2.2-1.5l-1.3-0.3c-2-0.5-3.9-0.9-3.9-3.6
			c0-1.4,0.7-3.8,4.7-3.8c3.7,0,4.8,2.5,4.8,4h-2.5c-0.1-0.5-0.3-1.8-2.5-1.8c-1,0-2.1,0.4-2.1,1.5c0,1,0.8,1.2,1.3,1.3l3,0.7
			c1.7,0.4,3.2,1.1,3.2,3.3c0,3.7-3.7,4-4.8,4c-4.5,0-5.2-2.6-5.2-4.1H1008.9z"/>
	</g>
</g>
<g transform="translate(-0.5 -0.5)" class="st2">
	<g class="st2">
		<path class="st11" d="M1050.9,218h-0.6l2.3-7.1h0.6L1050.9,218z"/>
		<path class="st11" d="M1061.1,213.2c-0.3-1.2-1.2-1.4-1.9-1.4c-1.2,0-2.2,0.9-2.2,2.7c0,1.6,0.6,2.8,2.2,2.8
			c0.6,0,1.6-0.3,1.9-1.8h0.9c-0.4,2.5-2.4,2.7-2.9,2.7c-1.5,0-3-1-3-3.6c0-2.1,1.2-3.5,3.1-3.5c1.7,0,2.6,1.1,2.8,2.2H1061.1z"/>
		<path class="st11" d="M1063,214.4c0-1.2,0.8-1.6,2-1.6c0.4,0,1.8,0.1,1.8,1.4v2.8c0,0.2,0.1,0.3,0.3,0.3c0.1,0,0.2,0,0.3,0v0.6
			c-0.1,0-0.3,0.1-0.5,0.1c-0.7,0-0.8-0.4-0.9-0.8c-0.3,0.3-0.8,0.8-1.8,0.8c-0.9,0-1.5-0.6-1.5-1.4c0-0.4,0.1-1.4,1.5-1.5l1.4-0.2
			c0.2,0,0.4-0.1,0.4-0.6c0-0.5-0.4-0.8-1.2-0.8c-0.9,0-1.1,0.6-1.1,0.9H1063z M1066,215.4c-0.1,0.1-0.3,0.2-1.4,0.3
			c-0.4,0.1-1,0.2-1,0.8c0,0.5,0.3,0.9,0.9,0.9c0.8,0,1.5-0.5,1.5-1.2V215.4z"/>
		<path class="st11" d="M1072.2,217.9h-0.8v-3c0-0.9-0.2-1.3-1-1.3c-0.5,0-1.3,0.3-1.3,1.6v2.7h-0.8V213h0.8v0.7h0
			c0.2-0.3,0.6-0.8,1.5-0.8c0.8,0,1.7,0.3,1.7,1.7V217.9z"/>
		<path class="st11" d="M1073.4,214.4c0-1.2,0.8-1.6,2-1.6c0.4,0,1.8,0.1,1.8,1.4v2.8c0,0.2,0.1,0.3,0.3,0.3c0.1,0,0.2,0,0.3,0v0.6
			c-0.1,0-0.3,0.1-0.5,0.1c-0.7,0-0.8-0.4-0.9-0.8c-0.3,0.3-0.8,0.8-1.8,0.8c-0.9,0-1.5-0.6-1.5-1.4c0-0.4,0.1-1.4,1.5-1.5l1.4-0.2
			c0.2,0,0.4-0.1,0.4-0.6c0-0.5-0.4-0.8-1.2-0.8c-0.9,0-1.1,0.6-1.1,0.9H1073.4z M1076.4,215.4c-0.1,0.1-0.3,0.2-1.4,0.3
			c-0.4,0.1-1,0.2-1,0.8c0,0.5,0.3,0.9,0.9,0.9c0.8,0,1.5-0.5,1.5-1.2V215.4z"/>
		<path class="st11" d="M1079.5,217.9h-0.8v-6.7h0.8V217.9z"/>
		<path class="st11" d="M1084.9,216.3c0,0.2-0.3,0.9-0.9,1.3c-0.2,0.1-0.5,0.3-1.3,0.3c-1.4,0-2.2-1-2.2-2.5c0-1.5,0.7-2.7,2.4-2.7
			c1.4,0,2.1,1.1,2.1,2.9h-3.6c0,1,0.5,1.6,1.4,1.6c0.8,0,1.2-0.6,1.3-1H1084.9z M1084.1,215c0-0.8-0.4-1.5-1.4-1.5
			c-0.8,0-1.4,0.7-1.4,1.5H1084.1z"/>
	</g>
</g>
<g transform="translate(-0.5 -0.5)" class="st2">
	<g class="st2">
		<path class="st11" d="M1052.3,377.8h-0.6l2.3-7.1h0.6L1052.3,377.8z"/>
		<path class="st11" d="M1062.5,373c-0.3-1.2-1.2-1.4-1.9-1.4c-1.2,0-2.2,0.9-2.2,2.7c0,1.6,0.6,2.8,2.2,2.8c0.6,0,1.6-0.3,1.9-1.8
			h0.9c-0.4,2.5-2.4,2.7-2.9,2.7c-1.5,0-3-1-3-3.6c0-2.1,1.2-3.5,3.1-3.5c1.7,0,2.6,1.1,2.8,2.2H1062.5z"/>
		<path class="st11" d="M1064.4,374.2c0-1.2,0.8-1.6,2-1.6c0.4,0,1.8,0.1,1.8,1.4v2.8c0,0.2,0.1,0.3,0.3,0.3c0.1,0,0.2,0,0.3,0v0.6
			c-0.1,0-0.3,0.1-0.5,0.1c-0.7,0-0.8-0.4-0.9-0.8c-0.3,0.3-0.8,0.8-1.8,0.8c-0.9,0-1.5-0.6-1.5-1.4c0-0.4,0.1-1.4,1.5-1.5l1.4-0.2
			c0.2,0,0.4-0.1,0.4-0.6c0-0.5-0.4-0.8-1.2-0.8c-0.9,0-1.1,0.6-1.1,0.9H1064.4z M1067.5,375.2c-0.1,0.1-0.3,0.2-1.4,0.3
			c-0.4,0.1-1,0.2-1,0.8c0,0.5,0.3,0.9,0.9,0.9c0.8,0,1.5-0.5,1.5-1.2V375.2z"/>
		<path class="st11" d="M1073.7,377.7h-0.8v-3c0-0.9-0.2-1.3-1-1.3c-0.5,0-1.3,0.3-1.3,1.6v2.7h-0.8v-4.9h0.8v0.7h0
			c0.2-0.3,0.6-0.8,1.5-0.8c0.8,0,1.7,0.3,1.7,1.7V377.7z"/>
		<path class="st11" d="M1074.9,374.2c0-1.2,0.8-1.6,2-1.6c0.4,0,1.8,0.1,1.8,1.4v2.8c0,0.2,0.1,0.3,0.3,0.3c0.1,0,0.2,0,0.3,0v0.6
			c-0.1,0-0.3,0.1-0.5,0.1c-0.7,0-0.8-0.4-0.9-0.8c-0.3,0.3-0.8,0.8-1.8,0.8c-0.9,0-1.5-0.6-1.5-1.4c0-0.4,0.1-1.4,1.5-1.5l1.4-0.2
			c0.2,0,0.4-0.1,0.4-0.6c0-0.5-0.4-0.8-1.2-0.8c-0.9,0-1.1,0.6-1.1,0.9H1074.9z M1077.9,375.2c-0.1,0.1-0.3,0.2-1.4,0.3
			c-0.4,0.1-1,0.2-1,0.8c0,0.5,0.3,0.9,0.9,0.9c0.8,0,1.5-0.5,1.5-1.2V375.2z"/>
		<path class="st11" d="M1080.9,377.7h-0.8v-6.7h0.8V377.7z"/>
		<path class="st11" d="M1086.3,376.1c0,0.2-0.3,0.9-0.9,1.3c-0.2,0.1-0.5,0.3-1.3,0.3c-1.4,0-2.2-1-2.2-2.5c0-1.5,0.7-2.7,2.4-2.7
			c1.4,0,2.1,1.1,2.1,2.9h-3.6c0,1,0.5,1.6,1.4,1.6c0.8,0,1.2-0.6,1.3-1H1086.3z M1085.6,374.8c0-0.8-0.4-1.5-1.4-1.5
			c-0.8,0-1.4,0.7-1.4,1.5H1085.6z"/>
	</g>
</g>
<g transform="translate(-0.5 -0.5)" class="st2">
	<g class="st2">
		<path class="st11" d="M1096,262.8h-0.6l2.3-7.1h0.6L1096,262.8z"/>
		<path class="st11" d="M1102.3,261.8h3.4v0.8h-4.3v-6.7h0.9V261.8z"/>
		<path class="st11" d="M1109.7,262.6v-0.7l0,0c-0.3,0.6-0.8,0.9-1.6,0.9c-0.7,0-1.6-0.3-1.6-1.5v-3.5h0.8v3.3
			c0,0.8,0.4,1.1,0.9,1.1c1,0,1.3-0.9,1.3-1.6v-2.7h0.8v4.9H1109.7z"/>
		<path class="st11" d="M1113.7,257.5c1.6,0,2.3,1.3,2.3,2.6c0,1.3-0.7,2.6-2.3,2.6s-2.3-1.3-2.3-2.6
			C1111.5,258.9,1112.2,257.5,1113.7,257.5z M1113.7,262c1.2,0,1.4-1.2,1.4-1.9c0-0.7-0.2-1.9-1.4-1.9c-1.2,0-1.4,1.2-1.4,1.9
			C1112.3,260.8,1112.6,262,1113.7,262z"/>
		<path class="st11" d="M1121,262.2c0,0.7,0,2.5-2.3,2.5c-0.6,0-1.7-0.2-1.9-1.5h0.8c0.1,0.8,0.9,0.8,1.1,0.8c1.4,0,1.4-1.1,1.4-1.7
			V262h0v0c-0.2,0.3-0.6,0.7-1.3,0.7c-1.7,0-2.2-1.6-2.2-2.7c0-1.4,0.7-2.4,2-2.4c0.9,0,1.3,0.6,1.5,0.8h0v-0.7h0.8V262.2z
			 M1118.9,262c0.5,0,1.3-0.3,1.3-1.6c0-0.8-0.1-2.1-1.3-2.1c-1.3,0-1.3,1.2-1.3,1.8C1117.6,261.2,1118,262,1118.9,262z"/>
		<path class="st11" d="M1124.2,257.5c1.6,0,2.3,1.3,2.3,2.6c0,1.3-0.7,2.6-2.3,2.6s-2.3-1.3-2.3-2.6
			C1121.9,258.9,1122.6,257.5,1124.2,257.5z M1124.2,262c1.2,0,1.4-1.2,1.4-1.9c0-0.7-0.2-1.9-1.4-1.9c-1.2,0-1.4,1.2-1.4,1.9
			C1122.7,260.8,1123,262,1124.2,262z"/>
	</g>
</g>
<g transform="translate(-0.5 -0.5)" class="st2">
	<g class="st2">
		<path class="st11" d="M1132.3,307.2h-0.6l2.3-7.1h0.6L1132.3,307.2z"/>
		<path class="st11" d="M1138.9,305.1l-0.7,2h-0.9l2.5-6.7h1l2.4,6.7h-1l-0.7-2H1138.9z M1141.2,304.3l-1-3h0l-1.1,3H1141.2z"/>
		<path class="st11" d="M1147.9,307.1h-0.8v-3c0-0.9-0.2-1.3-1-1.3c-0.5,0-1.3,0.3-1.3,1.6v2.7h-0.8v-4.9h0.8v0.7h0
			c0.2-0.3,0.6-0.8,1.5-0.8c0.8,0,1.7,0.3,1.7,1.7V307.1z"/>
		<path class="st11" d="M1153.2,307.1h-0.8v-3c0-0.9-0.2-1.3-1-1.3c-0.5,0-1.3,0.3-1.3,1.6v2.7h-0.8v-4.9h0.8v0.7h0
			c0.2-0.3,0.6-0.8,1.5-0.8c0.8,0,1.7,0.3,1.7,1.7V307.1z"/>
		<path class="st11" d="M1156.4,302c1.6,0,2.3,1.3,2.3,2.6c0,1.3-0.7,2.6-2.3,2.6s-2.3-1.3-2.3-2.6
			C1154.1,303.4,1154.8,302,1156.4,302z M1156.4,306.5c1.2,0,1.4-1.2,1.4-1.9c0-0.7-0.2-1.9-1.4-1.9s-1.4,1.2-1.4,1.9
			C1154.9,305.3,1155.2,306.5,1156.4,306.5z"/>
	</g>
</g>
<g transform="translate(-0.5 -0.5)" class="st2">
	<g class="st2">
		<path class="st11" d="M1172.7,351.4h-0.6l2.3-7.1h0.6L1172.7,351.4z"/>
		<path class="st11" d="M1183.7,351.2v-4c0-0.2,0-1,0-1.7h0l-1.9,5.6h-0.9l-1.9-5.6h0c0,0.6,0,1.5,0,1.7v4h-0.9v-6.7h1.3l1.9,5.7h0
			l1.9-5.7h1.3v6.7H1183.7z"/>
		<path class="st11" d="M1190,349.7c0,0.2-0.3,0.9-0.9,1.3c-0.2,0.1-0.5,0.3-1.3,0.3c-1.4,0-2.2-1-2.2-2.5c0-1.5,0.7-2.7,2.4-2.7
			c1.4,0,2.1,1.1,2.1,2.9h-3.6c0,1,0.5,1.6,1.4,1.6c0.8,0,1.2-0.6,1.3-1H1190z M1189.2,348.4c0-0.8-0.4-1.5-1.4-1.5
			c-0.8,0-1.4,0.7-1.4,1.5H1189.2z"/>
		<path class="st11" d="M1193.8,347.7c0-0.3-0.1-0.8-1.2-0.8c-0.3,0-1,0.1-1,0.7c0,0.4,0.3,0.5,0.9,0.7l0.8,0.2
			c1,0.3,1.4,0.6,1.4,1.3c0,1-0.8,1.6-1.9,1.6c-1.9,0-2.1-1.1-2.1-1.7h0.8c0,0.4,0.1,1,1.3,1c0.6,0,1.1-0.2,1.1-0.8
			c0-0.4-0.3-0.5-1-0.7l-1-0.2c-0.7-0.2-1.1-0.5-1.1-1.2c0-1.1,0.9-1.6,1.9-1.6c1.8,0,1.9,1.3,1.9,1.5H1193.8z"/>
		<path class="st11" d="M1199.9,349.7c0,0.2-0.3,0.9-0.9,1.3c-0.2,0.1-0.5,0.3-1.3,0.3c-1.4,0-2.2-1-2.2-2.5c0-1.5,0.7-2.7,2.4-2.7
			c1.4,0,2.1,1.1,2.1,2.9h-3.6c0,1,0.5,1.6,1.4,1.6c0.8,0,1.2-0.6,1.3-1H1199.9z M1199.1,348.4c0-0.8-0.4-1.5-1.4-1.5
			c-0.8,0-1.4,0.7-1.4,1.5H1199.1z"/>
	</g>
</g>
</svg>
