<?xml version="1.0" encoding="utf-8"?>
<!-- Generator: Adobe Illustrator 26.5.2, SVG Export Plug-In . SVG Version: 6.00 Build 0)  -->
<svg version="1.1" id="Layer_1" xmlns="http://www.w3.org/2000/svg" xmlns:xlink="http://www.w3.org/1999/xlink" x="0px" y="0px"
	 width="517px" height="390px" viewBox="0 0 517 390" style="enable-background:new 0 0 517 390;" xml:space="preserve">
<style type="text/css">
	.st0{fill:#FFFFFF;}
	.st1{fill:none;}
	.st2{fill:#FFB366;}
	.st3{enable-background:new    ;}
	.st4{fill:#7EA6E0;}
	.st5{fill:#7EA6E0;stroke:#000000;stroke-miterlimit:10;}
	.st6{fill:#FFB366;stroke:#000000;stroke-miterlimit:10;}
	.st7{fill:none;stroke:#000000;stroke-miterlimit:10;}
	.st8{stroke:#000000;stroke-miterlimit:10;}
	.st9{fill:#EDED00;}
</style>
<rect x="-37.5" y="-18.2" class="st0" width="578.1" height="420.5"/>
<rect x="332.5" y="192.5" pointer-events="all" class="st1" width="130" height="120"/>
<path pointer-events="all" class="st2" d="M433.7,275.9c1.4,0,3.4-1.1,3.4-3.5c0-1.8-1.6-3.3-3.5-3.3c-1.7,0-3.4,1.4-3.4,3.4
	C430.2,274.4,431.7,275.9,433.7,275.9z M433.6,308.8l4.8-4.8l-3.3-3.3l3.5-3.6l-3.9-4.1l3.1-3.2v-4.5c4.2-2.1,6.6-5.9,6.6-9.9
	c0-5.1-3.9-10.8-11.1-10.8c-4.7,0.2-9.9,3.3-10.7,10.7c0,4.7,3,8.4,6.6,10.1v19L433.6,308.8z M411.4,312.5c-2.8,0-4.9-2.1-4.9-4.6
	v-44.9c0-2.8,2.4-4.7,4.8-4.7h46.4c2.9,0,4.9,2.3,4.9,4.7v44.9c0,2.7-2.3,4.7-4.9,4.7H411.4z M411.2,253.4c-2,0-5.2,0.8-7,3.2
	c-1.6-4.1-4.5-6.5-7.9-8.4c-2.1-1.2-4.2-2.3-6.3-3.4c0.5-1.8,1.1-3.3,1.8-4.4c1-1.9,2.5-3.2,4.6-4.5l5.7-3.1c2.2-1.2,4.2-1.9,6-0.1
	c10,7.1,19.9,6.7,29.2-0.3c1.1-1.1,2.9-1,4.7-0.1c3.5,1.9,7.8,4,8.8,5c2.3,1.8,3.5,4.3,4.3,7.2c0.8,3.1,1.4,6,1.8,8.7H411.2z
	 M422.7,230.2c-9.3,0-17.4-8.3-17.4-18.6c0-12.2,9.3-19.1,17.2-19.1c10.1,0,17.8,8.5,17.8,19.2C440.2,221.9,432.2,230.2,422.7,230.2
	z M368.5,247.1c-9.7,0-17.7-8.2-17.7-19.1c0-9.9,7.9-18.6,17.4-18.6c10.3,0,17.6,9.3,17.6,18.8C385.8,239.6,376.9,247.1,368.5,247.1
	z M332.5,285.2c0.9-9.2,1.9-21.6,4-26.1c1-2.4,2.3-4.3,5-5.9l6.3-3.5c2-1.1,4.1-1.6,5.4-0.4c8.5,6.4,19,8.2,29.7,0
	c1-0.9,2.5-0.9,3.9-0.3c2,0.8,4.9,2.5,7.4,3.9c3.4,1.9,5.2,4.4,6.5,9c0.3,1,0.5,2,0.7,3v20.3H332.5z"/>
<g class="st3">
	<path d="M331.7,326.4h3.6v4.6h-1.2l-0.2-1.1c-0.5,0.5-1.1,1.3-2.7,1.3c-2.1,0-4-1.5-4-4.5c0-2.4,1.3-4.6,4.2-4.6
		c2.6,0,3.7,1.7,3.8,2.9h-1.8c0-0.3-0.6-1.4-1.9-1.4c-1.3,0-2.5,0.9-2.5,3.1c0,2.4,1.3,3,2.5,3c0.4,0,1.7-0.2,2.1-1.9h-2V326.4z"/>
	<path d="M336.8,324.6h1.6v1.1h0c0.3-0.6,0.7-1.3,1.8-1.3c0.1,0,0.2,0,0.3,0v1.7c-0.1,0-0.3,0-0.5,0c-1.3,0-1.5,0.8-1.5,1.5v3.3
		h-1.7V324.6z"/>
	<path d="M347.3,331h-1.6v-0.9h0c-0.4,0.7-1.1,1.1-1.9,1.1c-1.3,0-2.2-0.7-2.2-2.4v-4.2h1.7v4c0,1,0.6,1.2,1.1,1.2
		c0.6,0,1.3-0.3,1.3-1.5v-3.7h1.7V331z"/>
	<path d="M350.4,325.5L350.4,325.5c0.3-0.5,0.8-1.1,1.9-1.1c1.4,0,2.7,1.1,2.7,3.3c0,1.8-0.8,3.4-2.7,3.4c-1.2,0-1.6-0.6-1.8-1h0
		v3.3h-1.7v-8.9h1.6V325.5z M351.9,329.8c1.1,0,1.4-1.2,1.4-1.9c0-1-0.4-2-1.4-2c-1.2,0-1.4,1-1.4,2.1
		C350.4,328.9,350.8,329.8,351.9,329.8z"/>
	<path d="M357.7,325.5L357.7,325.5c0.3-0.5,0.8-1.1,1.9-1.1c1.4,0,2.7,1.1,2.7,3.3c0,1.8-0.8,3.4-2.7,3.4c-1.2,0-1.6-0.6-1.8-1h0
		v3.3h-1.7v-8.9h1.6V325.5z M359.2,329.8c1.1,0,1.4-1.2,1.4-1.9c0-1-0.4-2-1.4-2c-1.2,0-1.4,1-1.4,2.1
		C357.7,328.9,358.2,329.8,359.2,329.8z"/>
	<path d="M366.4,331.2c-1.7,0-3.3-1.1-3.3-3.4s1.5-3.4,3.3-3.4s3.3,1.1,3.3,3.4S368.1,331.2,366.4,331.2z M366.4,325.9
		c-1.3,0-1.5,1.1-1.5,1.9s0.2,1.9,1.5,1.9c1.3,0,1.5-1.1,1.5-1.9S367.7,325.9,366.4,325.9z"/>
	<path d="M381.2,328c0,2.3-1.4,3.2-3.5,3.2c-0.8,0-2-0.2-2.7-1c-0.5-0.5-0.6-1.2-0.7-2.1v-5.7h1.8v5.6c0,1.2,0.7,1.7,1.5,1.7
		c1.2,0,1.7-0.6,1.7-1.6v-5.7h1.8V328z"/>
	<path d="M384.7,324.6h1v1.2h-1v3.5c0,0.4,0,0.5,0.7,0.5c0.1,0,0.2,0,0.3,0v1.3c-0.3,0-0.5,0-0.8,0h-0.2c-1.5,0-1.7-0.6-1.7-1.4
		v-3.9h-0.9v-1.2h0.9v-1.7h1.7V324.6z"/>
	<path d="M392.3,329.1c-0.4,1.5-1.7,2-2.8,2c-1.8,0-3.2-0.9-3.2-3.5c0-0.8,0.3-3.2,3.1-3.2c1.3,0,3,0.6,3,3.5v0.3H388
		c0,0.5,0.1,1.6,1.5,1.6c0.5,0,0.9-0.2,1.1-0.7H392.3z M390.7,327.2c-0.1-1-0.8-1.3-1.3-1.3c-0.8,0-1.2,0.5-1.3,1.3H390.7z"/>
	<path d="M399.3,331h-1.7v-3.9c0-0.5,0-1.3-1.1-1.3c-0.7,0-1.3,0.5-1.3,1.5v3.7h-1.7v-6.4h1.6v0.9h0c0.2-0.4,0.7-1.1,1.9-1.1
		c1.2,0,2.2,0.7,2.2,2.1V331z"/>
	<path d="M402.7,324.6h1v1.2h-1v3.5c0,0.4,0,0.5,0.7,0.5c0.1,0,0.2,0,0.3,0v1.3c-0.3,0-0.5,0-0.8,0h-0.2c-1.5,0-1.7-0.6-1.7-1.4
		v-3.9h-0.9v-1.2h0.9v-1.7h1.7V324.6z"/>
	<path d="M406.6,323.9h-1.7v-1.6h1.7V323.9z M406.6,324.6v6.4h-1.7v-6.4H406.6z"/>
	<path d="M420.6,331H419v-3.9c0-0.9-0.4-1.3-0.9-1.3c-0.8,0-1.1,0.6-1.1,1.3v3.8h-1.7v-3.8c0-0.5,0-1.3-1-1.3c-0.8,0-1,0.6-1,1.2
		v3.9h-1.7v-6.4h1.6v0.9h0c0.2-0.4,0.7-1.1,1.8-1.1c0.9,0,1.3,0.3,1.8,1c0.2-0.3,0.7-1,1.7-1c1.2,0,2.2,0.7,2.2,2.1V331z"/>
	<path d="M427.3,329.8c0,0.8,0.2,0.9,0.4,1v0.3h-1.8c-0.1-0.3-0.1-0.4-0.2-0.8c-0.4,0.4-0.9,0.9-2.1,0.9c-1,0-1.9-0.5-1.9-1.9
		c0-1.2,0.8-1.9,1.9-2l1.5-0.2c0.3,0,0.6-0.1,0.6-0.5c0-0.7-0.7-0.7-1.1-0.7c-0.8,0-1,0.5-1,0.9h-1.6c0.2-2,1.5-2.2,2.9-2.2
		c0.9,0,2.5,0.3,2.5,1.8V329.8z M425.7,327.9c-0.2,0.1-0.4,0.2-1.1,0.3c-0.6,0.1-1.1,0.3-1.1,1c0,0.6,0.5,0.8,0.8,0.8
		c0.7,0,1.5-0.5,1.5-1.3V327.9z"/>
	<path d="M428.8,324.6h1.6v1.1h0c0.3-0.6,0.7-1.3,1.8-1.3c0.1,0,0.2,0,0.3,0v1.7c-0.1,0-0.3,0-0.5,0c-1.3,0-1.5,0.8-1.5,1.5v3.3
		h-1.7V324.6z"/>
	<path d="M435.2,331h-1.7v-8.6h1.7v4.7l2.1-2.4h2.1l-2.3,2.5l2.3,3.9h-2l-1.5-2.7l-0.7,0.7V331z"/>
	<path d="M445.7,329.1c-0.4,1.5-1.7,2-2.8,2c-1.8,0-3.2-0.9-3.2-3.5c0-0.8,0.3-3.2,3.1-3.2c1.3,0,3,0.6,3,3.5v0.3h-4.4
		c0,0.5,0.1,1.6,1.5,1.6c0.5,0,0.9-0.2,1.1-0.7H445.7z M444,327.2c-0.1-1-0.8-1.3-1.3-1.3c-0.8,0-1.2,0.5-1.3,1.3H444z"/>
	<path d="M448.7,324.6h1v1.2h-1v3.5c0,0.4,0,0.5,0.7,0.5c0.1,0,0.2,0,0.3,0v1.3c-0.3,0-0.5,0-0.8,0h-0.2c-1.5,0-1.7-0.6-1.7-1.4
		v-3.9h-0.9v-1.2h0.9v-1.7h1.7V324.6z"/>
	<path d="M452.6,323.9h-1.7v-1.6h1.7V323.9z M452.6,324.6v6.4h-1.7v-6.4H452.6z"/>
	<path d="M460,331h-1.7v-3.9c0-0.5,0-1.3-1.1-1.3c-0.7,0-1.3,0.5-1.3,1.5v3.7h-1.7v-6.4h1.6v0.9h0c0.2-0.4,0.7-1.1,1.9-1.1
		c1.2,0,2.2,0.7,2.2,2.1V331z"/>
	<path d="M467.4,324.6v6c0,1.1-0.1,2.9-3.2,2.9c-1.3,0-2.7-0.6-2.8-1.9h1.8c0.1,0.3,0.2,0.6,1.2,0.6c0.9,0,1.3-0.4,1.3-1.5v-0.8l0,0
		c-0.3,0.5-0.7,1-1.7,1c-1.5,0-2.7-1.1-2.7-3.3c0-2.2,1.2-3.3,2.7-3.3c1.2,0,1.7,0.7,1.9,1.1h0v-0.9H467.4z M464.3,329.6
		c1.1,0,1.4-1,1.4-1.8c0-1-0.5-1.9-1.4-1.9c-0.6,0-1.3,0.5-1.3,1.9C463,328.7,463.3,329.6,464.3,329.6z"/>
</g>
<rect x="140.5" y="72.5" pointer-events="all" class="st1" width="130" height="90"/>
<path pointer-events="all" class="st4" d="M140.5,150.7c0.6-7.6,1.5-15.1,2.8-22.7c0.6-2.3,1.3-4.5,2.2-6.8c0.9-2.3,2.5-4.2,4.6-5.7
	c2.6-1.7,5.6-2.9,8.7-3.6c1.3-0.5,2.7-0.5,3.9,0c9.1,7.9,23.3,7.9,32.4,0c1.1-0.4,2.4-0.4,3.5,0c3.6,1.1,7.1,2.6,10.3,4.4
	c-4,0.4-7.9,1.5-11.5,3.2c-5.5,2.7-9.7,7.3-11.5,12.8l-2.8,18.3L140.5,150.7z M178,108.1c-4.8,0.1-9.4-1.8-12.6-5.1
	c-3.3-3.4-5-8-4.8-12.7c-0.1-4.6,1.7-9.1,5-12.4c3.3-3.3,7.8-5.1,12.5-5c4.8-0.4,9.6,1.3,13.1,4.6c3.5,3.3,5.4,8,5.3,12.8
	c0.3,4.9-1.6,9.7-5.1,13.1C187.8,106.8,182.9,108.5,178,108.1z M188.5,162.5c0.6-6.7,1.4-13.4,2.5-20.1c0.5-3,1.2-6,2.1-8.9
	c0.6-3.1,2.5-5.9,5.3-7.7c3.2-1.8,6.5-3.3,10-4.5c1.6-0.4,3.3-0.2,4.6,0.8c2,1.8,4.2,3.3,6.7,4.4c6.2,2.5,13.3,2.5,19.6,0
	c2.5-1.1,4.8-2.6,6.9-4.2c1.7-1.2,3.9-1.4,5.7-0.5c3,0.9,5.8,2.2,8.4,3.9c2.4,1.5,4.2,3.7,5.1,6.2c1.6,4.7,2.7,9.6,3.3,14.5
	c0.8,5.4,1.4,10.8,1.8,16.2H188.5z M230.6,117.5c-11.5,0.2-21.1-9.2-21.4-21.2c0.1-5.8,2.4-11.3,6.4-15.3c4-4,9.4-6.2,15-6.1
	c10.9,0.8,19.4,10.1,19.5,21.5C249.9,107.5,241.4,116.7,230.6,117.5z"/>
<g class="st3">
	<path d="M114.6,181h-1.8v-7.1h-2.6v-1.5h7v1.5h-2.6V181z"/>
	<path d="M122.8,181h-1.6v-0.9h0c-0.4,0.7-1.1,1.1-1.9,1.1c-1.3,0-2.2-0.7-2.2-2.4v-4.2h1.7v4c0,1,0.6,1.2,1.1,1.2
		c0.6,0,1.3-0.3,1.3-1.5v-3.7h1.7V181z"/>
	<path d="M126.3,174.6h1v1.2h-1v3.5c0,0.4,0,0.5,0.7,0.5c0.1,0,0.2,0,0.3,0v1.3c-0.3,0-0.5,0-0.8,0h-0.2c-1.5,0-1.7-0.6-1.7-1.4
		v-3.9h-0.9v-1.2h0.9v-1.7h1.7V174.6z"/>
	<path d="M130.2,174.6h1v1.2h-1v3.5c0,0.4,0,0.5,0.7,0.5c0.1,0,0.2,0,0.3,0v1.3c-0.3,0-0.5,0-0.8,0h-0.2c-1.5,0-1.7-0.6-1.7-1.4
		v-3.9h-0.9v-1.2h0.9v-1.7h1.7V174.6z"/>
	<path d="M134.1,173.9h-1.7v-1.6h1.7V173.9z M134.1,174.6v6.4h-1.7v-6.4H134.1z"/>
	<path d="M144.9,174.6v6c0,1.1-0.1,2.9-3.2,2.9c-1.3,0-2.7-0.6-2.8-1.9h1.8c0.1,0.3,0.2,0.6,1.2,0.6c0.9,0,1.3-0.4,1.3-1.5v-0.8l0,0
		c-0.3,0.5-0.7,1-1.7,1c-1.5,0-2.7-1.1-2.7-3.3c0-2.2,1.2-3.3,2.7-3.3c1.2,0,1.7,0.7,1.9,1.1h0v-0.9H144.9z M141.8,179.6
		c1.1,0,1.4-1,1.4-1.8c0-1-0.5-1.9-1.4-1.9c-0.6,0-1.3,0.5-1.3,1.9C140.5,178.7,140.8,179.6,141.8,179.6z"/>
	<path d="M148.1,181h-1.7v-8.6h1.7V181z"/>
	<path d="M151.4,173.9h-1.7v-1.6h1.7V173.9z M151.4,174.6v6.4h-1.7v-6.4H151.4z"/>
	<path d="M162.1,181h-1.6v-0.9h0c-0.4,0.7-1.1,1.1-1.9,1.1c-1.3,0-2.2-0.7-2.2-2.4v-4.2h1.7v4c0,1,0.6,1.2,1.1,1.2
		c0.6,0,1.3-0.3,1.3-1.5v-3.7h1.7V181z"/>
	<path d="M165.6,174.6h1v1.2h-1v3.5c0,0.4,0,0.5,0.7,0.5c0.1,0,0.2,0,0.3,0v1.3c-0.3,0-0.5,0-0.8,0h-0.2c-1.5,0-1.7-0.6-1.7-1.4
		v-3.9H163v-1.2h0.9v-1.7h1.7V174.6z"/>
	<path d="M173.2,179.1c-0.4,1.5-1.7,2-2.8,2c-1.8,0-3.2-0.9-3.2-3.5c0-0.8,0.3-3.2,3.1-3.2c1.3,0,3,0.6,3,3.5v0.3h-4.4
		c0,0.5,0.1,1.6,1.5,1.6c0.5,0,0.9-0.2,1.1-0.7H173.2z M171.5,177.2c-0.1-1-0.8-1.3-1.3-1.3c-0.8,0-1.2,0.5-1.3,1.3H171.5z"/>
	<path d="M180.1,181h-1.7v-3.9c0-0.5,0-1.3-1.1-1.3c-0.7,0-1.3,0.5-1.3,1.5v3.7h-1.7v-6.4h1.6v0.9h0c0.2-0.4,0.7-1.1,1.9-1.1
		c1.2,0,2.2,0.7,2.2,2.1V181z"/>
	<path d="M183.6,174.6h1v1.2h-1v3.5c0,0.4,0,0.5,0.7,0.5c0.1,0,0.2,0,0.3,0v1.3c-0.3,0-0.5,0-0.8,0h-0.2c-1.5,0-1.7-0.6-1.7-1.4
		v-3.9H181v-1.2h0.9v-1.7h1.7V174.6z"/>
	<path d="M187.4,173.9h-1.7v-1.6h1.7V173.9z M187.4,174.6v6.4h-1.7v-6.4H187.4z"/>
	<path d="M197.5,179.8c0,0.8,0.2,0.9,0.4,1v0.3h-1.8c-0.1-0.3-0.1-0.4-0.2-0.8c-0.4,0.4-0.9,0.9-2.1,0.9c-1,0-1.9-0.5-1.9-1.9
		c0-1.2,0.8-1.9,1.9-2l1.5-0.2c0.3,0,0.6-0.1,0.6-0.5c0-0.7-0.7-0.7-1.1-0.7c-0.8,0-1,0.5-1,0.9h-1.6c0.2-2,1.5-2.2,2.9-2.2
		c0.9,0,2.5,0.3,2.5,1.8V179.8z M195.9,177.9c-0.2,0.1-0.4,0.2-1.1,0.3c-0.6,0.1-1.1,0.3-1.1,1c0,0.6,0.5,0.8,0.8,0.8
		c0.7,0,1.5-0.5,1.5-1.3V177.9z"/>
	<path d="M204.8,181h-1.6v-0.9h0c-0.4,0.7-1.1,1.1-1.9,1.1c-1.3,0-2.2-0.7-2.2-2.4v-4.2h1.7v4c0,1,0.6,1.2,1.1,1.2
		c0.6,0,1.3-0.3,1.3-1.5v-3.7h1.7V181z"/>
	<path d="M208.3,174.6h1v1.2h-1v3.5c0,0.4,0,0.5,0.7,0.5c0.1,0,0.2,0,0.3,0v1.3c-0.3,0-0.5,0-0.8,0h-0.2c-1.5,0-1.7-0.6-1.7-1.4
		v-3.9h-0.9v-1.2h0.9v-1.7h1.7V174.6z"/>
	<path d="M215.9,179.1c-0.4,1.5-1.7,2-2.8,2c-1.8,0-3.2-0.9-3.2-3.5c0-0.8,0.3-3.2,3.1-3.2c1.3,0,3,0.6,3,3.5v0.3h-4.4
		c0,0.5,0.1,1.6,1.5,1.6c0.5,0,0.9-0.2,1.1-0.7H215.9z M214.2,177.2c-0.1-1-0.8-1.3-1.3-1.3c-0.8,0-1.2,0.5-1.3,1.3H214.2z"/>
	<path d="M222.8,181h-1.7v-3.9c0-0.5,0-1.3-1.1-1.3c-0.7,0-1.3,0.5-1.3,1.5v3.7H217v-6.4h1.6v0.9h0c0.2-0.4,0.7-1.1,1.9-1.1
		c1.2,0,2.2,0.7,2.2,2.1V181z"/>
	<path d="M226.3,174.6h1v1.2h-1v3.5c0,0.4,0,0.5,0.7,0.5c0.1,0,0.2,0,0.3,0v1.3c-0.3,0-0.5,0-0.8,0h-0.2c-1.5,0-1.7-0.6-1.7-1.4
		v-3.9h-0.9v-1.2h0.9v-1.7h1.7V174.6z"/>
	<path d="M230.1,173.9h-1.7v-1.6h1.7V173.9z M230.1,174.6v6.4h-1.7v-6.4H230.1z"/>
	<path d="M237.2,178.7c-0.1,0.7-0.6,2.5-2.9,2.5c-2.4,0-3-1.8-3-3.2c0-2.1,0.9-3.5,3.1-3.5c1,0,2.7,0.5,2.8,2.4h-1.7
		c-0.1-0.4-0.3-1.1-1.1-1c-1.1,0-1.3,1.1-1.3,1.8c0,0.7,0,2.1,1.3,2.1c0.9,0,1.1-0.8,1.1-1.1H237.2z"/>
	<path d="M243.5,179.8c0,0.8,0.2,0.9,0.4,1v0.3h-1.8c-0.1-0.3-0.1-0.4-0.2-0.8c-0.4,0.4-0.9,0.9-2.1,0.9c-1,0-1.9-0.5-1.9-1.9
		c0-1.2,0.8-1.9,1.9-2l1.5-0.2c0.3,0,0.6-0.1,0.6-0.5c0-0.7-0.7-0.7-1.1-0.7c-0.8,0-1,0.5-1,0.9h-1.6c0.2-2,1.5-2.2,2.9-2.2
		c0.9,0,2.5,0.3,2.5,1.8V179.8z M241.9,177.9c-0.2,0.1-0.4,0.2-1.1,0.3c-0.6,0.1-1.1,0.3-1.1,1c0,0.6,0.5,0.8,0.8,0.8
		c0.7,0,1.5-0.5,1.5-1.3V177.9z"/>
	<path d="M246.9,174.6h1v1.2h-1v3.5c0,0.4,0,0.5,0.7,0.5c0.1,0,0.2,0,0.3,0v1.3c-0.3,0-0.5,0-0.8,0H247c-1.5,0-1.7-0.6-1.7-1.4v-3.9
		h-0.9v-1.2h0.9v-1.7h1.7V174.6z"/>
	<path d="M250.8,173.9h-1.7v-1.6h1.7V173.9z M250.8,174.6v6.4h-1.7v-6.4H250.8z"/>
	<path d="M261.5,181h-1.6v-0.9h0c-0.4,0.7-1.1,1.1-1.9,1.1c-1.3,0-2.2-0.7-2.2-2.4v-4.2h1.7v4c0,1,0.6,1.2,1.1,1.2
		c0.6,0,1.3-0.3,1.3-1.5v-3.7h1.7V181z"/>
	<path d="M266.7,176.6c-0.1-0.4-0.2-0.8-1.1-0.8c-0.9,0-1,0.3-1,0.6c0,1,4,0.3,4,2.6c0,1.9-1.8,2.2-2.8,2.2c-1.5,0-3-0.5-3.1-2.2
		h1.7c0,0.5,0.3,0.9,1.4,0.9c0.9,0,1.1-0.4,1.1-0.7c0-1.1-4-0.3-4-2.7c0-0.9,0.6-2.1,2.6-2.1c1.2,0,2.7,0.3,2.9,2.1H266.7z"/>
	<path d="M274.9,179.8c0,0.8,0.2,0.9,0.4,1v0.3h-1.8c-0.1-0.3-0.1-0.4-0.2-0.8c-0.4,0.4-0.9,0.9-2.1,0.9c-1,0-1.9-0.5-1.9-1.9
		c0-1.2,0.8-1.9,1.9-2l1.5-0.2c0.3,0,0.6-0.1,0.6-0.5c0-0.7-0.7-0.7-1.1-0.7c-0.8,0-1,0.5-1,0.9h-1.6c0.2-2,1.5-2.2,2.9-2.2
		c0.9,0,2.5,0.3,2.5,1.8V179.8z M273.2,177.9c-0.2,0.1-0.4,0.2-1.1,0.3c-0.6,0.1-1.1,0.3-1.1,1c0,0.6,0.5,0.8,0.8,0.8
		c0.7,0,1.5-0.5,1.5-1.3V177.9z"/>
	<path d="M282.2,181h-1.7v-3.9c0-0.5,0-1.3-1.1-1.3c-0.7,0-1.3,0.5-1.3,1.5v3.7h-1.7v-6.4h1.6v0.9h0c0.2-0.4,0.7-1.1,1.9-1.1
		c1.2,0,2.2,0.7,2.2,2.1V181z"/>
	<path d="M286.6,181.2c-1.7,0-3.3-1.1-3.3-3.4s1.5-3.4,3.3-3.4c1.7,0,3.3,1.1,3.3,3.4S288.3,181.2,286.6,181.2z M286.6,175.9
		c-1.3,0-1.5,1.1-1.5,1.9s0.2,1.9,1.5,1.9c1.3,0,1.5-1.1,1.5-1.9S287.9,175.9,286.6,175.9z"/>
	<path d="M292.8,181H291v-1.8h1.8V181z"/>
	<path d="M296.2,181h-1.8v-1.8h1.8V181z"/>
	<path d="M299.5,181h-1.8v-1.8h1.8V181z"/>
</g>
<path pointer-events="all" class="st5" d="M212.5,2.5h120v50h-40l-20,30v-30h-60V2.5z"/>
<g transform="translate(-0.5 -0.5)">
	<g class="st3">
		<path class="st0" d="M232.4,26.5h-1.9l3.1-8.6h2.1l3,8.6h-2l-0.6-1.8H233L232.4,26.5z M233.5,23.2h2.2l-1.1-3.4h0L233.5,23.2z"/>
		<path class="st0" d="M245.1,26.5h-1.6v-0.9h0c-0.4,0.7-1.1,1.1-1.9,1.1c-1.3,0-2.2-0.7-2.2-2.4v-4.2h1.7v4c0,1,0.6,1.2,1.1,1.2
			c0.6,0,1.3-0.3,1.3-1.5v-3.7h1.7V26.5z"/>
		<path class="st0" d="M248.6,20.1h1v1.2h-1v3.5c0,0.4,0,0.5,0.7,0.5c0.1,0,0.2,0,0.3,0v1.3c-0.3,0-0.5,0-0.8,0h-0.2
			c-1.5,0-1.7-0.6-1.7-1.4v-3.9H246v-1.2h0.9v-1.7h1.7V20.1z"/>
		<path class="st0" d="M253.6,26.7c-1.7,0-3.3-1.1-3.3-3.4s1.5-3.4,3.3-3.4c1.7,0,3.3,1.1,3.3,3.4S255.3,26.7,253.6,26.7z
			 M253.6,21.4c-1.3,0-1.5,1.1-1.5,1.9s0.2,1.9,1.5,1.9s1.5-1.1,1.5-1.9S254.9,21.4,253.6,21.4z"/>
		<path class="st0" d="M258,20.1h1.6v1.1h0c0.3-0.6,0.7-1.3,1.8-1.3c0.1,0,0.2,0,0.3,0v1.7c-0.1,0-0.3,0-0.5,0
			c-1.3,0-1.5,0.8-1.5,1.5v3.3H258V20.1z"/>
		<path class="st0" d="M264.4,19.4h-1.7v-1.6h1.7V19.4z M264.4,20.1v6.4h-1.7v-6.4H264.4z"/>
		<path class="st0" d="M267.6,25.1h3.3v1.4h-5.5v-1.3l3.3-3.7h-3v-1.3h5.2v1.4L267.6,25.1z"/>
		<path class="st0" d="M273.6,25.1h3.3v1.4h-5.5v-1.3l3.3-3.7h-3v-1.3h5.2v1.4L273.6,25.1z"/>
		<path class="st0" d="M283.2,25.3c0,0.8,0.2,0.9,0.4,1v0.3h-1.8c-0.1-0.3-0.1-0.4-0.2-0.8c-0.4,0.4-0.9,0.9-2.1,0.9
			c-1,0-1.9-0.5-1.9-1.9c0-1.2,0.8-1.9,1.9-2l1.5-0.2c0.3,0,0.6-0.1,0.6-0.5c0-0.7-0.7-0.7-1.1-0.7c-0.8,0-1,0.5-1,0.9h-1.6
			c0.2-2,1.5-2.2,2.9-2.2c0.9,0,2.5,0.3,2.5,1.8V25.3z M281.5,23.4c-0.2,0.1-0.4,0.2-1.1,0.3c-0.6,0.1-1.1,0.3-1.1,1
			c0,0.6,0.5,0.8,0.8,0.8c0.7,0,1.5-0.5,1.5-1.3V23.4z"/>
		<path class="st0" d="M286.3,25.1h3.3v1.4h-5.5v-1.3l3.3-3.7h-3v-1.3h5.2v1.4L286.3,25.1z"/>
		<path class="st0" d="M292.4,19.4h-1.7v-1.6h1.7V19.4z M292.4,20.1v6.4h-1.7v-6.4H292.4z"/>
		<path class="st0" d="M296.9,26.7c-1.7,0-3.3-1.1-3.3-3.4s1.5-3.4,3.3-3.4c1.7,0,3.3,1.1,3.3,3.4S298.6,26.7,296.9,26.7z
			 M296.9,21.4c-1.3,0-1.5,1.1-1.5,1.9s0.2,1.9,1.5,1.9c1.3,0,1.5-1.1,1.5-1.9S298.2,21.4,296.9,21.4z"/>
		<path class="st0" d="M307.1,26.5h-1.7v-3.9c0-0.5,0-1.3-1.1-1.3c-0.7,0-1.3,0.5-1.3,1.5v3.7h-1.7v-6.4h1.6v0.9h0
			c0.2-0.4,0.7-1.1,1.9-1.1c1.2,0,2.2,0.7,2.2,2.1V26.5z"/>
		<path class="st0" d="M310.4,19.4h-1.7v-1.6h1.7V19.4z M310.4,20.1v6.4h-1.7v-6.4H310.4z"/>
		<path class="st0" d="M222.7,35.5H221v-1.2c0-1.5,1-1.9,1.6-2.1v0.6c-0.8,0.3-0.9,0.7-0.9,1.1h0.9V35.5z M225.4,35.5h-1.7v-1.2
			c0-1.5,1-1.9,1.6-2.1v0.6c-0.8,0.3-0.9,0.7-0.9,1.1h0.9V35.5z"/>
		<path class="st0" d="M228.9,40.9h-1.8v-8.6h3.9c1.7,0,2.7,1.1,2.7,2.8c0,0.8-0.4,2.7-2.7,2.7h-2.1V40.9z M230.6,36.3
			c1.3,0,1.3-1,1.3-1.3c0-0.8-0.5-1.2-1.6-1.2h-1.4v2.5H230.6z"/>
		<path class="st0" d="M240.8,40.9h-1.6V40h0c-0.4,0.7-1.1,1.1-1.9,1.1c-1.3,0-2.2-0.7-2.2-2.4v-4.2h1.7v4c0,1,0.6,1.2,1.1,1.2
			c0.6,0,1.3-0.3,1.3-1.5v-3.7h1.7V40.9z"/>
		<path class="st0" d="M245.2,41.1c-1.7,0-3.3-1.1-3.3-3.4s1.5-3.4,3.3-3.4c1.7,0,3.3,1.1,3.3,3.4S246.9,41.1,245.2,41.1z
			 M242.9,31.9h1.8l1.1,1.8h-1.2L242.9,31.9z M245.2,35.8c-1.3,0-1.5,1.1-1.5,1.9s0.2,1.9,1.5,1.9s1.5-1.1,1.5-1.9
			S246.5,35.8,245.2,35.8z"/>
		<path class="st0" d="M256.4,40.9h-1.8l-2.3-6.4h1.9l1.3,4.7h0l1.4-4.7h1.8L256.4,40.9z"/>
		<path class="st0" d="M261.4,33.8h-1.7v-1.6h1.7V33.8z M261.4,34.5v6.4h-1.7v-6.4H261.4z"/>
		<path class="st0" d="M266.6,36.5c-0.1-0.4-0.2-0.8-1.1-0.8c-0.9,0-1,0.3-1,0.6c0,1,4,0.3,4,2.6c0,1.9-1.8,2.2-2.8,2.2
			c-1.5,0-3-0.5-3.1-2.2h1.7c0,0.5,0.3,0.9,1.4,0.9c0.9,0,1.1-0.4,1.1-0.7c0-1.1-4-0.3-4-2.7c0-0.9,0.6-2.1,2.6-2.1
			c1.2,0,2.7,0.3,2.9,2.1H266.6z"/>
		<path class="st0" d="M275.4,40.9h-1.6V40h0c-0.4,0.7-1.1,1.1-1.9,1.1c-1.3,0-2.2-0.7-2.2-2.4v-4.2h1.7v4c0,1,0.6,1.2,1.1,1.2
			c0.6,0,1.3-0.3,1.3-1.5v-3.7h1.7V40.9z"/>
		<path class="st0" d="M282.2,39.7c0,0.8,0.2,0.9,0.4,1v0.3h-1.8c-0.1-0.3-0.1-0.4-0.2-0.8c-0.4,0.4-0.9,0.9-2.1,0.9
			c-1,0-1.9-0.5-1.9-1.9c0-1.2,0.8-1.9,1.9-2l1.5-0.2c0.3,0,0.6-0.1,0.6-0.5c0-0.7-0.7-0.7-1.1-0.7c-0.8,0-1,0.5-1,0.9h-1.6
			c0.2-2,1.5-2.2,2.9-2.2c0.9,0,2.5,0.3,2.5,1.8V39.7z M280.5,37.8c-0.2,0.1-0.4,0.2-1.1,0.3c-0.6,0.1-1.1,0.3-1.1,1
			c0,0.6,0.5,0.8,0.8,0.8c0.7,0,1.5-0.5,1.5-1.3V37.8z"/>
		<path class="st0" d="M285.4,40.9h-1.7v-8.6h1.7V40.9z"/>
		<path class="st0" d="M288.7,33.8h-1.7v-1.6h1.7V33.8z M288.7,34.5v6.4h-1.7v-6.4H288.7z"/>
		<path class="st0" d="M292,39.5h3.3v1.4h-5.5v-1.3l3.3-3.7h-3v-1.3h5.2v1.4L292,39.5z"/>
		<path class="st0" d="M298,39.5h3.3v1.4h-5.5v-1.3l3.3-3.7h-3v-1.3h5.2v1.4L298,39.5z"/>
		<path class="st0" d="M307.5,39.7c0,0.8,0.2,0.9,0.4,1v0.3h-1.8c-0.1-0.3-0.1-0.4-0.2-0.8c-0.4,0.4-0.9,0.9-2.1,0.9
			c-1,0-1.9-0.5-1.9-1.9c0-1.2,0.8-1.9,1.9-2l1.5-0.2c0.3,0,0.6-0.1,0.6-0.5c0-0.7-0.7-0.7-1.1-0.7c-0.8,0-1,0.5-1,0.9h-1.6
			c0.2-2,1.5-2.2,2.9-2.2c0.9,0,2.5,0.3,2.5,1.8V39.7z M305.9,37.8c-0.2,0.1-0.4,0.2-1.1,0.3c-0.6,0.1-1.1,0.3-1.1,1
			c0,0.6,0.5,0.8,0.8,0.8c0.7,0,1.5-0.5,1.5-1.3V37.8z"/>
		<path class="st0" d="M309,34.5h1.6v1.1h0c0.3-0.6,0.7-1.3,1.8-1.3c0.1,0,0.2,0,0.3,0v1.7c-0.1,0-0.3,0-0.5,0
			c-1.3,0-1.5,0.8-1.5,1.5v3.3H309V34.5z"/>
		<path class="st0" d="M319.2,39c-0.4,1.5-1.7,2-2.8,2c-1.8,0-3.2-0.9-3.2-3.5c0-0.8,0.3-3.2,3.1-3.2c1.3,0,3,0.6,3,3.5v0.3h-4.4
			c0,0.5,0.1,1.6,1.5,1.6c0.5,0,0.9-0.2,1.1-0.7H319.2z M317.5,37.1c-0.1-1-0.8-1.3-1.3-1.3c-0.8,0-1.2,0.5-1.3,1.3H317.5z"/>
		<path class="st0" d="M320.4,32.3h1.7v1.2c0,1.5-1,1.9-1.6,2.1V35c0.8-0.3,0.9-0.7,0.9-1.1h-0.9V32.3z M323.1,32.3h1.7v1.2
			c0,1.5-1,1.9-1.6,2.1V35c0.8-0.3,0.9-0.7,0.9-1.1h-0.9V32.3z"/>
	</g>
</g>
<path pointer-events="all" class="st6" d="M394.5,102.5h120v50h-40l-20,30v-30h-60V102.5z"/>
<g transform="translate(-0.5 -0.5)">
	<g class="st3">
		<path class="st0" d="M414.6,125.5h-1.9l3.1-8.6h2.1l3,8.6h-2l-0.6-1.8h-3.2L414.6,125.5z M415.7,122.2h2.2l-1.1-3.4h0L415.7,122.2
			z"/>
		<path class="st0" d="M427.4,125.5h-1.6v-0.9h0c-0.4,0.7-1.1,1.1-1.9,1.1c-1.3,0-2.2-0.7-2.2-2.4v-4.2h1.7v4c0,1,0.6,1.2,1.1,1.2
			c0.6,0,1.3-0.3,1.3-1.5v-3.7h1.7V125.5z"/>
		<path class="st0" d="M430.8,119.1h1v1.2h-1v3.5c0,0.4,0,0.5,0.7,0.5c0.1,0,0.2,0,0.3,0v1.3c-0.3,0-0.5,0-0.8,0h-0.2
			c-1.5,0-1.7-0.6-1.7-1.4v-3.9h-0.9v-1.2h0.9v-1.7h1.7V119.1z"/>
		<path class="st0" d="M435.8,125.7c-1.7,0-3.3-1.1-3.3-3.4s1.5-3.4,3.3-3.4c1.7,0,3.3,1.1,3.3,3.4S437.5,125.7,435.8,125.7z
			 M435.8,120.4c-1.3,0-1.5,1.1-1.5,1.9s0.2,1.9,1.5,1.9c1.3,0,1.5-1.1,1.5-1.9S437.1,120.4,435.8,120.4z"/>
		<path class="st0" d="M440.2,119.1h1.6v1.1h0c0.3-0.6,0.7-1.3,1.8-1.3c0.1,0,0.2,0,0.3,0v1.7c-0.1,0-0.3,0-0.5,0
			c-1.3,0-1.5,0.8-1.5,1.5v3.3h-1.7V119.1z"/>
		<path class="st0" d="M446.7,118.4H445v-1.6h1.7V118.4z M446.7,119.1v6.4H445v-6.4H446.7z"/>
		<path class="st0" d="M449.9,124.1h3.3v1.4h-5.5v-1.3l3.3-3.7h-3v-1.3h5.2v1.4L449.9,124.1z"/>
		<path class="st0" d="M455.9,124.1h3.3v1.4h-5.5v-1.3l3.3-3.7h-3v-1.3h5.2v1.4L455.9,124.1z"/>
		<path class="st0" d="M465.4,124.3c0,0.8,0.2,0.9,0.4,1v0.3H464c-0.1-0.3-0.1-0.4-0.2-0.8c-0.4,0.4-0.9,0.9-2.1,0.9
			c-1,0-1.9-0.5-1.9-1.9c0-1.2,0.8-1.9,1.9-2l1.5-0.2c0.3,0,0.6-0.1,0.6-0.5c0-0.7-0.7-0.7-1.1-0.7c-0.8,0-1,0.5-1,0.9H460
			c0.2-2,1.5-2.2,2.9-2.2c0.9,0,2.5,0.3,2.5,1.8V124.3z M463.8,122.4c-0.2,0.1-0.4,0.2-1.1,0.3c-0.6,0.1-1.1,0.3-1.1,1
			c0,0.6,0.5,0.8,0.8,0.8c0.7,0,1.5-0.5,1.5-1.3V122.4z"/>
		<path class="st0" d="M468.6,124.1h3.3v1.4h-5.5v-1.3l3.3-3.7h-3v-1.3h5.2v1.4L468.6,124.1z"/>
		<path class="st0" d="M474.7,118.4H473v-1.6h1.7V118.4z M474.7,119.1v6.4H473v-6.4H474.7z"/>
		<path class="st0" d="M479.2,125.7c-1.7,0-3.3-1.1-3.3-3.4s1.5-3.4,3.3-3.4c1.7,0,3.3,1.1,3.3,3.4S480.9,125.7,479.2,125.7z
			 M479.2,120.4c-1.3,0-1.5,1.1-1.5,1.9s0.2,1.9,1.5,1.9c1.3,0,1.5-1.1,1.5-1.9S480.5,120.4,479.2,120.4z"/>
		<path class="st0" d="M489.4,125.5h-1.7v-3.9c0-0.5,0-1.3-1.1-1.3c-0.7,0-1.3,0.5-1.3,1.5v3.7h-1.7v-6.4h1.6v0.9h0
			c0.2-0.4,0.7-1.1,1.9-1.1c1.2,0,2.2,0.7,2.2,2.1V125.5z"/>
		<path class="st0" d="M492.7,118.4H491v-1.6h1.7V118.4z M492.7,119.1v6.4H491v-6.4H492.7z"/>
		<path class="st0" d="M408.3,134.5h-1.7v-1.2c0-1.5,1-1.9,1.6-2.1v0.6c-0.8,0.3-0.9,0.7-0.9,1.1h0.9V134.5z M411,134.5h-1.7v-1.2
			c0-1.5,1-1.9,1.6-2.1v0.6c-0.8,0.3-0.9,0.7-0.9,1.1h0.9V134.5z"/>
		<path class="st0" d="M414.5,139.9h-1.8v-8.6h3.9c1.7,0,2.7,1.1,2.7,2.8c0,0.8-0.4,2.7-2.7,2.7h-2.1V139.9z M416.2,135.3
			c1.3,0,1.3-1,1.3-1.3c0-0.8-0.5-1.2-1.6-1.2h-1.4v2.5H416.2z"/>
		<path class="st0" d="M426.3,139.9h-1.6V139h0c-0.4,0.7-1.1,1.1-1.9,1.1c-1.3,0-2.2-0.7-2.2-2.4v-4.2h1.7v4c0,1,0.6,1.2,1.1,1.2
			c0.6,0,1.3-0.3,1.3-1.5v-3.7h1.7V139.9z"/>
		<path class="st0" d="M430.8,140.1c-1.7,0-3.3-1.1-3.3-3.4s1.5-3.4,3.3-3.4c1.7,0,3.3,1.1,3.3,3.4S432.5,140.1,430.8,140.1z
			 M428.5,130.9h1.8l1.1,1.8h-1.2L428.5,130.9z M430.8,134.8c-1.3,0-1.5,1.1-1.5,1.9s0.2,1.9,1.5,1.9c1.3,0,1.5-1.1,1.5-1.9
			S432.1,134.8,430.8,134.8z"/>
		<path class="st0" d="M447.7,139.9H446V136c0-0.9-0.4-1.3-0.9-1.3c-0.8,0-1.1,0.6-1.1,1.3v3.8h-1.7v-3.8c0-0.5,0-1.3-1-1.3
			c-0.8,0-1,0.6-1,1.2v3.9h-1.7v-6.4h1.6v0.9h0c0.2-0.4,0.7-1.1,1.8-1.1c0.9,0,1.3,0.3,1.8,1c0.2-0.3,0.7-1,1.7-1
			c1.2,0,2.2,0.7,2.2,2.1V139.9z"/>
		<path class="st0" d="M452.1,140.1c-1.7,0-3.3-1.1-3.3-3.4s1.5-3.4,3.3-3.4s3.3,1.1,3.3,3.4S453.9,140.1,452.1,140.1z M452.1,134.8
			c-1.3,0-1.5,1.1-1.5,1.9s0.2,1.9,1.5,1.9c1.3,0,1.5-1.1,1.5-1.9S453.4,134.8,452.1,134.8z"/>
		<path class="st0" d="M462.4,139.9h-1.6v-0.8h0c-0.4,0.7-1.2,1-1.8,1c-1.9,0-2.7-1.7-2.7-3.4c0-2.2,1.2-3.3,2.7-3.3
			c1.1,0,1.6,0.6,1.8,1h0v-3.1h1.7V139.9z M459.3,138.7c1.1,0,1.5-0.9,1.5-1.8c0-1-0.3-2.1-1.4-2.1c-1.1,0-1.4,0.9-1.4,2
			C457.9,137.5,458.2,138.7,459.3,138.7z"/>
		<path class="st0" d="M465.6,132.8H464v-1.6h1.7V132.8z M465.6,133.5v6.4H464v-6.4H465.6z"/>
		<path class="st0" d="M469.2,139.9h-1.7v-5.2h-0.9v-1.2h0.9V133c0-1.3,0.7-1.8,1.9-1.8c0.5,0,0.7,0,0.9,0v1.4h-0.5
			c-0.6,0-0.6,0.2-0.6,0.7v0.3h1.1v1.2h-1.1V139.9z"/>
		<path class="st0" d="M473,132.8h-1.7v-1.6h1.7V132.8z M473,133.5v6.4h-1.7v-6.4H473z"/>
		<path class="st0" d="M480.1,137.6c-0.1,0.7-0.6,2.5-2.9,2.5c-2.4,0-3-1.8-3-3.2c0-2.1,0.9-3.5,3.1-3.5c1,0,2.7,0.5,2.8,2.4h-1.7
			c-0.1-0.4-0.3-1.1-1.1-1c-1.1,0-1.3,1.1-1.3,1.8c0,0.7,0,2.1,1.3,2.1c0.9,0,1.1-0.8,1.1-1.1H480.1z"/>
		<path class="st0" d="M486.4,138.7c0,0.8,0.2,0.9,0.4,1v0.3H485c-0.1-0.3-0.1-0.4-0.2-0.8c-0.4,0.4-0.9,0.9-2.1,0.9
			c-1,0-1.9-0.5-1.9-1.9c0-1.2,0.8-1.9,1.9-2l1.5-0.2c0.3,0,0.6-0.1,0.6-0.5c0-0.7-0.7-0.7-1.1-0.7c-0.8,0-1,0.5-1,0.9H481
			c0.2-2,1.5-2.2,2.9-2.2c0.9,0,2.5,0.3,2.5,1.8V138.7z M484.8,136.8c-0.2,0.1-0.4,0.2-1.1,0.3c-0.6,0.1-1.1,0.3-1.1,1
			c0,0.6,0.5,0.8,0.8,0.8c0.7,0,1.5-0.5,1.5-1.3V136.8z"/>
		<path class="st0" d="M487.9,133.5h1.6v1.1h0c0.3-0.6,0.7-1.3,1.8-1.3c0.1,0,0.2,0,0.3,0v1.7c-0.1,0-0.3,0-0.5,0
			c-1.3,0-1.5,0.8-1.5,1.5v3.3h-1.7V133.5z"/>
		<path class="st0" d="M498.1,138c-0.4,1.5-1.7,2-2.8,2c-1.8,0-3.2-0.9-3.2-3.5c0-0.8,0.3-3.2,3.1-3.2c1.3,0,3,0.6,3,3.5v0.3h-4.4
			c0,0.5,0.1,1.6,1.5,1.6c0.5,0,0.9-0.2,1.1-0.7H498.1z M496.4,136.1c-0.1-1-0.8-1.3-1.3-1.3c-0.8,0-1.2,0.5-1.3,1.3H496.4z"/>
		<path class="st0" d="M499.3,131.3h1.7v1.2c0,1.5-1,1.9-1.6,2.1V134c0.8-0.3,0.9-0.7,0.9-1.1h-0.9V131.3z M502,131.3h1.7v1.2
			c0,1.5-1,1.9-1.6,2.1V134c0.8-0.3,0.9-0.7,0.9-1.1H502V131.3z"/>
	</g>
</g>
<g transform="translate(-0.5 -0.5)">
	<g>
		<g class="st3">
			<path d="M5.4,344.9h4.4c2.3,0,2.7,1.7,2.7,2.4c0,0.9-0.5,1.8-1.3,2.1c0.7,0.3,1.1,0.6,1.1,2.2c0,1.3,0,1.6,0.4,1.7v0.2h-2
				c-0.1-0.4-0.2-0.9-0.2-1.7c0-1.2-0.1-1.6-1.4-1.6H7.2v3.4H5.4V344.9z M9.3,348.7c0.9,0,1.4-0.3,1.4-1.2c0-0.5-0.2-1.1-1.3-1.1
				H7.2v2.3H9.3z"/>
			<path d="M15.7,346.4H14v-1.6h1.7V346.4z M15.7,347.1v6.4H14v-6.4H15.7z"/>
			<path d="M20.9,349.1c-0.1-0.4-0.2-0.8-1.1-0.8s-1,0.3-1,0.6c0,1,4,0.3,4,2.6c0,1.9-1.8,2.2-2.8,2.2c-1.5,0-3-0.5-3.1-2.2h1.7
				c0,0.5,0.3,0.9,1.4,0.9c0.9,0,1.1-0.4,1.1-0.7c0-1.1-4-0.3-4-2.7c0-0.9,0.6-2.1,2.6-2.1c1.2,0,2.7,0.3,2.9,2.1H20.9z"/>
			<path d="M29.7,353.5h-1.6v-0.9h0c-0.4,0.7-1.1,1.1-1.9,1.1c-1.3,0-2.2-0.7-2.2-2.4v-4.2h1.7v4c0,1,0.6,1.2,1.1,1.2
				c0.6,0,1.3-0.3,1.3-1.5v-3.7h1.7V353.5z"/>
			<path d="M33,353.5h-1.7v-8.6H33V353.5z"/>
			<path d="M36.5,347.1h1v1.2h-1v3.5c0,0.4,0,0.5,0.7,0.5c0.1,0,0.2,0,0.3,0v1.3c-0.3,0-0.5,0-0.8,0h-0.2c-1.5,0-1.7-0.6-1.7-1.4
				v-3.9H34v-1.2h0.9v-1.7h1.7V347.1z"/>
			<path d="M43.8,352.3c0,0.8,0.2,0.9,0.4,1v0.3h-1.8c-0.1-0.3-0.1-0.4-0.2-0.8c-0.4,0.4-0.9,0.9-2.1,0.9c-1,0-1.9-0.5-1.9-1.9
				c0-1.2,0.8-1.9,1.9-2l1.5-0.2c0.3,0,0.6-0.1,0.6-0.5c0-0.7-0.7-0.7-1.1-0.7c-0.8,0-1,0.5-1,0.9h-1.6c0.2-2,1.5-2.2,2.9-2.2
				c0.9,0,2.5,0.3,2.5,1.8V352.3z M42.1,350.4c-0.2,0.1-0.4,0.2-1.1,0.3c-0.6,0.1-1.1,0.3-1.1,1c0,0.6,0.5,0.8,0.8,0.8
				c0.7,0,1.5-0.5,1.5-1.3V350.4z"/>
			<path d="M47.2,347.1h1v1.2h-1v3.5c0,0.4,0,0.5,0.7,0.5c0.1,0,0.2,0,0.3,0v1.3c-0.3,0-0.5,0-0.8,0h-0.2c-1.5,0-1.7-0.6-1.7-1.4
				v-3.9h-0.9v-1.2h0.9v-1.7h1.7V347.1z"/>
			<path d="M52.2,353.7c-1.7,0-3.3-1.1-3.3-3.4s1.5-3.4,3.3-3.4c1.7,0,3.3,1.1,3.3,3.4S53.9,353.7,52.2,353.7z M52.2,348.4
				c-1.3,0-1.5,1.1-1.5,1.9s0.2,1.9,1.5,1.9s1.5-1.1,1.5-1.9S53.5,348.4,52.2,348.4z"/>
			<path d="M58.7,349.1h-1.8v-1.8h1.8V349.1z M58.7,353.5h-1.8v-1.8h1.8V353.5z"/>
			<path d="M65.4,347.1h1v1.2h-1v3.5c0,0.4,0,0.5,0.7,0.5c0.1,0,0.2,0,0.3,0v1.3c-0.3,0-0.5,0-0.8,0h-0.2c-1.5,0-1.7-0.6-1.7-1.4
				v-3.9h-0.9v-1.2h0.9v-1.7h1.7V347.1z"/>
			<path d="M73.2,353.5h-1.6v-0.9h0c-0.4,0.7-1.1,1.1-1.9,1.1c-1.3,0-2.2-0.7-2.2-2.4v-4.2h1.7v4c0,1,0.6,1.2,1.1,1.2
				c0.6,0,1.3-0.3,1.3-1.5v-3.7h1.7V353.5z"/>
			<path d="M76.7,347.1h1v1.2h-1v3.5c0,0.4,0,0.5,0.7,0.5c0.1,0,0.2,0,0.3,0v1.3c-0.3,0-0.5,0-0.8,0h-0.2c-1.5,0-1.7-0.6-1.7-1.4
				v-3.9h-0.9v-1.2H75v-1.7h1.7V347.1z"/>
			<path d="M80.7,347.1h1v1.2h-1v3.5c0,0.4,0,0.5,0.7,0.5c0.1,0,0.2,0,0.3,0v1.3c-0.3,0-0.5,0-0.8,0h-0.2c-1.5,0-1.7-0.6-1.7-1.4
				v-3.9h-0.9v-1.2H79v-1.7h1.7V347.1z"/>
			<path d="M84.5,346.4h-1.7v-1.6h1.7V346.4z M84.5,347.1v6.4h-1.7v-6.4H84.5z"/>
			<path d="M95.3,347.1v6c0,1.1-0.1,2.9-3.2,2.9c-1.3,0-2.7-0.6-2.8-1.9h1.8c0.1,0.3,0.2,0.6,1.2,0.6c0.9,0,1.3-0.4,1.3-1.5v-0.8
				l0,0c-0.3,0.5-0.7,1-1.7,1c-1.5,0-2.7-1.1-2.7-3.3c0-2.2,1.2-3.3,2.7-3.3c1.2,0,1.7,0.7,1.9,1.1h0v-0.9H95.3z M92.2,352.1
				c1.1,0,1.4-1,1.4-1.8c0-1-0.5-1.9-1.4-1.9c-0.6,0-1.3,0.5-1.3,1.9C90.9,351.2,91.2,352.1,92.2,352.1z"/>
			<path d="M98.5,353.5h-1.7v-8.6h1.7V353.5z"/>
			<path d="M101.9,346.4h-1.7v-1.6h1.7V346.4z M101.9,347.1v6.4h-1.7v-6.4H101.9z"/>
			<path d="M112.6,353.5h-1.6v-0.9h0c-0.4,0.7-1.1,1.1-1.9,1.1c-1.3,0-2.2-0.7-2.2-2.4v-4.2h1.7v4c0,1,0.6,1.2,1.1,1.2
				c0.6,0,1.3-0.3,1.3-1.5v-3.7h1.7V353.5z"/>
			<path d="M116,347.1h1v1.2h-1v3.5c0,0.4,0,0.5,0.7,0.5c0.1,0,0.2,0,0.3,0v1.3c-0.3,0-0.5,0-0.8,0h-0.2c-1.5,0-1.7-0.6-1.7-1.4
				v-3.9h-0.9v-1.2h0.9v-1.7h1.7V347.1z"/>
			<path d="M123.6,351.6c-0.4,1.5-1.7,2-2.8,2c-1.8,0-3.2-0.9-3.2-3.5c0-0.8,0.3-3.2,3.1-3.2c1.3,0,3,0.6,3,3.5v0.3h-4.4
				c0,0.5,0.1,1.6,1.5,1.6c0.5,0,0.9-0.2,1.1-0.7H123.6z M122,349.7c-0.1-1-0.8-1.3-1.3-1.3c-0.8,0-1.2,0.5-1.3,1.3H122z"/>
			<path d="M130.6,353.5h-1.7v-3.9c0-0.5,0-1.3-1.1-1.3c-0.7,0-1.3,0.5-1.3,1.5v3.7h-1.7v-6.4h1.6v0.9h0c0.2-0.4,0.7-1.1,1.9-1.1
				c1.2,0,2.2,0.7,2.2,2.1V353.5z"/>
			<path d="M134,347.1h1v1.2h-1v3.5c0,0.4,0,0.5,0.7,0.5c0.1,0,0.2,0,0.3,0v1.3c-0.3,0-0.5,0-0.8,0h-0.2c-1.5,0-1.7-0.6-1.7-1.4
				v-3.9h-0.9v-1.2h0.9v-1.7h1.7V347.1z"/>
			<path d="M137.9,346.4h-1.7v-1.6h1.7V346.4z M137.9,347.1v6.4h-1.7v-6.4H137.9z"/>
			<path d="M148,352.3c0,0.8,0.2,0.9,0.4,1v0.3h-1.8c-0.1-0.3-0.1-0.4-0.2-0.8c-0.4,0.4-0.9,0.9-2.1,0.9c-1,0-1.9-0.5-1.9-1.9
				c0-1.2,0.8-1.9,1.9-2l1.5-0.2c0.3,0,0.6-0.1,0.6-0.5c0-0.7-0.7-0.7-1.1-0.7c-0.8,0-1,0.5-1,0.9h-1.6c0.2-2,1.5-2.2,2.9-2.2
				c0.9,0,2.5,0.3,2.5,1.8V352.3z M146.3,350.4c-0.2,0.1-0.4,0.2-1.1,0.3c-0.6,0.1-1.1,0.3-1.1,1c0,0.6,0.5,0.8,0.8,0.8
				c0.7,0,1.5-0.5,1.5-1.3V350.4z"/>
			<path d="M155.2,353.5h-1.6v-0.9h0c-0.4,0.7-1.1,1.1-1.9,1.1c-1.3,0-2.2-0.7-2.2-2.4v-4.2h1.7v4c0,1,0.6,1.2,1.1,1.2
				c0.6,0,1.3-0.3,1.3-1.5v-3.7h1.7V353.5z"/>
			<path d="M158.7,347.1h1v1.2h-1v3.5c0,0.4,0,0.5,0.7,0.5c0.1,0,0.2,0,0.3,0v1.3c-0.3,0-0.5,0-0.8,0h-0.2c-1.5,0-1.7-0.6-1.7-1.4
				v-3.9h-0.9v-1.2h0.9v-1.7h1.7V347.1z"/>
			<path d="M166.3,351.6c-0.4,1.5-1.7,2-2.8,2c-1.8,0-3.2-0.9-3.2-3.5c0-0.8,0.3-3.2,3.1-3.2c1.3,0,3,0.6,3,3.5v0.3H162
				c0,0.5,0.1,1.6,1.5,1.6c0.5,0,0.9-0.2,1.1-0.7H166.3z M164.6,349.7c-0.1-1-0.8-1.3-1.3-1.3c-0.8,0-1.2,0.5-1.3,1.3H164.6z"/>
			<path d="M173.2,353.5h-1.7v-3.9c0-0.5,0-1.3-1.1-1.3c-0.7,0-1.3,0.5-1.3,1.5v3.7h-1.7v-6.4h1.6v0.9h0c0.2-0.4,0.7-1.1,1.9-1.1
				c1.2,0,2.2,0.7,2.2,2.1V353.5z"/>
			<path d="M176.7,347.1h1v1.2h-1v3.5c0,0.4,0,0.5,0.7,0.5c0.1,0,0.2,0,0.3,0v1.3c-0.3,0-0.5,0-0.8,0h-0.2c-1.5,0-1.7-0.6-1.7-1.4
				v-3.9h-0.9v-1.2h0.9v-1.7h1.7V347.1z"/>
			<path d="M180.5,346.4h-1.7v-1.6h1.7V346.4z M180.5,347.1v6.4h-1.7v-6.4H180.5z"/>
			<path d="M187.6,351.2c-0.1,0.7-0.6,2.5-2.9,2.5c-2.4,0-3-1.8-3-3.2c0-2.1,0.9-3.5,3.1-3.5c1,0,2.7,0.5,2.8,2.4h-1.7
				c-0.1-0.4-0.3-1.1-1.1-1c-1.1,0-1.3,1.1-1.3,1.8c0,0.7,0,2.1,1.3,2.1c0.9,0,1.1-0.8,1.1-1.1H187.6z"/>
			<path d="M194,352.3c0,0.8,0.2,0.9,0.4,1v0.3h-1.8c-0.1-0.3-0.1-0.4-0.2-0.8c-0.4,0.4-0.9,0.9-2.1,0.9c-1,0-1.9-0.5-1.9-1.9
				c0-1.2,0.8-1.9,1.9-2l1.5-0.2c0.3,0,0.6-0.1,0.6-0.5c0-0.7-0.7-0.7-1.1-0.7c-0.8,0-1,0.5-1,0.9h-1.6c0.2-2,1.5-2.2,2.9-2.2
				c0.9,0,2.5,0.3,2.5,1.8V352.3z M192.3,350.4c-0.2,0.1-0.4,0.2-1.1,0.3c-0.6,0.1-1.1,0.3-1.1,1c0,0.6,0.5,0.8,0.8,0.8
				c0.7,0,1.5-0.5,1.5-1.3V350.4z"/>
			<path d="M197.4,347.1h1v1.2h-1v3.5c0,0.4,0,0.5,0.7,0.5c0.1,0,0.2,0,0.3,0v1.3c-0.3,0-0.5,0-0.8,0h-0.2c-1.5,0-1.7-0.6-1.7-1.4
				v-3.9h-0.9v-1.2h0.9v-1.7h1.7V347.1z"/>
			<path d="M201.2,346.4h-1.7v-1.6h1.7V346.4z M201.2,347.1v6.4h-1.7v-6.4H201.2z"/>
			<path d="M207.7,348L207.7,348c0.3-0.5,0.8-1.1,1.9-1.1c1.4,0,2.7,1.1,2.7,3.3c0,1.8-0.8,3.4-2.7,3.4c-1.2,0-1.6-0.6-1.8-1h0v3.3
				h-1.7v-8.9h1.6V348z M209.2,352.3c1.1,0,1.4-1.2,1.4-1.9c0-1-0.4-2-1.4-2c-1.2,0-1.4,1-1.4,2.1
				C207.7,351.4,208.1,352.3,209.2,352.3z"/>
			<path d="M216.4,353.7c-1.7,0-3.3-1.1-3.3-3.4s1.5-3.4,3.3-3.4c1.7,0,3.3,1.1,3.3,3.4S218.1,353.7,216.4,353.7z M216.4,348.4
				c-1.3,0-1.5,1.1-1.5,1.9s0.2,1.9,1.5,1.9s1.5-1.1,1.5-1.9S217.7,348.4,216.4,348.4z"/>
			<path d="M224.4,349.1c-0.1-0.4-0.2-0.8-1.1-0.8s-1,0.3-1,0.6c0,1,4,0.3,4,2.6c0,1.9-1.8,2.2-2.8,2.2c-1.5,0-3-0.5-3.1-2.2h1.7
				c0,0.5,0.3,0.9,1.4,0.9c0.9,0,1.1-0.4,1.1-0.7c0-1.1-4-0.3-4-2.7c0-0.9,0.6-2.1,2.6-2.1c1.2,0,2.7,0.3,2.9,2.1H224.4z"/>
			<path d="M231.1,349.1c-0.1-0.4-0.2-0.8-1.1-0.8s-1,0.3-1,0.6c0,1,4,0.3,4,2.6c0,1.9-1.8,2.2-2.8,2.2c-1.5,0-3-0.5-3.1-2.2h1.7
				c0,0.5,0.3,0.9,1.4,0.9c0.9,0,1.1-0.4,1.1-0.7c0-1.1-4-0.3-4-2.7c0-0.9,0.6-2.1,2.6-2.1c1.2,0,2.7,0.3,2.9,2.1H231.1z"/>
			<path d="M237,353.7c-1.7,0-3.3-1.1-3.3-3.4s1.5-3.4,3.3-3.4c1.7,0,3.3,1.1,3.3,3.4S238.8,353.7,237,353.7z M237,348.4
				c-1.3,0-1.5,1.1-1.5,1.9s0.2,1.9,1.5,1.9s1.5-1.1,1.5-1.9S238.3,348.4,237,348.4z"/>
			<path d="M247.3,353.5h-1.7v-3.9c0-0.5,0-1.3-1.1-1.3c-0.7,0-1.3,0.5-1.3,1.5v3.7h-1.7v-6.4h1.6v0.9h0c0.2-0.4,0.7-1.1,1.9-1.1
				c1.2,0,2.2,0.7,2.2,2.1V353.5z"/>
			<path d="M251.7,353.7c-1.7,0-3.3-1.1-3.3-3.4s1.5-3.4,3.3-3.4c1.7,0,3.3,1.1,3.3,3.4S253.4,353.7,251.7,353.7z M251.7,348.4
				c-1.3,0-1.5,1.1-1.5,1.9s0.2,1.9,1.5,1.9s1.5-1.1,1.5-1.9S253,348.4,251.7,348.4z"/>
			<path d="M8.7,367.9H6.9l-2.3-6.4h1.9l1.3,4.7h0l1.4-4.7H11L8.7,367.9z"/>
			<path d="M13.7,360.8H12v-1.6h1.7V360.8z M13.7,361.5v6.4H12v-6.4H13.7z"/>
			<path d="M18.9,363.5c-0.1-0.4-0.2-0.8-1.1-0.8s-1,0.3-1,0.6c0,1,4,0.3,4,2.6c0,1.9-1.8,2.2-2.8,2.2c-1.5,0-3-0.5-3.1-2.2h1.7
				c0,0.5,0.3,0.9,1.4,0.9c0.9,0,1.1-0.4,1.1-0.7c0-1.1-4-0.3-4-2.7c0-0.9,0.6-2.1,2.6-2.1c1.2,0,2.7,0.3,2.9,2.1H18.9z"/>
			<path d="M27.7,367.9h-1.6V367h0c-0.4,0.7-1.1,1.1-1.9,1.1c-1.3,0-2.2-0.7-2.2-2.4v-4.2h1.7v4c0,1,0.6,1.2,1.1,1.2
				c0.6,0,1.3-0.3,1.3-1.5v-3.7h1.7V367.9z"/>
			<path d="M34.5,366.7c0,0.8,0.2,0.9,0.4,1v0.3H33c-0.1-0.3-0.1-0.4-0.2-0.8c-0.4,0.4-0.9,0.9-2.1,0.9c-1,0-1.9-0.5-1.9-1.9
				c0-1.2,0.8-1.9,1.9-2l1.5-0.2c0.3,0,0.6-0.1,0.6-0.5c0-0.7-0.7-0.7-1.1-0.7c-0.8,0-1,0.5-1,0.9h-1.6c0.2-2,1.5-2.2,2.9-2.2
				c0.9,0,2.5,0.3,2.5,1.8V366.7z M32.8,364.8c-0.2,0.1-0.4,0.2-1.1,0.3c-0.6,0.1-1.1,0.3-1.1,1c0,0.6,0.5,0.8,0.8,0.8
				c0.7,0,1.5-0.5,1.5-1.3V364.8z"/>
			<path d="M37.7,367.9H36v-8.6h1.7V367.9z"/>
			<path d="M41,360.8h-1.7v-1.6H41V360.8z M41,361.5v6.4h-1.7v-6.4H41z"/>
			<path d="M44.3,366.5h3.3v1.4h-5.5v-1.3l3.3-3.7h-3v-1.3h5.2v1.4L44.3,366.5z"/>
			<path d="M50.3,366.5h3.3v1.4h-5.5v-1.3l3.3-3.7h-3v-1.3h5.2v1.4L50.3,366.5z"/>
			<path d="M59.8,366.7c0,0.8,0.2,0.9,0.4,1v0.3h-1.8c-0.1-0.3-0.1-0.4-0.2-0.8c-0.4,0.4-0.9,0.9-2.1,0.9c-1,0-1.9-0.5-1.9-1.9
				c0-1.2,0.8-1.9,1.9-2l1.5-0.2c0.3,0,0.6-0.1,0.6-0.5c0-0.7-0.7-0.7-1.1-0.7c-0.8,0-1,0.5-1,0.9h-1.6c0.2-2,1.5-2.2,2.9-2.2
				c0.9,0,2.5,0.3,2.5,1.8V366.7z M58.2,364.8c-0.2,0.1-0.4,0.2-1.1,0.3c-0.6,0.1-1.1,0.3-1.1,1c0,0.6,0.5,0.8,0.8,0.8
				c0.7,0,1.5-0.5,1.5-1.3V364.8z"/>
			<path d="M61.3,361.5h1.6v1.1h0c0.3-0.6,0.7-1.3,1.8-1.3c0.1,0,0.2,0,0.3,0v1.7c-0.1,0-0.3,0-0.5,0c-1.3,0-1.5,0.8-1.5,1.5v3.3
				h-1.7V361.5z"/>
			<path d="M71.5,366c-0.4,1.5-1.7,2-2.8,2c-1.8,0-3.2-0.9-3.2-3.5c0-0.8,0.3-3.2,3.1-3.2c1.3,0,3,0.6,3,3.5v0.3h-4.4
				c0,0.5,0.1,1.6,1.5,1.6c0.5,0,0.9-0.2,1.1-0.7H71.5z M69.8,364.1c-0.1-1-0.8-1.3-1.3-1.3c-0.8,0-1.2,0.5-1.3,1.3H69.8z"/>
			<path d="M77.7,367.9H76v-8.6h1.7V367.9z"/>
			<path d="M84.5,366.7c0,0.8,0.2,0.9,0.4,1v0.3H83c-0.1-0.3-0.1-0.4-0.2-0.8c-0.4,0.4-0.9,0.9-2.1,0.9c-1,0-1.9-0.5-1.9-1.9
				c0-1.2,0.8-1.9,1.9-2l1.5-0.2c0.3,0,0.6-0.1,0.6-0.5c0-0.7-0.7-0.7-1.1-0.7c-0.8,0-1,0.5-1,0.9h-1.6c0.2-2,1.5-2.2,2.9-2.2
				c0.9,0,2.5,0.3,2.5,1.8V366.7z M82.8,364.8c-0.2,0.1-0.4,0.2-1.1,0.3c-0.6,0.1-1.1,0.3-1.1,1c0,0.6,0.5,0.8,0.8,0.8
				c0.7,0,1.5-0.5,1.5-1.3V364.8z"/>
			<path d="M94.8,365.6c-0.1,0.7-0.6,2.5-2.9,2.5c-2.4,0-3-1.8-3-3.2c0-2.1,0.9-3.5,3.1-3.5c1,0,2.7,0.5,2.8,2.4h-1.7
				c-0.1-0.4-0.3-1.1-1.1-1c-1.1,0-1.3,1.1-1.3,1.8c0,0.7,0,2.1,1.3,2.1c0.9,0,1.1-0.8,1.1-1.1H94.8z"/>
			<path d="M101.2,366.7c0,0.8,0.2,0.9,0.4,1v0.3h-1.8c-0.1-0.3-0.1-0.4-0.2-0.8c-0.4,0.4-0.9,0.9-2.1,0.9c-1,0-1.9-0.5-1.9-1.9
				c0-1.2,0.8-1.9,1.9-2l1.5-0.2c0.3,0,0.6-0.1,0.6-0.5c0-0.7-0.7-0.7-1.1-0.7c-0.8,0-1,0.5-1,0.9h-1.6c0.2-2,1.5-2.2,2.9-2.2
				c0.9,0,2.5,0.3,2.5,1.8V366.7z M99.5,364.8c-0.2,0.1-0.4,0.2-1.1,0.3c-0.6,0.1-1.1,0.3-1.1,1c0,0.6,0.5,0.8,0.8,0.8
				c0.7,0,1.5-0.5,1.5-1.3V364.8z"/>
			<path d="M102.7,361.5h1.6v1.1h0c0.3-0.6,0.7-1.3,1.8-1.3c0.1,0,0.2,0,0.3,0v1.7c-0.1,0-0.3,0-0.5,0c-1.3,0-1.5,0.8-1.5,1.5v3.3
				h-1.7V361.5z"/>
			<path d="M109.5,361.5h1v1.2h-1v3.5c0,0.4,0,0.5,0.7,0.5c0.1,0,0.2,0,0.3,0v1.3c-0.3,0-0.5,0-0.8,0h-0.2c-1.5,0-1.7-0.6-1.7-1.4
				v-3.9h-0.9v-1.2h0.9v-1.7h1.7V361.5z"/>
			<path d="M117.1,366c-0.4,1.5-1.7,2-2.8,2c-1.8,0-3.2-0.9-3.2-3.5c0-0.8,0.3-3.2,3.1-3.2c1.3,0,3,0.6,3,3.5v0.3h-4.4
				c0,0.5,0.1,1.6,1.5,1.6c0.5,0,0.9-0.2,1.1-0.7H117.1z M115.4,364.1c-0.1-1-0.8-1.3-1.3-1.3c-0.8,0-1.2,0.5-1.3,1.3H115.4z"/>
			<path d="M120,367.9h-1.7v-8.6h1.7V367.9z"/>
			<path d="M123.3,367.9h-1.7v-8.6h1.7V367.9z"/>
			<path d="M130.1,366.7c0,0.8,0.2,0.9,0.4,1v0.3h-1.8c-0.1-0.3-0.1-0.4-0.2-0.8c-0.4,0.4-0.9,0.9-2.1,0.9c-1,0-1.9-0.5-1.9-1.9
				c0-1.2,0.8-1.9,1.9-2l1.5-0.2c0.3,0,0.6-0.1,0.6-0.5c0-0.7-0.7-0.7-1.1-0.7c-0.8,0-1,0.5-1,0.9h-1.6c0.2-2,1.5-2.2,2.9-2.2
				c0.9,0,2.5,0.3,2.5,1.8V366.7z M128.4,364.8c-0.2,0.1-0.4,0.2-1.1,0.3c-0.6,0.1-1.1,0.3-1.1,1c0,0.6,0.5,0.8,0.8,0.8
				c0.7,0,1.5-0.5,1.5-1.3V364.8z"/>
			<path d="M143.3,367.9h-1.7v-7.2h0l-1.6,7.2h-1.8l-1.6-7.2h0v7.2H135v-8.6h2.6l1.6,6.8h0l1.5-6.8h2.6V367.9z"/>
			<path d="M150.1,366.7c0,0.8,0.2,0.9,0.4,1v0.3h-1.8c-0.1-0.3-0.1-0.4-0.2-0.8c-0.4,0.4-0.9,0.9-2.1,0.9c-1,0-1.9-0.5-1.9-1.9
				c0-1.2,0.8-1.9,1.9-2l1.5-0.2c0.3,0,0.6-0.1,0.6-0.5c0-0.7-0.7-0.7-1.1-0.7c-0.8,0-1,0.5-1,0.9h-1.6c0.2-2,1.5-2.2,2.9-2.2
				c0.9,0,2.5,0.3,2.5,1.8V366.7z M148.4,364.8c-0.2,0.1-0.4,0.2-1.1,0.3c-0.6,0.1-1.1,0.3-1.1,1c0,0.6,0.5,0.8,0.8,0.8
				c0.7,0,1.5-0.5,1.5-1.3V364.8z"/>
			<path d="M151.6,361.5h1.6v1.1h0c0.3-0.6,0.7-1.3,1.8-1.3c0.1,0,0.2,0,0.3,0v1.7c-0.1,0-0.3,0-0.5,0c-1.3,0-1.5,0.8-1.5,1.5v3.3
				h-1.7V361.5z"/>
			<path d="M158,367.9h-1.7v-8.6h1.7v4.7l2.1-2.4h2.1l-2.3,2.5l2.3,3.9h-2l-1.5-2.7l-0.7,0.7V367.9z"/>
			<path d="M168.4,366c-0.4,1.5-1.7,2-2.8,2c-1.8,0-3.2-0.9-3.2-3.5c0-0.8,0.3-3.2,3.1-3.2c1.3,0,3,0.6,3,3.5v0.3h-4.4
				c0,0.5,0.1,1.6,1.5,1.6c0.5,0,0.9-0.2,1.1-0.7H168.4z M166.8,364.1c-0.1-1-0.8-1.3-1.3-1.3c-0.8,0-1.2,0.5-1.3,1.3H166.8z"/>
			<path d="M171.5,361.5h1v1.2h-1v3.5c0,0.4,0,0.5,0.7,0.5c0.1,0,0.2,0,0.3,0v1.3c-0.3,0-0.5,0-0.8,0h-0.2c-1.5,0-1.7-0.6-1.7-1.4
				v-3.9h-0.9v-1.2h0.9v-1.7h1.7V361.5z"/>
			<path d="M175.3,360.8h-1.7v-1.6h1.7V360.8z M175.3,361.5v6.4h-1.7v-6.4H175.3z"/>
			<path d="M182.7,367.9H181V364c0-0.5,0-1.3-1.1-1.3c-0.7,0-1.3,0.5-1.3,1.5v3.7h-1.7v-6.4h1.6v0.9h0c0.2-0.4,0.7-1.1,1.9-1.1
				c1.2,0,2.2,0.7,2.2,2.1V367.9z"/>
			<path d="M190.1,361.5v6c0,1.1-0.1,2.9-3.2,2.9c-1.3,0-2.7-0.6-2.8-1.9h1.8c0.1,0.3,0.2,0.6,1.2,0.6c0.9,0,1.3-0.4,1.3-1.5V367
				l0,0c-0.3,0.5-0.7,1-1.7,1c-1.5,0-2.7-1.1-2.7-3.3c0-2.2,1.2-3.3,2.7-3.3c1.2,0,1.7,0.7,1.9,1.1h0v-0.9H190.1z M187,366.5
				c1.1,0,1.4-1,1.4-1.8c0-1-0.5-1.9-1.4-1.9c-0.6,0-1.3,0.5-1.3,1.9C185.7,365.6,186,366.5,187,366.5z"/>
			<path d="M193.4,367.9h-1.8v-1.8h1.8V367.9z"/>
			<path d="M199.6,367.9h-1.8v-8.6h1.8V367.9z"/>
			<path d="M202.9,367.9h-1.7v-8.6h1.7V367.9z"/>
			<path d="M213.7,361.5v6c0,1.1-0.1,2.9-3.2,2.9c-1.3,0-2.7-0.6-2.8-1.9h1.8c0.1,0.3,0.2,0.6,1.2,0.6c0.9,0,1.3-0.4,1.3-1.5V367
				l0,0c-0.3,0.5-0.7,1-1.7,1c-1.5,0-2.7-1.1-2.7-3.3c0-2.2,1.2-3.3,2.7-3.3c1.2,0,1.7,0.7,1.9,1.1h0v-0.9H213.7z M210.6,366.5
				c1.1,0,1.4-1,1.4-1.8c0-1-0.5-1.9-1.4-1.9c-0.6,0-1.3,0.5-1.3,1.9C209.2,365.6,209.6,366.5,210.6,366.5z"/>
			<path d="M215.1,361.5h1.6v1.1h0c0.3-0.6,0.7-1.3,1.8-1.3c0.1,0,0.2,0,0.3,0v1.7c-0.1,0-0.3,0-0.5,0c-1.3,0-1.5,0.8-1.5,1.5v3.3
				h-1.7V361.5z"/>
			<path d="M225.6,367.9H224V367h0c-0.4,0.7-1.1,1.1-1.9,1.1c-1.3,0-2.2-0.7-2.2-2.4v-4.2h1.7v4c0,1,0.6,1.2,1.1,1.2
				c0.6,0,1.3-0.3,1.3-1.5v-3.7h1.7V367.9z"/>
			<path d="M228.7,362.4L228.7,362.4c0.3-0.5,0.8-1.1,1.9-1.1c1.4,0,2.7,1.1,2.7,3.3c0,1.8-0.8,3.4-2.7,3.4c-1.2,0-1.6-0.6-1.8-1h0
				v3.3h-1.7v-8.9h1.6V362.4z M230.2,366.7c1.1,0,1.4-1.2,1.4-1.9c0-1-0.4-2-1.4-2c-1.2,0-1.4,1-1.4,2.1
				C228.7,365.8,229.1,366.7,230.2,366.7z"/>
			<path d="M236,362.4L236,362.4c0.3-0.5,0.8-1.1,1.9-1.1c1.4,0,2.7,1.1,2.7,3.3c0,1.8-0.8,3.4-2.7,3.4c-1.2,0-1.6-0.6-1.8-1h0v3.3
				h-1.7v-8.9h1.6V362.4z M237.5,366.7c1.1,0,1.4-1.2,1.4-1.9c0-1-0.4-2-1.4-2c-1.2,0-1.4,1-1.4,2.1
				C236,365.8,236.4,366.7,237.5,366.7z"/>
			<path d="M244.7,368.1c-1.7,0-3.3-1.1-3.3-3.4s1.5-3.4,3.3-3.4c1.7,0,3.3,1.1,3.3,3.4S246.4,368.1,244.7,368.1z M244.7,362.8
				c-1.3,0-1.5,1.1-1.5,1.9s0.2,1.9,1.5,1.9s1.5-1.1,1.5-1.9S246,362.8,244.7,362.8z"/>
			<path d="M12.3,379.3c0,2.3-1.4,3.2-3.5,3.2c-0.8,0-2-0.2-2.7-1c-0.5-0.5-0.6-1.2-0.7-2.1v-5.7h1.8v5.6c0,1.2,0.7,1.7,1.5,1.7
				c1.2,0,1.7-0.6,1.7-1.6v-5.7h1.8V379.3z"/>
			<path d="M15.8,375.9h1v1.2h-1v3.5c0,0.4,0,0.5,0.7,0.5c0.1,0,0.2,0,0.3,0v1.3c-0.3,0-0.5,0-0.8,0h-0.2c-1.5,0-1.7-0.6-1.7-1.4
				v-3.9h-0.9v-1.2h0.9v-1.7h1.7V375.9z"/>
			<path d="M23.4,380.4c-0.4,1.5-1.7,2-2.8,2c-1.8,0-3.2-0.9-3.2-3.5c0-0.8,0.3-3.2,3.1-3.2c1.3,0,3,0.6,3,3.5v0.3h-4.4
				c0,0.5,0.1,1.6,1.5,1.6c0.5,0,0.9-0.2,1.1-0.7H23.4z M21.8,378.5c-0.1-1-0.8-1.3-1.3-1.3c-0.8,0-1.2,0.5-1.3,1.3H21.8z"/>
			<path d="M30.4,382.3h-1.7v-3.9c0-0.5,0-1.3-1.1-1.3c-0.7,0-1.3,0.5-1.3,1.5v3.7h-1.7v-6.4h1.6v0.9h0c0.2-0.4,0.7-1.1,1.9-1.1
				c1.2,0,2.2,0.7,2.2,2.1V382.3z"/>
			<path d="M33.8,375.9h1v1.2h-1v3.5c0,0.4,0,0.5,0.7,0.5c0.1,0,0.2,0,0.3,0v1.3c-0.3,0-0.5,0-0.8,0h-0.2c-1.5,0-1.7-0.6-1.7-1.4
				v-3.9h-0.9v-1.2h0.9v-1.7h1.7V375.9z"/>
			<path d="M37.7,375.2H36v-1.6h1.7V375.2z M37.7,375.9v6.4H36v-6.4H37.7z"/>
			<path d="M51.7,382.3h-1.7v-3.9c0-0.9-0.4-1.3-0.9-1.3c-0.8,0-1.1,0.6-1.1,1.3v3.8h-1.7v-3.8c0-0.5,0-1.3-1-1.3
				c-0.8,0-1,0.6-1,1.2v3.9h-1.7v-6.4h1.6v0.9h0c0.2-0.4,0.7-1.1,1.8-1.1c0.9,0,1.3,0.3,1.8,1c0.2-0.3,0.7-1,1.7-1
				c1.2,0,2.2,0.7,2.2,2.1V382.3z"/>
			<path d="M58.4,381.1c0,0.8,0.2,0.9,0.4,1v0.3H57c-0.1-0.3-0.1-0.4-0.2-0.8c-0.4,0.4-0.9,0.9-2.1,0.9c-1,0-1.9-0.5-1.9-1.9
				c0-1.2,0.8-1.9,1.9-2l1.5-0.2c0.3,0,0.6-0.1,0.6-0.5c0-0.7-0.7-0.7-1.1-0.7c-0.8,0-1,0.5-1,0.9h-1.6c0.2-2,1.5-2.2,2.9-2.2
				c0.9,0,2.5,0.3,2.5,1.8V381.1z M56.8,379.2c-0.2,0.1-0.4,0.2-1.1,0.3c-0.6,0.1-1.1,0.3-1.1,1c0,0.6,0.5,0.8,0.8,0.8
				c0.7,0,1.5-0.5,1.5-1.3V379.2z"/>
			<path d="M59.9,375.9h1.6v1.1h0c0.3-0.6,0.7-1.3,1.8-1.3c0.1,0,0.2,0,0.3,0v1.7c-0.1,0-0.3,0-0.5,0c-1.3,0-1.5,0.8-1.5,1.5v3.3
				h-1.7V375.9z"/>
			<path d="M66.3,382.3h-1.7v-8.6h1.7v4.7l2.1-2.4h2.1l-2.3,2.5l2.3,3.9h-2l-1.5-2.7l-0.7,0.7V382.3z"/>
			<path d="M76.8,380.4c-0.4,1.5-1.7,2-2.8,2c-1.8,0-3.2-0.9-3.2-3.5c0-0.8,0.3-3.2,3.1-3.2c1.3,0,3,0.6,3,3.5v0.3h-4.4
				c0,0.5,0.1,1.6,1.5,1.6c0.5,0,0.9-0.2,1.1-0.7H76.8z M75.1,378.5c-0.1-1-0.8-1.3-1.3-1.3c-0.8,0-1.2,0.5-1.3,1.3H75.1z"/>
			<path d="M79.8,375.9h1v1.2h-1v3.5c0,0.4,0,0.5,0.7,0.5c0.1,0,0.2,0,0.3,0v1.3c-0.3,0-0.5,0-0.8,0h-0.2c-1.5,0-1.7-0.6-1.7-1.4
				v-3.9h-0.9v-1.2h0.9v-1.7h1.7V375.9z"/>
			<path d="M83.7,375.2H82v-1.6h1.7V375.2z M83.7,375.9v6.4H82v-6.4H83.7z"/>
			<path d="M91.1,382.3h-1.7v-3.9c0-0.5,0-1.3-1.1-1.3c-0.7,0-1.3,0.5-1.3,1.5v3.7h-1.7v-6.4h1.6v0.9h0c0.2-0.4,0.7-1.1,1.9-1.1
				c1.2,0,2.2,0.7,2.2,2.1V382.3z"/>
			<path d="M98.5,375.9v6c0,1.1-0.1,2.9-3.2,2.9c-1.3,0-2.7-0.6-2.8-1.9h1.8c0.1,0.3,0.2,0.6,1.2,0.6c0.9,0,1.3-0.4,1.3-1.5v-0.8
				l0,0c-0.3,0.5-0.7,1-1.7,1c-1.5,0-2.7-1.1-2.7-3.3c0-2.2,1.2-3.3,2.7-3.3c1.2,0,1.7,0.7,1.9,1.1h0v-0.9H98.5z M95.4,380.9
				c1.1,0,1.4-1,1.4-1.8c0-1-0.5-1.9-1.4-1.9c-0.6,0-1.3,0.5-1.3,1.9C94.1,380,94.4,380.9,95.4,380.9z"/>
			<path d="M108.8,380.4c-0.4,1.5-1.7,2-2.8,2c-1.8,0-3.2-0.9-3.2-3.5c0-0.8,0.3-3.2,3.1-3.2c1.3,0,3,0.6,3,3.5v0.3h-4.4
				c0,0.5,0.1,1.6,1.5,1.6c0.5,0,0.9-0.2,1.1-0.7H108.8z M103.6,373.3h1.8l1.1,1.8h-1.2L103.6,373.3z M107.1,378.5
				c-0.1-1-0.8-1.3-1.3-1.3c-0.8,0-1.2,0.5-1.3,1.3H107.1z"/>
			<path d="M118.5,381.1c0,0.8,0.2,0.9,0.4,1v0.3H117c-0.1-0.3-0.1-0.4-0.2-0.8c-0.4,0.4-0.9,0.9-2.1,0.9c-1,0-1.9-0.5-1.9-1.9
				c0-1.2,0.8-1.9,1.9-2l1.5-0.2c0.3,0,0.6-0.1,0.6-0.5c0-0.7-0.7-0.7-1.1-0.7c-0.8,0-1,0.5-1,0.9h-1.6c0.2-2,1.5-2.2,2.9-2.2
				c0.9,0,2.5,0.3,2.5,1.8V381.1z M116.8,379.2c-0.2,0.1-0.4,0.2-1.1,0.3c-0.6,0.1-1.1,0.3-1.1,1c0,0.6,0.5,0.8,0.8,0.8
				c0.7,0,1.5-0.5,1.5-1.3V379.2z"/>
			<path d="M125.7,382.3h-1.6v-0.9h0c-0.4,0.7-1.1,1.1-1.9,1.1c-1.3,0-2.2-0.7-2.2-2.4v-4.2h1.7v4c0,1,0.6,1.2,1.1,1.2
				c0.6,0,1.3-0.3,1.3-1.5v-3.7h1.7V382.3z"/>
			<path d="M129.2,375.9h1v1.2h-1v3.5c0,0.4,0,0.5,0.7,0.5c0.1,0,0.2,0,0.3,0v1.3c-0.3,0-0.5,0-0.8,0h-0.2c-1.5,0-1.7-0.6-1.7-1.4
				v-3.9h-0.9v-1.2h0.9v-1.7h1.7V375.9z"/>
			<path d="M134.2,382.5c-1.7,0-3.3-1.1-3.3-3.4s1.5-3.4,3.3-3.4c1.7,0,3.3,1.1,3.3,3.4S135.9,382.5,134.2,382.5z M134.2,377.2
				c-1.3,0-1.5,1.1-1.5,1.9s0.2,1.9,1.5,1.9s1.5-1.1,1.5-1.9S135.5,377.2,134.2,377.2z"/>
			<path d="M138.6,375.9h1.6v1.1h0c0.3-0.6,0.7-1.3,1.8-1.3c0.1,0,0.2,0,0.3,0v1.7c-0.1,0-0.3,0-0.5,0c-1.3,0-1.5,0.8-1.5,1.5v3.3
				h-1.7V375.9z"/>
			<path d="M145,375.2h-1.7v-1.6h1.7V375.2z M145,375.9v6.4h-1.7v-6.4H145z"/>
			<path d="M148.3,380.9h3.3v1.4h-5.5V381l3.3-3.7h-3v-1.3h5.2v1.4L148.3,380.9z"/>
			<path d="M154.3,380.9h3.3v1.4h-5.5V381l3.3-3.7h-3v-1.3h5.2v1.4L154.3,380.9z"/>
			<path d="M163.8,381.1c0,0.8,0.2,0.9,0.4,1v0.3h-1.8c-0.1-0.3-0.1-0.4-0.2-0.8c-0.4,0.4-0.9,0.9-2.1,0.9c-1,0-1.9-0.5-1.9-1.9
				c0-1.2,0.8-1.9,1.9-2l1.5-0.2c0.3,0,0.6-0.1,0.6-0.5c0-0.7-0.7-0.7-1.1-0.7c-0.8,0-1,0.5-1,0.9h-1.6c0.2-2,1.5-2.2,2.9-2.2
				c0.9,0,2.5,0.3,2.5,1.8V381.1z M162.2,379.2c-0.2,0.1-0.4,0.2-1.1,0.3c-0.6,0.1-1.1,0.3-1.1,1c0,0.6,0.5,0.8,0.8,0.8
				c0.7,0,1.5-0.5,1.5-1.3V379.2z"/>
			<path d="M167.2,375.9h1v1.2h-1v3.5c0,0.4,0,0.5,0.7,0.5c0.1,0,0.2,0,0.3,0v1.3c-0.3,0-0.5,0-0.8,0h-0.2c-1.5,0-1.7-0.6-1.7-1.4
				v-3.9h-0.9v-1.2h0.9v-1.7h1.7V375.9z"/>
			<path d="M172.2,382.5c-1.7,0-3.3-1.1-3.3-3.4s1.5-3.4,3.3-3.4c1.7,0,3.3,1.1,3.3,3.4S173.9,382.5,172.2,382.5z M172.2,377.2
				c-1.3,0-1.5,1.1-1.5,1.9s0.2,1.9,1.5,1.9s1.5-1.1,1.5-1.9S173.5,377.2,172.2,377.2z"/>
			<path d="M185.1,381.1c0,0.8,0.2,0.9,0.4,1v0.3h-1.8c-0.1-0.3-0.1-0.4-0.2-0.8c-0.4,0.4-0.9,0.9-2.1,0.9c-1,0-1.9-0.5-1.9-1.9
				c0-1.2,0.8-1.9,1.9-2l1.5-0.2c0.3,0,0.6-0.1,0.6-0.5c0-0.7-0.7-0.7-1.1-0.7c-0.8,0-1,0.5-1,0.9h-1.6c0.2-2,1.5-2.2,2.9-2.2
				c0.9,0,2.5,0.3,2.5,1.8V381.1z M183.5,379.2c-0.2,0.1-0.4,0.2-1.1,0.3c-0.6,0.1-1.1,0.3-1.1,1c0,0.6,0.5,0.8,0.8,0.8
				c0.7,0,1.5-0.5,1.5-1.3V379.2z"/>
			<path d="M199.1,382.3h-1.7v-3.9c0-0.9-0.4-1.3-0.9-1.3c-0.8,0-1.1,0.6-1.1,1.3v3.8h-1.7v-3.8c0-0.5,0-1.3-1-1.3
				c-0.8,0-1,0.6-1,1.2v3.9H190v-6.4h1.6v0.9h0c0.2-0.4,0.7-1.1,1.8-1.1c0.9,0,1.3,0.3,1.8,1c0.2-0.3,0.7-1,1.7-1
				c1.2,0,2.2,0.7,2.2,2.1V382.3z"/>
			<path d="M203.5,382.5c-1.7,0-3.3-1.1-3.3-3.4s1.5-3.4,3.3-3.4c1.7,0,3.3,1.1,3.3,3.4S205.3,382.5,203.5,382.5z M203.5,377.2
				c-1.3,0-1.5,1.1-1.5,1.9s0.2,1.9,1.5,1.9s1.5-1.1,1.5-1.9S204.8,377.2,203.5,377.2z"/>
			<path d="M213.8,382.3h-1.6v-0.8h0c-0.4,0.7-1.2,1-1.8,1c-1.9,0-2.7-1.7-2.7-3.4c0-2.2,1.2-3.3,2.7-3.3c1.1,0,1.6,0.6,1.8,1h0
				v-3.1h1.7V382.3z M210.7,381.1c1.1,0,1.5-0.9,1.5-1.8c0-1-0.3-2.1-1.4-2.1c-1.1,0-1.4,0.9-1.4,2
				C209.3,379.9,209.6,381.1,210.7,381.1z"/>
			<path d="M217,375.2h-1.7v-1.6h1.7V375.2z M217,375.9v6.4h-1.7v-6.4H217z"/>
			<path d="M220.6,382.3h-1.7v-5.2H218v-1.2h0.9v-0.5c0-1.3,0.7-1.8,1.9-1.8c0.5,0,0.7,0,0.9,0v1.4h-0.5c-0.6,0-0.6,0.2-0.6,0.7v0.3
				h1.1v1.2h-1.1V382.3z"/>
			<path d="M224.4,375.2h-1.7v-1.6h1.7V375.2z M224.4,375.9v6.4h-1.7v-6.4H224.4z"/>
			<path d="M231.5,380c-0.1,0.7-0.6,2.5-2.9,2.5c-2.4,0-3-1.8-3-3.2c0-2.1,0.9-3.5,3.1-3.5c1,0,2.7,0.5,2.8,2.4h-1.7
				c-0.1-0.4-0.3-1.1-1.1-1c-1.1,0-1.3,1.1-1.3,1.8c0,0.7,0,2.1,1.3,2.1c0.9,0,1.1-0.8,1.1-1.1H231.5z"/>
			<path d="M237.8,381.1c0,0.8,0.2,0.9,0.4,1v0.3h-1.8c-0.1-0.3-0.1-0.4-0.2-0.8c-0.4,0.4-0.9,0.9-2.1,0.9c-1,0-1.9-0.5-1.9-1.9
				c0-1.2,0.8-1.9,1.9-2l1.5-0.2c0.3,0,0.6-0.1,0.6-0.5c0-0.7-0.7-0.7-1.1-0.7c-0.8,0-1,0.5-1,0.9h-1.6c0.2-2,1.5-2.2,2.9-2.2
				c0.9,0,2.5,0.3,2.5,1.8V381.1z M236.2,379.2c-0.2,0.1-0.4,0.2-1.1,0.3c-0.6,0.1-1.1,0.3-1.1,1c0,0.6,0.5,0.8,0.8,0.8
				c0.7,0,1.5-0.5,1.5-1.3V379.2z"/>
			<path d="M239.3,375.9h1.6v1.1h0c0.3-0.6,0.7-1.3,1.8-1.3c0.1,0,0.2,0,0.3,0v1.7c-0.1,0-0.3,0-0.5,0c-1.3,0-1.5,0.8-1.5,1.5v3.3
				h-1.7V375.9z"/>
			<path d="M245.7,382.3H244v-8.6h1.7V382.3z"/>
			<path d="M252.5,381.1c0,0.8,0.2,0.9,0.4,1v0.3h-1.8c-0.1-0.3-0.1-0.4-0.2-0.8c-0.4,0.4-0.9,0.9-2.1,0.9c-1,0-1.9-0.5-1.9-1.9
				c0-1.2,0.8-1.9,1.9-2l1.5-0.2c0.3,0,0.6-0.1,0.6-0.5c0-0.7-0.7-0.7-1.1-0.7c-0.8,0-1,0.5-1,0.9h-1.6c0.2-2,1.5-2.2,2.9-2.2
				c0.9,0,2.5,0.3,2.5,1.8V381.1z M250.9,379.2c-0.2,0.1-0.4,0.2-1.1,0.3c-0.6,0.1-1.1,0.3-1.1,1c0,0.6,0.5,0.8,0.8,0.8
				c0.7,0,1.5-0.5,1.5-1.3V379.2z"/>
			<path d="M255.8,382.3H254v-1.8h1.8V382.3z"/>
		</g>
	</g>
</g>
<path pointer-events="stroke" class="st7" d="M78.5,224.5v-142"/>
<path pointer-events="stroke" class="st7" d="M79.5,82.5l54-0.3"/>
<path pointer-events="all" class="st8" d="M138.7,82.1l-7,3.5l1.7-3.5l-1.8-3.5L138.7,82.1z"/>
<path pointer-events="stroke" class="st7" d="M113.2,251.2l212.9,0.9"/>
<path pointer-events="all" class="st8" d="M331.4,252.2l-7,3.5l1.8-3.5l-1.7-3.5L331.4,252.2z"/>
<rect x="22.5" y="222.5" pointer-events="all" class="st1" width="90" height="70"/>
<path pointer-events="all" class="st9" d="M70.2,231.8l10.3-8.2c0.9-0.7,2-1.1,3.3-1.1h23.3c2.4,0,5.3,1.7,5.3,4.7v4.6H70.2z
	 M22.5,292.5v-52.6c0-2.6,2.7-4.6,5.3-4.6h84.7v57.2H22.5z"/>
<g class="st3">
	<path d="M48.5,311h-1.7v-7.2h0l-1.6,7.2h-1.8l-1.6-7.2h0v7.2h-1.7v-8.6h2.6l1.6,6.8h0l1.5-6.8h2.6V311z"/>
	<path d="M55.3,309.8c0,0.8,0.2,0.9,0.4,1v0.3h-1.8c-0.1-0.3-0.1-0.4-0.2-0.8c-0.4,0.4-0.9,0.9-2.1,0.9c-1,0-1.9-0.5-1.9-1.9
		c0-1.2,0.8-1.9,1.9-2l1.5-0.2c0.3,0,0.6-0.1,0.6-0.5c0-0.7-0.7-0.7-1.1-0.7c-0.8,0-1,0.5-1,0.9h-1.6c0.2-2,1.5-2.2,2.9-2.2
		c0.9,0,2.5,0.3,2.5,1.8V309.8z M53.7,307.9c-0.2,0.1-0.4,0.2-1.1,0.3c-0.6,0.1-1.1,0.3-1.1,1c0,0.6,0.5,0.8,0.8,0.8
		c0.7,0,1.5-0.5,1.5-1.3V307.9z"/>
	<path d="M56.8,304.6h1.6v1.1h0c0.3-0.6,0.7-1.3,1.8-1.3c0.1,0,0.2,0,0.3,0v1.7c-0.1,0-0.3,0-0.5,0c-1.3,0-1.5,0.8-1.5,1.5v3.3h-1.7
		V304.6z"/>
	<path d="M63.2,311h-1.7v-8.6h1.7v4.7l2.1-2.4h2.1l-2.3,2.5l2.3,3.9h-2l-1.5-2.7l-0.7,0.7V311z"/>
	<path d="M73.6,309.1c-0.4,1.5-1.7,2-2.8,2c-1.8,0-3.2-0.9-3.2-3.5c0-0.8,0.3-3.2,3.1-3.2c1.3,0,3,0.6,3,3.5v0.3h-4.4
		c0,0.5,0.1,1.6,1.5,1.6c0.5,0,0.9-0.2,1.1-0.7H73.6z M72,307.2c-0.1-1-0.8-1.3-1.3-1.3c-0.8,0-1.2,0.5-1.3,1.3H72z"/>
	<path d="M76.7,304.6h1v1.2h-1v3.5c0,0.4,0,0.5,0.7,0.5c0.1,0,0.2,0,0.3,0v1.3c-0.3,0-0.5,0-0.8,0h-0.2c-1.5,0-1.7-0.6-1.7-1.4v-3.9
		h-0.9v-1.2H75v-1.7h1.7V304.6z"/>
	<path d="M80.5,303.9h-1.7v-1.6h1.7V303.9z M80.5,304.6v6.4h-1.7v-6.4H80.5z"/>
	<path d="M87.9,311h-1.7v-3.9c0-0.5,0-1.3-1.1-1.3c-0.7,0-1.3,0.5-1.3,1.5v3.7h-1.7v-6.4h1.6v0.9h0c0.2-0.4,0.7-1.1,1.9-1.1
		c1.2,0,2.2,0.7,2.2,2.1V311z"/>
	<path d="M95.3,304.6v6c0,1.1-0.1,2.9-3.2,2.9c-1.3,0-2.7-0.6-2.8-1.9h1.8c0.1,0.3,0.2,0.6,1.2,0.6c0.9,0,1.3-0.4,1.3-1.5v-0.8l0,0
		c-0.3,0.5-0.7,1-1.7,1c-1.5,0-2.7-1.1-2.7-3.3c0-2.2,1.2-3.3,2.7-3.3c1.2,0,1.7,0.7,1.9,1.1h0v-0.9H95.3z M92.2,309.6
		c1.1,0,1.4-1,1.4-1.8c0-1-0.5-1.9-1.4-1.9c-0.6,0-1.3,0.5-1.3,1.9C90.9,308.7,91.2,309.6,92.2,309.6z"/>
</g>
</svg>
