<?xml version="1.0" encoding="utf-8"?>
<!-- Generator: Adobe Illustrator 26.5.2, SVG Export Plug-In . SVG Version: 6.00 Build 0)  -->
<svg version="1.1" id="Layer_1" xmlns="http://www.w3.org/2000/svg" xmlns:xlink="http://www.w3.org/1999/xlink" x="0px" y="0px"
	 width="493px" height="356px" viewBox="0 0 493 356" style="enable-background:new 0 0 493 356;" xml:space="preserve">
<style type="text/css">
	.st0{fill:#FFFFFF;}
	.st1{fill:#FFB366;}
	.st2{enable-background:new    ;}
	.st3{fill:none;stroke:#000000;stroke-miterlimit:10;}
	.st4{stroke:#000000;stroke-miterlimit:10;}
	.st5{fill:none;}
	.st6{fill:#EDED00;}
</style>
<rect x="-7.8" y="-10.2" class="st0" width="510.3" height="379.3"/>
<path pointer-events="all" class="st1" d="M421.9,35.1c-5.3,0.2-9.1-1.6-11.4-3.7c2.5-3.6,3-7.5,0.9-11.5c2.9-2.1,6.4-2.9,9.7-2.9
	c7.6,0.2,13,4.6,12.5,9.7C433.4,30.3,429.5,34.6,421.9,35.1z M415,53.3c0.1-2.1,0.3-4.4,0.1-6.1c-0.4-3.4-2.4-7.1-6.3-10
	c0.8-0.8,1.5-1.4,2.3-1.8c4.4,2.3,12.4,3.5,19.5,0c3.3,2.2,4.7,4.8,4.8,7.4c0.1,2.3-0.1,4.3-0.4,6c-0.3,3.5-3.5,4.5-9,4.5L415,53.3z
	 M392.9,37.4c-9.3,0-17.7-5-17.7-12.8c0-6.5,8.1-12.1,17.4-12.1c9.4,0,17.8,5.1,17.8,12.5C410.4,32.3,401.8,37.4,392.9,37.4z
	 M383.2,62.3c-6.5-0.3-10.3-2.1-10.5-5.7c-0.3-3.6,0-6.1,0-9c0.5-4.5,3.3-7.6,6.6-9.8c9.4,4.7,20.4,3.4,26.9,0
	c3.7,2.4,6.3,5.8,6.6,9.7c0.1,3.5-0.1,6.9-0.6,9.6c-0.2,1.6-1.6,3.2-3.7,4.1c-1.8,0.7-4.2,1-7,1.1c-1.2,0.1-10.6,0-14.9,0
	C385.6,62.4,384.5,62.4,383.2,62.3z"/>
<g transform="translate(-0.5 -0.5)">
	<g class="st2">
		<path d="M370.4,76.9h3.6v4.6h-1.2l-0.2-1.1c-0.5,0.5-1.1,1.3-2.7,1.3c-2.1,0-4-1.5-4-4.5c0-2.4,1.3-4.6,4.2-4.6
			c2.6,0,3.7,1.7,3.8,2.9h-1.8c0-0.3-0.6-1.4-1.9-1.4c-1.3,0-2.5,0.9-2.5,3.1c0,2.4,1.3,3,2.5,3c0.4,0,1.7-0.2,2.1-1.9h-2V76.9z"/>
		<path d="M375.5,75.1h1.6v1.1h0c0.3-0.6,0.7-1.3,1.8-1.3c0.1,0,0.2,0,0.3,0v1.7c-0.1,0-0.3,0-0.5,0c-1.3,0-1.5,0.8-1.5,1.5v3.3
			h-1.7V75.1z"/>
		<path d="M386,81.5h-1.6v-0.9h0c-0.4,0.7-1.1,1.1-1.9,1.1c-1.3,0-2.2-0.7-2.2-2.4v-4.2h1.7v4c0,1,0.6,1.2,1.1,1.2
			c0.6,0,1.3-0.3,1.3-1.5v-3.7h1.7V81.5z"/>
		<path d="M389.1,76L389.1,76c0.3-0.5,0.8-1.1,1.9-1.1c1.4,0,2.7,1.1,2.7,3.3c0,1.8-0.8,3.4-2.7,3.4c-1.2,0-1.6-0.6-1.8-1h0V84h-1.7
			v-8.9h1.6V76z M390.6,80.3c1.1,0,1.4-1.2,1.4-1.9c0-1-0.4-2-1.4-2c-1.2,0-1.4,1-1.4,2.1C389.1,79.4,389.5,80.3,390.6,80.3z"/>
		<path d="M396.4,76L396.4,76c0.3-0.5,0.8-1.1,1.9-1.1c1.4,0,2.7,1.1,2.7,3.3c0,1.8-0.8,3.4-2.7,3.4c-1.2,0-1.6-0.6-1.8-1h0V84h-1.7
			v-8.9h1.6V76z M397.9,80.3c1.1,0,1.4-1.2,1.4-1.9c0-1-0.4-2-1.4-2c-1.2,0-1.4,1-1.4,2.1C396.4,79.4,396.9,80.3,397.9,80.3z"/>
		<path d="M405.1,81.7c-1.7,0-3.3-1.1-3.3-3.4s1.5-3.4,3.3-3.4s3.3,1.1,3.3,3.4S406.8,81.7,405.1,81.7z M405.1,76.4
			c-1.3,0-1.5,1.1-1.5,1.9s0.2,1.9,1.5,1.9c1.3,0,1.5-1.1,1.5-1.9S406.4,76.4,405.1,76.4z"/>
		<path d="M415.5,81.5h-1.8v-7.1h-2.6v-1.5h7v1.5h-2.6V81.5z"/>
		<path d="M423.7,81.5h-1.6v-0.9h0c-0.4,0.7-1.1,1.1-1.9,1.1c-1.3,0-2.2-0.7-2.2-2.4v-4.2h1.7v4c0,1,0.6,1.2,1.1,1.2
			c0.6,0,1.3-0.3,1.3-1.5v-3.7h1.7V81.5z"/>
		<path d="M427.1,75.1h1v1.2h-1v3.5c0,0.4,0,0.5,0.7,0.5c0.1,0,0.2,0,0.3,0v1.3c-0.3,0-0.5,0-0.8,0h-0.2c-1.5,0-1.7-0.6-1.7-1.4
			v-3.9h-0.9v-1.2h0.9v-1.7h1.7V75.1z"/>
		<path d="M431.1,75.1h1v1.2h-1v3.5c0,0.4,0,0.5,0.7,0.5c0.1,0,0.2,0,0.3,0v1.3c-0.3,0-0.5,0-0.8,0h-0.2c-1.5,0-1.7-0.6-1.7-1.4
			v-3.9h-0.9v-1.2h0.9v-1.7h1.7V75.1z"/>
		<path d="M435,74.4h-1.7v-1.6h1.7V74.4z M435,75.1v6.4h-1.7v-6.4H435z"/>
		<path d="M352.2,89.5v6c0,1.1-0.1,2.9-3.2,2.9c-1.3,0-2.7-0.6-2.8-1.9h1.8c0.1,0.3,0.2,0.6,1.2,0.6c0.9,0,1.3-0.4,1.3-1.5V95l0,0
			c-0.3,0.5-0.7,1-1.7,1c-1.5,0-2.7-1.1-2.7-3.3c0-2.2,1.2-3.3,2.7-3.3c1.2,0,1.7,0.7,1.9,1.1h0v-0.9H352.2z M349.1,94.5
			c1.1,0,1.4-1,1.4-1.8c0-1-0.5-1.9-1.4-1.9c-0.6,0-1.3,0.5-1.3,1.9C347.8,93.6,348.2,94.5,349.1,94.5z"/>
		<path d="M355.4,95.9h-1.7v-8.6h1.7V95.9z"/>
		<path d="M358.8,88.8h-1.7v-1.6h1.7V88.8z M358.8,89.5v6.4h-1.7v-6.4H358.8z"/>
		<path d="M369.5,95.9h-1.6V95h0c-0.4,0.7-1.1,1.1-1.9,1.1c-1.3,0-2.2-0.7-2.2-2.4v-4.2h1.7v4c0,1,0.6,1.2,1.1,1.2
			c0.6,0,1.3-0.3,1.3-1.5v-3.7h1.7V95.9z"/>
		<path d="M372.9,89.5h1v1.2h-1v3.5c0,0.4,0,0.5,0.7,0.5c0.1,0,0.2,0,0.3,0v1.3c-0.3,0-0.5,0-0.8,0H373c-1.5,0-1.7-0.6-1.7-1.4v-3.9
			h-0.9v-1.2h0.9v-1.7h1.7V89.5z"/>
		<path d="M380.5,94c-0.4,1.5-1.7,2-2.8,2c-1.8,0-3.2-0.9-3.2-3.5c0-0.8,0.3-3.2,3.1-3.2c1.3,0,3,0.6,3,3.5v0.3h-4.4
			c0,0.5,0.1,1.6,1.5,1.6c0.5,0,0.9-0.2,1.1-0.7H380.5z M378.9,92.1c-0.1-1-0.8-1.3-1.3-1.3c-0.8,0-1.2,0.5-1.3,1.3H378.9z"/>
		<path d="M387.5,95.9h-1.7V92c0-0.5,0-1.3-1.1-1.3c-0.7,0-1.3,0.5-1.3,1.5v3.7h-1.7v-6.4h1.6v0.9h0c0.2-0.4,0.7-1.1,1.9-1.1
			c1.2,0,2.2,0.7,2.2,2.1V95.9z"/>
		<path d="M390.9,89.5h1v1.2h-1v3.5c0,0.4,0,0.5,0.7,0.5c0.1,0,0.2,0,0.3,0v1.3c-0.3,0-0.5,0-0.8,0H391c-1.5,0-1.7-0.6-1.7-1.4v-3.9
			h-0.9v-1.2h0.9v-1.7h1.7V89.5z"/>
		<path d="M394.8,88.8h-1.7v-1.6h1.7V88.8z M394.8,89.5v6.4h-1.7v-6.4H394.8z"/>
		<path d="M404.9,94.7c0,0.8,0.2,0.9,0.4,1v0.3h-1.8c-0.1-0.3-0.1-0.4-0.2-0.8c-0.4,0.4-0.9,0.9-2.1,0.9c-1,0-1.9-0.5-1.9-1.9
			c0-1.2,0.8-1.9,1.9-2l1.5-0.2c0.3,0,0.6-0.1,0.6-0.5c0-0.7-0.7-0.7-1.1-0.7c-0.8,0-1,0.5-1,0.9h-1.6c0.2-2,1.5-2.2,2.9-2.2
			c0.9,0,2.5,0.3,2.5,1.8V94.7z M403.3,92.8c-0.2,0.1-0.4,0.2-1.1,0.3c-0.6,0.1-1.1,0.3-1.1,1c0,0.6,0.5,0.8,0.8,0.8
			c0.7,0,1.5-0.5,1.5-1.3V92.8z"/>
		<path d="M412.2,95.9h-1.6V95h0c-0.4,0.7-1.1,1.1-1.9,1.1c-1.3,0-2.2-0.7-2.2-2.4v-4.2h1.7v4c0,1,0.6,1.2,1.1,1.2
			c0.6,0,1.3-0.3,1.3-1.5v-3.7h1.7V95.9z"/>
		<path d="M415.6,89.5h1v1.2h-1v3.5c0,0.4,0,0.5,0.7,0.5c0.1,0,0.2,0,0.3,0v1.3c-0.3,0-0.5,0-0.8,0h-0.2c-1.5,0-1.7-0.6-1.7-1.4
			v-3.9h-0.9v-1.2h0.9v-1.7h1.7V89.5z"/>
		<path d="M423.2,94c-0.4,1.5-1.7,2-2.8,2c-1.8,0-3.2-0.9-3.2-3.5c0-0.8,0.3-3.2,3.1-3.2c1.3,0,3,0.6,3,3.5v0.3h-4.4
			c0,0.5,0.1,1.6,1.5,1.6c0.5,0,0.9-0.2,1.1-0.7H423.2z M421.6,92.1c-0.1-1-0.8-1.3-1.3-1.3c-0.8,0-1.2,0.5-1.3,1.3H421.6z"/>
		<path d="M430.2,95.9h-1.7V92c0-0.5,0-1.3-1.1-1.3c-0.7,0-1.3,0.5-1.3,1.5v3.7h-1.7v-6.4h1.6v0.9h0c0.2-0.4,0.7-1.1,1.9-1.1
			c1.2,0,2.2,0.7,2.2,2.1V95.9z"/>
		<path d="M433.6,89.5h1v1.2h-1v3.5c0,0.4,0,0.5,0.7,0.5c0.1,0,0.2,0,0.3,0v1.3c-0.3,0-0.5,0-0.8,0h-0.2c-1.5,0-1.7-0.6-1.7-1.4
			v-3.9h-0.9v-1.2h0.9v-1.7h1.7V89.5z"/>
		<path d="M437.5,88.8h-1.7v-1.6h1.7V88.8z M437.5,89.5v6.4h-1.7v-6.4H437.5z"/>
		<path d="M444.6,93.6c-0.1,0.7-0.6,2.5-2.9,2.5c-2.4,0-3-1.8-3-3.2c0-2.1,0.9-3.5,3.1-3.5c1,0,2.7,0.5,2.8,2.4h-1.7
			c-0.1-0.4-0.3-1.1-1.1-1c-1.1,0-1.3,1.1-1.3,1.8c0,0.7,0,2.1,1.3,2.1c0.9,0,1.1-0.8,1.1-1.1H444.6z"/>
		<path d="M450.9,94.7c0,0.8,0.2,0.9,0.4,1v0.3h-1.8c-0.1-0.3-0.1-0.4-0.2-0.8c-0.4,0.4-0.9,0.9-2.1,0.9c-1,0-1.9-0.5-1.9-1.9
			c0-1.2,0.8-1.9,1.9-2l1.5-0.2c0.3,0,0.6-0.1,0.6-0.5c0-0.7-0.7-0.7-1.1-0.7c-0.8,0-1,0.5-1,0.9h-1.6c0.2-2,1.5-2.2,2.9-2.2
			c0.9,0,2.5,0.3,2.5,1.8V94.7z M449.3,92.8c-0.2,0.1-0.4,0.2-1.1,0.3c-0.6,0.1-1.1,0.3-1.1,1c0,0.6,0.5,0.8,0.8,0.8
			c0.7,0,1.5-0.5,1.5-1.3V92.8z"/>
		<path d="M454.3,89.5h1v1.2h-1v3.5c0,0.4,0,0.5,0.7,0.5c0.1,0,0.2,0,0.3,0v1.3c-0.3,0-0.5,0-0.8,0h-0.2c-1.5,0-1.7-0.6-1.7-1.4
			v-3.9h-0.9v-1.2h0.9v-1.7h1.7V89.5z"/>
		<path d="M458.1,88.8h-1.7v-1.6h1.7V88.8z M458.1,89.5v6.4h-1.7v-6.4H458.1z"/>
	</g>
</g>
<path pointer-events="stroke" class="st3" d="M342.5,52.5h-63.6"/>
<path pointer-events="all" class="st4" d="M273.6,52.5l7-3.5l-1.8,3.5l1.8,3.5L273.6,52.5z"/>
<path pointer-events="all" class="st1" d="M421.9,195.1c-5.3,0.2-9.1-1.6-11.4-3.7c2.5-3.6,3-7.5,0.9-11.5c2.9-2.1,6.4-2.9,9.7-2.9
	c7.6,0.2,13,4.6,12.5,9.7C433.4,190.3,429.5,194.6,421.9,195.1z M415,213.3c0.1-2.1,0.3-4.3,0.1-6.1c-0.4-3.4-2.4-7.1-6.3-10
	c0.8-0.8,1.5-1.4,2.3-1.8c4.4,2.3,12.4,3.5,19.5,0c3.3,2.2,4.7,4.8,4.8,7.4c0.1,2.3-0.1,4.3-0.4,6c-0.3,3.5-3.5,4.5-9,4.5L415,213.3
	z M392.9,197.4c-9.3,0-17.7-5-17.7-12.8c0-6.5,8.1-12.1,17.4-12.1c9.4,0,17.8,5.1,17.8,12.5C410.4,192.3,401.8,197.4,392.9,197.4z
	 M383.2,222.3c-6.5-0.3-10.3-2.1-10.5-5.7c-0.3-3.6,0-6.1,0-9c0.5-4.5,3.3-7.6,6.6-9.8c9.4,4.7,20.4,3.4,26.9,0
	c3.7,2.4,6.3,5.8,6.6,9.7c0.1,3.5-0.1,6.9-0.6,9.6c-0.2,1.6-1.6,3.2-3.7,4.1c-1.8,0.7-4.2,1-7,1.1c-1.2,0.1-10.6,0-14.9,0
	C385.6,222.4,384.5,222.4,383.2,222.3z"/>
<g transform="translate(-0.5 -0.5)">
	<g class="st2">
		<path d="M340.6,236.9h3.6v4.6H343l-0.2-1.1c-0.5,0.5-1.1,1.3-2.7,1.3c-2.1,0-4-1.5-4-4.5c0-2.4,1.3-4.6,4.2-4.6
			c2.6,0,3.7,1.7,3.8,2.9h-1.8c0-0.3-0.6-1.4-1.9-1.4c-1.3,0-2.5,0.9-2.5,3.1c0,2.4,1.3,3,2.5,3c0.4,0,1.7-0.2,2.1-1.9h-2V236.9z"/>
		<path d="M345.7,235.1h1.6v1.1h0c0.3-0.6,0.7-1.3,1.8-1.3c0.1,0,0.2,0,0.3,0v1.7c-0.1,0-0.3,0-0.5,0c-1.3,0-1.5,0.8-1.5,1.5v3.3
			h-1.7V235.1z"/>
		<path d="M356.2,241.5h-1.6v-0.9h0c-0.4,0.7-1.1,1.1-1.9,1.1c-1.3,0-2.2-0.7-2.2-2.4v-4.2h1.7v4c0,1,0.6,1.2,1.1,1.2
			c0.6,0,1.3-0.3,1.3-1.5v-3.7h1.7V241.5z"/>
		<path d="M359.3,236L359.3,236c0.3-0.5,0.8-1.1,1.9-1.1c1.4,0,2.7,1.1,2.7,3.3c0,1.8-0.8,3.4-2.7,3.4c-1.2,0-1.6-0.6-1.8-1h0v3.3
			h-1.7v-8.9h1.6V236z M360.8,240.3c1.1,0,1.4-1.2,1.4-1.9c0-1-0.4-2-1.4-2c-1.2,0-1.4,1-1.4,2.1
			C359.3,239.4,359.7,240.3,360.8,240.3z"/>
		<path d="M366.6,236L366.6,236c0.3-0.5,0.8-1.1,1.9-1.1c1.4,0,2.7,1.1,2.7,3.3c0,1.8-0.8,3.4-2.7,3.4c-1.2,0-1.6-0.6-1.8-1h0v3.3
			H365v-8.9h1.6V236z M368.1,240.3c1.1,0,1.4-1.2,1.4-1.9c0-1-0.4-2-1.4-2c-1.2,0-1.4,1-1.4,2.1C366.6,239.4,367,240.3,368.1,240.3z
			"/>
		<path d="M375.3,241.7c-1.7,0-3.3-1.1-3.3-3.4s1.5-3.4,3.3-3.4c1.7,0,3.3,1.1,3.3,3.4S377,241.7,375.3,241.7z M375.3,236.4
			c-1.3,0-1.5,1.1-1.5,1.9s0.2,1.9,1.5,1.9c1.3,0,1.5-1.1,1.5-1.9S376.6,236.4,375.3,236.4z"/>
		<path d="M390.1,238.5c0,2.3-1.4,3.2-3.5,3.2c-0.8,0-2-0.2-2.7-1c-0.5-0.5-0.6-1.2-0.7-2.1v-5.7h1.8v5.6c0,1.2,0.7,1.7,1.5,1.7
			c1.2,0,1.7-0.6,1.7-1.6v-5.7h1.8V238.5z"/>
		<path d="M393.6,235.1h1v1.2h-1v3.5c0,0.4,0,0.5,0.7,0.5c0.1,0,0.2,0,0.3,0v1.3c-0.3,0-0.5,0-0.8,0h-0.2c-1.5,0-1.7-0.6-1.7-1.4
			v-3.9h-0.9v-1.2h0.9v-1.7h1.7V235.1z"/>
		<path d="M401.2,239.6c-0.4,1.5-1.7,2-2.8,2c-1.8,0-3.2-0.9-3.2-3.5c0-0.8,0.3-3.2,3.1-3.2c1.3,0,3,0.6,3,3.5v0.3h-4.4
			c0,0.5,0.1,1.6,1.5,1.6c0.5,0,0.9-0.2,1.1-0.7H401.2z M399.5,237.7c-0.1-1-0.8-1.3-1.3-1.3c-0.8,0-1.2,0.5-1.3,1.3H399.5z"/>
		<path d="M408.2,241.5h-1.7v-3.9c0-0.5,0-1.3-1.1-1.3c-0.7,0-1.3,0.5-1.3,1.5v3.7h-1.7v-6.4h1.6v0.9h0c0.2-0.4,0.7-1.1,1.9-1.1
			c1.2,0,2.2,0.7,2.2,2.1V241.5z"/>
		<path d="M411.6,235.1h1v1.2h-1v3.5c0,0.4,0,0.5,0.7,0.5c0.1,0,0.2,0,0.3,0v1.3c-0.3,0-0.5,0-0.8,0h-0.2c-1.5,0-1.7-0.6-1.7-1.4
			v-3.9h-0.9v-1.2h0.9v-1.7h1.7V235.1z"/>
		<path d="M415.4,234.4h-1.7v-1.6h1.7V234.4z M415.4,235.1v6.4h-1.7v-6.4H415.4z"/>
		<path d="M429.5,241.5h-1.7v-3.9c0-0.9-0.4-1.3-0.9-1.3c-0.8,0-1.1,0.6-1.1,1.3v3.8h-1.7v-3.8c0-0.5,0-1.3-1-1.3
			c-0.8,0-1,0.6-1,1.2v3.9h-1.7v-6.4h1.6v0.9h0c0.2-0.4,0.7-1.1,1.8-1.1c0.9,0,1.3,0.3,1.8,1c0.2-0.3,0.7-1,1.7-1
			c1.2,0,2.2,0.7,2.2,2.1V241.5z"/>
		<path d="M436.2,240.3c0,0.8,0.2,0.9,0.4,1v0.3h-1.8c-0.1-0.3-0.1-0.4-0.2-0.8c-0.4,0.4-0.9,0.9-2.1,0.9c-1,0-1.9-0.5-1.9-1.9
			c0-1.2,0.8-1.9,1.9-2l1.5-0.2c0.3,0,0.6-0.1,0.6-0.5c0-0.7-0.7-0.7-1.1-0.7c-0.8,0-1,0.5-1,0.9h-1.6c0.2-2,1.5-2.2,2.9-2.2
			c0.9,0,2.5,0.3,2.5,1.8V240.3z M434.6,238.4c-0.2,0.1-0.4,0.2-1.1,0.3c-0.6,0.1-1.1,0.3-1.1,1c0,0.6,0.5,0.8,0.8,0.8
			c0.7,0,1.5-0.5,1.5-1.3V238.4z"/>
		<path d="M437.7,235.1h1.6v1.1h0c0.3-0.6,0.7-1.3,1.8-1.3c0.1,0,0.2,0,0.3,0v1.7c-0.1,0-0.3,0-0.5,0c-1.3,0-1.5,0.8-1.5,1.5v3.3
			h-1.7V235.1z"/>
		<path d="M444.1,241.5h-1.7v-8.6h1.7v4.7l2.1-2.4h2.1l-2.3,2.5l2.3,3.9h-2l-1.5-2.7l-0.7,0.7V241.5z"/>
		<path d="M454.6,239.6c-0.4,1.5-1.7,2-2.8,2c-1.8,0-3.2-0.9-3.2-3.5c0-0.8,0.3-3.2,3.1-3.2c1.3,0,3,0.6,3,3.5v0.3h-4.4
			c0,0.5,0.1,1.6,1.5,1.6c0.5,0,0.9-0.2,1.1-0.7H454.6z M452.9,237.7c-0.1-1-0.8-1.3-1.3-1.3c-0.8,0-1.2,0.5-1.3,1.3H452.9z"/>
		<path d="M457.6,235.1h1v1.2h-1v3.5c0,0.4,0,0.5,0.7,0.5c0.1,0,0.2,0,0.3,0v1.3c-0.3,0-0.5,0-0.8,0h-0.2c-1.5,0-1.7-0.6-1.7-1.4
			v-3.9h-0.9v-1.2h0.9v-1.7h1.7V235.1z"/>
		<path d="M461.5,234.4h-1.7v-1.6h1.7V234.4z M461.5,235.1v6.4h-1.7v-6.4H461.5z"/>
		<path d="M468.8,241.5h-1.7v-3.9c0-0.5,0-1.3-1.1-1.3c-0.7,0-1.3,0.5-1.3,1.5v3.7h-1.7v-6.4h1.6v0.9h0c0.2-0.4,0.7-1.1,1.9-1.1
			c1.2,0,2.2,0.7,2.2,2.1V241.5z"/>
		<path d="M476.3,235.1v6c0,1.1-0.1,2.9-3.2,2.9c-1.3,0-2.7-0.6-2.8-1.9h1.8c0.1,0.3,0.2,0.6,1.2,0.6c0.9,0,1.3-0.4,1.3-1.5v-0.8
			l0,0c-0.3,0.5-0.7,1-1.7,1c-1.5,0-2.7-1.1-2.7-3.3c0-2.2,1.2-3.3,2.7-3.3c1.2,0,1.7,0.7,1.9,1.1h0v-0.9H476.3z M473.2,240.1
			c1.1,0,1.4-1,1.4-1.8c0-1-0.5-1.9-1.4-1.9c-0.6,0-1.3,0.5-1.3,1.9C471.8,239.2,472.2,240.1,473.2,240.1z"/>
	</g>
</g>
<path pointer-events="stroke" class="st3" d="M342.5,197h-63.6"/>
<path pointer-events="all" class="st4" d="M273.6,197l7-3.5l-1.8,3.5l1.8,3.5L273.6,197z"/>
<rect x="276.5" y="22.5" pointer-events="all" class="st5" width="60" height="30"/>
<g transform="translate(-0.5 -0.5)">
	<g class="st2">
		<path d="M266.4,41.5h-1.2v-8.6h3.9c1.6,0,2.6,1,2.6,2.4c0,1.2-0.7,2.6-2.6,2.6h-2.7V41.5z M266.4,36.9h2.3c1,0,1.8-0.4,1.8-1.5
			c0-1.1-0.7-1.4-1.7-1.4h-2.4V36.9z"/>
		<path d="M277.1,41.5v-0.9l0,0c-0.4,0.7-1,1.1-2,1.1c-0.9,0-2-0.4-2-1.9v-4.5h1.1v4.2c0,1,0.5,1.4,1.2,1.4c1.3,0,1.7-1.2,1.7-2.1
			v-3.5h1.1v6.3H277.1z"/>
		<path d="M282.2,35c2,0,2.9,1.7,2.9,3.3s-0.9,3.3-2.9,3.3s-2.9-1.7-2.9-3.3S280.2,35,282.2,35z M280.4,32.7h1.3l1.1,1.7h-0.8
			L280.4,32.7z M282.2,40.8c1.5,0,1.8-1.6,1.8-2.4c0-0.8-0.3-2.4-1.8-2.4s-1.8,1.6-1.8,2.4C280.4,39.2,280.7,40.8,282.2,40.8z"/>
		<path d="M293.6,35.2h1.2l-2.4,6.3h-1.1l-2.3-6.3h1.2l1.6,5.1h0L293.6,35.2z"/>
		<path d="M295.7,34.1v-1.2h1.1v1.2H295.7z M296.7,41.5h-1.1v-6.3h1.1V41.5z"/>
		<path d="M301.9,37c0-0.4-0.2-1.1-1.5-1.1c-0.3,0-1.2,0.1-1.2,0.9c0,0.5,0.3,0.6,1.1,0.8l1.1,0.3c1.3,0.3,1.8,0.8,1.8,1.7
			c0,1.3-1.1,2.1-2.5,2.1c-2.5,0-2.7-1.4-2.7-2.2h1c0,0.5,0.2,1.3,1.7,1.3c0.8,0,1.4-0.3,1.4-1c0-0.5-0.3-0.7-1.2-0.9l-1.2-0.3
			c-0.9-0.2-1.5-0.7-1.5-1.5c0-1.4,1.1-2,2.4-2c2.2,0,2.4,1.7,2.4,2H301.9z"/>
		<path d="M308.4,41.5v-0.9l0,0c-0.4,0.7-1,1.1-2,1.1c-0.9,0-2-0.4-2-1.9v-4.5h1.1v4.2c0,1,0.5,1.4,1.2,1.4c1.3,0,1.7-1.2,1.7-2.1
			v-3.5h1.1v6.3H308.4z"/>
		<path d="M311,37.1c0-1.5,1-2.1,2.6-2.1c0.5,0,2.3,0.1,2.3,1.8v3.6c0,0.3,0.1,0.4,0.3,0.4c0.1,0,0.2,0,0.3,0v0.8
			c-0.2,0-0.3,0.1-0.6,0.1c-0.9,0-1.1-0.5-1.1-1c-0.4,0.4-1,1-2.3,1c-1.2,0-2-0.7-2-1.8c0-0.5,0.2-1.8,1.9-2l1.7-0.2
			c0.3,0,0.6-0.1,0.6-0.7c0-0.7-0.5-1-1.5-1c-1.2,0-1.4,0.7-1.4,1.2H311z M314.8,38.3c-0.2,0.1-0.4,0.2-1.7,0.4
			c-0.5,0.1-1.3,0.2-1.3,1c0,0.7,0.3,1.1,1.1,1.1c1,0,1.9-0.6,1.9-1.5V38.3z"/>
		<path d="M318.7,41.5h-1.1v-8.6h1.1V41.5z"/>
		<path d="M320.3,34.1v-1.2h1.1v1.2H320.3z M321.4,41.5h-1.1v-6.3h1.1V41.5z"/>
		<path d="M324,40.6h3.9v0.9h-5.3v-0.8l3.8-4.6h-3.5v-0.9h4.9v0.9L324,40.6z"/>
		<path d="M330,40.6h3.9v0.9h-5.3v-0.8l3.8-4.6h-3.5v-0.9h4.9v0.9L330,40.6z"/>
		<path d="M335,37.1c0-1.5,1-2.1,2.6-2.1c0.5,0,2.3,0.1,2.3,1.8v3.6c0,0.3,0.1,0.4,0.3,0.4c0.1,0,0.2,0,0.3,0v0.8
			c-0.2,0-0.3,0.1-0.6,0.1c-0.9,0-1.1-0.5-1.1-1c-0.4,0.4-1,1-2.3,1c-1.2,0-2-0.7-2-1.8c0-0.5,0.2-1.8,1.9-2l1.7-0.2
			c0.3,0,0.6-0.1,0.6-0.7c0-0.7-0.5-1-1.5-1c-1.2,0-1.4,0.7-1.4,1.2H335z M338.8,38.3c-0.2,0.1-0.4,0.2-1.7,0.4
			c-0.5,0.1-1.3,0.2-1.3,1c0,0.7,0.3,1.1,1.1,1.1c1,0,1.9-0.6,1.9-1.5V38.3z"/>
		<path d="M342.9,41.5h-1.1v-6.3h1v1h0c0.4-0.7,1-1.2,1.8-1.2c0.1,0,0.2,0,0.3,0v1.1h-0.4c-1,0-1.6,0.8-1.6,1.7V41.5z"/>
		<path d="M351,39.5c0,0.3-0.3,1.2-1.1,1.7c-0.3,0.2-0.7,0.4-1.7,0.4c-1.8,0-2.8-1.3-2.8-3.1c0-1.9,0.9-3.5,3-3.5
			c1.8,0,2.7,1.4,2.7,3.7h-4.6c0,1.3,0.6,2.1,1.8,2.1c1,0,1.6-0.8,1.6-1.2H351z M350,37.9c-0.1-1-0.5-1.9-1.8-1.9
			c-1,0-1.7,0.9-1.7,1.9H350z"/>
	</g>
</g>
<rect x="272.5" y="162.5" pointer-events="all" class="st5" width="60" height="30"/>
<g transform="translate(-0.5 -0.5)">
	<g class="st2">
		<path d="M266,181.5h-1.2v-8.6h3.9c1.6,0,2.6,1,2.6,2.4c0,1.2-0.7,2.6-2.6,2.6H266V181.5z M266,176.9h2.3c1,0,1.8-0.4,1.8-1.5
			c0-1.1-0.7-1.4-1.7-1.4H266V176.9z"/>
		<path d="M276.7,181.5v-0.9l0,0c-0.4,0.7-1,1.1-2,1.1c-0.9,0-2-0.4-2-1.9v-4.5h1.1v4.2c0,1,0.5,1.4,1.2,1.4c1.3,0,1.7-1.2,1.7-2.1
			v-3.5h1.1v6.3H276.7z"/>
		<path d="M281.8,175c2,0,2.9,1.7,2.9,3.3s-0.9,3.3-2.9,3.3s-2.9-1.7-2.9-3.3S279.8,175,281.8,175z M280,172.7h1.3l1.1,1.7h-0.8
			L280,172.7z M281.8,180.8c1.5,0,1.8-1.6,1.8-2.4c0-0.8-0.3-2.4-1.8-2.4c-1.5,0-1.8,1.6-1.8,2.4C280,179.2,280.3,180.8,281.8,180.8
			z"/>
		<path d="M289.3,175.2h1v0.9h0c0.2-0.3,0.8-1.1,1.9-1.1s1.5,0.7,1.7,1c0.5-0.6,0.9-1,1.9-1c0.7,0,1.9,0.3,1.9,2.1v4.3h-1.1v-4.1
			c0-0.9-0.3-1.5-1.2-1.5c-0.9,0-1.5,0.8-1.5,1.7v3.8H293v-4.3c0-0.5-0.2-1.2-1-1.2c-0.6,0-1.7,0.4-1.7,2.1v3.4h-1.1V175.2z"/>
		<path d="M301.8,175c2,0,2.9,1.7,2.9,3.3s-0.9,3.3-2.9,3.3s-2.9-1.7-2.9-3.3S299.8,175,301.8,175z M301.8,180.8
			c1.5,0,1.8-1.6,1.8-2.4c0-0.8-0.3-2.4-1.8-2.4c-1.5,0-1.8,1.6-1.8,2.4C300,179.2,300.3,180.8,301.8,180.8z"/>
		<path d="M311.1,181.5h-1v-0.9h0c-0.5,0.9-1.2,1-1.8,1c-2.1,0-2.8-2-2.8-3.5c0-1.8,0.9-3.1,2.6-3.1c1.1,0,1.6,0.7,1.9,1.1l0-0.1
			v-3.1h1.1V181.5z M308.4,180.8c0.7,0,1.7-0.4,1.7-2.1c0-1-0.2-2.7-1.7-2.7c-1.6,0-1.7,1.5-1.7,2.4
			C306.7,179.7,307.2,180.8,308.4,180.8z"/>
		<path d="M312.6,174.1v-1.2h1.1v1.2H312.6z M313.7,181.5h-1.1v-6.3h1.1V181.5z"/>
		<path d="M316.6,176.1v5.4h-1.1v-5.4h-0.9v-0.9h0.9v-1.1c0-0.9,0.6-1.4,1.6-1.4c0.2,0,0.3,0,0.5,0v0.9c-0.1,0-0.3,0-0.4,0
			c-0.5,0-0.6,0.2-0.6,0.7v0.8h1.1v0.9H316.6z"/>
		<path d="M318.6,174.1v-1.2h1.1v1.2H318.6z M319.7,181.5h-1.1v-6.3h1.1V181.5z"/>
		<path d="M325.2,177.3c-0.1-0.8-0.6-1.3-1.5-1.3c-1.3,0-1.7,1.2-1.7,2.4c0,1.1,0.3,2.4,1.7,2.4c0.7,0,1.3-0.5,1.5-1.5h1
			c-0.1,1-0.7,2.4-2.6,2.4c-1.8,0-2.8-1.3-2.8-3.1c0-1.9,0.9-3.5,3-3.5c1.6,0,2.3,1.2,2.4,2.3H325.2z"/>
		<path d="M327.2,177.1c0-1.5,1-2.1,2.6-2.1c0.5,0,2.3,0.1,2.3,1.8v3.6c0,0.3,0.1,0.4,0.3,0.4c0.1,0,0.2,0,0.3,0v0.8
			c-0.2,0-0.3,0.1-0.6,0.1c-0.9,0-1.1-0.5-1.1-1c-0.4,0.4-1,1-2.3,1c-1.2,0-2-0.7-2-1.8c0-0.5,0.2-1.8,1.9-2l1.7-0.2
			c0.3,0,0.6-0.1,0.6-0.7c0-0.7-0.5-1-1.5-1c-1.2,0-1.4,0.7-1.4,1.2H327.2z M331.1,178.3c-0.2,0.1-0.4,0.2-1.7,0.4
			c-0.5,0.1-1.3,0.2-1.3,1c0,0.7,0.3,1.1,1.1,1.1c1,0,1.9-0.6,1.9-1.5V178.3z"/>
		<path d="M335.2,181.5h-1.1v-6.3h1v1h0c0.4-0.7,1-1.2,1.8-1.2c0.1,0,0.2,0,0.3,0v1.1h-0.4c-1,0-1.6,0.8-1.6,1.7V181.5z"/>
		<path d="M343.3,179.5c0,0.3-0.3,1.2-1.1,1.7c-0.3,0.2-0.7,0.4-1.7,0.4c-1.8,0-2.8-1.3-2.8-3.1c0-1.9,0.9-3.5,3-3.5
			c1.8,0,2.7,1.4,2.7,3.7h-4.6c0,1.3,0.6,2.1,1.8,2.1c1,0,1.6-0.8,1.6-1.2H343.3z M342.3,177.9c-0.1-1-0.5-1.9-1.8-1.9
			c-1,0-1.7,0.9-1.7,1.9H342.3z"/>
	</g>
</g>
<rect x="2.5" y="272.5" pointer-events="all" class="st5" width="290" height="75"/>
<g transform="translate(-0.5 -0.5)">
	<g>
		<g class="st2">
			<path d="M5.4,274.9h4.4c2.3,0,2.7,1.7,2.7,2.4c0,0.9-0.5,1.8-1.3,2.1c0.7,0.3,1.1,0.6,1.1,2.2c0,1.3,0,1.6,0.4,1.7v0.2h-2
				c-0.1-0.4-0.2-0.9-0.2-1.7c0-1.2-0.1-1.6-1.4-1.6H7.2v3.4H5.4V274.9z M9.3,278.7c0.9,0,1.4-0.3,1.4-1.2c0-0.5-0.2-1.1-1.3-1.1
				H7.2v2.3H9.3z"/>
			<path d="M15.7,276.4H14v-1.6h1.7V276.4z M15.7,277.1v6.4H14v-6.4H15.7z"/>
			<path d="M20.9,279.1c-0.1-0.4-0.2-0.8-1.1-0.8s-1,0.3-1,0.6c0,1,4,0.3,4,2.6c0,1.9-1.8,2.2-2.8,2.2c-1.5,0-3-0.5-3.1-2.2h1.7
				c0,0.5,0.3,0.9,1.4,0.9c0.9,0,1.1-0.4,1.1-0.7c0-1.1-4-0.3-4-2.7c0-0.9,0.6-2.1,2.6-2.1c1.2,0,2.7,0.3,2.9,2.1H20.9z"/>
			<path d="M29.7,283.5h-1.6v-0.9h0c-0.4,0.7-1.1,1.1-1.9,1.1c-1.3,0-2.2-0.7-2.2-2.4v-4.2h1.7v4c0,1,0.6,1.2,1.1,1.2
				c0.6,0,1.3-0.3,1.3-1.5v-3.7h1.7V283.5z"/>
			<path d="M33,283.5h-1.7v-8.6H33V283.5z"/>
			<path d="M36.5,277.1h1v1.2h-1v3.5c0,0.4,0,0.5,0.7,0.5c0.1,0,0.2,0,0.3,0v1.3c-0.3,0-0.5,0-0.8,0h-0.2c-1.5,0-1.7-0.6-1.7-1.4
				v-3.9H34v-1.2h0.9v-1.7h1.7V277.1z"/>
			<path d="M43.8,282.3c0,0.8,0.2,0.9,0.4,1v0.3h-1.8c-0.1-0.3-0.1-0.4-0.2-0.8c-0.4,0.4-0.9,0.9-2.1,0.9c-1,0-1.9-0.5-1.9-1.9
				c0-1.2,0.8-1.9,1.9-2l1.5-0.2c0.3,0,0.6-0.1,0.6-0.5c0-0.7-0.7-0.7-1.1-0.7c-0.8,0-1,0.5-1,0.9h-1.6c0.2-2,1.5-2.2,2.9-2.2
				c0.9,0,2.5,0.3,2.5,1.8V282.3z M42.1,280.4c-0.2,0.1-0.4,0.2-1.1,0.3c-0.6,0.1-1.1,0.3-1.1,1c0,0.6,0.5,0.8,0.8,0.8
				c0.7,0,1.5-0.5,1.5-1.3V280.4z"/>
			<path d="M47.2,277.1h1v1.2h-1v3.5c0,0.4,0,0.5,0.7,0.5c0.1,0,0.2,0,0.3,0v1.3c-0.3,0-0.5,0-0.8,0h-0.2c-1.5,0-1.7-0.6-1.7-1.4
				v-3.9h-0.9v-1.2h0.9v-1.7h1.7V277.1z"/>
			<path d="M52.2,283.7c-1.7,0-3.3-1.1-3.3-3.4s1.5-3.4,3.3-3.4c1.7,0,3.3,1.1,3.3,3.4S53.9,283.7,52.2,283.7z M52.2,278.4
				c-1.3,0-1.5,1.1-1.5,1.9s0.2,1.9,1.5,1.9s1.5-1.1,1.5-1.9S53.5,278.4,52.2,278.4z"/>
			<path d="M58.7,279.1h-1.8v-1.8h1.8V279.1z M58.7,283.5h-1.8v-1.8h1.8V283.5z"/>
			<path d="M65.2,276.4h-1.7v-1.6h1.7V276.4z M65.2,277.1v6.4h-1.7v-6.4H65.2z"/>
			<path d="M68.5,283.5h-1.7v-8.6h1.7V283.5z"/>
			<path d="M79.3,277.1v6c0,1.1-0.1,2.9-3.2,2.9c-1.3,0-2.7-0.6-2.8-1.9h1.8c0.1,0.3,0.2,0.6,1.2,0.6c0.9,0,1.3-0.4,1.3-1.5v-0.8
				l0,0c-0.3,0.5-0.7,1-1.7,1c-1.5,0-2.7-1.1-2.7-3.3c0-2.2,1.2-3.3,2.7-3.3c1.2,0,1.7,0.7,1.9,1.1h0v-0.9H79.3z M76.2,282.1
				c1.1,0,1.4-1,1.4-1.8c0-1-0.5-1.9-1.4-1.9c-0.6,0-1.3,0.5-1.3,1.9C74.9,281.2,75.2,282.1,76.2,282.1z"/>
			<path d="M80.8,277.1h1.6v1.1h0c0.3-0.6,0.7-1.3,1.8-1.3c0.1,0,0.2,0,0.3,0v1.7c-0.1,0-0.3,0-0.5,0c-1.3,0-1.5,0.8-1.5,1.5v3.3
				h-1.7V277.1z"/>
			<path d="M91.2,283.5h-1.6v-0.9h0c-0.4,0.7-1.1,1.1-1.9,1.1c-1.3,0-2.2-0.7-2.2-2.4v-4.2h1.7v4c0,1,0.6,1.2,1.1,1.2
				c0.6,0,1.3-0.3,1.3-1.5v-3.7h1.7V283.5z"/>
			<path d="M94.4,278L94.4,278c0.3-0.5,0.8-1.1,1.9-1.1c1.4,0,2.7,1.1,2.7,3.3c0,1.8-0.8,3.4-2.7,3.4c-1.2,0-1.6-0.6-1.8-1h0v3.3
				h-1.7v-8.9h1.6V278z M95.9,282.3c1.1,0,1.4-1.2,1.4-1.9c0-1-0.4-2-1.4-2c-1.2,0-1.4,1-1.4,2.1C94.4,281.4,94.8,282.3,95.9,282.3z
				"/>
			<path d="M101.7,278L101.7,278c0.3-0.5,0.8-1.1,1.9-1.1c1.4,0,2.7,1.1,2.7,3.3c0,1.8-0.8,3.4-2.7,3.4c-1.2,0-1.6-0.6-1.8-1h0v3.3
				h-1.7v-8.9h1.6V278z M103.2,282.3c1.1,0,1.4-1.2,1.4-1.9c0-1-0.4-2-1.4-2c-1.2,0-1.4,1-1.4,2.1
				C101.7,281.4,102.1,282.3,103.2,282.3z"/>
			<path d="M110.4,283.7c-1.7,0-3.3-1.1-3.3-3.4s1.5-3.4,3.3-3.4c1.7,0,3.3,1.1,3.3,3.4S112.1,283.7,110.4,283.7z M110.4,278.4
				c-1.3,0-1.5,1.1-1.5,1.9s0.2,1.9,1.5,1.9s1.5-1.1,1.5-1.9S111.7,278.4,110.4,278.4z"/>
			<path d="M120.7,283.5h-1.8v-7.1h-2.6v-1.5h7v1.5h-2.6V283.5z"/>
			<path d="M128.9,283.5h-1.6v-0.9h0c-0.4,0.7-1.1,1.1-1.9,1.1c-1.3,0-2.2-0.7-2.2-2.4v-4.2h1.7v4c0,1,0.6,1.2,1.1,1.2
				c0.6,0,1.3-0.3,1.3-1.5v-3.7h1.7V283.5z"/>
			<path d="M132.4,277.1h1v1.2h-1v3.5c0,0.4,0,0.5,0.7,0.5c0.1,0,0.2,0,0.3,0v1.3c-0.3,0-0.5,0-0.8,0h-0.2c-1.5,0-1.7-0.6-1.7-1.4
				v-3.9h-0.9v-1.2h0.9v-1.7h1.7V277.1z"/>
			<path d="M136.4,277.1h1v1.2h-1v3.5c0,0.4,0,0.5,0.7,0.5c0.1,0,0.2,0,0.3,0v1.3c-0.3,0-0.5,0-0.8,0h-0.2c-1.5,0-1.7-0.6-1.7-1.4
				v-3.9h-0.9v-1.2h0.9v-1.7h1.7V277.1z"/>
			<path d="M140.2,276.4h-1.7v-1.6h1.7V276.4z M140.2,277.1v6.4h-1.7v-6.4H140.2z"/>
			<path d="M151,277.1v6c0,1.1-0.1,2.9-3.2,2.9c-1.3,0-2.7-0.6-2.8-1.9h1.8c0.1,0.3,0.2,0.6,1.2,0.6c0.9,0,1.3-0.4,1.3-1.5v-0.8l0,0
				c-0.3,0.5-0.7,1-1.7,1c-1.5,0-2.7-1.1-2.7-3.3c0-2.2,1.2-3.3,2.7-3.3c1.2,0,1.7,0.7,1.9,1.1h0v-0.9H151z M147.9,282.1
				c1.1,0,1.4-1,1.4-1.8c0-1-0.5-1.9-1.4-1.9c-0.6,0-1.3,0.5-1.3,1.9C146.6,281.2,147,282.1,147.9,282.1z"/>
			<path d="M154.2,283.5h-1.7v-8.6h1.7V283.5z"/>
			<path d="M157.6,276.4h-1.7v-1.6h1.7V276.4z M157.6,277.1v6.4h-1.7v-6.4H157.6z"/>
			<path d="M168.3,283.5h-1.6v-0.9h0c-0.4,0.7-1.1,1.1-1.9,1.1c-1.3,0-2.2-0.7-2.2-2.4v-4.2h1.7v4c0,1,0.6,1.2,1.1,1.2
				c0.6,0,1.3-0.3,1.3-1.5v-3.7h1.7V283.5z"/>
			<path d="M171.7,277.1h1v1.2h-1v3.5c0,0.4,0,0.5,0.7,0.5c0.1,0,0.2,0,0.3,0v1.3c-0.3,0-0.5,0-0.8,0h-0.2c-1.5,0-1.7-0.6-1.7-1.4
				v-3.9h-0.9v-1.2h0.9v-1.7h1.7V277.1z"/>
			<path d="M179.3,281.6c-0.4,1.5-1.7,2-2.8,2c-1.8,0-3.2-0.9-3.2-3.5c0-0.8,0.3-3.2,3.1-3.2c1.3,0,3,0.6,3,3.5v0.3H175
				c0,0.5,0.1,1.6,1.5,1.6c0.5,0,0.9-0.2,1.1-0.7H179.3z M177.7,279.7c-0.1-1-0.8-1.3-1.3-1.3c-0.8,0-1.2,0.5-1.3,1.3H177.7z"/>
			<path d="M186.3,283.5h-1.7v-3.9c0-0.5,0-1.3-1.1-1.3c-0.7,0-1.3,0.5-1.3,1.5v3.7h-1.7v-6.4h1.6v0.9h0c0.2-0.4,0.7-1.1,1.9-1.1
				c1.2,0,2.2,0.7,2.2,2.1V283.5z"/>
			<path d="M189.7,277.1h1v1.2h-1v3.5c0,0.4,0,0.5,0.7,0.5c0.1,0,0.2,0,0.3,0v1.3c-0.3,0-0.5,0-0.8,0h-0.2c-1.5,0-1.7-0.6-1.7-1.4
				v-3.9h-0.9v-1.2h0.9v-1.7h1.7V277.1z"/>
			<path d="M193.6,276.4h-1.7v-1.6h1.7V276.4z M193.6,277.1v6.4h-1.7v-6.4H193.6z"/>
			<path d="M203.7,282.3c0,0.8,0.2,0.9,0.4,1v0.3h-1.8c-0.1-0.3-0.1-0.4-0.2-0.8c-0.4,0.4-0.9,0.9-2.1,0.9c-1,0-1.9-0.5-1.9-1.9
				c0-1.2,0.8-1.9,1.9-2l1.5-0.2c0.3,0,0.6-0.1,0.6-0.5c0-0.7-0.7-0.7-1.1-0.7c-0.8,0-1,0.5-1,0.9h-1.6c0.2-2,1.5-2.2,2.9-2.2
				c0.9,0,2.5,0.3,2.5,1.8V282.3z M202.1,280.4c-0.2,0.1-0.4,0.2-1.1,0.3c-0.6,0.1-1.1,0.3-1.1,1c0,0.6,0.5,0.8,0.8,0.8
				c0.7,0,1.5-0.5,1.5-1.3V280.4z"/>
			<path d="M211,283.5h-1.6v-0.9h0c-0.4,0.7-1.1,1.1-1.9,1.1c-1.3,0-2.2-0.7-2.2-2.4v-4.2h1.7v4c0,1,0.6,1.2,1.1,1.2
				c0.6,0,1.3-0.3,1.3-1.5v-3.7h1.7V283.5z"/>
			<path d="M214.4,277.1h1v1.2h-1v3.5c0,0.4,0,0.5,0.7,0.5c0.1,0,0.2,0,0.3,0v1.3c-0.3,0-0.5,0-0.8,0h-0.2c-1.5,0-1.7-0.6-1.7-1.4
				v-3.9h-0.9v-1.2h0.9v-1.7h1.7V277.1z"/>
			<path d="M222,281.6c-0.4,1.5-1.7,2-2.8,2c-1.8,0-3.2-0.9-3.2-3.5c0-0.8,0.3-3.2,3.1-3.2c1.3,0,3,0.6,3,3.5v0.3h-4.4
				c0,0.5,0.1,1.6,1.5,1.6c0.5,0,0.9-0.2,1.1-0.7H222z M220.4,279.7c-0.1-1-0.8-1.3-1.3-1.3c-0.8,0-1.2,0.5-1.3,1.3H220.4z"/>
			<path d="M229,283.5h-1.7v-3.9c0-0.5,0-1.3-1.1-1.3c-0.7,0-1.3,0.5-1.3,1.5v3.7h-1.7v-6.4h1.6v0.9h0c0.2-0.4,0.7-1.1,1.9-1.1
				c1.2,0,2.2,0.7,2.2,2.1V283.5z"/>
			<path d="M232.4,277.1h1v1.2h-1v3.5c0,0.4,0,0.5,0.7,0.5c0.1,0,0.2,0,0.3,0v1.3c-0.3,0-0.5,0-0.8,0h-0.2c-1.5,0-1.7-0.6-1.7-1.4
				v-3.9h-0.9v-1.2h0.9v-1.7h1.7V277.1z"/>
			<path d="M236.3,276.4h-1.7v-1.6h1.7V276.4z M236.3,277.1v6.4h-1.7v-6.4H236.3z"/>
			<path d="M243.4,281.2c-0.1,0.7-0.6,2.5-2.9,2.5c-2.4,0-3-1.8-3-3.2c0-2.1,0.9-3.5,3.1-3.5c1,0,2.7,0.5,2.8,2.4h-1.7
				c-0.1-0.4-0.3-1.1-1.1-1c-1.1,0-1.3,1.1-1.3,1.8c0,0.7,0,2.1,1.3,2.1c0.9,0,1.1-0.8,1.1-1.1H243.4z"/>
			<path d="M249.7,282.3c0,0.8,0.2,0.9,0.4,1v0.3h-1.8c-0.1-0.3-0.1-0.4-0.2-0.8c-0.4,0.4-0.9,0.9-2.1,0.9c-1,0-1.9-0.5-1.9-1.9
				c0-1.2,0.8-1.9,1.9-2l1.5-0.2c0.3,0,0.6-0.1,0.6-0.5c0-0.7-0.7-0.7-1.1-0.7c-0.8,0-1,0.5-1,0.9h-1.6c0.2-2,1.5-2.2,2.9-2.2
				c0.9,0,2.5,0.3,2.5,1.8V282.3z M248.1,280.4c-0.2,0.1-0.4,0.2-1.1,0.3c-0.6,0.1-1.1,0.3-1.1,1c0,0.6,0.5,0.8,0.8,0.8
				c0.7,0,1.5-0.5,1.5-1.3V280.4z"/>
			<path d="M253.1,277.1h1v1.2h-1v3.5c0,0.4,0,0.5,0.7,0.5c0.1,0,0.2,0,0.3,0v1.3c-0.3,0-0.5,0-0.8,0h-0.2c-1.5,0-1.7-0.6-1.7-1.4
				v-3.9h-0.9v-1.2h0.9v-1.7h1.7V277.1z"/>
			<path d="M256.9,276.4h-1.7v-1.6h1.7V276.4z M256.9,277.1v6.4h-1.7v-6.4H256.9z"/>
			<path d="M267.4,281.6c-0.4,1.5-1.7,2-2.8,2c-1.8,0-3.2-0.9-3.2-3.5c0-0.8,0.3-3.2,3.1-3.2c1.3,0,3,0.6,3,3.5v0.3h-4.4
				c0,0.5,0.1,1.6,1.5,1.6c0.5,0,0.9-0.2,1.1-0.7H267.4z M262.2,274.5h1.8l1.1,1.8h-1.2L262.2,274.5z M265.7,279.7
				c-0.1-1-0.8-1.3-1.3-1.3c-0.8,0-1.2,0.5-1.3,1.3H265.7z"/>
			<path d="M277.1,282.3c0,0.8,0.2,0.9,0.4,1v0.3h-1.8c-0.1-0.3-0.1-0.4-0.2-0.8c-0.4,0.4-0.9,0.9-2.1,0.9c-1,0-1.9-0.5-1.9-1.9
				c0-1.2,0.8-1.9,1.9-2l1.5-0.2c0.3,0,0.6-0.1,0.6-0.5c0-0.7-0.7-0.7-1.1-0.7c-0.8,0-1,0.5-1,0.9h-1.6c0.2-2,1.5-2.2,2.9-2.2
				c0.9,0,2.5,0.3,2.5,1.8V282.3z M275.4,280.4c-0.2,0.1-0.4,0.2-1.1,0.3c-0.6,0.1-1.1,0.3-1.1,1c0,0.6,0.5,0.8,0.8,0.8
				c0.7,0,1.5-0.5,1.5-1.3V280.4z"/>
			<path d="M284.3,283.5h-1.6v-0.9h0c-0.4,0.7-1.1,1.1-1.9,1.1c-1.3,0-2.2-0.7-2.2-2.4v-4.2h1.7v4c0,1,0.6,1.2,1.1,1.2
				c0.6,0,1.3-0.3,1.3-1.5v-3.7h1.7V283.5z"/>
			<path d="M287.8,277.1h1v1.2h-1v3.5c0,0.4,0,0.5,0.7,0.5c0.1,0,0.2,0,0.3,0v1.3c-0.3,0-0.5,0-0.8,0h-0.2c-1.5,0-1.7-0.6-1.7-1.4
				v-3.9h-0.9v-1.2h0.9v-1.7h1.7V277.1z"/>
			<path d="M292.8,283.7c-1.7,0-3.3-1.1-3.3-3.4s1.5-3.4,3.3-3.4s3.3,1.1,3.3,3.4S294.5,283.7,292.8,283.7z M292.8,278.4
				c-1.3,0-1.5,1.1-1.5,1.9s0.2,1.9,1.5,1.9s1.5-1.1,1.5-1.9S294.1,278.4,292.8,278.4z"/>
			<path d="M297.2,277.1h1.6v1.1h0c0.3-0.6,0.7-1.3,1.8-1.3c0.1,0,0.2,0,0.3,0v1.7c-0.1,0-0.3,0-0.5,0c-1.3,0-1.5,0.8-1.5,1.5v3.3
				h-1.7V277.1z"/>
			<path d="M303.6,276.4h-1.7v-1.6h1.7V276.4z M303.6,277.1v6.4h-1.7v-6.4H303.6z"/>
			<path d="M306.9,282.1h3.3v1.4h-5.5v-1.3l3.3-3.7h-3v-1.3h5.2v1.4L306.9,282.1z"/>
			<path d="M312.9,282.1h3.3v1.4h-5.5v-1.3l3.3-3.7h-3v-1.3h5.2v1.4L312.9,282.1z"/>
			<path d="M322.4,282.3c0,0.8,0.2,0.9,0.4,1v0.3h-1.8c-0.1-0.3-0.1-0.4-0.2-0.8c-0.4,0.4-0.9,0.9-2.1,0.9c-1,0-1.9-0.5-1.9-1.9
				c0-1.2,0.8-1.9,1.9-2l1.5-0.2c0.3,0,0.6-0.1,0.6-0.5c0-0.7-0.7-0.7-1.1-0.7c-0.8,0-1,0.5-1,0.9H317c0.2-2,1.5-2.2,2.9-2.2
				c0.9,0,2.5,0.3,2.5,1.8V282.3z M320.7,280.4c-0.2,0.1-0.4,0.2-1.1,0.3c-0.6,0.1-1.1,0.3-1.1,1c0,0.6,0.5,0.8,0.8,0.8
				c0.7,0,1.5-0.5,1.5-1.3V280.4z"/>
			<path d="M325.8,277.1h1v1.2h-1v3.5c0,0.4,0,0.5,0.7,0.5c0.1,0,0.2,0,0.3,0v1.3c-0.3,0-0.5,0-0.8,0h-0.2c-1.5,0-1.7-0.6-1.7-1.4
				v-3.9h-0.9v-1.2h0.9v-1.7h1.7V277.1z"/>
			<path d="M330.8,283.7c-1.7,0-3.3-1.1-3.3-3.4s1.5-3.4,3.3-3.4s3.3,1.1,3.3,3.4S332.5,283.7,330.8,283.7z M330.8,278.4
				c-1.3,0-1.5,1.1-1.5,1.9s0.2,1.9,1.5,1.9s1.5-1.1,1.5-1.9S332.1,278.4,330.8,278.4z"/>
			<path d="M10.4,296.7c0,0.8,0.2,0.9,0.4,1v0.3H9c-0.1-0.3-0.1-0.4-0.2-0.8c-0.4,0.4-0.9,0.9-2.1,0.9c-1,0-1.9-0.5-1.9-1.9
				c0-1.2,0.8-1.9,1.9-2l1.5-0.2c0.3,0,0.6-0.1,0.6-0.5c0-0.7-0.7-0.7-1.1-0.7c-0.8,0-1,0.5-1,0.9H5.1c0.2-2,1.5-2.2,2.9-2.2
				c0.9,0,2.5,0.3,2.5,1.8V296.7z M8.8,294.8c-0.2,0.1-0.4,0.2-1.1,0.3c-0.6,0.1-1.1,0.3-1.1,1c0,0.6,0.5,0.8,0.8,0.8
				c0.7,0,1.5-0.5,1.5-1.3V294.8z"/>
			<path d="M18.7,297.9H17l-2.3-6.4h1.9l1.3,4.7h0l1.4-4.7H21L18.7,297.9z"/>
			<path d="M23.7,290.8H22v-1.6h1.7V290.8z M23.7,291.5v6.4H22v-6.4H23.7z"/>
			<path d="M28.9,293.5c-0.1-0.4-0.2-0.8-1.1-0.8s-1,0.3-1,0.6c0,1,4,0.3,4,2.6c0,1.9-1.8,2.2-2.8,2.2c-1.5,0-3-0.5-3.1-2.2h1.7
				c0,0.5,0.3,0.9,1.4,0.9c0.9,0,1.1-0.4,1.1-0.7c0-1.1-4-0.3-4-2.7c0-0.9,0.6-2.1,2.6-2.1c1.2,0,2.7,0.3,2.9,2.1H28.9z"/>
			<path d="M37.7,297.9h-1.6V297h0c-0.4,0.7-1.1,1.1-1.9,1.1c-1.3,0-2.2-0.7-2.2-2.4v-4.2h1.7v4c0,1,0.6,1.2,1.1,1.2
				c0.6,0,1.3-0.3,1.3-1.5v-3.7h1.7V297.9z"/>
			<path d="M44.5,296.7c0,0.8,0.2,0.9,0.4,1v0.3H43c-0.1-0.3-0.1-0.4-0.2-0.8c-0.4,0.4-0.9,0.9-2.1,0.9c-1,0-1.9-0.5-1.9-1.9
				c0-1.2,0.8-1.9,1.9-2l1.5-0.2c0.3,0,0.6-0.1,0.6-0.5c0-0.7-0.7-0.7-1.1-0.7c-0.8,0-1,0.5-1,0.9h-1.6c0.2-2,1.5-2.2,2.9-2.2
				c0.9,0,2.5,0.3,2.5,1.8V296.7z M42.8,294.8c-0.2,0.1-0.4,0.2-1.1,0.3c-0.6,0.1-1.1,0.3-1.1,1c0,0.6,0.5,0.8,0.8,0.8
				c0.7,0,1.5-0.5,1.5-1.3V294.8z"/>
			<path d="M47.7,297.9H46v-8.6h1.7V297.9z"/>
			<path d="M51,290.8h-1.7v-1.6H51V290.8z M51,291.5v6.4h-1.7v-6.4H51z"/>
			<path d="M54.3,296.5h3.3v1.4h-5.5v-1.3l3.3-3.7h-3v-1.3h5.2v1.4L54.3,296.5z"/>
			<path d="M60.3,296.5h3.3v1.4h-5.5v-1.3l3.3-3.7h-3v-1.3h5.2v1.4L60.3,296.5z"/>
			<path d="M69.8,296.7c0,0.8,0.2,0.9,0.4,1v0.3h-1.8c-0.1-0.3-0.1-0.4-0.2-0.8c-0.4,0.4-0.9,0.9-2.1,0.9c-1,0-1.9-0.5-1.9-1.9
				c0-1.2,0.8-1.9,1.9-2l1.5-0.2c0.3,0,0.6-0.1,0.6-0.5c0-0.7-0.7-0.7-1.1-0.7c-0.8,0-1,0.5-1,0.9h-1.6c0.2-2,1.5-2.2,2.9-2.2
				c0.9,0,2.5,0.3,2.5,1.8V296.7z M68.2,294.8c-0.2,0.1-0.4,0.2-1.1,0.3c-0.6,0.1-1.1,0.3-1.1,1c0,0.6,0.5,0.8,0.8,0.8
				c0.7,0,1.5-0.5,1.5-1.3V294.8z"/>
			<path d="M71.3,291.5h1.6v1.1h0c0.3-0.6,0.7-1.3,1.8-1.3c0.1,0,0.2,0,0.3,0v1.7c-0.1,0-0.3,0-0.5,0c-1.3,0-1.5,0.8-1.5,1.5v3.3
				h-1.7V291.5z"/>
			<path d="M81.5,296c-0.4,1.5-1.7,2-2.8,2c-1.8,0-3.2-0.9-3.2-3.5c0-0.8,0.3-3.2,3.1-3.2c1.3,0,3,0.6,3,3.5v0.3h-4.4
				c0,0.5,0.1,1.6,1.5,1.6c0.5,0,0.9-0.2,1.1-0.7H81.5z M79.8,294.1c-0.1-1-0.8-1.3-1.3-1.3c-0.8,0-1.2,0.5-1.3,1.3H79.8z"/>
			<path d="M87.7,297.9H86v-8.6h1.7V297.9z"/>
			<path d="M94.5,296.7c0,0.8,0.2,0.9,0.4,1v0.3h-1.8c-0.1-0.3-0.1-0.4-0.2-0.8c-0.4,0.4-0.9,0.9-2.1,0.9c-1,0-1.9-0.5-1.9-1.9
				c0-1.2,0.8-1.9,1.9-2l1.5-0.2c0.3,0,0.6-0.1,0.6-0.5c0-0.7-0.7-0.7-1.1-0.7c-0.8,0-1,0.5-1,0.9h-1.6c0.2-2,1.5-2.2,2.9-2.2
				c0.9,0,2.5,0.3,2.5,1.8V296.7z M92.9,294.8c-0.2,0.1-0.4,0.2-1.1,0.3c-0.6,0.1-1.1,0.3-1.1,1c0,0.6,0.5,0.8,0.8,0.8
				c0.7,0,1.5-0.5,1.5-1.3V294.8z"/>
			<path d="M104.8,295.6c-0.1,0.7-0.6,2.5-2.9,2.5c-2.4,0-3-1.8-3-3.2c0-2.1,0.9-3.5,3.1-3.5c1,0,2.7,0.5,2.8,2.4h-1.7
				c-0.1-0.4-0.3-1.1-1.1-1c-1.1,0-1.3,1.1-1.3,1.8c0,0.7,0,2.1,1.3,2.1c0.9,0,1.1-0.8,1.1-1.1H104.8z"/>
			<path d="M111.2,296.7c0,0.8,0.2,0.9,0.4,1v0.3h-1.8c-0.1-0.3-0.1-0.4-0.2-0.8c-0.4,0.4-0.9,0.9-2.1,0.9c-1,0-1.9-0.5-1.9-1.9
				c0-1.2,0.8-1.9,1.9-2l1.5-0.2c0.3,0,0.6-0.1,0.6-0.5c0-0.7-0.7-0.7-1.1-0.7c-0.8,0-1,0.5-1,0.9h-1.6c0.2-2,1.5-2.2,2.9-2.2
				c0.9,0,2.5,0.3,2.5,1.8V296.7z M109.5,294.8c-0.2,0.1-0.4,0.2-1.1,0.3c-0.6,0.1-1.1,0.3-1.1,1c0,0.6,0.5,0.8,0.8,0.8
				c0.7,0,1.5-0.5,1.5-1.3V294.8z"/>
			<path d="M112.7,291.5h1.6v1.1h0c0.3-0.6,0.7-1.3,1.8-1.3c0.1,0,0.2,0,0.3,0v1.7c-0.1,0-0.3,0-0.5,0c-1.3,0-1.5,0.8-1.5,1.5v3.3
				h-1.7V291.5z"/>
			<path d="M119.5,291.5h1v1.2h-1v3.5c0,0.4,0,0.5,0.7,0.5c0.1,0,0.2,0,0.3,0v1.3c-0.3,0-0.5,0-0.8,0h-0.2c-1.5,0-1.7-0.6-1.7-1.4
				v-3.9h-0.9v-1.2h0.9v-1.7h1.7V291.5z"/>
			<path d="M127.1,296c-0.4,1.5-1.7,2-2.8,2c-1.8,0-3.2-0.9-3.2-3.5c0-0.8,0.3-3.2,3.1-3.2c1.3,0,3,0.6,3,3.5v0.3h-4.4
				c0,0.5,0.1,1.6,1.5,1.6c0.5,0,0.9-0.2,1.1-0.7H127.1z M125.4,294.1c-0.1-1-0.8-1.3-1.3-1.3c-0.8,0-1.2,0.5-1.3,1.3H125.4z"/>
			<path d="M130,297.9h-1.7v-8.6h1.7V297.9z"/>
			<path d="M133.3,297.9h-1.7v-8.6h1.7V297.9z"/>
			<path d="M140.1,296.7c0,0.8,0.2,0.9,0.4,1v0.3h-1.8c-0.1-0.3-0.1-0.4-0.2-0.8c-0.4,0.4-0.9,0.9-2.1,0.9c-1,0-1.9-0.5-1.9-1.9
				c0-1.2,0.8-1.9,1.9-2l1.5-0.2c0.3,0,0.6-0.1,0.6-0.5c0-0.7-0.7-0.7-1.1-0.7c-0.8,0-1,0.5-1,0.9h-1.6c0.2-2,1.5-2.2,2.9-2.2
				c0.9,0,2.5,0.3,2.5,1.8V296.7z M138.5,294.8c-0.2,0.1-0.4,0.2-1.1,0.3c-0.6,0.1-1.1,0.3-1.1,1c0,0.6,0.5,0.8,0.8,0.8
				c0.7,0,1.5-0.5,1.5-1.3V294.8z"/>
			<path d="M153.3,297.9h-1.7v-7.2h0l-1.6,7.2h-1.8l-1.6-7.2h0v7.2H145v-8.6h2.6l1.6,6.8h0l1.5-6.8h2.6V297.9z"/>
			<path d="M160.1,296.7c0,0.8,0.2,0.9,0.4,1v0.3h-1.8c-0.1-0.3-0.1-0.4-0.2-0.8c-0.4,0.4-0.9,0.9-2.1,0.9c-1,0-1.9-0.5-1.9-1.9
				c0-1.2,0.8-1.9,1.9-2l1.5-0.2c0.3,0,0.6-0.1,0.6-0.5c0-0.7-0.7-0.7-1.1-0.7c-0.8,0-1,0.5-1,0.9h-1.6c0.2-2,1.5-2.2,2.9-2.2
				c0.9,0,2.5,0.3,2.5,1.8V296.7z M158.5,294.8c-0.2,0.1-0.4,0.2-1.1,0.3c-0.6,0.1-1.1,0.3-1.1,1c0,0.6,0.5,0.8,0.8,0.8
				c0.7,0,1.5-0.5,1.5-1.3V294.8z"/>
			<path d="M161.6,291.5h1.6v1.1h0c0.3-0.6,0.7-1.3,1.8-1.3c0.1,0,0.2,0,0.3,0v1.7c-0.1,0-0.3,0-0.5,0c-1.3,0-1.5,0.8-1.5,1.5v3.3
				h-1.7V291.5z"/>
			<path d="M168,297.9h-1.7v-8.6h1.7v4.7l2.1-2.4h2.1l-2.3,2.5l2.3,3.9h-2l-1.5-2.7l-0.7,0.7V297.9z"/>
			<path d="M178.4,296c-0.4,1.5-1.7,2-2.8,2c-1.8,0-3.2-0.9-3.2-3.5c0-0.8,0.3-3.2,3.1-3.2c1.3,0,3,0.6,3,3.5v0.3h-4.4
				c0,0.5,0.1,1.6,1.5,1.6c0.5,0,0.9-0.2,1.1-0.7H178.4z M176.8,294.1c-0.1-1-0.8-1.3-1.3-1.3c-0.8,0-1.2,0.5-1.3,1.3H176.8z"/>
			<path d="M181.5,291.5h1v1.2h-1v3.5c0,0.4,0,0.5,0.7,0.5c0.1,0,0.2,0,0.3,0v1.3c-0.3,0-0.5,0-0.8,0h-0.2c-1.5,0-1.7-0.6-1.7-1.4
				v-3.9H179v-1.2h0.9v-1.7h1.7V291.5z"/>
			<path d="M185.3,290.8h-1.7v-1.6h1.7V290.8z M185.3,291.5v6.4h-1.7v-6.4H185.3z"/>
			<path d="M192.7,297.9H191V294c0-0.5,0-1.3-1.1-1.3c-0.7,0-1.3,0.5-1.3,1.5v3.7h-1.7v-6.4h1.6v0.9h0c0.2-0.4,0.7-1.1,1.9-1.1
				c1.2,0,2.2,0.7,2.2,2.1V297.9z"/>
			<path d="M200.1,291.5v6c0,1.1-0.1,2.9-3.2,2.9c-1.3,0-2.7-0.6-2.8-1.9h1.8c0.1,0.3,0.2,0.6,1.2,0.6c0.9,0,1.3-0.4,1.3-1.5V297
				l0,0c-0.3,0.5-0.7,1-1.7,1c-1.5,0-2.7-1.1-2.7-3.3c0-2.2,1.2-3.3,2.7-3.3c1.2,0,1.7,0.7,1.9,1.1h0v-0.9H200.1z M197,296.5
				c1.1,0,1.4-1,1.4-1.8c0-1-0.5-1.9-1.4-1.9c-0.6,0-1.3,0.5-1.3,1.9C195.7,295.6,196,296.5,197,296.5z"/>
			<path d="M206.7,290.8H205v-1.6h1.7V290.8z M206.7,291.5v6.4H205v-6.4H206.7z"/>
			<path d="M214,297.9h-1.7V294c0-0.5,0-1.3-1.1-1.3c-0.7,0-1.3,0.5-1.3,1.5v3.7h-1.7v-6.4h1.6v0.9h0c0.2-0.4,0.7-1.1,1.9-1.1
				c1.2,0,2.2,0.7,2.2,2.1V297.9z"/>
			<path d="M220.6,292.3L220.6,292.3c0.3-0.4,0.8-1,1.9-1c1.4,0,2.7,1.1,2.7,3.3c0,1.8-0.8,3.4-2.7,3.4c-0.7,0-1.4-0.3-1.8-1h0v0.8
				h-1.6v-8.6h1.7V292.3z M221.9,292.8c-1.2,0-1.4,1-1.4,2.1c0,0.9,0.4,1.8,1.5,1.8c1.1,0,1.4-1.2,1.4-1.9
				C223.4,293.8,223,292.8,221.9,292.8z"/>
			<path d="M231.5,296.7c0,0.8,0.2,0.9,0.4,1v0.3H230c-0.1-0.3-0.1-0.4-0.2-0.8c-0.4,0.4-0.9,0.9-2.1,0.9c-1,0-1.9-0.5-1.9-1.9
				c0-1.2,0.8-1.9,1.9-2l1.5-0.2c0.3,0,0.6-0.1,0.6-0.5c0-0.7-0.7-0.7-1.1-0.7c-0.8,0-1,0.5-1,0.9h-1.6c0.2-2,1.5-2.2,2.9-2.2
				c0.9,0,2.5,0.3,2.5,1.8V296.7z M229.8,294.8c-0.2,0.1-0.4,0.2-1.1,0.3c-0.6,0.1-1.1,0.3-1.1,1c0,0.6,0.5,0.8,0.8,0.8
				c0.7,0,1.5-0.5,1.5-1.3V294.8z"/>
			<path d="M236.6,293.5c-0.1-0.4-0.2-0.8-1.1-0.8s-1,0.3-1,0.6c0,1,4,0.3,4,2.6c0,1.9-1.8,2.2-2.8,2.2c-1.5,0-3-0.5-3.1-2.2h1.7
				c0,0.5,0.3,0.9,1.4,0.9c0.9,0,1.1-0.4,1.1-0.7c0-1.1-4-0.3-4-2.7c0-0.9,0.6-2.1,2.6-2.1c1.2,0,2.7,0.3,2.9,2.1H236.6z"/>
			<path d="M245.1,296c-0.4,1.5-1.7,2-2.8,2c-1.8,0-3.2-0.9-3.2-3.5c0-0.8,0.3-3.2,3.1-3.2c1.3,0,3,0.6,3,3.5v0.3h-4.4
				c0,0.5,0.1,1.6,1.5,1.6c0.5,0,0.9-0.2,1.1-0.7H245.1z M243.5,294.1c-0.1-1-0.8-1.3-1.3-1.3c-0.8,0-1.2,0.5-1.3,1.3H243.5z"/>
			<path d="M254.8,296.7c0,0.8,0.2,0.9,0.4,1v0.3h-1.8c-0.1-0.3-0.1-0.4-0.2-0.8c-0.4,0.4-0.9,0.9-2.1,0.9c-1,0-1.9-0.5-1.9-1.9
				c0-1.2,0.8-1.9,1.9-2l1.5-0.2c0.3,0,0.6-0.1,0.6-0.5c0-0.7-0.7-0.7-1.1-0.7c-0.8,0-1,0.5-1,0.9h-1.6c0.2-2,1.5-2.2,2.9-2.2
				c0.9,0,2.5,0.3,2.5,1.8V296.7z M253.2,294.8c-0.2,0.1-0.4,0.2-1.1,0.3c-0.6,0.1-1.1,0.3-1.1,1c0,0.6,0.5,0.8,0.8,0.8
				c0.7,0,1.5-0.5,1.5-1.3V294.8z"/>
			<path d="M265.1,296c-0.4,1.5-1.7,2-2.8,2c-1.8,0-3.2-0.9-3.2-3.5c0-0.8,0.3-3.2,3.1-3.2c1.3,0,3,0.6,3,3.5v0.3h-4.4
				c0,0.5,0.1,1.6,1.5,1.6c0.5,0,0.9-0.2,1.1-0.7H265.1z M263.5,294.1c-0.1-1-0.8-1.3-1.3-1.3c-0.8,0-1.2,0.5-1.3,1.3H263.5z"/>
			<path d="M266.3,291.5h1.6v1.1h0c0.3-0.6,0.7-1.3,1.8-1.3c0.1,0,0.2,0,0.3,0v1.7c-0.1,0-0.3,0-0.5,0c-1.3,0-1.5,0.8-1.5,1.5v3.3
				h-1.7V291.5z"/>
			<path d="M276.5,296c-0.4,1.5-1.7,2-2.8,2c-1.8,0-3.2-0.9-3.2-3.5c0-0.8,0.3-3.2,3.1-3.2c1.3,0,3,0.6,3,3.5v0.3h-4.4
				c0,0.5,0.1,1.6,1.5,1.6c0.5,0,0.9-0.2,1.1-0.7H276.5z M274.8,294.1c-0.1-1-0.8-1.3-1.3-1.3c-0.8,0-1.2,0.5-1.3,1.3H274.8z"/>
			<path d="M283.5,297.9h-1.6v-0.8h0c-0.4,0.7-1.2,1-1.8,1c-1.9,0-2.7-1.7-2.7-3.4c0-2.2,1.2-3.3,2.7-3.3c1.1,0,1.6,0.6,1.8,1h0
				v-3.1h1.7V297.9z M280.4,296.7c1.1,0,1.5-0.9,1.5-1.8c0-1-0.3-2.1-1.4-2.1c-1.1,0-1.4,0.9-1.4,2
				C279,295.5,279.3,296.7,280.4,296.7z"/>
			<path d="M286.7,290.8H285v-1.6h1.7V290.8z M286.7,291.5v6.4H285v-6.4H286.7z"/>
			<path d="M290.2,291.5h1v1.2h-1v3.5c0,0.4,0,0.5,0.7,0.5c0.1,0,0.2,0,0.3,0v1.3c-0.3,0-0.5,0-0.8,0h-0.2c-1.5,0-1.7-0.6-1.7-1.4
				v-3.9h-0.9v-1.2h0.9v-1.7h1.7V291.5z"/>
			<path d="M297.5,296.7c0,0.8,0.2,0.9,0.4,1v0.3H296c-0.1-0.3-0.1-0.4-0.2-0.8c-0.4,0.4-0.9,0.9-2.1,0.9c-1,0-1.9-0.5-1.9-1.9
				c0-1.2,0.8-1.9,1.9-2l1.5-0.2c0.3,0,0.6-0.1,0.6-0.5c0-0.7-0.7-0.7-1.1-0.7c-0.8,0-1,0.5-1,0.9h-1.6c0.2-2,1.5-2.2,2.9-2.2
				c0.9,0,2.5,0.3,2.5,1.8V296.7z M295.8,294.8c-0.2,0.1-0.4,0.2-1.1,0.3c-0.6,0.1-1.1,0.3-1.1,1c0,0.6,0.5,0.8,0.8,0.8
				c0.7,0,1.5-0.5,1.5-1.3V294.8z"/>
			<path d="M299,291.5h1.6v1.1h0c0.3-0.6,0.7-1.3,1.8-1.3c0.1,0,0.2,0,0.3,0v1.7c-0.1,0-0.3,0-0.5,0c-1.3,0-1.5,0.8-1.5,1.5v3.3H299
				V291.5z"/>
			<path d="M305.4,290.8h-1.7v-1.6h1.7V290.8z M305.4,291.5v6.4h-1.7v-6.4H305.4z"/>
			<path d="M312.5,296c-0.4,1.5-1.7,2-2.8,2c-1.8,0-3.2-0.9-3.2-3.5c0-0.8,0.3-3.2,3.1-3.2c1.3,0,3,0.6,3,3.5v0.3h-4.4
				c0,0.5,0.1,1.6,1.5,1.6c0.5,0,0.9-0.2,1.1-0.7H312.5z M310.8,294.1c-0.1-1-0.8-1.3-1.3-1.3c-0.8,0-1.2,0.5-1.3,1.3H310.8z"/>
			<path d="M315.5,291.5h1v1.2h-1v3.5c0,0.4,0,0.5,0.7,0.5c0.1,0,0.2,0,0.3,0v1.3c-0.3,0-0.5,0-0.8,0h-0.2c-1.5,0-1.7-0.6-1.7-1.4
				v-3.9H313v-1.2h0.9v-1.7h1.7V291.5z"/>
			<path d="M322.8,296.7c0,0.8,0.2,0.9,0.4,1v0.3h-1.8c-0.1-0.3-0.1-0.4-0.2-0.8c-0.4,0.4-0.9,0.9-2.1,0.9c-1,0-1.9-0.5-1.9-1.9
				c0-1.2,0.8-1.9,1.9-2l1.5-0.2c0.3,0,0.6-0.1,0.6-0.5c0-0.7-0.7-0.7-1.1-0.7c-0.8,0-1,0.5-1,0.9h-1.6c0.2-2,1.5-2.2,2.9-2.2
				c0.9,0,2.5,0.3,2.5,1.8V296.7z M317.9,288.9h1.8l1.1,1.8h-1.2L317.9,288.9z M321.2,294.8c-0.2,0.1-0.4,0.2-1.1,0.3
				c-0.6,0.1-1.1,0.3-1.1,1c0,0.6,0.5,0.8,0.8,0.8c0.7,0,1.5-0.5,1.5-1.3V294.8z"/>
			<path d="M326.1,297.9h-1.8v-1.8h1.8V297.9z"/>
			<path d="M7.1,312.3H5.3v-8.6h1.8V312.3z"/>
			<path d="M10.3,312.3H8.7v-8.6h1.7V312.3z"/>
			<path d="M21.1,305.9v6c0,1.1-0.1,2.9-3.2,2.9c-1.3,0-2.7-0.6-2.8-1.9H17c0.1,0.3,0.2,0.6,1.2,0.6c0.9,0,1.3-0.4,1.3-1.5v-0.8l0,0
				c-0.3,0.5-0.7,1-1.7,1c-1.5,0-2.7-1.1-2.7-3.3c0-2.2,1.2-3.3,2.7-3.3c1.2,0,1.7,0.7,1.9,1.1h0v-0.9H21.1z M18,310.9
				c1.1,0,1.4-1,1.4-1.8c0-1-0.5-1.9-1.4-1.9c-0.6,0-1.3,0.5-1.3,1.9C16.7,310,17.1,310.9,18,310.9z"/>
			<path d="M22.6,305.9h1.6v1.1h0c0.3-0.6,0.7-1.3,1.8-1.3c0.1,0,0.2,0,0.3,0v1.7c-0.1,0-0.3,0-0.5,0c-1.3,0-1.5,0.8-1.5,1.5v3.3
				h-1.7V305.9z"/>
			<path d="M33,312.3h-1.6v-0.9h0c-0.4,0.7-1.1,1.1-1.9,1.1c-1.3,0-2.2-0.7-2.2-2.4v-4.2H29v4c0,1,0.6,1.2,1.1,1.2
				c0.6,0,1.3-0.3,1.3-1.5v-3.7H33V312.3z"/>
			<path d="M36.2,306.8L36.2,306.8c0.3-0.5,0.8-1.1,1.9-1.1c1.4,0,2.7,1.1,2.7,3.3c0,1.8-0.8,3.4-2.7,3.4c-1.2,0-1.6-0.6-1.8-1h0
				v3.3h-1.7v-8.9h1.6V306.8z M37.7,311.1c1.1,0,1.4-1.2,1.4-1.9c0-1-0.4-2-1.4-2c-1.2,0-1.4,1-1.4,2.1
				C36.2,310.2,36.6,311.1,37.7,311.1z"/>
			<path d="M43.5,306.8L43.5,306.8c0.3-0.5,0.8-1.1,1.9-1.1c1.4,0,2.7,1.1,2.7,3.3c0,1.8-0.8,3.4-2.7,3.4c-1.2,0-1.6-0.6-1.8-1h0
				v3.3h-1.7v-8.9h1.6V306.8z M45,311.1c1.1,0,1.4-1.2,1.4-1.9c0-1-0.4-2-1.4-2c-1.2,0-1.4,1-1.4,2.1
				C43.5,310.2,43.9,311.1,45,311.1z"/>
			<path d="M52.2,312.5c-1.7,0-3.3-1.1-3.3-3.4s1.5-3.4,3.3-3.4c1.7,0,3.3,1.1,3.3,3.4S53.9,312.5,52.2,312.5z M52.2,307.2
				c-1.3,0-1.5,1.1-1.5,1.9s0.2,1.9,1.5,1.9s1.5-1.1,1.5-1.9S53.5,307.2,52.2,307.2z"/>
			<path d="M67,309.3c0,2.3-1.4,3.2-3.5,3.2c-0.8,0-2-0.2-2.7-1c-0.5-0.5-0.6-1.2-0.7-2.1v-5.7h1.8v5.6c0,1.2,0.7,1.7,1.5,1.7
				c1.2,0,1.7-0.6,1.7-1.6v-5.7H67V309.3z"/>
			<path d="M70.5,305.9h1v1.2h-1v3.5c0,0.4,0,0.5,0.7,0.5c0.1,0,0.2,0,0.3,0v1.3c-0.3,0-0.5,0-0.8,0h-0.2c-1.5,0-1.7-0.6-1.7-1.4
				v-3.9H68v-1.2h0.9v-1.7h1.7V305.9z"/>
			<path d="M78.1,310.4c-0.4,1.5-1.7,2-2.8,2c-1.8,0-3.2-0.9-3.2-3.5c0-0.8,0.3-3.2,3.1-3.2c1.3,0,3,0.6,3,3.5v0.3h-4.4
				c0,0.5,0.1,1.6,1.5,1.6c0.5,0,0.9-0.2,1.1-0.7H78.1z M76.4,308.5c-0.1-1-0.8-1.3-1.3-1.3c-0.8,0-1.2,0.5-1.3,1.3H76.4z"/>
			<path d="M85.1,312.3h-1.7v-3.9c0-0.5,0-1.3-1.1-1.3c-0.7,0-1.3,0.5-1.3,1.5v3.7h-1.7v-6.4h1.6v0.9h0c0.2-0.4,0.7-1.1,1.9-1.1
				c1.2,0,2.2,0.7,2.2,2.1V312.3z"/>
			<path d="M88.5,305.9h1v1.2h-1v3.5c0,0.4,0,0.5,0.7,0.5c0.1,0,0.2,0,0.3,0v1.3c-0.3,0-0.5,0-0.8,0h-0.2c-1.5,0-1.7-0.6-1.7-1.4
				v-3.9H86v-1.2h0.9v-1.7h1.7V305.9z"/>
			<path d="M92.3,305.2h-1.7v-1.6h1.7V305.2z M92.3,305.9v6.4h-1.7v-6.4H92.3z"/>
			<path d="M106.4,312.3h-1.7v-3.9c0-0.9-0.4-1.3-0.9-1.3c-0.8,0-1.1,0.6-1.1,1.3v3.8H101v-3.8c0-0.5,0-1.3-1-1.3
				c-0.8,0-1,0.6-1,1.2v3.9h-1.7v-6.4h1.6v0.9h0c0.2-0.4,0.7-1.1,1.8-1.1c0.9,0,1.3,0.3,1.8,1c0.2-0.3,0.7-1,1.7-1
				c1.2,0,2.2,0.7,2.2,2.1V312.3z"/>
			<path d="M113.1,311.1c0,0.8,0.2,0.9,0.4,1v0.3h-1.8c-0.1-0.3-0.1-0.4-0.2-0.8c-0.4,0.4-0.9,0.9-2.1,0.9c-1,0-1.9-0.5-1.9-1.9
				c0-1.2,0.8-1.9,1.9-2l1.5-0.2c0.3,0,0.6-0.1,0.6-0.5c0-0.7-0.7-0.7-1.1-0.7c-0.8,0-1,0.5-1,0.9h-1.6c0.2-2,1.5-2.2,2.9-2.2
				c0.9,0,2.5,0.3,2.5,1.8V311.1z M111.5,309.2c-0.2,0.1-0.4,0.2-1.1,0.3c-0.6,0.1-1.1,0.3-1.1,1c0,0.6,0.5,0.8,0.8,0.8
				c0.7,0,1.5-0.5,1.5-1.3V309.2z"/>
			<path d="M114.6,305.9h1.6v1.1h0c0.3-0.6,0.7-1.3,1.8-1.3c0.1,0,0.2,0,0.3,0v1.7c-0.1,0-0.3,0-0.5,0c-1.3,0-1.5,0.8-1.5,1.5v3.3
				h-1.7V305.9z"/>
			<path d="M121,312.3h-1.7v-8.6h1.7v4.7l2.1-2.4h2.1l-2.3,2.5l2.3,3.9h-2l-1.5-2.7l-0.7,0.7V312.3z"/>
			<path d="M131.4,310.4c-0.4,1.5-1.7,2-2.8,2c-1.8,0-3.2-0.9-3.2-3.5c0-0.8,0.3-3.2,3.1-3.2c1.3,0,3,0.6,3,3.5v0.3h-4.4
				c0,0.5,0.1,1.6,1.5,1.6c0.5,0,0.9-0.2,1.1-0.7H131.4z M129.8,308.5c-0.1-1-0.8-1.3-1.3-1.3c-0.8,0-1.2,0.5-1.3,1.3H129.8z"/>
			<path d="M134.5,305.9h1v1.2h-1v3.5c0,0.4,0,0.5,0.7,0.5c0.1,0,0.2,0,0.3,0v1.3c-0.3,0-0.5,0-0.8,0h-0.2c-1.5,0-1.7-0.6-1.7-1.4
				v-3.9H132v-1.2h0.9v-1.7h1.7V305.9z"/>
			<path d="M138.4,305.2h-1.7v-1.6h1.7V305.2z M138.4,305.9v6.4h-1.7v-6.4H138.4z"/>
			<path d="M145.7,312.3h-1.7v-3.9c0-0.5,0-1.3-1.1-1.3c-0.7,0-1.3,0.5-1.3,1.5v3.7H140v-6.4h1.6v0.9h0c0.2-0.4,0.7-1.1,1.9-1.1
				c1.2,0,2.2,0.7,2.2,2.1V312.3z"/>
			<path d="M153.2,305.9v6c0,1.1-0.1,2.9-3.2,2.9c-1.3,0-2.7-0.6-2.8-1.9h1.8c0.1,0.3,0.2,0.6,1.2,0.6c0.9,0,1.3-0.4,1.3-1.5v-0.8
				l0,0c-0.3,0.5-0.7,1-1.7,1c-1.5,0-2.7-1.1-2.7-3.3c0-2.2,1.2-3.3,2.7-3.3c1.2,0,1.7,0.7,1.9,1.1h0v-0.9H153.2z M150.1,310.9
				c1.1,0,1.4-1,1.4-1.8c0-1-0.5-1.9-1.4-1.9c-0.6,0-1.3,0.5-1.3,1.9C148.7,310,149.1,310.9,150.1,310.9z"/>
			<path d="M163.4,310.4c-0.4,1.5-1.7,2-2.8,2c-1.8,0-3.2-0.9-3.2-3.5c0-0.8,0.3-3.2,3.1-3.2c1.3,0,3,0.6,3,3.5v0.3h-4.4
				c0,0.5,0.1,1.6,1.5,1.6c0.5,0,0.9-0.2,1.1-0.7H163.4z M158.3,303.3h1.8l1.1,1.8H160L158.3,303.3z M161.8,308.5
				c-0.1-1-0.8-1.3-1.3-1.3c-0.8,0-1.2,0.5-1.3,1.3H161.8z"/>
			<path d="M173.1,311.1c0,0.8,0.2,0.9,0.4,1v0.3h-1.8c-0.1-0.3-0.1-0.4-0.2-0.8c-0.4,0.4-0.9,0.9-2.1,0.9c-1,0-1.9-0.5-1.9-1.9
				c0-1.2,0.8-1.9,1.9-2l1.5-0.2c0.3,0,0.6-0.1,0.6-0.5c0-0.7-0.7-0.7-1.1-0.7c-0.8,0-1,0.5-1,0.9h-1.6c0.2-2,1.5-2.2,2.9-2.2
				c0.9,0,2.5,0.3,2.5,1.8V311.1z M171.5,309.2c-0.2,0.1-0.4,0.2-1.1,0.3c-0.6,0.1-1.1,0.3-1.1,1c0,0.6,0.5,0.8,0.8,0.8
				c0.7,0,1.5-0.5,1.5-1.3V309.2z"/>
			<path d="M180.4,312.3h-1.6v-0.9h0c-0.4,0.7-1.1,1.1-1.9,1.1c-1.3,0-2.2-0.7-2.2-2.4v-4.2h1.7v4c0,1,0.6,1.2,1.1,1.2
				c0.6,0,1.3-0.3,1.3-1.5v-3.7h1.7V312.3z"/>
			<path d="M183.9,305.9h1v1.2h-1v3.5c0,0.4,0,0.5,0.7,0.5c0.1,0,0.2,0,0.3,0v1.3c-0.3,0-0.5,0-0.8,0h-0.2c-1.5,0-1.7-0.6-1.7-1.4
				v-3.9h-0.9v-1.2h0.9v-1.7h1.7V305.9z"/>
			<path d="M188.9,312.5c-1.7,0-3.3-1.1-3.3-3.4s1.5-3.4,3.3-3.4c1.7,0,3.3,1.1,3.3,3.4S190.6,312.5,188.9,312.5z M188.9,307.2
				c-1.3,0-1.5,1.1-1.5,1.9s0.2,1.9,1.5,1.9s1.5-1.1,1.5-1.9S190.2,307.2,188.9,307.2z"/>
			<path d="M193.3,305.9h1.6v1.1h0c0.3-0.6,0.7-1.3,1.8-1.3c0.1,0,0.2,0,0.3,0v1.7c-0.1,0-0.3,0-0.5,0c-1.3,0-1.5,0.8-1.5,1.5v3.3
				h-1.7V305.9z"/>
			<path d="M199.7,305.2H198v-1.6h1.7V305.2z M199.7,305.9v6.4H198v-6.4H199.7z"/>
			<path d="M202.9,310.9h3.3v1.4h-5.5V311l3.3-3.7h-3v-1.3h5.2v1.4L202.9,310.9z"/>
			<path d="M208.9,310.9h3.3v1.4h-5.5V311l3.3-3.7h-3v-1.3h5.2v1.4L208.9,310.9z"/>
			<path d="M218.5,311.1c0,0.8,0.2,0.9,0.4,1v0.3H217c-0.1-0.3-0.1-0.4-0.2-0.8c-0.4,0.4-0.9,0.9-2.1,0.9c-1,0-1.9-0.5-1.9-1.9
				c0-1.2,0.8-1.9,1.9-2l1.5-0.2c0.3,0,0.6-0.1,0.6-0.5c0-0.7-0.7-0.7-1.1-0.7c-0.8,0-1,0.5-1,0.9h-1.6c0.2-2,1.5-2.2,2.9-2.2
				c0.9,0,2.5,0.3,2.5,1.8V311.1z M216.8,309.2c-0.2,0.1-0.4,0.2-1.1,0.3c-0.6,0.1-1.1,0.3-1.1,1c0,0.6,0.5,0.8,0.8,0.8
				c0.7,0,1.5-0.5,1.5-1.3V309.2z"/>
			<path d="M221.9,305.9h1v1.2h-1v3.5c0,0.4,0,0.5,0.7,0.5c0.1,0,0.2,0,0.3,0v1.3c-0.3,0-0.5,0-0.8,0h-0.2c-1.5,0-1.7-0.6-1.7-1.4
				v-3.9h-0.9v-1.2h0.9v-1.7h1.7V305.9z"/>
			<path d="M226.9,312.5c-1.7,0-3.3-1.1-3.3-3.4s1.5-3.4,3.3-3.4c1.7,0,3.3,1.1,3.3,3.4S228.6,312.5,226.9,312.5z M226.9,307.2
				c-1.3,0-1.5,1.1-1.5,1.9s0.2,1.9,1.5,1.9s1.5-1.1,1.5-1.9S228.2,307.2,226.9,307.2z"/>
			<path d="M239.8,311.1c0,0.8,0.2,0.9,0.4,1v0.3h-1.8c-0.1-0.3-0.1-0.4-0.2-0.8c-0.4,0.4-0.9,0.9-2.1,0.9c-1,0-1.9-0.5-1.9-1.9
				c0-1.2,0.8-1.9,1.9-2l1.5-0.2c0.3,0,0.6-0.1,0.6-0.5c0-0.7-0.7-0.7-1.1-0.7c-0.8,0-1,0.5-1,0.9h-1.6c0.2-2,1.5-2.2,2.9-2.2
				c0.9,0,2.5,0.3,2.5,1.8V311.1z M238.2,309.2c-0.2,0.1-0.4,0.2-1.1,0.3c-0.6,0.1-1.1,0.3-1.1,1c0,0.6,0.5,0.8,0.8,0.8
				c0.7,0,1.5-0.5,1.5-1.3V309.2z"/>
			<path d="M253.8,312.3h-1.7v-3.9c0-0.9-0.4-1.3-0.9-1.3c-0.8,0-1.1,0.6-1.1,1.3v3.8h-1.7v-3.8c0-0.5,0-1.3-1-1.3
				c-0.8,0-1,0.6-1,1.2v3.9h-1.7v-6.4h1.6v0.9h0c0.2-0.4,0.7-1.1,1.8-1.1c0.9,0,1.3,0.3,1.8,1c0.2-0.3,0.7-1,1.7-1
				c1.2,0,2.2,0.7,2.2,2.1V312.3z"/>
			<path d="M258.2,312.5c-1.7,0-3.3-1.1-3.3-3.4s1.5-3.4,3.3-3.4s3.3,1.1,3.3,3.4S259.9,312.5,258.2,312.5z M258.2,307.2
				c-1.3,0-1.5,1.1-1.5,1.9s0.2,1.9,1.5,1.9s1.5-1.1,1.5-1.9S259.5,307.2,258.2,307.2z"/>
			<path d="M268.5,312.3h-1.6v-0.8h0c-0.4,0.7-1.2,1-1.8,1c-1.9,0-2.7-1.7-2.7-3.4c0-2.2,1.2-3.3,2.7-3.3c1.1,0,1.6,0.6,1.8,1h0
				v-3.1h1.7V312.3z M265.4,311.1c1.1,0,1.5-0.9,1.5-1.8c0-1-0.3-2.1-1.4-2.1c-1.1,0-1.4,0.9-1.4,2
				C264,309.9,264.3,311.1,265.4,311.1z"/>
			<path d="M271.7,305.2H270v-1.6h1.7V305.2z M271.7,305.9v6.4H270v-6.4H271.7z"/>
			<path d="M275.3,312.3h-1.7v-5.2h-0.9v-1.2h0.9v-0.5c0-1.3,0.7-1.8,1.9-1.8c0.5,0,0.7,0,0.9,0v1.4h-0.5c-0.6,0-0.6,0.2-0.6,0.7
				v0.3h1.1v1.2h-1.1V312.3z"/>
			<path d="M279,305.2h-1.7v-1.6h1.7V305.2z M279,305.9v6.4h-1.7v-6.4H279z"/>
			<path d="M286.1,310c-0.1,0.7-0.6,2.5-2.9,2.5c-2.4,0-3-1.8-3-3.2c0-2.1,0.9-3.5,3.1-3.5c1,0,2.7,0.5,2.8,2.4h-1.7
				c-0.1-0.4-0.3-1.1-1.1-1c-1.1,0-1.3,1.1-1.3,1.8c0,0.7,0,2.1,1.3,2.1c0.9,0,1.1-0.8,1.1-1.1H286.1z"/>
			<path d="M292.5,311.1c0,0.8,0.2,0.9,0.4,1v0.3h-1.8c-0.1-0.3-0.1-0.4-0.2-0.8c-0.4,0.4-0.9,0.9-2.1,0.9c-1,0-1.9-0.5-1.9-1.9
				c0-1.2,0.8-1.9,1.9-2l1.5-0.2c0.3,0,0.6-0.1,0.6-0.5c0-0.7-0.7-0.7-1.1-0.7c-0.8,0-1,0.5-1,0.9h-1.6c0.2-2,1.5-2.2,2.9-2.2
				c0.9,0,2.5,0.3,2.5,1.8V311.1z M290.9,309.2c-0.2,0.1-0.4,0.2-1.1,0.3c-0.6,0.1-1.1,0.3-1.1,1c0,0.6,0.5,0.8,0.8,0.8
				c0.7,0,1.5-0.5,1.5-1.3V309.2z"/>
			<path d="M294,305.9h1.6v1.1h0c0.3-0.6,0.7-1.3,1.8-1.3c0.1,0,0.2,0,0.3,0v1.7c-0.1,0-0.3,0-0.5,0c-1.3,0-1.5,0.8-1.5,1.5v3.3H294
				V305.9z"/>
			<path d="M300.4,312.3h-1.7v-8.6h1.7V312.3z"/>
			<path d="M307.5,310.4c-0.4,1.5-1.7,2-2.8,2c-1.8,0-3.2-0.9-3.2-3.5c0-0.8,0.3-3.2,3.1-3.2c1.3,0,3,0.6,3,3.5v0.3h-4.4
				c0,0.5,0.1,1.6,1.5,1.6c0.5,0,0.9-0.2,1.1-0.7H307.5z M305.8,308.5c-0.1-1-0.8-1.3-1.3-1.3c-0.8,0-1.2,0.5-1.3,1.3H305.8z"/>
			<path d="M310.7,312.3h-1.8v-1.8h1.8V312.3z"/>
			<path d="M7.1,326.7H5.3v-8.6h1.8V326.7z"/>
			<path d="M10.3,326.7H8.7v-8.6h1.7V326.7z"/>
			<path d="M21.1,320.3v6c0,1.1-0.1,2.9-3.2,2.9c-1.3,0-2.7-0.6-2.8-1.9H17c0.1,0.3,0.2,0.6,1.2,0.6c0.9,0,1.3-0.4,1.3-1.5v-0.8l0,0
				c-0.3,0.5-0.7,1-1.7,1c-1.5,0-2.7-1.1-2.7-3.3c0-2.2,1.2-3.3,2.7-3.3c1.2,0,1.7,0.7,1.9,1.1h0v-0.9H21.1z M18,325.3
				c1.1,0,1.4-1,1.4-1.8c0-1-0.5-1.9-1.4-1.9c-0.6,0-1.3,0.5-1.3,1.9C16.7,324.4,17.1,325.3,18,325.3z"/>
			<path d="M22.6,320.3h1.6v1.1h0c0.3-0.6,0.7-1.3,1.8-1.3c0.1,0,0.2,0,0.3,0v1.7c-0.1,0-0.3,0-0.5,0c-1.3,0-1.5,0.8-1.5,1.5v3.3
				h-1.7V320.3z"/>
			<path d="M33,326.7h-1.6v-0.9h0c-0.4,0.7-1.1,1.1-1.9,1.1c-1.3,0-2.2-0.7-2.2-2.4v-4.2H29v4c0,1,0.6,1.2,1.1,1.2
				c0.6,0,1.3-0.3,1.3-1.5v-3.7H33V326.7z"/>
			<path d="M36.2,321.2L36.2,321.2c0.3-0.5,0.8-1.1,1.9-1.1c1.4,0,2.7,1.1,2.7,3.3c0,1.8-0.8,3.4-2.7,3.4c-1.2,0-1.6-0.6-1.8-1h0
				v3.3h-1.7v-8.9h1.6V321.2z M37.7,325.5c1.1,0,1.4-1.2,1.4-1.9c0-1-0.4-2-1.4-2c-1.2,0-1.4,1-1.4,2.1
				C36.2,324.6,36.6,325.5,37.7,325.5z"/>
			<path d="M43.5,321.2L43.5,321.2c0.3-0.5,0.8-1.1,1.9-1.1c1.4,0,2.7,1.1,2.7,3.3c0,1.8-0.8,3.4-2.7,3.4c-1.2,0-1.6-0.6-1.8-1h0
				v3.3h-1.7v-8.9h1.6V321.2z M45,325.5c1.1,0,1.4-1.2,1.4-1.9c0-1-0.4-2-1.4-2c-1.2,0-1.4,1-1.4,2.1
				C43.5,324.6,43.9,325.5,45,325.5z"/>
			<path d="M52.2,326.9c-1.7,0-3.3-1.1-3.3-3.4s1.5-3.4,3.3-3.4c1.7,0,3.3,1.1,3.3,3.4S53.9,326.9,52.2,326.9z M52.2,321.6
				c-1.3,0-1.5,1.1-1.5,1.9s0.2,1.9,1.5,1.9s1.5-1.1,1.5-1.9S53.5,321.6,52.2,321.6z"/>
			<path d="M67,323.7c0,2.3-1.4,3.2-3.5,3.2c-0.8,0-2-0.2-2.7-1c-0.5-0.5-0.6-1.2-0.7-2.1v-5.7h1.8v5.6c0,1.2,0.7,1.7,1.5,1.7
				c1.2,0,1.7-0.6,1.7-1.6v-5.7H67V323.7z"/>
			<path d="M70.5,320.3h1v1.2h-1v3.5c0,0.4,0,0.5,0.7,0.5c0.1,0,0.2,0,0.3,0v1.3c-0.3,0-0.5,0-0.8,0h-0.2c-1.5,0-1.7-0.6-1.7-1.4
				v-3.9H68v-1.2h0.9v-1.7h1.7V320.3z"/>
			<path d="M78.1,324.8c-0.4,1.5-1.7,2-2.8,2c-1.8,0-3.2-0.9-3.2-3.5c0-0.8,0.3-3.2,3.1-3.2c1.3,0,3,0.6,3,3.5v0.3h-4.4
				c0,0.5,0.1,1.6,1.5,1.6c0.5,0,0.9-0.2,1.1-0.7H78.1z M76.4,322.9c-0.1-1-0.8-1.3-1.3-1.3c-0.8,0-1.2,0.5-1.3,1.3H76.4z"/>
			<path d="M85.1,326.7h-1.7v-3.9c0-0.5,0-1.3-1.1-1.3c-0.7,0-1.3,0.5-1.3,1.5v3.7h-1.7v-6.4h1.6v0.9h0c0.2-0.4,0.7-1.1,1.9-1.1
				c1.2,0,2.2,0.7,2.2,2.1V326.7z"/>
			<path d="M88.5,320.3h1v1.2h-1v3.5c0,0.4,0,0.5,0.7,0.5c0.1,0,0.2,0,0.3,0v1.3c-0.3,0-0.5,0-0.8,0h-0.2c-1.5,0-1.7-0.6-1.7-1.4
				v-3.9H86v-1.2h0.9v-1.7h1.7V320.3z"/>
			<path d="M92.3,319.6h-1.7V318h1.7V319.6z M92.3,320.3v6.4h-1.7v-6.4H92.3z"/>
			<path d="M106.4,326.7h-1.7v-3.9c0-0.9-0.4-1.3-0.9-1.3c-0.8,0-1.1,0.6-1.1,1.3v3.8H101v-3.8c0-0.5,0-1.3-1-1.3
				c-0.8,0-1,0.6-1,1.2v3.9h-1.7v-6.4h1.6v0.9h0c0.2-0.4,0.7-1.1,1.8-1.1c0.9,0,1.3,0.3,1.8,1c0.2-0.3,0.7-1,1.7-1
				c1.2,0,2.2,0.7,2.2,2.1V326.7z"/>
			<path d="M113.1,325.5c0,0.8,0.2,0.9,0.4,1v0.3h-1.8c-0.1-0.3-0.1-0.4-0.2-0.8c-0.4,0.4-0.9,0.9-2.1,0.9c-1,0-1.9-0.5-1.9-1.9
				c0-1.2,0.8-1.9,1.9-2l1.5-0.2c0.3,0,0.6-0.1,0.6-0.5c0-0.7-0.7-0.7-1.1-0.7c-0.8,0-1,0.5-1,0.9h-1.6c0.2-2,1.5-2.2,2.9-2.2
				c0.9,0,2.5,0.3,2.5,1.8V325.5z M111.5,323.6c-0.2,0.1-0.4,0.2-1.1,0.3c-0.6,0.1-1.1,0.3-1.1,1c0,0.6,0.5,0.8,0.8,0.8
				c0.7,0,1.5-0.5,1.5-1.3V323.6z"/>
			<path d="M114.6,320.3h1.6v1.1h0c0.3-0.6,0.7-1.3,1.8-1.3c0.1,0,0.2,0,0.3,0v1.7c-0.1,0-0.3,0-0.5,0c-1.3,0-1.5,0.8-1.5,1.5v3.3
				h-1.7V320.3z"/>
			<path d="M121,326.7h-1.7v-8.6h1.7v4.7l2.1-2.4h2.1l-2.3,2.5l2.3,3.9h-2l-1.5-2.7l-0.7,0.7V326.7z"/>
			<path d="M131.4,324.8c-0.4,1.5-1.7,2-2.8,2c-1.8,0-3.2-0.9-3.2-3.5c0-0.8,0.3-3.2,3.1-3.2c1.3,0,3,0.6,3,3.5v0.3h-4.4
				c0,0.5,0.1,1.6,1.5,1.6c0.5,0,0.9-0.2,1.1-0.7H131.4z M129.8,322.9c-0.1-1-0.8-1.3-1.3-1.3c-0.8,0-1.2,0.5-1.3,1.3H129.8z"/>
			<path d="M134.5,320.3h1v1.2h-1v3.5c0,0.4,0,0.5,0.7,0.5c0.1,0,0.2,0,0.3,0v1.3c-0.3,0-0.5,0-0.8,0h-0.2c-1.5,0-1.7-0.6-1.7-1.4
				v-3.9H132v-1.2h0.9v-1.7h1.7V320.3z"/>
			<path d="M138.4,319.6h-1.7V318h1.7V319.6z M138.4,320.3v6.4h-1.7v-6.4H138.4z"/>
			<path d="M145.7,326.7h-1.7v-3.9c0-0.5,0-1.3-1.1-1.3c-0.7,0-1.3,0.5-1.3,1.5v3.7H140v-6.4h1.6v0.9h0c0.2-0.4,0.7-1.1,1.9-1.1
				c1.2,0,2.2,0.7,2.2,2.1V326.7z"/>
			<path d="M153.2,320.3v6c0,1.1-0.1,2.9-3.2,2.9c-1.3,0-2.7-0.6-2.8-1.9h1.8c0.1,0.3,0.2,0.6,1.2,0.6c0.9,0,1.3-0.4,1.3-1.5v-0.8
				l0,0c-0.3,0.5-0.7,1-1.7,1c-1.5,0-2.7-1.1-2.7-3.3c0-2.2,1.2-3.3,2.7-3.3c1.2,0,1.7,0.7,1.9,1.1h0v-0.9H153.2z M150.1,325.3
				c1.1,0,1.4-1,1.4-1.8c0-1-0.5-1.9-1.4-1.9c-0.6,0-1.3,0.5-1.3,1.9C148.7,324.4,149.1,325.3,150.1,325.3z"/>
			<path d="M163.4,324.8c-0.4,1.5-1.7,2-2.8,2c-1.8,0-3.2-0.9-3.2-3.5c0-0.8,0.3-3.2,3.1-3.2c1.3,0,3,0.6,3,3.5v0.3h-4.4
				c0,0.5,0.1,1.6,1.5,1.6c0.5,0,0.9-0.2,1.1-0.7H163.4z M158.3,317.7h1.8l1.1,1.8H160L158.3,317.7z M161.8,322.9
				c-0.1-1-0.8-1.3-1.3-1.3c-0.8,0-1.2,0.5-1.3,1.3H161.8z"/>
			<path d="M173.1,325.5c0,0.8,0.2,0.9,0.4,1v0.3h-1.8c-0.1-0.3-0.1-0.4-0.2-0.8c-0.4,0.4-0.9,0.9-2.1,0.9c-1,0-1.9-0.5-1.9-1.9
				c0-1.2,0.8-1.9,1.9-2l1.5-0.2c0.3,0,0.6-0.1,0.6-0.5c0-0.7-0.7-0.7-1.1-0.7c-0.8,0-1,0.5-1,0.9h-1.6c0.2-2,1.5-2.2,2.9-2.2
				c0.9,0,2.5,0.3,2.5,1.8V325.5z M171.5,323.6c-0.2,0.1-0.4,0.2-1.1,0.3c-0.6,0.1-1.1,0.3-1.1,1c0,0.6,0.5,0.8,0.8,0.8
				c0.7,0,1.5-0.5,1.5-1.3V323.6z"/>
			<path d="M180.4,326.7h-1.6v-0.9h0c-0.4,0.7-1.1,1.1-1.9,1.1c-1.3,0-2.2-0.7-2.2-2.4v-4.2h1.7v4c0,1,0.6,1.2,1.1,1.2
				c0.6,0,1.3-0.3,1.3-1.5v-3.7h1.7V326.7z"/>
			<path d="M183.9,320.3h1v1.2h-1v3.5c0,0.4,0,0.5,0.7,0.5c0.1,0,0.2,0,0.3,0v1.3c-0.3,0-0.5,0-0.8,0h-0.2c-1.5,0-1.7-0.6-1.7-1.4
				v-3.9h-0.9v-1.2h0.9v-1.7h1.7V320.3z"/>
			<path d="M188.9,326.9c-1.7,0-3.3-1.1-3.3-3.4s1.5-3.4,3.3-3.4c1.7,0,3.3,1.1,3.3,3.4S190.6,326.9,188.9,326.9z M188.9,321.6
				c-1.3,0-1.5,1.1-1.5,1.9s0.2,1.9,1.5,1.9s1.5-1.1,1.5-1.9S190.2,321.6,188.9,321.6z"/>
			<path d="M193.3,320.3h1.6v1.1h0c0.3-0.6,0.7-1.3,1.8-1.3c0.1,0,0.2,0,0.3,0v1.7c-0.1,0-0.3,0-0.5,0c-1.3,0-1.5,0.8-1.5,1.5v3.3
				h-1.7V320.3z"/>
			<path d="M199.7,319.6H198V318h1.7V319.6z M199.7,320.3v6.4H198v-6.4H199.7z"/>
			<path d="M202.9,325.3h3.3v1.4h-5.5v-1.3l3.3-3.7h-3v-1.3h5.2v1.4L202.9,325.3z"/>
			<path d="M208.9,325.3h3.3v1.4h-5.5v-1.3l3.3-3.7h-3v-1.3h5.2v1.4L208.9,325.3z"/>
			<path d="M218.5,325.5c0,0.8,0.2,0.9,0.4,1v0.3H217c-0.1-0.3-0.1-0.4-0.2-0.8c-0.4,0.4-0.9,0.9-2.1,0.9c-1,0-1.9-0.5-1.9-1.9
				c0-1.2,0.8-1.9,1.9-2l1.5-0.2c0.3,0,0.6-0.1,0.6-0.5c0-0.7-0.7-0.7-1.1-0.7c-0.8,0-1,0.5-1,0.9h-1.6c0.2-2,1.5-2.2,2.9-2.2
				c0.9,0,2.5,0.3,2.5,1.8V325.5z M216.8,323.6c-0.2,0.1-0.4,0.2-1.1,0.3c-0.6,0.1-1.1,0.3-1.1,1c0,0.6,0.5,0.8,0.8,0.8
				c0.7,0,1.5-0.5,1.5-1.3V323.6z"/>
			<path d="M221.9,320.3h1v1.2h-1v3.5c0,0.4,0,0.5,0.7,0.5c0.1,0,0.2,0,0.3,0v1.3c-0.3,0-0.5,0-0.8,0h-0.2c-1.5,0-1.7-0.6-1.7-1.4
				v-3.9h-0.9v-1.2h0.9v-1.7h1.7V320.3z"/>
			<path d="M226.9,326.9c-1.7,0-3.3-1.1-3.3-3.4s1.5-3.4,3.3-3.4c1.7,0,3.3,1.1,3.3,3.4S228.6,326.9,226.9,326.9z M226.9,321.6
				c-1.3,0-1.5,1.1-1.5,1.9s0.2,1.9,1.5,1.9s1.5-1.1,1.5-1.9S228.2,321.6,226.9,321.6z"/>
			<path d="M239.8,325.5c0,0.8,0.2,0.9,0.4,1v0.3h-1.8c-0.1-0.3-0.1-0.4-0.2-0.8c-0.4,0.4-0.9,0.9-2.1,0.9c-1,0-1.9-0.5-1.9-1.9
				c0-1.2,0.8-1.9,1.9-2l1.5-0.2c0.3,0,0.6-0.1,0.6-0.5c0-0.7-0.7-0.7-1.1-0.7c-0.8,0-1,0.5-1,0.9h-1.6c0.2-2,1.5-2.2,2.9-2.2
				c0.9,0,2.5,0.3,2.5,1.8V325.5z M238.2,323.6c-0.2,0.1-0.4,0.2-1.1,0.3c-0.6,0.1-1.1,0.3-1.1,1c0,0.6,0.5,0.8,0.8,0.8
				c0.7,0,1.5-0.5,1.5-1.3V323.6z"/>
			<path d="M243,326.7h-1.7v-8.6h1.7V326.7z"/>
			<path d="M246.4,326.7h-1.7v-8.6h1.7V326.7z"/>
			<path d="M253.2,325.5c0,0.8,0.2,0.9,0.4,1v0.3h-1.8c-0.1-0.3-0.1-0.4-0.2-0.8c-0.4,0.4-0.9,0.9-2.1,0.9c-1,0-1.9-0.5-1.9-1.9
				c0-1.2,0.8-1.9,1.9-2l1.5-0.2c0.3,0,0.6-0.1,0.6-0.5c0-0.7-0.7-0.7-1.1-0.7c-0.8,0-1,0.5-1,0.9h-1.6c0.2-2,1.5-2.2,2.9-2.2
				c0.9,0,2.5,0.3,2.5,1.8V325.5z M251.5,323.6c-0.2,0.1-0.4,0.2-1.1,0.3c-0.6,0.1-1.1,0.3-1.1,1c0,0.6,0.5,0.8,0.8,0.8
				c0.7,0,1.5-0.5,1.5-1.3V323.6z"/>
			<path d="M267.1,326.7h-1.7v-3.9c0-0.9-0.4-1.3-0.9-1.3c-0.8,0-1.1,0.6-1.1,1.3v3.8h-1.7v-3.8c0-0.5,0-1.3-1-1.3
				c-0.8,0-1,0.6-1,1.2v3.9H258v-6.4h1.6v0.9h0c0.2-0.4,0.7-1.1,1.8-1.1c0.9,0,1.3,0.3,1.8,1c0.2-0.3,0.7-1,1.7-1
				c1.2,0,2.2,0.7,2.2,2.1V326.7z"/>
			<path d="M271.6,326.9c-1.7,0-3.3-1.1-3.3-3.4s1.5-3.4,3.3-3.4s3.3,1.1,3.3,3.4S273.3,326.9,271.6,326.9z M271.6,321.6
				c-1.3,0-1.5,1.1-1.5,1.9s0.2,1.9,1.5,1.9s1.5-1.1,1.5-1.9S272.9,321.6,271.6,321.6z"/>
			<path d="M281.8,326.7h-1.6v-0.8h0c-0.4,0.7-1.2,1-1.8,1c-1.9,0-2.7-1.7-2.7-3.4c0-2.2,1.2-3.3,2.7-3.3c1.1,0,1.6,0.6,1.8,1h0
				v-3.1h1.7V326.7z M278.7,325.5c1.1,0,1.5-0.9,1.5-1.8c0-1-0.3-2.1-1.4-2.1c-1.1,0-1.4,0.9-1.4,2
				C277.4,324.3,277.7,325.5,278.7,325.5z"/>
			<path d="M285.1,319.6h-1.7V318h1.7V319.6z M285.1,320.3v6.4h-1.7v-6.4H285.1z"/>
			<path d="M288.6,326.7h-1.7v-5.2H286v-1.2h0.9v-0.5c0-1.3,0.7-1.8,1.9-1.8c0.5,0,0.7,0,0.9,0v1.4h-0.5c-0.6,0-0.6,0.2-0.6,0.7v0.3
				h1.1v1.2h-1.1V326.7z"/>
			<path d="M292.4,319.6h-1.7V318h1.7V319.6z M292.4,320.3v6.4h-1.7v-6.4H292.4z"/>
			<path d="M299.5,324.4c-0.1,0.7-0.6,2.5-2.9,2.5c-2.4,0-3-1.8-3-3.2c0-2.1,0.9-3.5,3.1-3.5c1,0,2.7,0.5,2.8,2.4h-1.7
				c-0.1-0.4-0.3-1.1-1.1-1c-1.1,0-1.3,1.1-1.3,1.8c0,0.7,0,2.1,1.3,2.1c0.9,0,1.1-0.8,1.1-1.1H299.5z"/>
			<path d="M305.8,325.5c0,0.8,0.2,0.9,0.4,1v0.3h-1.8c-0.1-0.3-0.1-0.4-0.2-0.8c-0.4,0.4-0.9,0.9-2.1,0.9c-1,0-1.9-0.5-1.9-1.9
				c0-1.2,0.8-1.9,1.9-2l1.5-0.2c0.3,0,0.6-0.1,0.6-0.5c0-0.7-0.7-0.7-1.1-0.7c-0.8,0-1,0.5-1,0.9h-1.6c0.2-2,1.5-2.2,2.9-2.2
				c0.9,0,2.5,0.3,2.5,1.8V325.5z M304.2,323.6c-0.2,0.1-0.4,0.2-1.1,0.3c-0.6,0.1-1.1,0.3-1.1,1c0,0.6,0.5,0.8,0.8,0.8
				c0.7,0,1.5-0.5,1.5-1.3V323.6z"/>
			<path d="M316.5,326.7h-1.6v-0.8h0c-0.4,0.7-1.2,1-1.8,1c-1.9,0-2.7-1.7-2.7-3.4c0-2.2,1.2-3.3,2.7-3.3c1.1,0,1.6,0.6,1.8,1h0
				v-3.1h1.7V326.7z M313.4,325.5c1.1,0,1.5-0.9,1.5-1.8c0-1-0.3-2.1-1.4-2.1c-1.1,0-1.4,0.9-1.4,2
				C312,324.3,312.3,325.5,313.4,325.5z"/>
			<path d="M319.7,319.6h-1.7V318h1.7V319.6z M319.7,320.3v6.4h-1.7v-6.4H319.7z"/>
			<path d="M326.6,320.3h1v1.2h-1v3.5c0,0.4,0,0.5,0.7,0.5c0.1,0,0.2,0,0.3,0v1.3c-0.3,0-0.5,0-0.8,0h-0.2c-1.5,0-1.7-0.6-1.7-1.4
				v-3.9H324v-1.2h0.9v-1.7h1.7V320.3z"/>
			<path d="M334.4,326.7h-1.6v-0.9h0c-0.4,0.7-1.1,1.1-1.9,1.1c-1.3,0-2.2-0.7-2.2-2.4v-4.2h1.7v4c0,1,0.6,1.2,1.1,1.2
				c0.6,0,1.3-0.3,1.3-1.5v-3.7h1.7V326.7z"/>
			<path d="M337.9,320.3h1v1.2h-1v3.5c0,0.4,0,0.5,0.7,0.5c0.1,0,0.2,0,0.3,0v1.3c-0.3,0-0.5,0-0.8,0h-0.2c-1.5,0-1.7-0.6-1.7-1.4
				v-3.9h-0.9v-1.2h0.9v-1.7h1.7V320.3z"/>
			<path d="M341.9,320.3h1v1.2h-1v3.5c0,0.4,0,0.5,0.7,0.5c0.1,0,0.2,0,0.3,0v1.3c-0.3,0-0.5,0-0.8,0h-0.2c-1.5,0-1.7-0.6-1.7-1.4
				v-3.9h-0.9v-1.2h0.9v-1.7h1.7V320.3z"/>
			<path d="M349.5,324.8c-0.4,1.5-1.7,2-2.8,2c-1.8,0-3.2-0.9-3.2-3.5c0-0.8,0.3-3.2,3.1-3.2c1.3,0,3,0.6,3,3.5v0.3h-4.4
				c0,0.5,0.1,1.6,1.5,1.6c0.5,0,0.9-0.2,1.1-0.7H349.5z M347.8,322.9c-0.1-1-0.8-1.3-1.3-1.3c-0.8,0-1.2,0.5-1.3,1.3H347.8z"/>
			<path d="M7,341.1H5.3v-8.6H7V341.1z"/>
			<path d="M14.1,339.2c-0.4,1.5-1.7,2-2.8,2c-1.8,0-3.2-0.9-3.2-3.5c0-0.8,0.3-3.2,3.1-3.2c1.3,0,3,0.6,3,3.5v0.3H9.8
				c0,0.5,0.1,1.6,1.5,1.6c0.5,0,0.9-0.2,1.1-0.7H14.1z M12.4,337.3c-0.1-1-0.8-1.3-1.3-1.3c-0.8,0-1.2,0.5-1.3,1.3H12.4z"/>
			<path d="M24.1,338.8c-0.1,0.7-0.6,2.5-2.9,2.5c-2.4,0-3-1.8-3-3.2c0-2.1,0.9-3.5,3.1-3.5c1,0,2.7,0.5,2.8,2.4h-1.7
				c-0.1-0.4-0.3-1.1-1.1-1c-1.1,0-1.3,1.1-1.3,1.8c0,0.7,0,2.1,1.3,2.1c0.9,0,1.1-0.8,1.1-1.1H24.1z"/>
			<path d="M30.5,339.9c0,0.8,0.2,0.9,0.4,1v0.3H29c-0.1-0.3-0.1-0.4-0.2-0.8c-0.4,0.4-0.9,0.9-2.1,0.9c-1,0-1.9-0.5-1.9-1.9
				c0-1.2,0.8-1.9,1.9-2l1.5-0.2c0.3,0,0.6-0.1,0.6-0.5c0-0.7-0.7-0.7-1.1-0.7c-0.8,0-1,0.5-1,0.9h-1.6c0.2-2,1.5-2.2,2.9-2.2
				c0.9,0,2.5,0.3,2.5,1.8V339.9z M28.8,338c-0.2,0.1-0.4,0.2-1.1,0.3c-0.6,0.1-1.1,0.3-1.1,1c0,0.6,0.5,0.8,0.8,0.8
				c0.7,0,1.5-0.5,1.5-1.3V338z"/>
			<path d="M32,334.7h1.6v1.1h0c0.3-0.6,0.7-1.3,1.8-1.3c0.1,0,0.2,0,0.3,0v1.7c-0.1,0-0.3,0-0.5,0c-1.3,0-1.5,0.8-1.5,1.5v3.3H32
				V334.7z"/>
			<path d="M38.8,334.7h1v1.2h-1v3.5c0,0.4,0,0.5,0.7,0.5c0.1,0,0.2,0,0.3,0v1.3c-0.3,0-0.5,0-0.8,0h-0.2c-1.5,0-1.7-0.6-1.7-1.4
				v-3.9h-0.9v-1.2h0.9V333h1.7V334.7z"/>
			<path d="M46.4,339.2c-0.4,1.5-1.7,2-2.8,2c-1.8,0-3.2-0.9-3.2-3.5c0-0.8,0.3-3.2,3.1-3.2c1.3,0,3,0.6,3,3.5v0.3H42
				c0,0.5,0.1,1.6,1.5,1.6c0.5,0,0.9-0.2,1.1-0.7H46.4z M44.7,337.3c-0.1-1-0.8-1.3-1.3-1.3c-0.8,0-1.2,0.5-1.3,1.3H44.7z"/>
			<path d="M49.3,341.1h-1.7v-8.6h1.7V341.1z"/>
			<path d="M52.6,341.1h-1.7v-8.6h1.7V341.1z"/>
			<path d="M59.7,339.2c-0.4,1.5-1.7,2-2.8,2c-1.8,0-3.2-0.9-3.2-3.5c0-0.8,0.3-3.2,3.1-3.2c1.3,0,3,0.6,3,3.5v0.3h-4.4
				c0,0.5,0.1,1.6,1.5,1.6c0.5,0,0.9-0.2,1.1-0.7H59.7z M58,337.3c-0.1-1-0.8-1.3-1.3-1.3c-0.8,0-1.2,0.5-1.3,1.3H58z"/>
			<path d="M67.8,336.7c-0.1-0.4-0.2-0.8-1.1-0.8s-1,0.3-1,0.6c0,1,4,0.3,4,2.6c0,1.9-1.8,2.2-2.8,2.2c-1.5,0-3-0.5-3.1-2.2h1.7
				c0,0.5,0.3,0.9,1.4,0.9c0.9,0,1.1-0.4,1.1-0.7c0-1.1-4-0.3-4-2.7c0-0.9,0.6-2.1,2.6-2.1c1.2,0,2.7,0.3,2.9,2.1H67.8z"/>
			<path d="M76.4,339.2c-0.4,1.5-1.7,2-2.8,2c-1.8,0-3.2-0.9-3.2-3.5c0-0.8,0.3-3.2,3.1-3.2c1.3,0,3,0.6,3,3.5v0.3h-4.4
				c0,0.5,0.1,1.6,1.5,1.6c0.5,0,0.9-0.2,1.1-0.7H76.4z M74.7,337.3c-0.1-1-0.8-1.3-1.3-1.3c-0.8,0-1.2,0.5-1.3,1.3H74.7z"/>
			<path d="M83.1,338.8c-0.1,0.7-0.6,2.5-2.9,2.5c-2.4,0-3-1.8-3-3.2c0-2.1,0.9-3.5,3.1-3.5c1,0,2.7,0.5,2.8,2.4h-1.7
				c-0.1-0.4-0.3-1.1-1.1-1c-1.1,0-1.3,1.1-1.3,1.8c0,0.7,0,2.1,1.3,2.1c0.9,0,1.1-0.8,1.1-1.1H83.1z"/>
			<path d="M87.1,341.3c-1.7,0-3.3-1.1-3.3-3.4s1.5-3.4,3.3-3.4c1.7,0,3.3,1.1,3.3,3.4S88.8,341.3,87.1,341.3z M87.1,336
				c-1.3,0-1.5,1.1-1.5,1.9s0.2,1.9,1.5,1.9s1.5-1.1,1.5-1.9S88.4,336,87.1,336z"/>
			<path d="M97.3,341.1h-1.7v-3.9c0-0.5,0-1.3-1.1-1.3c-0.7,0-1.3,0.5-1.3,1.5v3.7h-1.7v-6.4h1.6v0.9h0c0.2-0.4,0.7-1.1,1.9-1.1
				c1.2,0,2.2,0.7,2.2,2.1V341.1z"/>
			<path d="M104.7,341.1h-1.6v-0.8h0c-0.4,0.7-1.2,1-1.8,1c-1.9,0-2.7-1.7-2.7-3.4c0-2.2,1.2-3.3,2.7-3.3c1.1,0,1.6,0.6,1.8,1h0
				v-3.1h1.7V341.1z M101.6,339.9c1.1,0,1.5-0.9,1.5-1.8c0-1-0.3-2.1-1.4-2.1c-1.1,0-1.4,0.9-1.4,2
				C100.3,338.7,100.6,339.9,101.6,339.9z"/>
			<path d="M111.4,339.9c0,0.8,0.2,0.9,0.4,1v0.3H110c-0.1-0.3-0.1-0.4-0.2-0.8c-0.4,0.4-0.9,0.9-2.1,0.9c-1,0-1.9-0.5-1.9-1.9
				c0-1.2,0.8-1.9,1.9-2l1.5-0.2c0.3,0,0.6-0.1,0.6-0.5c0-0.7-0.7-0.7-1.1-0.7c-0.8,0-1,0.5-1,0.9H106c0.2-2,1.5-2.2,2.9-2.2
				c0.9,0,2.5,0.3,2.5,1.8V339.9z M109.8,338c-0.2,0.1-0.4,0.2-1.1,0.3c-0.6,0.1-1.1,0.3-1.1,1c0,0.6,0.5,0.8,0.8,0.8
				c0.7,0,1.5-0.5,1.5-1.3V338z"/>
			<path d="M112.9,334.7h1.6v1.1h0c0.3-0.6,0.7-1.3,1.8-1.3c0.1,0,0.2,0,0.3,0v1.7c-0.1,0-0.3,0-0.5,0c-1.3,0-1.5,0.8-1.5,1.5v3.3
				h-1.7V334.7z"/>
			<path d="M119.3,334h-1.7v-1.6h1.7V334z M119.3,334.7v6.4h-1.7v-6.4H119.3z"/>
			<path d="M126.4,339.2c-0.4,1.5-1.7,2-2.8,2c-1.8,0-3.2-0.9-3.2-3.5c0-0.8,0.3-3.2,3.1-3.2c1.3,0,3,0.6,3,3.5v0.3h-4.4
				c0,0.5,0.1,1.6,1.5,1.6c0.5,0,0.9-0.2,1.1-0.7H126.4z M124.7,337.3c-0.1-1-0.8-1.3-1.3-1.3c-0.8,0-1.2,0.5-1.3,1.3H124.7z"/>
			<path d="M136.1,339.9c0,0.8,0.2,0.9,0.4,1v0.3h-1.8c-0.1-0.3-0.1-0.4-0.2-0.8c-0.4,0.4-0.9,0.9-2.1,0.9c-1,0-1.9-0.5-1.9-1.9
				c0-1.2,0.8-1.9,1.9-2l1.5-0.2c0.3,0,0.6-0.1,0.6-0.5c0-0.7-0.7-0.7-1.1-0.7c-0.8,0-1,0.5-1,0.9h-1.6c0.2-2,1.5-2.2,2.9-2.2
				c0.9,0,2.5,0.3,2.5,1.8V339.9z M134.4,338c-0.2,0.1-0.4,0.2-1.1,0.3c-0.6,0.1-1.1,0.3-1.1,1c0,0.6,0.5,0.8,0.8,0.8
				c0.7,0,1.5-0.5,1.5-1.3V338z"/>
			<path d="M139.3,341.1h-1.7v-8.6h1.7V341.1z"/>
			<path d="M142.7,341.1H141v-8.6h1.7V341.1z"/>
			<path d="M144.3,332.5h1.7v1.2c0,1.5-1,1.9-1.6,2.1v-0.6c0.8-0.3,0.9-0.7,0.9-1.1h-0.9V332.5z"/>
			<path d="M149.3,334h-1.7v-1.6h1.7V334z M149.3,334.7v6.4h-1.7v-6.4H149.3z"/>
			<path d="M156.7,341.1H155v-3.9c0-0.5,0-1.3-1.1-1.3c-0.7,0-1.3,0.5-1.3,1.5v3.7h-1.7v-6.4h1.6v0.9h0c0.2-0.4,0.7-1.1,1.9-1.1
				c1.2,0,2.2,0.7,2.2,2.1V341.1z"/>
			<path d="M160.1,334.7h1v1.2h-1v3.5c0,0.4,0,0.5,0.7,0.5c0.1,0,0.2,0,0.3,0v1.3c-0.3,0-0.5,0-0.8,0h-0.2c-1.5,0-1.7-0.6-1.7-1.4
				v-3.9h-0.9v-1.2h0.9V333h1.7V334.7z"/>
			<path d="M167.7,339.2c-0.4,1.5-1.7,2-2.8,2c-1.8,0-3.2-0.9-3.2-3.5c0-0.8,0.3-3.2,3.1-3.2c1.3,0,3,0.6,3,3.5v0.3h-4.4
				c0,0.5,0.1,1.6,1.5,1.6c0.5,0,0.9-0.2,1.1-0.7H167.7z M166.1,337.3c-0.1-1-0.8-1.3-1.3-1.3c-0.8,0-1.2,0.5-1.3,1.3H166.1z"/>
			<path d="M168.9,334.7h1.6v1.1h0c0.3-0.6,0.7-1.3,1.8-1.3c0.1,0,0.2,0,0.3,0v1.7c-0.1,0-0.3,0-0.5,0c-1.3,0-1.5,0.8-1.5,1.5v3.3
				h-1.7V334.7z"/>
			<path d="M179.4,341.1h-1.7v-3.9c0-0.5,0-1.3-1.1-1.3c-0.7,0-1.3,0.5-1.3,1.5v3.7h-1.7v-6.4h1.6v0.9h0c0.2-0.4,0.7-1.1,1.9-1.1
				c1.2,0,2.2,0.7,2.2,2.1V341.1z"/>
			<path d="M183.8,341.3c-1.7,0-3.3-1.1-3.3-3.4s1.5-3.4,3.3-3.4c1.7,0,3.3,1.1,3.3,3.4S185.5,341.3,183.8,341.3z M183.8,336
				c-1.3,0-1.5,1.1-1.5,1.9s0.2,1.9,1.5,1.9s1.5-1.1,1.5-1.9S185.1,336,183.8,336z"/>
			<path d="M197.4,341.1h-1.6v-0.8h0c-0.4,0.7-1.2,1-1.8,1c-1.9,0-2.7-1.7-2.7-3.4c0-2.2,1.2-3.3,2.7-3.3c1.1,0,1.6,0.6,1.8,1h0
				v-3.1h1.7V341.1z M194.3,339.9c1.1,0,1.5-0.9,1.5-1.8c0-1-0.3-2.1-1.4-2.1c-1.1,0-1.4,0.9-1.4,2
				C193,338.7,193.3,339.9,194.3,339.9z"/>
			<path d="M204.4,339.2c-0.4,1.5-1.7,2-2.8,2c-1.8,0-3.2-0.9-3.2-3.5c0-0.8,0.3-3.2,3.1-3.2c1.3,0,3,0.6,3,3.5v0.3h-4.4
				c0,0.5,0.1,1.6,1.5,1.6c0.5,0,0.9-0.2,1.1-0.7H204.4z M202.8,337.3c-0.1-1-0.8-1.3-1.3-1.3c-0.8,0-1.2,0.5-1.3,1.3H202.8z"/>
			<path d="M207.3,341.1h-1.7v-8.6h1.7V341.1z"/>
			<path d="M210.7,341.1H209v-8.6h1.7V341.1z"/>
			<path d="M217.4,339.9c0,0.8,0.2,0.9,0.4,1v0.3H216c-0.1-0.3-0.1-0.4-0.2-0.8c-0.4,0.4-0.9,0.9-2.1,0.9c-1,0-1.9-0.5-1.9-1.9
				c0-1.2,0.8-1.9,1.9-2l1.5-0.2c0.3,0,0.6-0.1,0.6-0.5c0-0.7-0.7-0.7-1.1-0.7c-0.8,0-1,0.5-1,0.9H212c0.2-2,1.5-2.2,2.9-2.2
				c0.9,0,2.5,0.3,2.5,1.8V339.9z M215.8,338c-0.2,0.1-0.4,0.2-1.1,0.3c-0.6,0.1-1.1,0.3-1.1,1c0,0.6,0.5,0.8,0.8,0.8
				c0.7,0,1.5-0.5,1.5-1.3V338z"/>
			<path d="M227.8,338.8c-0.1,0.7-0.6,2.5-2.9,2.5c-2.4,0-3-1.8-3-3.2c0-2.1,0.9-3.5,3.1-3.5c1,0,2.7,0.5,2.8,2.4h-1.7
				c-0.1-0.4-0.3-1.1-1.1-1c-1.1,0-1.3,1.1-1.3,1.8c0,0.7,0,2.1,1.3,2.1c0.9,0,1.1-0.8,1.1-1.1H227.8z"/>
			<path d="M234.1,339.9c0,0.8,0.2,0.9,0.4,1v0.3h-1.8c-0.1-0.3-0.1-0.4-0.2-0.8c-0.4,0.4-0.9,0.9-2.1,0.9c-1,0-1.9-0.5-1.9-1.9
				c0-1.2,0.8-1.9,1.9-2l1.5-0.2c0.3,0,0.6-0.1,0.6-0.5c0-0.7-0.7-0.7-1.1-0.7c-0.8,0-1,0.5-1,0.9h-1.6c0.2-2,1.5-2.2,2.9-2.2
				c0.9,0,2.5,0.3,2.5,1.8V339.9z M232.5,338c-0.2,0.1-0.4,0.2-1.1,0.3c-0.6,0.1-1.1,0.3-1.1,1c0,0.6,0.5,0.8,0.8,0.8
				c0.7,0,1.5-0.5,1.5-1.3V338z"/>
			<path d="M235.6,334.7h1.6v1.1h0c0.3-0.6,0.7-1.3,1.8-1.3c0.1,0,0.2,0,0.3,0v1.7c-0.1,0-0.3,0-0.5,0c-1.3,0-1.5,0.8-1.5,1.5v3.3
				h-1.7V334.7z"/>
			<path d="M242.4,334.7h1v1.2h-1v3.5c0,0.4,0,0.5,0.7,0.5c0.1,0,0.2,0,0.3,0v1.3c-0.3,0-0.5,0-0.8,0h-0.2c-1.5,0-1.7-0.6-1.7-1.4
				v-3.9h-0.9v-1.2h0.9V333h1.7V334.7z"/>
			<path d="M250,339.2c-0.4,1.5-1.7,2-2.8,2c-1.8,0-3.2-0.9-3.2-3.5c0-0.8,0.3-3.2,3.1-3.2c1.3,0,3,0.6,3,3.5v0.3h-4.4
				c0,0.5,0.1,1.6,1.5,1.6c0.5,0,0.9-0.2,1.1-0.7H250z M248.4,337.3c-0.1-1-0.8-1.3-1.3-1.3c-0.8,0-1.2,0.5-1.3,1.3H248.4z"/>
			<path d="M252.9,341.1h-1.7v-8.6h1.7V341.1z"/>
			<path d="M256.3,341.1h-1.7v-8.6h1.7V341.1z"/>
			<path d="M263,339.9c0,0.8,0.2,0.9,0.4,1v0.3h-1.8c-0.1-0.3-0.1-0.4-0.2-0.8c-0.4,0.4-0.9,0.9-2.1,0.9c-1,0-1.9-0.5-1.9-1.9
				c0-1.2,0.8-1.9,1.9-2l1.5-0.2c0.3,0,0.6-0.1,0.6-0.5c0-0.7-0.7-0.7-1.1-0.7c-0.8,0-1,0.5-1,0.9h-1.6c0.2-2,1.5-2.2,2.9-2.2
				c0.9,0,2.5,0.3,2.5,1.8V339.9z M261.4,338c-0.2,0.1-0.4,0.2-1.1,0.3c-0.6,0.1-1.1,0.3-1.1,1c0,0.6,0.5,0.8,0.8,0.8
				c0.7,0,1.5-0.5,1.5-1.3V338z"/>
			<path d="M276.3,341.1h-1.7v-7.2h0l-1.6,7.2h-1.8l-1.6-7.2h0v7.2h-1.7v-8.6h2.6l1.6,6.8h0l1.5-6.8h2.6V341.1z"/>
			<path d="M283,339.9c0,0.8,0.2,0.9,0.4,1v0.3h-1.8c-0.1-0.3-0.1-0.4-0.2-0.8c-0.4,0.4-0.9,0.9-2.1,0.9c-1,0-1.9-0.5-1.9-1.9
				c0-1.2,0.8-1.9,1.9-2l1.5-0.2c0.3,0,0.6-0.1,0.6-0.5c0-0.7-0.7-0.7-1.1-0.7c-0.8,0-1,0.5-1,0.9h-1.6c0.2-2,1.5-2.2,2.9-2.2
				c0.9,0,2.5,0.3,2.5,1.8V339.9z M281.4,338c-0.2,0.1-0.4,0.2-1.1,0.3c-0.6,0.1-1.1,0.3-1.1,1c0,0.6,0.5,0.8,0.8,0.8
				c0.7,0,1.5-0.5,1.5-1.3V338z"/>
			<path d="M284.5,334.7h1.6v1.1h0c0.3-0.6,0.7-1.3,1.8-1.3c0.1,0,0.2,0,0.3,0v1.7c-0.1,0-0.3,0-0.5,0c-1.3,0-1.5,0.8-1.5,1.5v3.3
				h-1.7V334.7z"/>
			<path d="M290.9,341.1h-1.7v-8.6h1.7v4.7l2.1-2.4h2.1l-2.3,2.5l2.3,3.9h-2l-1.5-2.7l-0.7,0.7V341.1z"/>
			<path d="M301.4,339.2c-0.4,1.5-1.7,2-2.8,2c-1.8,0-3.2-0.9-3.2-3.5c0-0.8,0.3-3.2,3.1-3.2c1.3,0,3,0.6,3,3.5v0.3h-4.4
				c0,0.5,0.1,1.6,1.5,1.6c0.5,0,0.9-0.2,1.1-0.7H301.4z M299.7,337.3c-0.1-1-0.8-1.3-1.3-1.3c-0.8,0-1.2,0.5-1.3,1.3H299.7z"/>
			<path d="M304.4,334.7h1v1.2h-1v3.5c0,0.4,0,0.5,0.7,0.5c0.1,0,0.2,0,0.3,0v1.3c-0.3,0-0.5,0-0.8,0h-0.2c-1.5,0-1.7-0.6-1.7-1.4
				v-3.9h-0.9v-1.2h0.9V333h1.7V334.7z"/>
			<path d="M308.3,334h-1.7v-1.6h1.7V334z M308.3,334.7v6.4h-1.7v-6.4H308.3z"/>
			<path d="M315.7,341.1H314v-3.9c0-0.5,0-1.3-1.1-1.3c-0.7,0-1.3,0.5-1.3,1.5v3.7h-1.7v-6.4h1.6v0.9h0c0.2-0.4,0.7-1.1,1.9-1.1
				c1.2,0,2.2,0.7,2.2,2.1V341.1z"/>
			<path d="M323.1,334.7v6c0,1.1-0.1,2.9-3.2,2.9c-1.3,0-2.7-0.6-2.8-1.9h1.8c0.1,0.3,0.2,0.6,1.2,0.6c0.9,0,1.3-0.4,1.3-1.5v-0.8
				l0,0c-0.3,0.5-0.7,1-1.7,1c-1.5,0-2.7-1.1-2.7-3.3c0-2.2,1.2-3.3,2.7-3.3c1.2,0,1.7,0.7,1.9,1.1h0v-0.9H323.1z M320,339.7
				c1.1,0,1.4-1,1.4-1.8c0-1-0.5-1.9-1.4-1.9c-0.6,0-1.3,0.5-1.3,1.9C318.7,338.8,319,339.7,320,339.7z"/>
			<path d="M326.3,341.1h-1.8v-1.8h1.8V341.1z"/>
		</g>
	</g>
</g>
<path pointer-events="stroke" class="st3" d="M200.5,99.5v53.6"/>
<path pointer-events="all" class="st4" d="M200.5,158.4l-3.5-7l3.5,1.8l3.5-1.8L200.5,158.4z"/>
<rect x="153.5" y="2.5" pointer-events="all" class="st5" width="90" height="70"/>
<path pointer-events="all" class="st6" d="M201.2,11.8l10.3-8.2c0.9-0.7,2-1.1,3.3-1.1h23.3c2.4,0,5.3,1.7,5.3,4.7v4.6H201.2z
	 M153.5,72.5V19.9c0-2.6,2.7-4.5,5.3-4.5h84.7v57.2H153.5z"/>
<g transform="translate(-0.5 -0.5)">
	<g class="st2">
		<path d="M179.2,91.5h-1.8v-8.6h6.1v1.5h-4.3v1.9h3.8v1.5h-3.8V91.5z"/>
		<path d="M190.4,91.5h-1.6v-0.9h0c-0.4,0.7-1.1,1.1-1.9,1.1c-1.3,0-2.2-0.7-2.2-2.4v-4.2h1.7v4c0,1,0.6,1.2,1.1,1.2
			c0.6,0,1.3-0.3,1.3-1.5v-3.7h1.7V91.5z"/>
		<path d="M197.7,91.5H196v-3.9c0-0.5,0-1.3-1.1-1.3c-0.7,0-1.3,0.5-1.3,1.5v3.7h-1.7v-6.4h1.6v0.9h0c0.2-0.4,0.7-1.1,1.9-1.1
			c1.2,0,2.2,0.7,2.2,2.1V91.5z"/>
		<path d="M200.9,90.1h3.3v1.4h-5.5v-1.3l3.3-3.7h-3v-1.3h5.2v1.4L200.9,90.1z"/>
		<path d="M207,84.4h-1.7v-1.6h1.7V84.4z M207,85.1v6.4h-1.7v-6.4H207z"/>
		<path d="M211.5,91.7c-1.7,0-3.3-1.1-3.3-3.4s1.5-3.4,3.3-3.4c1.7,0,3.3,1.1,3.3,3.4S213.2,91.7,211.5,91.7z M211.5,86.4
			c-1.3,0-1.5,1.1-1.5,1.9s0.2,1.9,1.5,1.9s1.5-1.1,1.5-1.9S212.8,86.4,211.5,86.4z"/>
		<path d="M221.7,91.5H220v-3.9c0-0.5,0-1.3-1.1-1.3c-0.7,0-1.3,0.5-1.3,1.5v3.7h-1.7v-6.4h1.6v0.9h0c0.2-0.4,0.7-1.1,1.9-1.1
			c1.2,0,2.2,0.7,2.2,2.1V91.5z"/>
		<path d="M225,84.4h-1.7v-1.6h1.7V84.4z M225,85.1v6.4h-1.7v-6.4H225z"/>
	</g>
</g>
<rect x="148.5" y="167.5" pointer-events="all" class="st5" width="90" height="70"/>
<path pointer-events="all" class="st6" d="M196.2,176.8l10.3-8.2c0.9-0.7,2-1.1,3.3-1.1h23.3c2.4,0,5.3,1.7,5.3,4.7v4.6H196.2z
	 M148.5,237.5v-52.6c0-2.6,2.7-4.6,5.3-4.6h84.7v57.2H148.5z"/>
<g transform="translate(-0.5 -0.5)">
	<g class="st2">
		<path d="M176.4,256.5h-1.7v-7.2h0l-1.6,7.2h-1.8l-1.6-7.2h0v7.2H168v-8.6h2.6l1.6,6.8h0l1.5-6.8h2.6V256.5z"/>
		<path d="M183.1,255.3c0,0.8,0.2,0.9,0.4,1v0.3h-1.8c-0.1-0.3-0.1-0.4-0.2-0.8c-0.4,0.4-0.9,0.9-2.1,0.9c-1,0-1.9-0.5-1.9-1.9
			c0-1.2,0.8-1.9,1.9-2l1.5-0.2c0.3,0,0.6-0.1,0.6-0.5c0-0.7-0.7-0.7-1.1-0.7c-0.8,0-1,0.5-1,0.9h-1.6c0.2-2,1.5-2.2,2.9-2.2
			c0.9,0,2.5,0.3,2.5,1.8V255.3z M181.5,253.4c-0.2,0.1-0.4,0.2-1.1,0.3c-0.6,0.1-1.1,0.3-1.1,1c0,0.6,0.5,0.8,0.8,0.8
			c0.7,0,1.5-0.5,1.5-1.3V253.4z"/>
		<path d="M184.6,250.1h1.6v1.1h0c0.3-0.6,0.7-1.3,1.8-1.3c0.1,0,0.2,0,0.3,0v1.7c-0.1,0-0.3,0-0.5,0c-1.3,0-1.5,0.8-1.5,1.5v3.3
			h-1.7V250.1z"/>
		<path d="M191,256.5h-1.7v-8.6h1.7v4.7l2.1-2.4h2.1l-2.3,2.5l2.3,3.9h-2l-1.5-2.7l-0.7,0.7V256.5z"/>
		<path d="M201.5,254.6c-0.4,1.5-1.7,2-2.8,2c-1.8,0-3.2-0.9-3.2-3.5c0-0.8,0.3-3.2,3.1-3.2c1.3,0,3,0.6,3,3.5v0.3h-4.4
			c0,0.5,0.1,1.6,1.5,1.6c0.5,0,0.9-0.2,1.1-0.7H201.5z M199.8,252.7c-0.1-1-0.8-1.3-1.3-1.3c-0.8,0-1.2,0.5-1.3,1.3H199.8z"/>
		<path d="M204.5,250.1h1v1.2h-1v3.5c0,0.4,0,0.5,0.7,0.5c0.1,0,0.2,0,0.3,0v1.3c-0.3,0-0.5,0-0.8,0h-0.2c-1.5,0-1.7-0.6-1.7-1.4
			v-3.9H202v-1.2h0.9v-1.7h1.7V250.1z"/>
		<path d="M208.4,249.4h-1.7v-1.6h1.7V249.4z M208.4,250.1v6.4h-1.7v-6.4H208.4z"/>
		<path d="M215.8,256.5h-1.7v-3.9c0-0.5,0-1.3-1.1-1.3c-0.7,0-1.3,0.5-1.3,1.5v3.7H210v-6.4h1.6v0.9h0c0.2-0.4,0.7-1.1,1.9-1.1
			c1.2,0,2.2,0.7,2.2,2.1V256.5z"/>
		<path d="M223.2,250.1v6c0,1.1-0.1,2.9-3.2,2.9c-1.3,0-2.7-0.6-2.8-1.9h1.8c0.1,0.3,0.2,0.6,1.2,0.6c0.9,0,1.3-0.4,1.3-1.5v-0.8
			l0,0c-0.3,0.5-0.7,1-1.7,1c-1.5,0-2.7-1.1-2.7-3.3c0-2.2,1.2-3.3,2.7-3.3c1.2,0,1.7,0.7,1.9,1.1h0v-0.9H223.2z M220.1,255.1
			c1.1,0,1.4-1,1.4-1.8c0-1-0.5-1.9-1.4-1.9c-0.6,0-1.3,0.5-1.3,1.9C218.7,254.2,219.1,255.1,220.1,255.1z"/>
	</g>
</g>
</svg>
